<svg xmlns="http://www.w3.org/2000/svg" viewBox="0 0 137.11 11.32"><defs><style>.cls-1{fill:#1d1d1b;}</style></defs><g id="Layer_2" data-name="Layer 2"><g id="Layer_1-2" data-name="Layer 1"><path class="cls-1" d="M3.75,1.86a3.05,3.05,0,0,1,.6.06A1.57,1.57,0,0,1,5.6,3.5,1.55,1.55,0,0,1,4.35,5.07h0C2.56,5.44.29,3.93.19,3.86A.44.44,0,0,1,0,3.5a.44.44,0,0,1,.19-.37A7.65,7.65,0,0,1,3.75,1.86Z"/><path class="cls-1" d="M136.91,3.13a.43.43,0,0,1,0,.73c-.09.07-2.37,1.58-4.15,1.21h0a1.55,1.55,0,0,1-1.25-1.57,1.57,1.57,0,0,1,1.25-1.58,2.88,2.88,0,0,1,.59-.06A7.55,7.55,0,0,1,136.91,3.13Z"/><path class="cls-1" d="M103,3c-6.24,0-17.41.29-17.48.24A16.84,16.84,0,0,0,72.05.41,7.26,7.26,0,0,0,69,2.2,7.19,7.19,0,0,0,66,.41,16.84,16.84,0,0,0,52.46,3.24C52.4,3.29,41.22,3,35,3,20.18,3,2.8,3.46,2.8,3.58s17.22.57,32,.51c6.8,0,17.68.11,18-.47h0a21,21,0,0,1,5-2.49c7.11-1.62,9.62.79,10.59,1.94a4.87,4.87,0,0,0-.14,4.7.71.71,0,0,1,.07.09,3.08,3.08,0,0,1-4.57-.3C62.53,5.4,64,3.69,65.07,3.75c1.52.08,1.38,1.15,1.35,1.5a.94.94,0,0,1-.55.78c-.26.13-.61.53-.48.8a.87.87,0,0,0,1.22.3,1.74,1.74,0,0,0,.84-1.79c-.08-.79-.39-2.78-2.8-2.26-.67.15-2.59,1.19-1.74,4.19l-2.2-1.33a3.16,3.16,0,0,1-1.34-1.68,1.16,1.16,0,0,1,.39-1.33.67.67,0,0,1,.72.16c.16.19,0,.49-.13.72-.33.53.47,1.21,1.06.6a1.48,1.48,0,0,0-.07-2.1,1.69,1.69,0,0,0-2.12,0c-.4.35-1.13,1.59.38,3.22a4.68,4.68,0,0,0-3.54-.74A3.11,3.11,0,0,0,53.59,7.7,3.77,3.77,0,0,0,55.32,11a2.82,2.82,0,0,0,2.79,0c1.32-1,1.31-3.79-.72-3.87A1.75,1.75,0,0,0,55.8,8c-.33.89.25,1.16.5,1.21,1,.19.87-1.19,1.59-.54.36.33.1,1.12-.33,1.48a1.81,1.81,0,0,1-1.72.2,2.61,2.61,0,0,1,.22-4.92,4.19,4.19,0,0,1,2.44.09c1.84.74,4.91,3.12,6,3.57a4.2,4.2,0,0,0,.75.33,4.34,4.34,0,0,0,1.26.17,3.76,3.76,0,0,0,2.48-1,3.78,3.78,0,0,0,2.48,1,4.29,4.29,0,0,0,1.26-.17,3.66,3.66,0,0,0,.75-.33c1.11-.45,4.18-2.83,6-3.57a4.19,4.19,0,0,1,2.44-.09,2.61,2.61,0,0,1,.22,4.92,1.79,1.79,0,0,1-1.71-.2c-.43-.36-.7-1.15-.33-1.48.72-.65.63.73,1.58.54.25-.05.83-.32.5-1.21a1.73,1.73,0,0,0-1.58-1c-2,.08-2.05,2.85-.73,3.87a2.82,2.82,0,0,0,2.79,0A3.75,3.75,0,0,0,84.41,7.7,3.11,3.11,0,0,0,82,4.77a4.72,4.72,0,0,0-3.55.74c1.51-1.63.79-2.87.38-3.22a1.67,1.67,0,0,0-2.11,0,1.48,1.48,0,0,0-.08,2.1c.6.61,1.39-.07,1.06-.6-.14-.23-.28-.53-.13-.72a.67.67,0,0,1,.72-.16,1.15,1.15,0,0,1,.39,1.33,3.16,3.16,0,0,1-1.34,1.68l-2.2,1.33c.85-3-1.07-4-1.74-4.19-2.41-.52-2.72,1.47-2.8,2.26a1.76,1.76,0,0,0,.85,1.79.87.87,0,0,0,1.22-.3c.12-.27-.23-.67-.48-.8a1,1,0,0,1-.56-.78c0-.35-.17-1.42,1.35-1.5C74,3.69,75.48,5.4,74.26,7.56a3.07,3.07,0,0,1-4.56.3.7.7,0,0,1,.06-.09,4.89,4.89,0,0,0-.13-4.7c1-1.15,3.47-3.56,10.58-1.94a21.28,21.28,0,0,1,5,2.49h0c.29.58,11.17.44,18,.47,14.8.06,32-.38,32-.51S117.82,3,103,3ZM69,7A3.27,3.27,0,0,1,69,4,3.27,3.27,0,0,1,69,7Z"/></g></g></svg>