<svg xmlns="http://www.w3.org/2000/svg" viewBox="0 0 355.64 71.06"><defs><style>.cls-1{fill:#231f20;}.cls-2{fill:#030303;}.cls-3{fill:#ec2527;}</style></defs><g id="Layer_2" data-name="Layer 2"><g id="Layer_1-2" data-name="Layer 1"><path class="cls-1" d="M84.35,3.64H82.58V9.85l-.78-.71.06-3.21a1.75,1.75,0,0,0-.34-1,2.38,2.38,0,0,0-.76-.83,1.64,1.64,0,0,0-.88-.29,1.59,1.59,0,0,0-1.56.89,2.1,2.1,0,0,1,.74-.11q1.22,0,1.35,1c.07.45-.35,1.11-1.26,2l-.79-.77A10.81,10.81,0,0,0,79.18,6c.4-.38.6-.62.6-.74S79.65,5,79.41,5a2.46,2.46,0,0,0-.65.25,2,2,0,0,1-.69.25.46.46,0,0,1-.23-.06.89.89,0,0,1-.54-.78,1.4,1.4,0,0,1,.28-.76,1.68,1.68,0,0,1,.64-.58,2.32,2.32,0,0,1,1.07-.23c1.37,0,2.22.46,2.54,1.39l.3.85c0-.35-.06-1-.13-1.79,0-.43-.06-1-.06-1.66l.41.35c-.08.14,0,.35.1.63,0,.07.14.12.31.15h.91Z"/><path class="cls-1" d="M90.52,3.61H88.73V9.67L88,9V5.71a1.76,1.76,0,0,0-.63-1.34,1.72,1.72,0,0,0-1-.49,1.25,1.25,0,0,0-1.1.4,1,1,0,0,0-.33.61,1.19,1.19,0,0,0,.12.68c.12.29.29.44.52.44.06,0,.07,0,.06-.06a1,1,0,0,1-.06-.32c0-.31.22-.46.64-.46a.81.81,0,0,1,.76.46.74.74,0,0,1,.06.28.66.66,0,0,1-.43.61,1.47,1.47,0,0,1-.89.19,1.88,1.88,0,0,1-1.31-.6A1.63,1.63,0,0,1,84,4.83a1.88,1.88,0,0,1,1.63-1.77,3.37,3.37,0,0,1,.5-.05,1.61,1.61,0,0,1,.47.07l.43.23a2.39,2.39,0,0,1,.82.92l.46.81c-.07-.36-.15-.88-.22-1.55a12.61,12.61,0,0,1,0-1.59l.25.23a.48.48,0,0,1,.15.22.72.72,0,0,0,.32.5L89,3h.79Z"/><path class="cls-1" d="M97.87,3.66H96.13v6a7.47,7.47,0,0,1-.73-.62L95.49,6a3,3,0,0,0-.28-.61,1.35,1.35,0,0,0-.5-.53l-2.31,2-1-.32L92,6a.52.52,0,0,0,.1-.52c-.06-.27-.21-.4-.42-.4a6.64,6.64,0,0,0-.85.21.45.45,0,0,1-.39-.13.52.52,0,0,1-.19-.34.56.56,0,0,1,.13-.32,3,3,0,0,1,2.5-1.36,2.54,2.54,0,0,1,1.5.45,2.84,2.84,0,0,1,1,1.1,4,4,0,0,1,.41.94L95.52,4l-.07-1.87.37.23s0,0,0,.06a.6.6,0,0,0,.19.46l.24.13h.43a3.55,3.55,0,0,1,.48,0Zm-3.74.55a3.17,3.17,0,0,0-.39-.28,1.23,1.23,0,0,0-.63-.14,1.65,1.65,0,0,0-1.55.76.75.75,0,0,1,.68.24,1.1,1.1,0,0,1,.31.67.26.26,0,0,1,0,.14Z"/><path class="cls-1" d="M96.16,10.14a2.86,2.86,0,0,1-.44-.59c-.26-.41-.42-.64-.46-.69a2.25,2.25,0,0,0-1.54-.43l-1.61.05A3.1,3.1,0,0,1,91,8.3a1.8,1.8,0,0,1-.86-.64,1.59,1.59,0,0,1-.34-1,3.32,3.32,0,0,1,.08-1l.39.33a.48.48,0,0,0-.07.26c0,.47.29.84.89,1.09a3,3,0,0,0,.89.12l1,0a5.93,5.93,0,0,1,1.6.29,2.53,2.53,0,0,1,.81.59,3.08,3.08,0,0,1,.65.92A2.19,2.19,0,0,1,96.16,10.14Z"/><path class="cls-1" d="M105.93,3.64h-4.25a2.85,2.85,0,0,0-.43.2.26.26,0,0,0-.11.18c0,.18.23.34.69.47a3.25,3.25,0,0,0,.93.13A8.55,8.55,0,0,0,104,4.33l1,.92a3,3,0,0,0-.62.75A2.31,2.31,0,0,0,104,7.21a3.86,3.86,0,0,0-.08.71,4,4,0,0,0,.52,1.71h0L104,9.57a.73.73,0,0,1-.29-.1q0-.13-.3-1.11a5.39,5.39,0,0,1-.23-1.3,4.48,4.48,0,0,1,.42-1.75,6.54,6.54,0,0,1-1.4-.16A2.44,2.44,0,0,1,101,4.61s-.16-.19-.39-.45h-.06c-.19,0-.42.18-.68.54a1.68,1.68,0,0,0-.4.84c0,.27.17.4.51.4a4.15,4.15,0,0,0,1.15-.39l.32-.13a.13.13,0,0,1,.1,0c.06,0,.19.09.41.33a2.2,2.2,0,0,1,.56.94,1.2,1.2,0,0,1,0,.75,1.65,1.65,0,0,1-1,1.06,1.94,1.94,0,0,1-.8.16,2.67,2.67,0,0,1-2.06-1,4,4,0,0,1-.72-1.26,6.94,6.94,0,0,1-.26-2.28,1.67,1.67,0,0,1,.39.19,3.7,3.7,0,0,0,.42,2,2.85,2.85,0,0,0,1.28,1.21,1.52,1.52,0,0,0,.79.16,3.15,3.15,0,0,0,1-.2c.38-.15.58-.35.58-.61a.53.53,0,0,0-.1-.29.28.28,0,0,0-.27-.2.68.68,0,0,0-.17,0,3.33,3.33,0,0,1-1.08.24,1.72,1.72,0,0,1-.68-.14,1.64,1.64,0,0,1-.85-1,1.3,1.3,0,0,1,0-.83A2.92,2.92,0,0,1,99.49,4l.37-.34H97.15L96.47,3h8.79Z"/><path class="cls-1" d="M108.69,3.64H107V9.88l-.66-.62V4.82a.93.93,0,0,0-.19-.63A1.32,1.32,0,0,0,105,3.64h-.18l-.69-.6a4.85,4.85,0,0,1,1.08,0,1.29,1.29,0,0,1,1,.81,5.75,5.75,0,0,1,.31.73,12.72,12.72,0,0,1-.24-1.64,9.29,9.29,0,0,1,0-1l.26.19a2.47,2.47,0,0,0,.19.65A1.32,1.32,0,0,0,107,3h1Z"/><path class="cls-1" d="M116.55,3.64H108L107.3,3h8.52Zm-1.62,2.27a2.19,2.19,0,0,1,.13.75A1.79,1.79,0,0,1,114,8.33a3.29,3.29,0,0,1-1.55.39,3.89,3.89,0,0,1-.83-.14,2.19,2.19,0,0,1-.75-.35,5.87,5.87,0,0,1-.71-.71,5.91,5.91,0,0,1-.8-1.14c-.44-1-.77-1.77-1-2.4l.4.15c.24.5.45.91.63,1.24a8.68,8.68,0,0,0,.76,1.18,3,3,0,0,0,2.41,1.17,2.31,2.31,0,0,0,1.38-.52,1.17,1.17,0,0,0,.55-1,1.31,1.31,0,0,0-.31-.84,1,1,0,0,0-.85-.44,2.41,2.41,0,0,0-.46.06,1,1,0,0,1,.26.68c0,.56-.36.85-1.07.85a1,1,0,0,1-1.12-.84,1.13,1.13,0,0,1,0-.3,1.07,1.07,0,0,1,.51-.9,1.79,1.79,0,0,1,1.11-.35,3.15,3.15,0,0,1,.61.07A2.38,2.38,0,0,1,114.93,5.91Z"/><path class="cls-1" d="M121.32,5.85c-.67-.1-1-.2-1-.29a3.8,3.8,0,0,1-.58-.4,2.23,2.23,0,0,0-.93-.4l0,0a.58.58,0,0,1,.24.43.85.85,0,0,1-.24.52.7.7,0,0,1-.55.26.94.94,0,0,1-.79-.38.65.65,0,0,1-.1-.63,1.07,1.07,0,0,1,1.19-.81,2.26,2.26,0,0,1,1.11.3c.64.35,1,.59,1,.7a1.14,1.14,0,0,0,.54-.33.93.93,0,0,0,.14-.55,1,1,0,0,0-.2-.51.46.46,0,0,0-.4-.16h-5l-.72-.6h8.23l.69.6H121.7s.12.12.22.37a3,3,0,0,1,.23.74,1,1,0,0,1-.41.72Z"/><path class="cls-1" d="M121.93,5.87A7,7,0,0,1,122,7v3.18l-.26-.21a4.26,4.26,0,0,0-.32-.49,1.3,1.3,0,0,0-1-.37,5.48,5.48,0,0,0-.75.08,6.86,6.86,0,0,1-.72.1,2.44,2.44,0,0,1-.94-.14,1.47,1.47,0,0,1-.76-.48,1.9,1.9,0,0,1-.41-1.1,2.32,2.32,0,0,1,.19-.87c.08-.2.13-.3.15-.29l.31.21a2,2,0,0,0-.13.69,1,1,0,0,0,.45.93,3.45,3.45,0,0,0,1.77.12h.4a1.64,1.64,0,0,1,1,.26s.13.11.31.29V6.42a1.26,1.26,0,0,0-.09-.37c-.07-.17-.13-.25-.2-.23s-.05,0-.09,0a1.6,1.6,0,0,0-.36.08,3.62,3.62,0,0,0-.51.36,1,1,0,0,0-.29.56,1.57,1.57,0,0,1,.32,0,.57.57,0,0,1,.39.16.5.5,0,0,1,.16.37.59.59,0,0,1-.29.47,1.1,1.1,0,0,1-.62.18,1.16,1.16,0,0,1-.55-.17.7.7,0,0,1-.35-.38,1.25,1.25,0,0,1-.07-.43,1.11,1.11,0,0,1,.28-.77l.5-.5.63-.33c.1-.11.33-.16.71-.16A1,1,0,0,1,121.93,5.87Z"/><path class="cls-1" d="M126.69,3.64h-1.92v6.1l-.67-.59V3.64h-.86L122.5,3h1.69l-.11-.45a2.51,2.51,0,0,0-.59-.89,2.28,2.28,0,0,0-.81-.61,5.64,5.64,0,0,0-2.37-.48,3.2,3.2,0,0,0-1.82.42.2.2,0,0,0-.07.16c0,.18.22.28.65.3,1,0,1.55.06,1.66.07,1,.12,1.58.52,1.59,1.2a1.36,1.36,0,0,1,0,.36h-.74q.33-.22.33-.42a.32.32,0,0,0-.09-.2,1.75,1.75,0,0,0-1-.24l-1.12,0a2.6,2.6,0,0,1-1.08-.35.81.81,0,0,1-.48-.74.54.54,0,0,1,.23-.46,2.67,2.67,0,0,1,.48-.3A6,6,0,0,1,120.14,0a2.22,2.22,0,0,1,.43,0,6.66,6.66,0,0,1,1.73.3,3.7,3.7,0,0,1,1.12.59,3.44,3.44,0,0,1,.7.72,2.93,2.93,0,0,1,.47.88l.18.55H126Z"/><path class="cls-1" d="M136.45,3.64h-1.68V9.79l-.35-.45a3.9,3.9,0,0,0-1.8-1.91A4.54,4.54,0,0,0,130.9,7L130,5.86a14.52,14.52,0,0,1,1.69-.92A18,18,0,0,1,134.1,4v-.4h-4.42L129,3h6.77ZM134.1,8.12V5a12.41,12.41,0,0,0-2.64,1.19A5.32,5.32,0,0,1,134.1,8.12Z"/><path class="cls-1" d="M139.22,3.64H137.5V9.88l-.66-.62V4.82a.93.93,0,0,0-.19-.63,1.32,1.32,0,0,0-1.09-.55h-.18l-.69-.6a4.85,4.85,0,0,1,1.08,0,1.29,1.29,0,0,1,1,.81,5.75,5.75,0,0,1,.31.73,12.72,12.72,0,0,1-.24-1.64c0-.28,0-.6,0-1l.27.19a2.14,2.14,0,0,0,.18.65,1.9,1.9,0,0,0,.21.23h1Z"/><path class="cls-1" d="M141.58,5.7a1.38,1.38,0,0,1-.53.37,1.79,1.79,0,0,1-.48,0,1.6,1.6,0,0,1-1.11-.42,1.27,1.27,0,0,1-.46-1,1.36,1.36,0,0,1,.63-1.06,1.34,1.34,0,0,1,.87-.29,1.53,1.53,0,0,1,1.08.42,1.37,1.37,0,0,1,.44,1A1.26,1.26,0,0,1,141.58,5.7Zm1.63,4.67-.82-.69a25.22,25.22,0,0,0-3-2V6.36c.35.24.86.65,1.55,1.22a28.76,28.76,0,0,1,2.24,2.28Zm-2.34-5.13a1.08,1.08,0,0,0,.41-.37,1,1,0,0,0,.05-.4c0-.33-.15-.49-.45-.49a1.45,1.45,0,0,0-.84.38.89.89,0,0,0-.34.74c0,.29.12.44.4.44A1.61,1.61,0,0,0,140.87,5.24Z"/><path class="cls-1" d="M150.35,3.64h-1.69v6.1L148,9.16V5.86a.72.72,0,0,0-.32-.55.9.9,0,0,0-.66-.22.48.48,0,0,0-.38.24.65.65,0,0,0-.09.42l.06.3-.29.1s0-.14-.13-.29a2.29,2.29,0,0,0-.39-.45,1.42,1.42,0,0,0-1-.32,1.3,1.3,0,0,0-.86.31.91.91,0,0,0-.38.73q0,.7.9.84a.7.7,0,0,1-.2-.46A.58.58,0,0,1,144.5,6a.85.85,0,0,1,.55-.18.76.76,0,0,1,.72.52.8.8,0,0,1,.11.59,1,1,0,0,1-1,.57,2.28,2.28,0,0,1-1.21-.32,1.43,1.43,0,0,1-.66-.91,2.31,2.31,0,0,1,0-.46,1.75,1.75,0,0,1,.38-1.1,1.37,1.37,0,0,1,1.1-.54,1.81,1.81,0,0,1,1.27.46l.25.28c0-.14.1-.29.3-.46a.78.78,0,0,1,.53-.24,1.06,1.06,0,0,1,.64.21c.07.09.15.17.23.26a1.5,1.5,0,0,1,.35.56V3.64h-5.32L142,3h7.69Z"/><path class="cls-1" d="M153.16,3.64h-1.72V9.88l-.66-.62V4.82a.93.93,0,0,0-.19-.63,1.32,1.32,0,0,0-1.09-.55h-.18l-.69-.6a4.85,4.85,0,0,1,1.08,0,1.29,1.29,0,0,1,1,.81,5.75,5.75,0,0,1,.31.73,12.72,12.72,0,0,1-.24-1.64c0-.28,0-.6,0-1l.27.19a2.14,2.14,0,0,0,.18.65l.21.23h1Z"/><path class="cls-1" d="M157.2,3.63a3.66,3.66,0,0,0-1.12.23,3.89,3.89,0,0,0-1,.48,2.85,2.85,0,0,0-1.21,2,3.86,3.86,0,0,0,0,1.48A2,2,0,0,0,154.9,9a.62.62,0,0,0,.29.05c.13,0,.18,0,.16-.05s-.13-.07-.23-.22a1,1,0,0,1-.17-.31c0-.29.1-.51.44-.68a.81.81,0,0,1,.39-.1.56.56,0,0,1,.38.13.68.68,0,0,1,.44.66.84.84,0,0,1-.37.7,1.32,1.32,0,0,1-.85.28,1.73,1.73,0,0,1-1-.29,2.87,2.87,0,0,1-1.15-1.71,3.92,3.92,0,0,1-.11-.88,4.26,4.26,0,0,1,1.38-3H152.4l-.69-.6h4.82Z"/><path class="cls-1" d="M163.51,3.64H158V6.15a3.17,3.17,0,0,0,.48-.35c.39-.3.64-.48.73-.54A6.72,6.72,0,0,1,161,4.37l1.19.77A5.62,5.62,0,0,0,161.3,8a3.08,3.08,0,0,0,0,.53,10.54,10.54,0,0,0,.2,1.28l-.46-.2-.18-.72a7.44,7.44,0,0,1-.21-1.73,5.86,5.86,0,0,1,.2-1.56,4.47,4.47,0,0,0-1.35.66,4.58,4.58,0,0,0-1.41,1.65L157.22,7V3.64h-.7l-.7-.6h7Z"/><path class="cls-1" d="M170.47,3.66h-1.56V9.73l-.7-.61,0-3.71a1.69,1.69,0,0,0-.42-.81c-.33-.42-.63-.62-.91-.59a1.18,1.18,0,0,0-.46.15.39.39,0,0,0-.24.32,6.34,6.34,0,0,1,.61.42,1,1,0,0,1,.43.74,2.38,2.38,0,0,1-.08.43c-.11.25-.38.37-.8.37a1.22,1.22,0,0,1-1-.65,1.29,1.29,0,0,1-.87.67l-.23,0a.78.78,0,0,1-.79-.61.7.7,0,0,1-.05-.25,1.26,1.26,0,0,1,.56-.91l.36-.25a.47.47,0,0,1,.26-.1,2.36,2.36,0,0,0-.39-.5,1.09,1.09,0,0,0-.6-.21h-.85l-.68-.6h1.41a1.42,1.42,0,0,1,.83.23l.33.27a1.13,1.13,0,0,1,.39.6,2,2,0,0,1,.37-.53,2.31,2.31,0,0,1,1-.51,1.49,1.49,0,0,1,.3-.06c.18,0,.45.2.82.59a5.55,5.55,0,0,1,.53.69,3.36,3.36,0,0,1,.45.69l-.19-1.92L168.25,2a3.9,3.9,0,0,1,.43.36.34.34,0,0,1,.08.23.65.65,0,0,0,0,.21.6.6,0,0,0,.41.27h.58Z"/><path class="cls-1" d="M181.18,3.64h-1.67v6.1l-.68-.67V6.33a.81.81,0,0,0-.37-.46,1,1,0,0,0-.59-.23.91.91,0,0,0-.71.41c-.74,1-1.21,1.46-1.41,1.49h-.25c-.32,0-.5,0-.55-.1s-.44-.28-.75-.75l-.27-.44.45-.38a1.11,1.11,0,0,0,.15.35,1.25,1.25,0,0,0,.23.32.41.41,0,0,0,.27.12c.16,0,.38-.16.66-.5l.59-.69a2.37,2.37,0,0,0-.11-.58A1.13,1.13,0,0,0,175,4.16a5.44,5.44,0,0,1-.76-.06,1.15,1.15,0,0,1-.58-.45l-.19-.08L172.89,3h7.6Zm-2.35,2.11V3.64h-3.08l.38.27a1.19,1.19,0,0,1,.49,1,.78.78,0,0,1,0,.22,1.66,1.66,0,0,0,.45-.23,1.05,1.05,0,0,1,.47-.22,1.09,1.09,0,0,1,.59.26C178.21,5.07,178.46,5.33,178.83,5.75Z"/><path class="cls-1" d="M187,3.64h-1.61v6l-.26-.22-.61-1a3.15,3.15,0,0,0-1.25-1.1,4.12,4.12,0,0,0-1.73-.48l-.89-1.06A15.47,15.47,0,0,1,184.73,4V3.64h-4.18l-.7-.6h6.47Zm-2.29,4.57V4.91a12.94,12.94,0,0,0-1.52.56,12.51,12.51,0,0,0-1.13.66A4.67,4.67,0,0,1,184.73,8.21Zm-1.91,1a.77.77,0,0,1-.46-.15.67.67,0,0,1-.27-.36.53.53,0,0,1,.13-.49.68.68,0,0,1,.52-.23.76.76,0,0,1,.45.15.65.65,0,0,1,.26.34.56.56,0,0,1-.13.5A.59.59,0,0,1,182.82,9.18Z"/><path class="cls-1" d="M194.83,3.64h-3.66v.45l.14,0a2.3,2.3,0,0,1,1.51.6A2.38,2.38,0,0,1,193.67,6a1.88,1.88,0,0,1,.07.5,1.11,1.11,0,0,1-.29.78,1.06,1.06,0,0,1-1.44.16.64.64,0,0,1-.27-.51.75.75,0,0,1,.39-.61,1.43,1.43,0,0,1,.39-.06,1.15,1.15,0,0,1,.7.31.23.23,0,0,0,0-.11,1.36,1.36,0,0,0-.53-1,2,2,0,0,0-1.54-.5V9.65l-.24-.21-.21-.53a2.73,2.73,0,0,0-.6-.82,4.1,4.1,0,0,0-.84-.68,4.62,4.62,0,0,0-1.67-.51l-.94-1a10.22,10.22,0,0,1,1.26-.76,12.93,12.93,0,0,1,2.57-1V3.64h-4.16l-.7-.6h8.52ZM190.5,8V4.91a9,9,0,0,0-1.57.66l-.88.53A4.67,4.67,0,0,1,190.5,8Z"/><path class="cls-1" d="M197.66,3.64h-1.72V9.88l-.65-.62V4.82a1,1,0,0,0-.19-.63,1.35,1.35,0,0,0-1.1-.55h-.17l-.7-.6a4.85,4.85,0,0,1,1.08,0,1.28,1.28,0,0,1,1,.81,7.13,7.13,0,0,1,.32.73,11,11,0,0,1-.25-1.64c0-.28,0-.6,0-1l.26.19a2.47,2.47,0,0,0,.18.65l.21.23h1Z"/><path class="cls-1" d="M203.48,3.64h-1.61v6l-.26-.22-.61-1a3.22,3.22,0,0,0-1.25-1.1A4.12,4.12,0,0,0,198,6.89l-.89-1.06A15.41,15.41,0,0,1,201.18,4V3.64H197l-.69-.6h6.47Zm-2.3,4.57V4.91a12.77,12.77,0,0,0-1.51.56,11.24,11.24,0,0,0-1.13.66A4.64,4.64,0,0,1,201.18,8.21Zm-1.9,1a.77.77,0,0,1-.46-.15.67.67,0,0,1-.27-.36.53.53,0,0,1,.13-.49.65.65,0,0,1,.51-.23.72.72,0,0,1,.45.15.63.63,0,0,1,.27.34.56.56,0,0,1-.13.5A.61.61,0,0,1,199.28,9.18Z"/><path class="cls-1" d="M214.9,3.64h-1.19V9.73l-.26-.18A5.66,5.66,0,0,0,212,7.22a2,2,0,0,1-1.65.89,3.11,3.11,0,0,1-2.49-1.53,7,7,0,0,1-1.18-2.65l.43.16a8.4,8.4,0,0,0,1.05,2,2.57,2.57,0,0,0,2.07,1,1.55,1.55,0,0,0,.93-.27.87.87,0,0,0,.38-.74,1.54,1.54,0,0,0-.18-.68c-.14-.29-.31-.44-.52-.43a.91.91,0,0,1-.94.61,1.34,1.34,0,0,1-.76-.23.71.71,0,0,1-.34-.59.7.7,0,0,1,.44-.63,1.84,1.84,0,0,1,.86-.19,2.21,2.21,0,0,1,1.61.66,2,2,0,0,1,.68,1.47,1.24,1.24,0,0,1,0,.33L213,7.55V3.64h-6.51l-.68-.6h8.37Z"/><path class="cls-1" d="M221.71,3.64H220V9.85l-.26-.3a3.32,3.32,0,0,0-.21-1.27,4.16,4.16,0,0,0-1.29-2.15,1.75,1.75,0,0,0-1.16-.42c-.07,0-.11,0-.11,0l.22.27a1.18,1.18,0,0,1,.19.39.73.73,0,0,1-.14.71,1,1,0,0,1-.76.26c-.74,0-1.17-.28-1.28-.85,0-.1,0-.19,0-.28a1.17,1.17,0,0,1,.48-1,1.83,1.83,0,0,1,1.17-.39A2.58,2.58,0,0,1,219,6.26a3.75,3.75,0,0,1,.34.56V3.64h-4.67l-.68-.6H221Z"/><path class="cls-1" d="M221.39,11.67s0,0,0,.06a.08.08,0,0,1-.08.06.12.12,0,0,1-.08,0A6.4,6.4,0,0,0,220,10.67a2.36,2.36,0,0,0-.59-.36c-.33.27-.52.42-.59.46a1.19,1.19,0,0,1-.63.17,1.85,1.85,0,0,1-.8-.17.73.73,0,0,1-.47-.55.78.78,0,0,1,.3-.76,1.37,1.37,0,0,1,.91-.3,2.21,2.21,0,0,1,1,.32c.06,0,.1,0,.11-.15s0-.21,0-.45a1.94,1.94,0,0,1,0-.35h0c.12,0,.26.12.39.36a1.31,1.31,0,0,1,.21.51v.2a1.06,1.06,0,0,0,0,.29,3.12,3.12,0,0,1,.63.5A2.36,2.36,0,0,1,221.39,11.67Zm-2.66-1.73c-.11-.15-.33-.21-.66-.2s-.6.13-.6.33.13.3.4.3a1.56,1.56,0,0,0,.54-.12C218.67,10.15,218.77,10.05,218.73,9.94Z"/><path class="cls-1" d="M225.62,3.63a3.66,3.66,0,0,0-1.12.23,3.89,3.89,0,0,0-1,.48,2.85,2.85,0,0,0-1.21,2,4.13,4.13,0,0,0,0,1.48A2,2,0,0,0,223.32,9a.6.6,0,0,0,.28.05c.13,0,.19,0,.17-.05s-.13-.07-.23-.22a1,1,0,0,1-.17-.31c-.05-.29.09-.51.44-.68a.77.77,0,0,1,.38-.1.59.59,0,0,1,.39.13.67.67,0,0,1,.43.66.86.86,0,0,1-.36.7,1.34,1.34,0,0,1-.85.28,1.73,1.73,0,0,1-1-.29,2.83,2.83,0,0,1-1.15-1.71,3.42,3.42,0,0,1-.11-.88,4.26,4.26,0,0,1,1.38-3h-2.07l-.68-.6H225Z"/><path class="cls-1" d="M232.11,3.66H230.3V9.73L230,9.45c0-.07-.08-.24-.18-.53a1.88,1.88,0,0,0-.6-.93,4.14,4.14,0,0,0-1.06-.66h0s-.13.16-.41.34a1.41,1.41,0,0,1-.77.21,1.19,1.19,0,0,1-.84-.25,2.16,2.16,0,0,1-.22-.23.72.72,0,0,0-.05-.25.85.85,0,0,1,0-.24.89.89,0,0,1,.42-.78,1.72,1.72,0,0,1,1-.25c.29,0,.46,0,.51.11A1.43,1.43,0,0,0,227,4.76a3.94,3.94,0,0,0-.89-.29,2.23,2.23,0,0,1-.7-.24,1.6,1.6,0,0,1-.38-.33l-.15-.26-.68-.6h7.18Zm-2.47,4.13V3.66h-3.17q.94.68,1.23.93a1.93,1.93,0,0,1,.59.86,3.49,3.49,0,0,1,.19,1.15C228.75,6.85,229.14,7.24,229.64,7.79Z"/><path class="cls-1" d="M234.83,3.64h-1.72V9.88l-.65-.62V4.82a1,1,0,0,0-.19-.63,1.34,1.34,0,0,0-1.09-.55H231l-.7-.6a4.85,4.85,0,0,1,1.08,0,1.28,1.28,0,0,1,1,.81,5.4,5.4,0,0,1,.32.73,10,10,0,0,1-.24-1.64,9.29,9.29,0,0,1,0-1l.26.19a2.93,2.93,0,0,0,.18.65l.21.23h1Z"/><path class="cls-1" d="M241.27,2.4l-1.16-.76a4.32,4.32,0,0,0-2.4-.69,2.62,2.62,0,0,0-1.31.32l-.33.19a3.26,3.26,0,0,0-.31.32c-.35.39-.51.64-.47.75l.26.51h1.27l.69.6h-1.72v6l-.71-.59V3.64h-1L233.4,3h1.77l-.61-.56a.37.37,0,0,1-.09-.27,1,1,0,0,1,.13-.5,3.58,3.58,0,0,1,.51-.63,3.84,3.84,0,0,1,1.08-.63,2.21,2.21,0,0,1,.89-.16,6,6,0,0,1,2.82.81,7.53,7.53,0,0,1,1.22.92Z"/><path class="cls-1" d="M243.75,3.64h-5.56V6.15a4.93,4.93,0,0,0,.48-.35l.72-.54a6.94,6.94,0,0,1,1.87-.89l1.19.77A5.65,5.65,0,0,0,241.53,8a3.07,3.07,0,0,0,.05.53,8.63,8.63,0,0,0,.2,1.28l-.46-.2-.18-.72a7.46,7.46,0,0,1-.22-1.73,6.3,6.3,0,0,1,.2-1.56,4.53,4.53,0,0,0-1.34.66,4.58,4.58,0,0,0-1.41,1.65L237.45,7V3.64h-.69l-.7-.6h7Z"/><path class="cls-1" d="M251.52,3.64H243l-.68-.6h8.52ZM249.9,5.91a2.21,2.21,0,0,1,.14.75,1.8,1.8,0,0,1-1.1,1.67,3.28,3.28,0,0,1-1.54.39,3.87,3.87,0,0,1-.84-.14,2.19,2.19,0,0,1-.75-.35,5.87,5.87,0,0,1-.71-.71,5.38,5.38,0,0,1-.79-1.14,24,24,0,0,1-1-2.4l.4.15c.24.5.45.91.63,1.24a7.8,7.8,0,0,0,.77,1.18,3,3,0,0,0,2.4,1.17,2.36,2.36,0,0,0,1.39-.52,1.18,1.18,0,0,0,.54-1,1.31,1.31,0,0,0-.31-.84,1,1,0,0,0-.85-.44,2.51,2.51,0,0,0-.46.06.92.92,0,0,1,.26.68c0,.56-.36.85-1.06.85a1,1,0,0,1-1.13-.84,1.77,1.77,0,0,1,0-.3,1.07,1.07,0,0,1,.51-.9,1.81,1.81,0,0,1,1.11-.35,3.07,3.07,0,0,1,.61.07A2.38,2.38,0,0,1,249.9,5.91Z"/><path class="cls-2" d="M105.85,68.13l-2.36-7.24h1.91l1.4,4.74,1.28-4.74H110l1.24,4.74,1.43-4.74h1.94l-2.39,7.24h-1.9L109,63.47l-1.26,4.66Z"/><path class="cls-2" d="M117,68.13l-2.35-7.24h1.91l1.4,4.74,1.28-4.74h1.9l1.24,4.74,1.42-4.74h2l-2.39,7.24h-1.9l-1.28-4.66-1.26,4.66Z"/><path class="cls-2" d="M128.18,68.13l-2.35-7.24h1.91l1.39,4.74,1.29-4.74h1.9l1.24,4.74L135,60.89h1.94l-2.39,7.24h-1.89l-1.28-4.66-1.26,4.66Z"/><path class="cls-2" d="M137.43,68.13V66.21h2v1.92Z"/><path class="cls-2" d="M140.48,60.89h2.1L144.36,66l1.74-5.14h2l-2.63,7L145,69.12a5.22,5.22,0,0,1-.49,1,2,2,0,0,1-.54.54,2.58,2.58,0,0,1-.75.33,4,4,0,0,1-1,.11,5.1,5.1,0,0,1-1.11-.11l-.18-1.5a4.46,4.46,0,0,0,.84.09,1.25,1.25,0,0,0,1-.39,2.86,2.86,0,0,0,.51-1Z"/><path class="cls-2" d="M149,64.41a3.84,3.84,0,0,1,.48-1.85,3.29,3.29,0,0,1,1.37-1.37,4.19,4.19,0,0,1,2-.47,3.78,3.78,0,0,1,2.77,1.07,3.93,3.93,0,0,1,0,5.42,3.75,3.75,0,0,1-2.75,1.08,4.42,4.42,0,0,1-1.95-.45,3.11,3.11,0,0,1-1.41-1.32A4.3,4.3,0,0,1,149,64.41Zm2,.1a2.35,2.35,0,0,0,.53,1.65,1.76,1.76,0,0,0,2.59,0,2.39,2.39,0,0,0,.52-1.67,2.31,2.31,0,0,0-.52-1.63,1.76,1.76,0,0,0-2.59,0A2.35,2.35,0,0,0,151,64.51Z"/><path class="cls-2" d="M163.07,68.13V67A2.9,2.9,0,0,1,162,68a3.07,3.07,0,0,1-1.4.33,2.82,2.82,0,0,1-1.34-.32,1.83,1.83,0,0,1-.86-.9,3.88,3.88,0,0,1-.27-1.6V60.89h2v3.32a9.22,9.22,0,0,0,.11,1.88,1,1,0,0,0,.39.54,1.3,1.3,0,0,0,.73.2,1.6,1.6,0,0,0,.91-.27,1.34,1.34,0,0,0,.54-.67,7.33,7.33,0,0,0,.15-2v-3h2v7.24Z"/><path class="cls-2" d="M170.36,60.89v1.52H169v2.92a6.24,6.24,0,0,0,0,1,.42.42,0,0,0,.17.25.62.62,0,0,0,.34.09,2.69,2.69,0,0,0,.79-.18l.17,1.48a4.05,4.05,0,0,1-1.56.29,2.69,2.69,0,0,1-1-.17,1.55,1.55,0,0,1-.63-.45,1.84,1.84,0,0,1-.27-.75,7.74,7.74,0,0,1-.07-1.35V62.41h-.9V60.89h.9V59.45l2-1.12v2.56Z"/><path class="cls-2" d="M173.69,58.13v3.68A2.93,2.93,0,0,1,176,60.72a3,3,0,0,1,1.23.25,1.86,1.86,0,0,1,.82.63,2,2,0,0,1,.38.84,7.23,7.23,0,0,1,.1,1.44v4.25h-2V64.3a5.24,5.24,0,0,0-.11-1.44.9.9,0,0,0-.39-.49,1.33,1.33,0,0,0-.72-.18,1.71,1.71,0,0,0-.87.23,1.37,1.37,0,0,0-.57.7,4.34,4.34,0,0,0-.17,1.38v3.63h-2v-10Z"/><path class="cls-2" d="M180.49,59.91V58.13h2v1.78Zm0,8.22V60.89h2v7.24Z"/><path class="cls-2" d="M191,63l-1.94.34a1.32,1.32,0,0,0-.44-.85,1.41,1.41,0,0,0-.9-.29,1.49,1.49,0,0,0-1.18.5,2.47,2.47,0,0,0-.44,1.65,2.85,2.85,0,0,0,.45,1.82,1.48,1.48,0,0,0,1.19.53,1.33,1.33,0,0,0,.92-.31,1.85,1.85,0,0,0,.51-1.07l1.93.32a3.31,3.31,0,0,1-1.16,2,3.64,3.64,0,0,1-2.29.66,3.44,3.44,0,0,1-2.6-1,4.48,4.48,0,0,1,0-5.57,3.54,3.54,0,0,1,2.64-1,3.66,3.66,0,0,1,2.16.57A3.11,3.11,0,0,1,191,63Z"/><path class="cls-2" d="M195.88,60.89v1.52h-1.35v2.92a7.82,7.82,0,0,0,0,1,.49.49,0,0,0,.18.25.58.58,0,0,0,.33.09,2.63,2.63,0,0,0,.79-.18L196,68a4,4,0,0,1-1.55.29,2.61,2.61,0,0,1-1-.17,1.42,1.42,0,0,1-.63-.45,1.71,1.71,0,0,1-.28-.75,9.44,9.44,0,0,1-.06-1.35V62.41h-.91V60.89h.91V59.45l2-1.12v2.56Z"/><path class="cls-2" d="M197.25,68.13V66.21h2v1.92Z"/><path class="cls-2" d="M200.78,64.41a3.84,3.84,0,0,1,.48-1.85,3.31,3.31,0,0,1,1.38-1.37,4.19,4.19,0,0,1,2-.47,3.77,3.77,0,0,1,2.76,1.07,3.93,3.93,0,0,1,0,5.42,3.72,3.72,0,0,1-2.74,1.08,4.42,4.42,0,0,1-1.95-.45,3.19,3.19,0,0,1-1.42-1.32A4.3,4.3,0,0,1,200.78,64.41Zm2,.1a2.31,2.31,0,0,0,.53,1.65,1.76,1.76,0,0,0,2.59,0,2.44,2.44,0,0,0,.52-1.67,2.36,2.36,0,0,0-.52-1.63,1.76,1.76,0,0,0-2.59,0A2.31,2.31,0,0,0,202.8,64.51Z"/><path class="cls-2" d="M211.89,68.13h-2V60.89h1.83v1a3,3,0,0,1,.85-1,1.53,1.53,0,0,1,.85-.24,2.49,2.49,0,0,1,1.3.37l-.61,1.67a1.79,1.79,0,0,0-.93-.32,1.15,1.15,0,0,0-.7.22,1.55,1.55,0,0,0-.45.8,11,11,0,0,0-.17,2.43Z"/><path class="cls-2" d="M215.41,68.6l2.25.27a.76.76,0,0,0,.26.52,1.48,1.48,0,0,0,.88.21,2.35,2.35,0,0,0,1.16-.23.9.9,0,0,0,.39-.48,2.86,2.86,0,0,0,.09-.88V67a2.66,2.66,0,0,1-2.22,1.18,2.76,2.76,0,0,1-2.38-1.24,4.09,4.09,0,0,1-.69-2.42,3.91,3.91,0,0,1,.9-2.78,2.92,2.92,0,0,1,2.24-1,2.77,2.77,0,0,1,2.28,1.18v-1h1.85v6.49a6.44,6.44,0,0,1-.22,1.92,2.42,2.42,0,0,1-.61,1,2.63,2.63,0,0,1-1.05.57,5.58,5.58,0,0,1-1.66.2,4.36,4.36,0,0,1-2.68-.63,2,2,0,0,1-.8-1.59C215.4,68.77,215.41,68.69,215.41,68.6Zm1.76-4.24a2.5,2.5,0,0,0,.46,1.68,1.43,1.43,0,0,0,1.13.54A1.57,1.57,0,0,0,220,66a2.34,2.34,0,0,0,.5-1.62,2.47,2.47,0,0,0-.48-1.67,1.5,1.5,0,0,0-1.2-.55,1.48,1.48,0,0,0-1.17.54A2.42,2.42,0,0,0,217.17,64.36Z"/><path class="cls-3" d="M10.75,22.08V34.71l-.93-1a9.63,9.63,0,0,0-2.09-3.12A4.66,4.66,0,0,0,6,29.58a7.09,7.09,0,0,0-2-.29L2.26,27a39.12,39.12,0,0,1,3.43-3.07l-.54-.33a11.46,11.46,0,0,0-1.65-.5,3.48,3.48,0,0,1-1.6-.7L1.58,22,0,20.4H12.44l1.67,1.68Zm-1.67,0H5.69A15.37,15.37,0,0,1,8.18,24.6,16.56,16.56,0,0,1,6.77,26a11.48,11.48,0,0,0-1.32,1.36,7.74,7.74,0,0,1,3.63,2.86Z"/><path class="cls-3" d="M9.76,35.51q-.81.75-1,.87a2.09,2.09,0,0,1-1.23.41A3,3,0,0,1,6,36.41a1.73,1.73,0,0,1-.9-1.28,1.94,1.94,0,0,1,.56-1.71,2.42,2.42,0,0,1,1.73-.68,3.26,3.26,0,0,1,1.64.57q0-.18,0-.9c0-.22,0-.5,0-.82a.48.48,0,0,1,.28-.17c.3,0,.59.26.87.79a3.47,3.47,0,0,1,.4,1.22v.39a2.66,2.66,0,0,0,0,.45,5.57,5.57,0,0,1,1,1A5.21,5.21,0,0,1,13.35,38a.39.39,0,0,1-.7.36,11.77,11.77,0,0,0-2.87-2.69A.07.07,0,0,1,9.76,35.51ZM7.4,34.43c-.53,0-.79.14-.79.36s.14.32.44.32a2.14,2.14,0,0,0,.82-.19c.32-.12.47-.21.45-.28A1.18,1.18,0,0,0,7.4,34.43Z"/><path class="cls-3" d="M21.19,22.08V35l-1.06-1.57C19,30.55,17,29,14.18,28.76l-1.71-2.48a25.62,25.62,0,0,1,3.1-2,29.54,29.54,0,0,1,4-1.75v-.41H12.12L10.49,20.4h12.3l1.62,1.68Zm-1.61,2.83a21.28,21.28,0,0,0-3.82,2,10,10,0,0,1,3.82,3.16Z"/><path class="cls-3" d="M31.83,17.27h.45l3.5-.16q3.64.24,3.62,3.29h1.9L43,22.08H35.08v3.3l.09.46a.45.45,0,0,0,.4.29,5.44,5.44,0,0,0,1-1.1c.6-.73,1-1.1,1.33-1.1.63,0,1.2.51,1.7,1.54a5.4,5.4,0,0,1,.66,2.37q0,3-1.95,4.28a4.78,4.78,0,0,1-3,.62,4.06,4.06,0,0,1-2.7-1.28A10.22,10.22,0,0,1,31,28.91q-.12-.27-.66-1.86a30.86,30.86,0,0,1-.77-5l1.22.68a12.53,12.53,0,0,0,.54,2.9,8.65,8.65,0,0,0,1.29,2.69l.85,1.08a3.08,3.08,0,0,0,2.24.83,3.54,3.54,0,0,0,1.55-.38,2.46,2.46,0,0,0,1.13-1,3.26,3.26,0,0,0,.52-1.52,1.71,1.71,0,0,0-.31-1,4.85,4.85,0,0,1-.76.84,3.59,3.59,0,0,1-2.24,1.23,1.8,1.8,0,0,1-1.42-.68,2.76,2.76,0,0,1-.69-1.57l.07-.07-.07,0V22.08h-4.7L27.19,20.4h9.65a3.86,3.86,0,0,1,1-.54c-.07-.19-.28-.33-.65-.44a2.56,2.56,0,0,0-.9-.14q-.82,0-2.31.12h-.87a4.17,4.17,0,0,1-2.94-1,2.41,2.41,0,0,1-.89-1.85,2.38,2.38,0,0,1,.28-1.12c.17-.3.36-.45.56-.45a7.6,7.6,0,0,1,1,.4q-.69.51-.69.87a.93.93,0,0,0,.49.77A1.56,1.56,0,0,0,31.83,17.27Z"/><path class="cls-3" d="M45.4,26.23a3.56,3.56,0,0,1,.56,1.1,3.62,3.62,0,0,1,0,.55,1.61,1.61,0,0,1-.5,1.23,1.85,1.85,0,0,1-1.34.47,2.2,2.2,0,0,1-2.47-2.51A2.76,2.76,0,0,1,42.6,25a3.09,3.09,0,0,1,2.16-.83c1.52,0,2.8.95,3.86,2.87l.14.26V22.08H40.91L39.27,20.4H52.06l1.71,1.68H50.43v13l-.88-1.24v-.41A8.92,8.92,0,0,0,49.1,31a12.14,12.14,0,0,0-.78-2.27,5.55,5.55,0,0,0-1.17-1.59A2.9,2.9,0,0,0,45.4,26.23Z"/><path class="cls-3" d="M45,32.16a2.28,2.28,0,0,1,.63,1.61A1.89,1.89,0,0,1,45.18,35a1.53,1.53,0,0,1-1.23.5,2.22,2.22,0,0,1-1.6-.59,2,2,0,0,1-.61-1.56,2.73,2.73,0,0,1,.82-2.17,3.2,3.2,0,0,1,2.23-.77c1.49,0,2.75.86,3.8,2.57V29.78l1.53,1.32v6.73L49,36.94v-.5a4.74,4.74,0,0,0-.28-.79,4.48,4.48,0,0,0-1.85-2.78A3.22,3.22,0,0,0,45,32.16Z"/><path class="cls-3" d="M60.81,22.08V34.83l-.91-1c-.4-.83-.66-1.35-.8-1.58A7.22,7.22,0,0,0,58,30.85a5.27,5.27,0,0,0-1.77-1.25,7.73,7.73,0,0,0-2.11-.34L52.36,27a30.43,30.43,0,0,1,2.35-2.21l1.08-.86a.82.82,0,0,0-.24-.22,8.61,8.61,0,0,0-2-.55,2.71,2.71,0,0,1-1.86-1.08L50,20.4H62.51l1.72,1.68ZM55.92,33.62a1.48,1.48,0,0,1-1.11-.46,1.5,1.5,0,0,1-.44-1.09,1.4,1.4,0,0,1,.41-1,1.3,1.3,0,0,1,1-.43,1.5,1.5,0,0,1,1.1.45,1.44,1.44,0,0,1,.45,1,1.49,1.49,0,0,1-.42,1.05A1.28,1.28,0,0,1,55.92,33.62Zm3.22-11.54H55.86l.64.5c.12.13.71.82,1.76,2.07A11.24,11.24,0,0,1,56.87,26c-.25.23-.69.7-1.32,1.42a7.67,7.67,0,0,1,3.59,2.85Z"/><path class="cls-3" d="M66.54,26.23a3.56,3.56,0,0,1,.56,1.1,3.56,3.56,0,0,1,0,.55,1.6,1.6,0,0,1-.49,1.23,1.89,1.89,0,0,1-1.34.47,2.2,2.2,0,0,1-2.47-2.51,2.76,2.76,0,0,1,.9-2.11,3.09,3.09,0,0,1,2.16-.83c1.51,0,2.8.95,3.86,2.87l.14.26V22.08H62L60.4,20.4H73.19l1.72,1.68H71.57v13l-.88-1.24v-.41A8.92,8.92,0,0,0,70.24,31a12.09,12.09,0,0,0-.79-2.27,5.37,5.37,0,0,0-1.17-1.59A2.91,2.91,0,0,0,66.54,26.23Z"/><path class="cls-3" d="M87.66,22.08v.36a4,4,0,0,1,2.77,1.27A5.43,5.43,0,0,1,92,26.43a5.22,5.22,0,0,1,.12,1.06,2.8,2.8,0,0,1-.57,1.75,1.88,1.88,0,0,1-1.57.82,1.74,1.74,0,0,1-1.22-.51,1.57,1.57,0,0,1-.54-1.2A1.89,1.89,0,0,1,89,26.91a2.81,2.81,0,0,1,.8-.14,1.86,1.86,0,0,1,1.31.63.29.29,0,0,1,.12.22c0,.18-.19.27-.61.27a1.5,1.5,0,0,0,.15-.46,2.63,2.63,0,0,0-.85-1.87,3,3,0,0,0-2.23-1v9.94l-.87-.88a14.12,14.12,0,0,0-.51-1.42A5.92,5.92,0,0,0,85.43,31a6.13,6.13,0,0,0-1.36-1.3,7,7,0,0,0-2.86-1l-1.83-2.28a20.1,20.1,0,0,1,6.67-3.75v-.53H79L77.38,20.4h15.3l1.63,1.68Zm-4,3.84-1.15.84a8.31,8.31,0,0,1,3.5,3.07V24.77A13.93,13.93,0,0,0,83.7,25.92Z"/><path class="cls-3" d="M102.77,18a6.33,6.33,0,0,0-4-1.34,5,5,0,0,0-2.68,1,7.07,7.07,0,0,0-.77,1,2.15,2.15,0,0,0-.5.93l.4.86h2.12L99,22.08H95.72V34.54l-1.66-1.63V22.08H92.47L90.83,20.4h3.06q-.3-.31-.6-.66A1.16,1.16,0,0,1,93,19a2.53,2.53,0,0,1,.26-1.12,8.33,8.33,0,0,1,1.2-1.6,6.47,6.47,0,0,1,1.65-1,3.66,3.66,0,0,1,1.62-.33,9.42,9.42,0,0,1,5,1.65,13.7,13.7,0,0,1,2.19,1.94l.51,1.56Z"/><path class="cls-3" d="M106.19,22.08a3.47,3.47,0,0,1,.54,1.92,4.08,4.08,0,0,1-.85,2.57,2.73,2.73,0,0,1-.91.82l-.83.14a4,4,0,0,1-2.46-1.15l-.52-.53a1.58,1.58,0,0,1-.57.92,1.5,1.5,0,0,1-1,.36h-.24a1.25,1.25,0,0,1-1.06-.51,2,2,0,0,1-.39-1.21,1.53,1.53,0,0,1,1.32-1.54c.23-.05.35-.05.35,0l-.24-1.41c-.11-.28-.24-.4-.4-.39H97.14L95.47,20.4h12.42l1.62,1.68Zm-1.77,0h-3.7l.4.91a2.94,2.94,0,0,0,.09.63,8.77,8.77,0,0,0,1.37,1.17,3.14,3.14,0,0,0,1.34.48c.54,0,.88-.13,1-.4a2.91,2.91,0,0,0,.12-1.08C105.07,22.71,104.86,22.15,104.42,22.08Z"/><path class="cls-3" d="M114.78,23.91l-.15-1.25-.18-4.31,1.09.8.11.21a1.5,1.5,0,0,0,.24.82l.33.22h.59a4.54,4.54,0,0,1,.8.05l1.59,1.63h-3v12.5c-.45-.46-1-1-1.76-1.72l.15-6.24q-.33-.84-.75-1.68a1.05,1.05,0,0,0-.33-.36l-3.94,4.07-2.2-.84,1.27-1.37a.75.75,0,0,0,.14-.53c0-.66-.17-1-.51-.94,0,0,0,0-.19-.06-.08.18-.5.36-1.25.53a.9.9,0,0,1-.86-.32,1.26,1.26,0,0,1-.41-.88,1.49,1.49,0,0,1,.24-.76,5.15,5.15,0,0,1,4.51-2.88,4.15,4.15,0,0,1,2.73,1A6,6,0,0,1,114.78,23.91Zm-4.84,1.29,2.19-2.2a2.25,2.25,0,0,0-1.44-.64,2.49,2.49,0,0,0-2.25,1.08C109.25,23.56,109.75,24.14,109.94,25.2Z"/><path class="cls-3" d="M120.23,17.27h.45l3.5-.16c2.43.16,3.63,1.26,3.62,3.29h1.9l1.64,1.68h-7.86v3.3l.09.46a.44.44,0,0,0,.4.29,5.44,5.44,0,0,0,1-1.1c.6-.73,1-1.1,1.33-1.1.63,0,1.2.51,1.7,1.54a5.4,5.4,0,0,1,.66,2.37q0,3-2,4.28a4.79,4.79,0,0,1-3,.62,4.06,4.06,0,0,1-2.7-1.28,10.22,10.22,0,0,1-1.67-2.55q-.12-.27-.66-1.86a29.7,29.7,0,0,1-.77-5l1.22.68a12.53,12.53,0,0,0,.54,2.9A8.65,8.65,0,0,0,121,28.35l.85,1.08a3.07,3.07,0,0,0,2.24.83,3.57,3.57,0,0,0,1.55-.38,2.51,2.51,0,0,0,1.13-1,3.26,3.26,0,0,0,.52-1.52,1.71,1.71,0,0,0-.31-1,5.3,5.3,0,0,1-.76.84A3.59,3.59,0,0,1,124,28.45a1.83,1.83,0,0,1-1.43-.68,2.9,2.9,0,0,1-.69-1.57l.08-.07-.08,0V22.08h-4.69l-1.58-1.68h9.64a4,4,0,0,1,1-.54c-.07-.19-.28-.33-.65-.44a2.58,2.58,0,0,0-.91-.14c-.55,0-1.31,0-2.3.12h-.87a4.17,4.17,0,0,1-2.94-1,2.42,2.42,0,0,1-.9-1.85A2.4,2.4,0,0,1,118,15.4c.17-.3.36-.45.56-.45a7.6,7.6,0,0,1,1,.4q-.69.51-.69.87a.93.93,0,0,0,.49.77A1.56,1.56,0,0,0,120.23,17.27Z"/><path class="cls-3" d="M132.32,17.15h0c.06,0,.43-.06,1.1-.12a6,6,0,0,1,3.4.48,3,3,0,0,1,1.6,2.81h1.17l1.62,1.76h-8.83v7.76c0,.41.23.62.68.62A2.91,2.91,0,0,0,135,29.39a4.61,4.61,0,0,0,1.28-2h-.06a1.66,1.66,0,0,1-1.23-.43,1.47,1.47,0,0,1-.5-1.15,2.59,2.59,0,0,1,0-.48A1.73,1.73,0,0,1,136.27,24a2,2,0,0,1,1.63.83,2.77,2.77,0,0,1,.58,1.86,5.12,5.12,0,0,1-1.3,3.45c-1.5,1.6-2.7,2.4-3.58,2.4a2.7,2.7,0,0,1-2.7-2.3,8.77,8.77,0,0,1-.1-1.77V22.08h-1.74l-1.34-1.68h9.1a2.94,2.94,0,0,1,0-.44c-.13-.65-.61-.91-1.46-.8a23.22,23.22,0,0,0-2.32.14l-.85.05a4.66,4.66,0,0,1-2.56-.7,2.52,2.52,0,0,1-1.29-2.23,2,2,0,0,1,.4-1.23.64.64,0,0,1,.63-.36.38.38,0,0,1,.28.12,2.93,2.93,0,0,1,.07.65.82.82,0,0,0-.27.53c0,.49.32.81.94,1A7.25,7.25,0,0,0,132.32,17.15Z"/><path class="cls-3" d="M141.39,21.68q-.15-1.68-.15-3.69l.91.77a6.08,6.08,0,0,0,.33,1.28,3.47,3.47,0,0,0,.25.36h1.75l1.64,1.68h-3.27v13l-1.61-1.77V24.21a1.91,1.91,0,0,0-.28-1.12,2,2,0,0,0-1.69-1h-.37l-1.65-1.63a9.92,9.92,0,0,1,2.4-.05A2.32,2.32,0,0,1,141.39,21.68Z"/><path class="cls-3" d="M153.05,22.08V34.54l-.87-.83c-.77-1.43-1.19-2.2-1.27-2.33A5.84,5.84,0,0,0,149,29.56a6.37,6.37,0,0,0-3-.94l-1.74-2.42a25.15,25.15,0,0,1,7.06-3.74v-.38h-7l-1.66-1.68h11.78l1.66,1.68Zm-4.71,11.18a1.38,1.38,0,0,1-1.07-.47,1.52,1.52,0,0,1-.43-1.07,1.38,1.38,0,0,1,.4-1,1.27,1.27,0,0,1,1-.42,1.46,1.46,0,0,1,.92.33,1.53,1.53,0,0,1,.54.85,1.5,1.5,0,0,1-.26,1.22A1.25,1.25,0,0,1,148.34,33.26Zm3-8.51a15.17,15.17,0,0,0-3.84,2.06,8.52,8.52,0,0,1,3.84,3.31Z"/><path class="cls-3" d="M171.67,33.66a9.36,9.36,0,0,0-.68-1.8,1.8,1.8,0,0,0-1.46-.55,16.13,16.13,0,0,0-2,.21,8.71,8.71,0,0,1-2,.11,3.9,3.9,0,0,1-3.39-2.06,5.11,5.11,0,0,1-.57-2.39,6.77,6.77,0,0,1,.57-3c.14-.42.31-.62.51-.62a.41.41,0,0,1,.33.16l.59.65a4.62,4.62,0,0,0-.57,1.1,9.18,9.18,0,0,0-.14,1.22,2.21,2.21,0,0,0,1.93,2.55,3.78,3.78,0,0,0,1.32.12,15.78,15.78,0,0,1,1.79-.14,4.84,4.84,0,0,1,2.76.69c.13.13.25.25.38.36V22.08s0,0-.12,0a3.84,3.84,0,0,0-2.22,1.25,3.48,3.48,0,0,0-1,1.51h.3a1.05,1.05,0,0,1,.91.49,1.86,1.86,0,0,1,.33,1.08,1.78,1.78,0,0,1-.34,1.06,1.36,1.36,0,0,1-.86.58,4.45,4.45,0,0,1-.61,0,2,2,0,0,1-1.94-1.15,2.41,2.41,0,0,1-.26-1.39,6.41,6.41,0,0,1,2.69-4.32,4,4,0,0,1,2.56-.91,2.4,2.4,0,0,1,1.42.76,2,2,0,0,1,.8,1.35V34.67Z"/><path class="cls-3" d="M179.54,25.3a.07.07,0,0,1,0,.09,1,1,0,0,1-.4.82,1.25,1.25,0,0,1-.87.36c-.91,0-1.42-.6-1.51-1.81a1.42,1.42,0,0,1,.54-1.3,2,2,0,0,1,1.31-.46,2.06,2.06,0,0,1,1.61,1v-2h-5.88l-1.57-1.68h14.61L189,22.08h-7.13v4.2a.63.63,0,0,0,.05.26s.06,0,.14,0,.29-.18.64-.53a2.93,2.93,0,0,0,.56-.67l1.23-1.8a5.25,5.25,0,0,1,1.89,3.21,5.36,5.36,0,0,1,.12,1.1,6,6,0,0,1-.52,2.39,4.16,4.16,0,0,1-4.28,2.63,5,5,0,0,1-2.83-.93,6.69,6.69,0,0,1-2-2.2c-.13-.23-.45-.83-.95-1.8a49.18,49.18,0,0,1-1.5-5.89L176,23.73a21.07,21.07,0,0,0,.92,3.23,8.06,8.06,0,0,0,1.27,1.94,4.44,4.44,0,0,0,3.56,1.72A4.18,4.18,0,0,0,184,30a3.37,3.37,0,0,0,.94-1.14,4.71,4.71,0,0,0,.33-1,2.42,2.42,0,0,0-.24-1.26,4.61,4.61,0,0,1-1.48,1.34,2.57,2.57,0,0,1-1.54.65,1.5,1.5,0,0,1-1.39-.94l-.57-1.7A4.33,4.33,0,0,0,179.54,25.3Z"/><path class="cls-3" d="M204.59,22.12V34.71L202.92,33l.06-7.58a3.44,3.44,0,0,0-.68-1.49c-.52-.78-1-1.15-1.34-1.1-.55.06-.87.27-1,.61,1.19.9,1.79,1.72,1.79,2.45a5,5,0,0,1-.17.92,1.52,1.52,0,0,1-1.6.92,2.06,2.06,0,0,1-1.74-1.07,2.41,2.41,0,0,1-.84.84,2,2,0,0,1-1.07.35,1.47,1.47,0,0,1-1.22-.6,2.25,2.25,0,0,1-.45-1.37,2.64,2.64,0,0,1,.63-1.57,3.49,3.49,0,0,1,1.29-1.12,5.44,5.44,0,0,0-.49-.69,2,2,0,0,0-1.13-.38h-1.3l-1.64-1.68h3a2.63,2.63,0,0,1,1.58.5l.63.62a2.42,2.42,0,0,1,.5.69A3.58,3.58,0,0,1,200,20.56a2.58,2.58,0,0,1,.59-.12c.58,0,1.42.9,2.54,2.71l.23.37-.22-2.73L203,18c.49.46.88.84,1.15,1.15a1.23,1.23,0,0,1,.19.56,1.93,1.93,0,0,1,0,.34.89.89,0,0,0,.54.44h1.08l1.65,1.68Z"/><path class="cls-3" d="M208.66,17.15h0c.07,0,.43-.06,1.11-.12a6,6,0,0,1,3.4.48,3,3,0,0,1,1.6,2.81H216l1.62,1.76h-8.83v7.76c0,.41.23.62.68.62a2.89,2.89,0,0,0,1.85-1.07,4.56,4.56,0,0,0,1.29-2h-.07a1.65,1.65,0,0,1-1.22-.43,1.47,1.47,0,0,1-.51-1.15,2.61,2.61,0,0,1,0-.48A1.73,1.73,0,0,1,212.61,24a2,2,0,0,1,1.63.83,2.71,2.71,0,0,1,.57,1.86,5.12,5.12,0,0,1-1.29,3.45c-1.51,1.6-2.7,2.4-3.58,2.4a2.71,2.71,0,0,1-2.71-2.3,10,10,0,0,1-.09-1.77V22.08H205.4l-1.34-1.68h9.1c0-.16,0-.31,0-.44-.12-.65-.61-.91-1.45-.8-.58,0-1.36,0-2.33.14l-.84.05a4.64,4.64,0,0,1-2.56-.7,2.52,2.52,0,0,1-1.29-2.23,2,2,0,0,1,.39-1.23.66.66,0,0,1,.63-.36A.36.36,0,0,1,206,15a2.44,2.44,0,0,1,.07.65.85.85,0,0,0-.26.53c0,.49.31.81.94,1A7.22,7.22,0,0,0,208.66,17.15Z"/><path class="cls-3" d="M212.76,19.92h-3.62l7.43-5.61,1.62.21Z"/><path class="cls-3" d="M220.13,22.63a1.28,1.28,0,0,0-.76-.55h-3.45L214.2,20.4h12.25l1.62,1.68h-6.68l.05.15.29.43a2.73,2.73,0,0,1,1,.26,3.71,3.71,0,0,1,2.38,2.8,3.11,3.11,0,0,1,.07.67,3.31,3.31,0,0,1-1.88,3l-1.27.65a8.21,8.21,0,0,1,1,.55,11.21,11.21,0,0,1,2.1,1.68l1.85,2,.76,2.76c-.58-.72-1-1.21-1.23-1.46a17.31,17.31,0,0,0-4.21-3.23,13.88,13.88,0,0,0-4.56-1.73l-1.64-4.09a7.23,7.23,0,0,0,4,1.51,4.44,4.44,0,0,0,3.2-1.37,1.09,1.09,0,0,0,.33-.79,1.26,1.26,0,0,0-.57-1,2.12,2.12,0,0,0-1.31-.42,1.14,1.14,0,0,0-.28,0,3,3,0,0,1-1.08,1.78,2,2,0,0,1-1.37.56,1.48,1.48,0,0,1-1.62-1.32,2,2,0,0,1,.54-1.59,2.89,2.89,0,0,1,1-.77Z"/><path class="cls-3" d="M231.67,22a2,2,0,0,0-1.22.39,1.52,1.52,0,0,0-.66,1A11.58,11.58,0,0,0,230,27a30.24,30.24,0,0,1,.5,3.49,4,4,0,0,1-2.12,3.46,3.17,3.17,0,0,1-1.55.64.77.77,0,0,1-.78-.59.48.48,0,0,1,0-.2c0-.21.17-.36.51-.47l.74-.25a4.65,4.65,0,0,0,.87-.79,3.33,3.33,0,0,0,.37-1.48,8.25,8.25,0,0,0-.4-2.18,12.6,12.6,0,0,1-.47-2.76,5.38,5.38,0,0,1,.68-2.54l.85-1.2h-2.94l-1.67-1.68h7.66L234,22.08A18.25,18.25,0,0,0,231.67,22Z"/><path class="cls-3" d="M233.79,21.68c-.1-1.12-.16-2.35-.16-3.69l.91.77a6.08,6.08,0,0,0,.33,1.28,3.8,3.8,0,0,0,.26.36h1.75l1.63,1.68h-3.26v13l-1.62-1.77V24.21a1.91,1.91,0,0,0-.28-1.12,2,2,0,0,0-1.69-1h-.37l-1.64-1.63a9.92,9.92,0,0,1,2.4-.05A2.32,2.32,0,0,1,233.79,21.68Z"/><path class="cls-3" d="M241.87,25.3a.14.14,0,0,1,0,.09,1,1,0,0,1-.4.82,1.29,1.29,0,0,1-.87.36c-.92,0-1.42-.6-1.51-1.81a1.44,1.44,0,0,1,.53-1.3,2,2,0,0,1,1.31-.46,2,2,0,0,1,1.61,1v-2h-5.87L235.1,20.4h14.6l1.65,1.68h-7.14v4.2a.85.85,0,0,0,0,.26s.06,0,.14,0,.29-.18.64-.53a2.81,2.81,0,0,0,.57-.67l1.23-1.8a5.25,5.25,0,0,1,1.89,3.21,5.33,5.33,0,0,1,.11,1.1,6.16,6.16,0,0,1-.51,2.39A4.17,4.17,0,0,1,244,32.9a5,5,0,0,1-2.82-.93,6.72,6.72,0,0,1-2.05-2.2c-.12-.23-.44-.83-.94-1.8a50.54,50.54,0,0,1-1.51-5.89l1.63,1.65a20,20,0,0,0,.92,3.23,7.75,7.75,0,0,0,1.27,1.94,4.43,4.43,0,0,0,3.55,1.72,4.13,4.13,0,0,0,2.19-.65,3.26,3.26,0,0,0,.94-1.14,4.37,4.37,0,0,0,.34-1,2.42,2.42,0,0,0-.24-1.26,4.66,4.66,0,0,1-1.49,1.34,2.57,2.57,0,0,1-1.53.65,1.49,1.49,0,0,1-1.39-.94l-.57-1.7A7.26,7.26,0,0,0,241.87,25.3Z"/><path class="cls-3" d="M265.8,23.91l-.15-1.25-.18-4.31,1.09.8.12.21a1.51,1.51,0,0,0,.23.82l.33.22h.68a5.63,5.63,0,0,1,.94.05l1.6,1.63h-3.31V34.47a11.61,11.61,0,0,1-1.73-1.61l.15-6.26a4.42,4.42,0,0,0-1.08-2l-3.94,4.07-2.2-.84,1.27-1.37a.75.75,0,0,0,.15-.53c0-.64-.19-1-.55-.94a10.6,10.6,0,0,0-1.38.47,1,1,0,0,1-.89-.31,1.25,1.25,0,0,1-.41-.89,1.49,1.49,0,0,1,.24-.76,5.15,5.15,0,0,1,4.51-2.88,4.15,4.15,0,0,1,2.73,1A6.09,6.09,0,0,1,265.8,23.91ZM261,25.2l2.19-2.2a2.27,2.27,0,0,0-1.44-.64,2.49,2.49,0,0,0-2.25,1.08C260.27,23.56,260.77,24.14,261,25.2Z"/><path class="cls-3" d="M266,33.87c-.42-.77-.67-1.22-.77-1.36a3.26,3.26,0,0,0-2.44-.77c-.54,0-1.46,0-2.78.08a4.43,4.43,0,0,1-2-.39,3.31,3.31,0,0,1-1.6-1.36,4.61,4.61,0,0,1-.61-2.36c0-.24,0-.66.07-1.27a2.34,2.34,0,0,1,.07-.53.22.22,0,0,1,.19-.14,4,4,0,0,1,1,.86,1.41,1.41,0,0,0-.17.58,2.14,2.14,0,0,0,1.39,2,17,17,0,0,0,3.27.32,8.46,8.46,0,0,1,2.82.62,4.29,4.29,0,0,1,1.48,1.25,6.24,6.24,0,0,1,1.14,1.9,7.77,7.77,0,0,1,.21,2.16A4.4,4.4,0,0,1,266,33.87Z"/><path class="cls-3" d="M278.77,18a6.35,6.35,0,0,0-4-1.34,4.92,4.92,0,0,0-2.68,1,7.85,7.85,0,0,0-.78,1c-.34.48-.51.79-.49.93l.4.86h2.11L275,22.08h-3.29V34.54l-1.67-1.63V22.08h-1.59l-1.63-1.68h3.05l-.6-.66A1.2,1.2,0,0,1,269,19a2.4,2.4,0,0,1,.26-1.12,8.33,8.33,0,0,1,1.2-1.6,6.56,6.56,0,0,1,1.64-1,3.73,3.73,0,0,1,1.63-.33,9.45,9.45,0,0,1,5,1.65,14.18,14.18,0,0,1,2.18,1.94l.52,1.56Z"/><path class="cls-3" d="M284,22.12V34.71L282.31,33l.06-7.58a3.44,3.44,0,0,0-.68-1.49c-.52-.78-1-1.15-1.34-1.1-.55.06-.87.27-1,.61,1.18.9,1.78,1.72,1.78,2.45a5,5,0,0,1-.17.92,1.52,1.52,0,0,1-1.6.92,2.09,2.09,0,0,1-1.74-1.07,2.41,2.41,0,0,1-.84.84,2,2,0,0,1-1.07.35,1.44,1.44,0,0,1-1.21-.6,2.2,2.2,0,0,1-.46-1.37,2.64,2.64,0,0,1,.63-1.57A3.65,3.65,0,0,1,276,23.19a5.44,5.44,0,0,0-.49-.69,1.94,1.94,0,0,0-1.13-.38h-1.29l-1.65-1.68h3a2.61,2.61,0,0,1,1.58.5l.64.62a2.58,2.58,0,0,1,.49.69,3.61,3.61,0,0,1,2.23-1.69,2.58,2.58,0,0,1,.59-.12c.58,0,1.42.9,2.54,2.71l.23.37-.22-2.73L282.37,18c.49.46.88.84,1.16,1.15a1.37,1.37,0,0,1,.18.56,1.93,1.93,0,0,1,0,.34.89.89,0,0,0,.54.44h1.09L287,22.12Z"/><path class="cls-3" d="M296.17,22.08v1.36h.56a3.58,3.58,0,0,1,2.53,1,3.23,3.23,0,0,1,1,2.47,2.73,2.73,0,0,1-.39,1.51,1.45,1.45,0,0,1-1.32.71,2,2,0,0,1-1.9-.88,1.45,1.45,0,0,1-.16-.65,1.39,1.39,0,0,1,.35-.84.92.92,0,0,1,.7-.47,2.31,2.31,0,0,1,1.44.37c0-.08,0-.13,0-.15,0-.31-.21-.57-.64-.78a2.82,2.82,0,0,0-1.05-.28,3.66,3.66,0,0,0-1.15.07v9.1l-1-1.22c-.35-1-.54-1.54-.59-1.67a9.58,9.58,0,0,0-.8-1.48,3,3,0,0,0-1.18-1,1.71,1.71,0,0,1-1.71,1.05,1.54,1.54,0,0,1-1.69-1.34,1.58,1.58,0,0,1-.05-.43,1.67,1.67,0,0,1,.55-1.28,2,2,0,0,1,1.37-.52h.11a1.36,1.36,0,0,0,.05-.36,1.48,1.48,0,0,0-.4-1,1.28,1.28,0,0,0-.94-.47.67.67,0,0,0-.38.17,2.14,2.14,0,0,1-.5,1.1,1.61,1.61,0,0,1-1,.54,1.4,1.4,0,0,1-1.26-.51,2,2,0,0,1-.52-1.36,1.65,1.65,0,0,1,1-1.75.77.77,0,0,0,.4-.05,1.56,1.56,0,0,0-.45-.62c-.12-.19-.2-.29-.23-.29h-1.79l-1.55-1.68H301l1.67,1.68Zm-1.67,3.5a4,4,0,0,1-2.79-1.72,4.6,4.6,0,0,1-.77-1.78h-2.28c.1.21.22.5.38.87,0,0,.15.1.47.16a4.56,4.56,0,0,1,2.4,1.66,4.82,4.82,0,0,1,1.16,2.73A4.77,4.77,0,0,1,294.5,29Zm0-3.5h-2a.94.94,0,0,0,0,.29c0,.85.56,1.27,1.68,1.27a1.32,1.32,0,0,0,.3,0Z"/><path class="cls-3" d="M304,26.38v-.51c0-.79.45-1.18,1.34-1.18A1.78,1.78,0,0,1,307,26.42a1.63,1.63,0,0,1-.81,1.44,2.57,2.57,0,0,1-1.73.43A3.2,3.2,0,0,1,302.09,27a3.85,3.85,0,0,1-.8-2.47,4.5,4.5,0,0,1,.89-2.75,3.5,3.5,0,0,1,3-1.44,2.22,2.22,0,0,1,.9.17,7.62,7.62,0,0,1,.8.48,5.81,5.81,0,0,1,1.6,2.18c-.05-.48-.11-1-.17-1.63a29.25,29.25,0,0,1,0-3.85c.19.21.38.41.59.62a2.36,2.36,0,0,1,.54.85,1.58,1.58,0,0,0,.28.71,2.7,2.7,0,0,0,.56.47h1.39L313.35,22h-3.42V34.58l-1.76-1.82V26a3.68,3.68,0,0,0-1-2.55,2.5,2.5,0,0,0-1.84-.94,1.72,1.72,0,0,0-1.4.71,2.27,2.27,0,0,0-.56,1.41,3.16,3.16,0,0,0,.26,1.23A1,1,0,0,0,304,26.38Z"/><path class="cls-3" d="M322.27,32.44a2.58,2.58,0,0,1-.27-.77,1.76,1.76,0,0,1,.59-1.43,2.31,2.31,0,0,1,1.19-.26,1.24,1.24,0,0,1,1,.51,1.72,1.72,0,0,1,.46,1.15,2.21,2.21,0,0,1-.67,1.63,2.17,2.17,0,0,1-1.61.67,3,3,0,0,1-1.95-.64,6.81,6.81,0,0,1-2.3-5.49,8.11,8.11,0,0,1,2.47-6.12A4,4,0,0,1,324,20.4l1.6,1.63a5.33,5.33,0,0,0-3.44,1.58,6.81,6.81,0,0,0-1.84,4.92,7.69,7.69,0,0,0,.26,1.66C320.93,31.45,321.49,32.2,322.27,32.44Z"/><path class="cls-3" d="M333.34,22.08v.36a4,4,0,0,1,2.77,1.27,5.43,5.43,0,0,1,1.54,2.72,5.22,5.22,0,0,1,.12,1.06,2.8,2.8,0,0,1-.57,1.75,1.88,1.88,0,0,1-1.57.82,1.74,1.74,0,0,1-1.22-.51,1.57,1.57,0,0,1-.54-1.2,1.89,1.89,0,0,1,.78-1.44,2.75,2.75,0,0,1,.8-.14,1.86,1.86,0,0,1,1.31.63.29.29,0,0,1,.12.22c0,.18-.19.27-.61.27a1.5,1.5,0,0,0,.15-.46,2.63,2.63,0,0,0-.85-1.87,3,3,0,0,0-2.23-1v9.94l-.87-.88a14.12,14.12,0,0,0-.51-1.42,5.92,5.92,0,0,0-.85-1.27,6.13,6.13,0,0,0-1.36-1.3,7,7,0,0,0-2.86-1l-1.83-2.28a20.1,20.1,0,0,1,6.67-3.75v-.53h-7l-1.66-1.68h15.3L340,22.08Zm-4,3.84-1.15.84a8.31,8.31,0,0,1,3.5,3.07V24.77A13.93,13.93,0,0,0,329.38,25.92Z"/><path class="cls-3" d="M342.48,25.49a1.28,1.28,0,0,1,.16.65,1.33,1.33,0,0,1-.53,1.09,1.86,1.86,0,0,1-1.19.42,1.59,1.59,0,0,1-1.8-1.79,2.38,2.38,0,0,1,.73-1.78,2.41,2.41,0,0,1,1.75-.72A3,3,0,0,1,344,24.82V22.08h-5.8L336.6,20.4h8l1.67,1.68h-.64v8.34L344,28.73V27.46a3.76,3.76,0,0,0-.16-.67c-.2-.26-.4-.52-.61-.77A1.46,1.46,0,0,0,342.48,25.49Z"/><path class="cls-3" d="M345.76,22.08v4.34c.37-.35.94-.85,1.69-1.51A13.16,13.16,0,0,1,350.84,23l2.31,1.75a12.92,12.92,0,0,0-1.65,5.73,7.9,7.9,0,0,0,.07,1.07,29.84,29.84,0,0,0,.43,3l-1.32-.67a26.77,26.77,0,0,1-.7-5.07,14.65,14.65,0,0,1,.25-2.75,7.71,7.71,0,0,0-4.3,4.7l-1.9-2V22.08H343L341.3,20.4H354l1.67,1.68Z"/><path class="cls-3" d="M351.42,36.26c-.21-.31-.4-.6-.57-.89a1.93,1.93,0,0,0-1.41-.7c-.81,0-2.22-.06-4.21-.09-2.6,0-3.9-1.15-3.9-3.31a10.49,10.49,0,0,1,.56-2.64l.92.92a1.47,1.47,0,0,0-.25,1,1.5,1.5,0,0,0,.82,1.42,4.82,4.82,0,0,0,1.83.43l1.81.05c.77,0,1.23.08,1.37.09a3,3,0,0,1,2.35,1.17l0,0V27.17l1.53-1.56V37Z"/><path class="cls-2" d="M7.47,40.84a9.66,9.66,0,0,1,1,.13,7.83,7.83,0,0,1,.93.22,7.32,7.32,0,0,1,.78-.21c.28,0,.62-.1,1-.14v.5a.93.93,0,0,0-.42.17.44.44,0,0,0-.11.32,4.88,4.88,0,0,0,.42,1.29c.27.67.66,1.52,1.17,2.54.52-1.16.88-2,1.07-2.54A4,4,0,0,0,13.58,42a.54.54,0,0,0-.17-.44.86.86,0,0,0-.51-.18v-.5a5.36,5.36,0,0,1,.79.11,5.64,5.64,0,0,1,.78.21,6,6,0,0,1,.69-.2c.23-.05.47-.09.71-.12v.5a1.28,1.28,0,0,0-.76.44,9.43,9.43,0,0,0-1,1.76c-.27.55-.51,1.05-.71,1.5s-.34.78-.41,1a4.56,4.56,0,0,0-.14.64,4.83,4.83,0,0,0-.05.84v.14A6.85,6.85,0,0,0,13,50a1.07,1.07,0,0,0,.93.62v.49q-.45,0-1-.12c-.35-.07-.74-.16-1.17-.28-.42.12-.81.21-1.18.28a6.42,6.42,0,0,1-1,.12v-.49a1,1,0,0,0,.92-.52,3.81,3.81,0,0,0,.27-1.7v-.49a5.45,5.45,0,0,0,0-.79,2.93,2.93,0,0,0-.12-.49,8.3,8.3,0,0,0-.38-.87c-.17-.37-.47-1-.91-1.79a1.88,1.88,0,0,0-.1-.19c-.84-1.61-1.43-2.43-1.78-2.45Z"/><path class="cls-2" d="M20.76,47.64a3.91,3.91,0,0,1-.88,2.64,3,3,0,0,1-2.34,1,3,3,0,0,1-2.33-1,4.39,4.39,0,0,1,0-5.27,2.93,2.93,0,0,1,2.33-1,3,3,0,0,1,2.34,1A3.92,3.92,0,0,1,20.76,47.64Zm-3.21-3c-.39,0-.67.25-.87.75a6.63,6.63,0,0,0-.29,2.23,6.76,6.76,0,0,0,.29,2.25c.2.5.48.75.87.75s.67-.25.86-.76a6.37,6.37,0,0,0,.3-2.24,6.38,6.38,0,0,0-.3-2.23C18.22,44.9,17.93,44.65,17.55,44.65Z"/><path class="cls-2" d="M27.39,44l.34.26c0,.35-.06.71-.08,1.07s0,.73,0,1.08V48a5.35,5.35,0,0,0,.17,1.6.58.58,0,0,0,.56.46h.16l.08,0,.07.55a4.75,4.75,0,0,1-.72.17,5.8,5.8,0,0,1-.88.06h-.2a3.13,3.13,0,0,0-.31.23,1.7,1.7,0,0,0-.24.22L26,51a3.43,3.43,0,0,1-.08-.48c0-.17,0-.38,0-.62a1.91,1.91,0,0,1-.76,1,2.14,2.14,0,0,1-1.27.37,1.49,1.49,0,0,1-1.42-.74A5.71,5.71,0,0,1,22,47.93V47a4.58,4.58,0,0,0-.13-1.47.56.56,0,0,0-.54-.3v-.48a7.58,7.58,0,0,1,.81-.13,7.22,7.22,0,0,1,.82,0l.31-.3.36-.27.34.27q0,.42-.06,1c0,.39,0,.94,0,1.66v.75a6.66,6.66,0,0,0,.2,2,.71.71,0,0,0,.68.54.83.83,0,0,0,.76-.55,3.6,3.6,0,0,0,.26-1.56v-1a5.39,5.39,0,0,0-.13-1.59.54.54,0,0,0-.53-.32V44.7q.33-.08.69-.12t.75,0h.18l.31-.31Z"/><path class="cls-2" d="M30.7,42.56h.85v2l1.25,0v.89l-1.25,0v3.05a3.1,3.1,0,0,0,.21,1.33.67.67,0,0,0,.65.42.9.9,0,0,0,.41-.11,1.69,1.69,0,0,0,.39-.34l.23.49a2.68,2.68,0,0,1-.86.74,2.15,2.15,0,0,1-1,.25,1.57,1.57,0,0,1-1.46-.68,5.93,5.93,0,0,1-.42-2.74V45.4h-.62v-.6a1.73,1.73,0,0,0,1.16-.66A3.11,3.11,0,0,0,30.7,42.56Z"/><path class="cls-2" d="M36,40.29l.35.26c0,.36-.07.77-.08,1.22s0,1,0,1.67v1.77a1.81,1.81,0,0,1,.68-.85,1.89,1.89,0,0,1,1.07-.3,1.68,1.68,0,0,1,1.56.82,5.23,5.23,0,0,1,.49,2.57v1.11a5.07,5.07,0,0,0,.16,1.67.74.74,0,0,0,.62.39v.5a4.29,4.29,0,0,1-.77-.08,5.52,5.52,0,0,1-.86-.26,3.79,3.79,0,0,1-.58.22,5.59,5.59,0,0,1-.56.12c0-.36.05-.82.06-1.39s0-1.22,0-2a7.24,7.24,0,0,0-.2-2.12.75.75,0,0,0-.73-.52.77.77,0,0,0-.73.55,4.31,4.31,0,0,0-.24,1.66v1.13a5.63,5.63,0,0,0,.16,1.77.74.74,0,0,0,.62.4v.5A6.6,6.6,0,0,1,36.2,51a7,7,0,0,1-.87-.23,8.67,8.67,0,0,1-.91.23,5.62,5.62,0,0,1-.78.11v-.5a.7.7,0,0,0,.63-.4,6.16,6.16,0,0,0,.16-1.88v-5a5.41,5.41,0,0,0-.14-1.62.56.56,0,0,0-.56-.3h-.09v-.5l.57-.06.48,0H35l.37,0,.3-.33Z"/><path class="cls-2" d="M46.77,50.72a8.78,8.78,0,0,1-1,.25,8.89,8.89,0,0,1-1.07.15v-.5a1,1,0,0,0,.84-.59,6.94,6.94,0,0,0,.22-2.28V44.19a7,7,0,0,0-.22-2.28,1,1,0,0,0-.84-.58v-.49c.42,0,.8.1,1.13.16a8.76,8.76,0,0,1,.89.24,5.59,5.59,0,0,1,1.12-.32,7.12,7.12,0,0,1,1.26-.11,4.54,4.54,0,0,1,3.51,1.39A5.35,5.35,0,0,1,53.94,46a5.33,5.33,0,0,1-1.29,3.81A4.71,4.71,0,0,1,49,51.18a6.64,6.64,0,0,1-1.21-.11A5.27,5.27,0,0,1,46.77,50.72ZM47.84,47c0,1.19,0,2,0,2.28a4.85,4.85,0,0,0,0,.63.73.73,0,0,0,.29.49,1.19,1.19,0,0,0,.66.15,2.37,2.37,0,0,0,2.08-1.15,5.83,5.83,0,0,0,.75-3.2,6.33,6.33,0,0,0-.79-3.46,2.5,2.5,0,0,0-2.23-1.23l-.34,0-.4.08c0,.31-.05.75-.06,1.3s0,1.26,0,2.11Z"/><path class="cls-2" d="M60.06,47.06H57.13a.72.72,0,0,0-.44.1c-.07.06-.1.2-.1.41a3,3,0,0,0,.55,1.87,1.62,1.62,0,0,0,1.38.76,1.87,1.87,0,0,0,.82-.2,2.42,2.42,0,0,0,.73-.57l.18.46a3,3,0,0,1-1.13,1,3.52,3.52,0,0,1-1.6.36,2.57,2.57,0,0,1-2.08-1,4,4,0,0,1-.78-2.55,4.23,4.23,0,0,1,.84-2.7A2.61,2.61,0,0,1,57.64,44a2.27,2.27,0,0,1,1.75.76,2.67,2.67,0,0,1,.7,1.88.92.92,0,0,1,0,.16C60.08,46.86,60.07,47,60.06,47.06Zm-2-.61a.39.39,0,0,0,.26-.06.37.37,0,0,0,.06-.24,2,2,0,0,0-.28-1,.83.83,0,0,0-.69-.45.72.72,0,0,0-.64.42,2.21,2.21,0,0,0-.24,1.1v.17a.58.58,0,0,1,0,.1Z"/><path class="cls-2" d="M60.32,44.3a5.1,5.1,0,0,1,.86.08,5.39,5.39,0,0,1,.87.27,5.83,5.83,0,0,1,.89-.26,3.88,3.88,0,0,1,.82-.09v.48a.57.57,0,0,0-.35.19.61.61,0,0,0-.1.38,4.57,4.57,0,0,0,.2,1c.13.47.44,1.48.94,3,.34-1.08.58-1.89.71-2.45a5.24,5.24,0,0,0,.22-1.19,1.09,1.09,0,0,0-.16-.64.7.7,0,0,0-.51-.26V44.3a3.25,3.25,0,0,1,.69.08,4,4,0,0,1,.67.21,3.82,3.82,0,0,1,.6-.19,4.17,4.17,0,0,1,.66-.1v.46c-.31,0-.64.39-1,1.12a49.44,49.44,0,0,0-1.82,5.24L64,50.93l-.81.24a53,53,0,0,0-1.76-5.1c-.39-.87-.73-1.31-1-1.31h0Z"/><path class="cls-2" d="M73,47.06H70.06a.72.72,0,0,0-.44.1.56.56,0,0,0-.11.41,3.11,3.11,0,0,0,.55,1.87,1.65,1.65,0,0,0,1.39.76,1.86,1.86,0,0,0,.81-.2,2.3,2.3,0,0,0,.73-.57l.18.46a2.82,2.82,0,0,1-1.13,1,3.48,3.48,0,0,1-1.59.36,2.55,2.55,0,0,1-2.08-1,3.91,3.91,0,0,1-.79-2.55,4.17,4.17,0,0,1,.85-2.7A2.6,2.6,0,0,1,70.57,44a2.25,2.25,0,0,1,1.74.76,2.67,2.67,0,0,1,.7,1.88v.16C73,46.86,73,47,73,47.06Zm-2-.61a.38.38,0,0,0,.26-.06.37.37,0,0,0,.06-.24,1.86,1.86,0,0,0-.28-1,.82.82,0,0,0-.68-.45.74.74,0,0,0-.65.42,2.21,2.21,0,0,0-.24,1.1,1,1,0,0,0,0,.17v.1Z"/><path class="cls-2" d="M76,40.29l.34.26c0,.36-.07.77-.08,1.23s0,1,0,1.67v5a5.11,5.11,0,0,0,.18,1.79.81.81,0,0,0,.7.4v.49a7.29,7.29,0,0,1-.88-.11c-.29-.06-.61-.14-.94-.24-.31.09-.61.17-.9.23s-.59.09-.89.12v-.49a.77.77,0,0,0,.7-.38,5.14,5.14,0,0,0,.18-1.81V43.29a4.59,4.59,0,0,0-.15-1.56.57.57,0,0,0-.57-.29h-.16v-.5l.6-.06.52,0H75l.4,0a3.26,3.26,0,0,1,.31-.33A3,3,0,0,1,76,40.29Z"/><path class="cls-2" d="M84.08,47.64a3.87,3.87,0,0,1-.89,2.64,3.21,3.21,0,0,1-4.66,0,4.35,4.35,0,0,1,0-5.27,3.19,3.19,0,0,1,4.66,0A3.88,3.88,0,0,1,84.08,47.64Zm-3.22-3c-.38,0-.67.25-.86.75a6.63,6.63,0,0,0-.29,2.23A6.76,6.76,0,0,0,80,49.88c.19.5.48.75.86.75s.68-.25.87-.76a6.37,6.37,0,0,0,.3-2.24,6.38,6.38,0,0,0-.3-2.23Q81.45,44.65,80.86,44.65Z"/><path class="cls-2" d="M86.87,44l.28.24c0,.23-.05.42-.07.59s0,.31,0,.43l.13,0a2.31,2.31,0,0,1,.75-1A1.66,1.66,0,0,1,89,44a2.09,2.09,0,0,1,1.78.95,4.09,4.09,0,0,1,.68,2.48,4,4,0,0,1-.89,2.71,2.88,2.88,0,0,1-2.31,1,2.73,2.73,0,0,1-.5,0,2.42,2.42,0,0,1-.46-.13V52.4a4.41,4.41,0,0,0,.23,1.89,1.1,1.1,0,0,0,.9.41v.48a6.8,6.8,0,0,1-1-.1,11.09,11.09,0,0,1-1.09-.25,8.48,8.48,0,0,1-.91.25,3.73,3.73,0,0,1-.8.1V54.7a.69.69,0,0,0,.62-.4,6.08,6.08,0,0,0,.17-1.88V47.11a5.33,5.33,0,0,0-.14-1.61.56.56,0,0,0-.56-.3h-.09v-.47a4.51,4.51,0,0,1,.72-.12,5.53,5.53,0,0,1,.71,0h.17a3.18,3.18,0,0,1,.34-.31Zm.4,6a1.24,1.24,0,0,0,.42.43.87.87,0,0,0,.48.15,1.06,1.06,0,0,0,1-.67,4.61,4.61,0,0,0,.33-2,5.1,5.1,0,0,0-.33-2c-.22-.49-.52-.74-.9-.74a.77.77,0,0,0-.75.52,4.35,4.35,0,0,0-.23,1.69Z"/><path class="cls-2" d="M94.39,44l.28.24-.06.52,0,.5.1.06a2.08,2.08,0,0,1,.69-1,1.63,1.63,0,0,1,1-.34,1.71,1.71,0,0,1,1.07.33,2.56,2.56,0,0,1,.71,1.06,2.44,2.44,0,0,1,.72-1,1.83,1.83,0,0,1,2.6.44,5.11,5.11,0,0,1,.48,2.54v1.19a5.07,5.07,0,0,0,.16,1.67.75.75,0,0,0,.62.39v.5A4.29,4.29,0,0,1,102,51a5.35,5.35,0,0,1-.86-.24l-.58.21a3.65,3.65,0,0,1-.55.13c0-.42.06-.92.08-1.5s0-1.22,0-1.93a7.29,7.29,0,0,0-.19-2.09.68.68,0,0,0-.67-.54.75.75,0,0,0-.7.56,5,5,0,0,0-.22,1.75v1.09a5.5,5.5,0,0,0,.16,1.76.74.74,0,0,0,.62.4v.5a3.78,3.78,0,0,1-.71-.1,5,5,0,0,1-.82-.24A4.87,4.87,0,0,1,97,51a4.68,4.68,0,0,1-.59.13c0-.42.06-.92.08-1.5s0-1.22,0-1.93a7.88,7.88,0,0,0-.18-2.08c-.12-.36-.33-.55-.63-.55a.79.79,0,0,0-.74.53,4.47,4.47,0,0,0-.23,1.66v1.09a6.16,6.16,0,0,0,.16,1.88.71.71,0,0,0,.64.4v.5a6.26,6.26,0,0,1-.81-.11,7.59,7.59,0,0,1-.91-.23,9.34,9.34,0,0,1-.91.23,5.76,5.76,0,0,1-.79.11v-.5a.7.7,0,0,0,.63-.4,6.53,6.53,0,0,0,.16-1.88V47.09a5.37,5.37,0,0,0-.14-1.61.56.56,0,0,0-.56-.3h-.09v-.5a4.6,4.6,0,0,1,.68-.11,5.86,5.86,0,0,1,.75,0h.2l.34-.33Z"/><path class="cls-2" d="M108.59,47.06h-2.94a.69.69,0,0,0-.43.1.56.56,0,0,0-.11.41,3.11,3.11,0,0,0,.55,1.87,1.65,1.65,0,0,0,1.39.76,1.86,1.86,0,0,0,.81-.2,2.3,2.3,0,0,0,.73-.57l.18.46a2.88,2.88,0,0,1-1.13,1,3.52,3.52,0,0,1-1.6.36,2.53,2.53,0,0,1-2.07-1,3.91,3.91,0,0,1-.79-2.55,4.17,4.17,0,0,1,.85-2.7A2.6,2.6,0,0,1,106.17,44a2.24,2.24,0,0,1,1.74.76,2.67,2.67,0,0,1,.7,1.88v.16C108.61,46.86,108.6,47,108.59,47.06Zm-2-.61a.38.38,0,0,0,.26-.06.37.37,0,0,0,.06-.24,1.86,1.86,0,0,0-.28-1,.82.82,0,0,0-.68-.45.74.74,0,0,0-.65.42,2.21,2.21,0,0,0-.24,1.1,1,1,0,0,0,0,.17v.1Z"/><path class="cls-2" d="M111.5,44l.28.24-.06.51,0,.51.12.06a2.15,2.15,0,0,1,.74-1,1.85,1.85,0,0,1,1.11-.34,1.68,1.68,0,0,1,1.55.81,5.09,5.09,0,0,1,.49,2.57v1.09a5.5,5.5,0,0,0,.16,1.76.74.74,0,0,0,.64.4v.49a4.32,4.32,0,0,1-.79-.08,6,6,0,0,1-.87-.26,3.79,3.79,0,0,1-.58.22l-.55.12c0-.39.06-.88.08-1.45s0-1.22,0-1.92a7.17,7.17,0,0,0-.21-2.19.73.73,0,0,0-.72-.53.8.8,0,0,0-.75.55,4.46,4.46,0,0,0-.24,1.68v1.19a5.66,5.66,0,0,0,.16,1.78.74.74,0,0,0,.64.4v.49a6.46,6.46,0,0,1-.84-.11,6.25,6.25,0,0,1-.87-.23,8.23,8.23,0,0,1-.92.23,6,6,0,0,1-.79.11v-.49a.7.7,0,0,0,.63-.4,6.62,6.62,0,0,0,.16-1.89V47.1a5.41,5.41,0,0,0-.14-1.62.55.55,0,0,0-.56-.3h-.09v-.5c.27-.06.52-.1.74-.13l.62,0h.27l.34-.33Z"/><path class="cls-2" d="M118.6,42.56h.85v2l1.25,0v.89l-1.25,0v3.05a3.3,3.3,0,0,0,.2,1.33.69.69,0,0,0,.66.42.86.86,0,0,0,.4-.11,1.54,1.54,0,0,0,.4-.34l.22.49a2.58,2.58,0,0,1-.86.74,2.08,2.08,0,0,1-1,.25,1.57,1.57,0,0,1-1.46-.68,5.93,5.93,0,0,1-.42-2.74V45.4H117v-.6a1.71,1.71,0,0,0,1.15-.66A3,3,0,0,0,118.6,42.56Z"/><path class="cls-2" d="M132.55,40.75l.36.18a4.23,4.23,0,0,1-.12.56,2.91,2.91,0,0,1-.16.5c.05.37.08.71.1,1s0,.59,0,.86v.19h-.55a3.85,3.85,0,0,0-.67-2,1.76,1.76,0,0,0-1.46-.69,2.09,2.09,0,0,0-1.87,1.21,6.58,6.58,0,0,0-.7,3.3,6.81,6.81,0,0,0,.73,3.45,2.22,2.22,0,0,0,2,1.24,1.93,1.93,0,0,0,1.46-.59,3,3,0,0,0,.72-1.71H133c0,.24-.06.5-.1.76s-.09.55-.14.84c0,.12.05.23.07.33s0,.22.05.32a4.3,4.3,0,0,1-1.3.59,5.67,5.67,0,0,1-1.54.21,4.62,4.62,0,0,1-3.55-1.39,5.35,5.35,0,0,1-1.29-3.78,5.75,5.75,0,0,1,1.31-4A4.49,4.49,0,0,1,130,40.66a6.13,6.13,0,0,1,1.33.17,6.7,6.7,0,0,0,.85.16.37.37,0,0,0,.17-.05A1.59,1.59,0,0,0,132.55,40.75Z"/><path class="cls-2" d="M140.29,47.64a3.86,3.86,0,0,1-.88,2.64,2.93,2.93,0,0,1-2.33,1,3,3,0,0,1-2.34-1,4.39,4.39,0,0,1,0-5.27,3.2,3.2,0,0,1,4.67,0A3.87,3.87,0,0,1,140.29,47.64Zm-3.21-3c-.38,0-.67.25-.86.75a6.38,6.38,0,0,0-.29,2.23,6.51,6.51,0,0,0,.29,2.25c.19.5.48.75.86.75s.67-.25.87-.76a6.41,6.41,0,0,0,.29-2.24A6.42,6.42,0,0,0,138,45.4Q137.65,44.65,137.08,44.65Z"/><path class="cls-2" d="M143.19,44l.28.24c0,.17,0,.35-.05.52s0,.33,0,.5l.1.06a2.08,2.08,0,0,1,.69-1,1.63,1.63,0,0,1,1-.34,1.71,1.71,0,0,1,1.07.33,2.56,2.56,0,0,1,.71,1.06,2.37,2.37,0,0,1,.73-1,1.81,1.81,0,0,1,2.59.44,5.11,5.11,0,0,1,.48,2.54v1.19a5.37,5.37,0,0,0,.16,1.67.75.75,0,0,0,.63.39v.5a4.29,4.29,0,0,1-.76-.1,5.35,5.35,0,0,1-.86-.24l-.58.21a3.65,3.65,0,0,1-.55.13c0-.42.06-.92.08-1.5s0-1.22,0-1.93a7.18,7.18,0,0,0-.2-2.09.68.68,0,0,0-.67-.54.75.75,0,0,0-.7.56,5.3,5.3,0,0,0-.22,1.75v1.09a5.39,5.39,0,0,0,.17,1.76.71.71,0,0,0,.62.4v.5a3.88,3.88,0,0,1-.72-.1,4.59,4.59,0,0,1-.81-.24,4.33,4.33,0,0,1-.54.21,4.68,4.68,0,0,1-.59.13c0-.42.06-.92.08-1.5s0-1.22,0-1.93a7.75,7.75,0,0,0-.19-2.08c-.12-.36-.33-.55-.63-.55a.77.77,0,0,0-.73.53,4.24,4.24,0,0,0-.24,1.66v1.09a6,6,0,0,0,.17,1.88.69.69,0,0,0,.63.4v.5a5.89,5.89,0,0,1-.8-.11,7.72,7.72,0,0,1-.92-.23,9.34,9.34,0,0,1-.91.23,5.55,5.55,0,0,1-.79.11v-.5a.7.7,0,0,0,.63-.4,6.16,6.16,0,0,0,.16-1.88V47.09a5.37,5.37,0,0,0-.14-1.61.56.56,0,0,0-.56-.3H141v-.5a4.83,4.83,0,0,1,.68-.11,6.06,6.06,0,0,1,.75,0h.21a3.44,3.44,0,0,1,.34-.33A2,2,0,0,1,143.19,44Z"/><path class="cls-2" d="M154.1,44l.28.24c0,.23,0,.42-.07.59s0,.31,0,.43l.12,0a2.31,2.31,0,0,1,.75-1,1.71,1.71,0,0,1,1-.34A2.12,2.12,0,0,1,158,45a4.16,4.16,0,0,1,.68,2.48,4,4,0,0,1-.89,2.71,2.91,2.91,0,0,1-2.32,1,2.73,2.73,0,0,1-.5,0,2.42,2.42,0,0,1-.46-.13V52.4a4.58,4.58,0,0,0,.23,1.89,1.12,1.12,0,0,0,.9.41v.48a6.8,6.8,0,0,1-1-.1,11.09,11.09,0,0,1-1.09-.25,8.34,8.34,0,0,1-.9.25,3.89,3.89,0,0,1-.8.1V54.7a.71.71,0,0,0,.62-.4,6.58,6.58,0,0,0,.16-1.88V47.11a5.33,5.33,0,0,0-.14-1.61.55.55,0,0,0-.56-.3h-.08v-.47a4.39,4.39,0,0,1,.71-.12,5.63,5.63,0,0,1,.71,0h.17a4.57,4.57,0,0,1,.34-.31Zm.4,6a1.44,1.44,0,0,0,.42.43.91.91,0,0,0,.49.15,1,1,0,0,0,1-.67,4.61,4.61,0,0,0,.33-2,5.31,5.31,0,0,0-.32-2c-.23-.49-.53-.74-.91-.74a.78.78,0,0,0-.75.52,4.55,4.55,0,0,0-.23,1.69Z"/><path class="cls-2" d="M165.35,44l.35.26c0,.35-.07.71-.09,1.07s0,.73,0,1.08V48a5.35,5.35,0,0,0,.17,1.6.58.58,0,0,0,.56.46h.15l.09,0,.06.55a4.75,4.75,0,0,1-.72.17,5.7,5.7,0,0,1-.88.06h-.19l-.32.23a2.39,2.39,0,0,0-.23.22l-.36-.27a3.46,3.46,0,0,1-.07-.48,5.46,5.46,0,0,1,0-.62,1.9,1.9,0,0,1-.75,1,2.17,2.17,0,0,1-1.28.37,1.48,1.48,0,0,1-1.41-.74,5.71,5.71,0,0,1-.42-2.61V47a4.46,4.46,0,0,0-.14-1.47.54.54,0,0,0-.53-.3v-.48a7.4,7.4,0,0,1,.8-.13,7.55,7.55,0,0,1,.83,0l.31-.3c.11-.09.22-.18.35-.27l.35.27c0,.28,0,.62-.07,1s0,.94,0,1.66v.75a6.66,6.66,0,0,0,.2,2,.7.7,0,0,0,.67.54.82.82,0,0,0,.76-.55,3.58,3.58,0,0,0,.27-1.56v-1a5.25,5.25,0,0,0-.14-1.59.53.53,0,0,0-.53-.32V44.7c.23-.05.46-.09.7-.12s.49,0,.74,0h.19c.1-.11.2-.21.31-.31S165.23,44.06,165.35,44Z"/><path class="cls-2" d="M168.67,42.56h.85v2l1.25,0v.89l-1.25,0v3.05a3.3,3.3,0,0,0,.2,1.33.69.69,0,0,0,.66.42.86.86,0,0,0,.4-.11,1.54,1.54,0,0,0,.4-.34l.22.49a2.58,2.58,0,0,1-.86.74,2.08,2.08,0,0,1-1,.25,1.57,1.57,0,0,1-1.46-.68,5.93,5.93,0,0,1-.42-2.74V45.4H167v-.6a1.71,1.71,0,0,0,1.15-.66A3.1,3.1,0,0,0,168.67,42.56Z"/><path class="cls-2" d="M177.05,47.06h-2.93a.69.69,0,0,0-.43.1.56.56,0,0,0-.11.41,3,3,0,0,0,.55,1.87,1.64,1.64,0,0,0,1.38.76,1.87,1.87,0,0,0,.82-.2,2.3,2.3,0,0,0,.73-.57l.18.46a3,3,0,0,1-1.13,1,3.52,3.52,0,0,1-1.6.36,2.57,2.57,0,0,1-2.08-1,4,4,0,0,1-.78-2.55,4.17,4.17,0,0,1,.85-2.7A2.59,2.59,0,0,1,174.63,44a2.27,2.27,0,0,1,1.75.76,2.67,2.67,0,0,1,.7,1.88.92.92,0,0,1,0,.16C177.07,46.86,177.06,47,177.05,47.06Zm-2-.61a.39.39,0,0,0,.26-.06.37.37,0,0,0,.06-.24,1.86,1.86,0,0,0-.28-1,.82.82,0,0,0-.69-.45.73.73,0,0,0-.64.42,2.21,2.21,0,0,0-.24,1.1v.17a.58.58,0,0,1,0,.1Z"/><path class="cls-2" d="M179.89,44l.28.25a7,7,0,0,0-.08.79c0,.26,0,.52,0,.78l.14.05a3.26,3.26,0,0,1,.57-1.36,1.1,1.1,0,0,1,.89-.47.88.88,0,0,1,.67.28,1,1,0,0,1,.26.71,1.53,1.53,0,0,1-.17.69,2,2,0,0,1-.51.6,1.22,1.22,0,0,0-.34-.49.68.68,0,0,0-.44-.18.6.6,0,0,0-.58.43,4.22,4.22,0,0,0-.17,1.41v.71a5,5,0,0,0,.22,2,1.12,1.12,0,0,0,.88.44v.5a8.27,8.27,0,0,1-1-.11,10.17,10.17,0,0,1-1-.24c-.3.09-.59.17-.87.23l-.84.12v-.5a.7.7,0,0,0,.63-.4,6.48,6.48,0,0,0,.16-1.88V47.1a5.41,5.41,0,0,0-.14-1.62.56.56,0,0,0-.56-.3h-.09V44.7a4.05,4.05,0,0,1,.6-.11c.23,0,.53,0,.92,0l.06-.06C179.55,44.28,179.74,44.12,179.89,44Z"/><path class="cls-2" d="M192,40.59l.41.22a3.1,3.1,0,0,1-.13.4c-.06.13-.13.28-.21.42s0,.51.05.73,0,.44,0,.63v.18a1.48,1.48,0,0,0,0,.21h-.52a3.8,3.8,0,0,0-.46-1.57,1,1,0,0,0-.85-.55.82.82,0,0,0-.71.4,1.77,1.77,0,0,0-.27,1,4.06,4.06,0,0,0,.83,2.16A21.91,21.91,0,0,0,193,48c0-.19.07-.37.1-.52a3.44,3.44,0,0,0,0-.42,2.21,2.21,0,0,0-.37-1.39,1.86,1.86,0,0,0-1.17-.65v-.46a7.87,7.87,0,0,1,1,.12,8.58,8.58,0,0,1,1,.24,10.17,10.17,0,0,1,1-.25,5.84,5.84,0,0,1,.89-.11V45a2,2,0,0,0-.93.37,2.05,2.05,0,0,0-.47,1c0,.06,0,.17-.07.32a17,17,0,0,1-.48,1.75,10.72,10.72,0,0,0,1.66,1.42,2.2,2.2,0,0,0,1.17.43,1.24,1.24,0,0,0,.33,0,1.1,1.1,0,0,0,.31-.12l.18.45a2.94,2.94,0,0,1-.9.58,2.71,2.71,0,0,1-1,.2,2.9,2.9,0,0,1-1.22-.29,6.71,6.71,0,0,1-1.38-.92,4.06,4.06,0,0,1-1.29.88,3.87,3.87,0,0,1-1.53.3,3.07,3.07,0,0,1-2.21-.78,2.71,2.71,0,0,1-.82-2.07,2.89,2.89,0,0,1,.53-1.74,3.08,3.08,0,0,1,1.5-1.1,3.56,3.56,0,0,1-.47-1,3.77,3.77,0,0,1-.16-1.11,3,3,0,0,1,.67-2,2.17,2.17,0,0,1,1.72-.78,3.76,3.76,0,0,1,.71.08l.42.09a.28.28,0,0,0,.19-.07A.85.85,0,0,0,192,40.59Zm.08,9.1a19.94,19.94,0,0,1-2-2.13c-.67-.84-1.09-1.26-1.27-1.26a.53.53,0,0,0-.45.27,1.34,1.34,0,0,0-.18.73,2.83,2.83,0,0,0,.81,2,2.49,2.49,0,0,0,1.87.89,1.9,1.9,0,0,0,.66-.11A1.45,1.45,0,0,0,192.11,49.69Z"/><path class="cls-2" d="M205.94,40.66l.48.09c0,.18-.06.35-.1.51s-.09.34-.14.5.06.52.08.76,0,.46,0,.68a1.36,1.36,0,0,1,0,.18v.18h-.51a3,3,0,0,0-.47-1.65,1.33,1.33,0,0,0-1.15-.58,1.19,1.19,0,0,0-.94.4,1.51,1.51,0,0,0-.35,1.06c0,.72.63,1.42,1.91,2.09l.16.08a4.21,4.21,0,0,1,1.58,1.3A3.15,3.15,0,0,1,207,48a3.37,3.37,0,0,1-.81,2.37,2.86,2.86,0,0,1-2.21.88,4,4,0,0,1-1.31-.23l-.65-.23a.28.28,0,0,0-.2.08.68.68,0,0,0-.13.27l-.44-.12c0-.17,0-.35.08-.54s.08-.44.14-.73-.1-.65-.13-1,0-.66,0-1v-.19h.52a4.7,4.7,0,0,0,.66,2.21,1.64,1.64,0,0,0,1.4.78,1.26,1.26,0,0,0,1-.45,2,2,0,0,0,.06-2.23,5.33,5.33,0,0,0-1.58-1.1,4.41,4.41,0,0,1-1.67-1.34,3.12,3.12,0,0,1-.48-1.79,3.18,3.18,0,0,1,.75-2.21,2.56,2.56,0,0,1,2-.84,3.79,3.79,0,0,1,1,.15l.57.15a.36.36,0,0,0,.23-.08A.45.45,0,0,0,205.94,40.66Z"/><path class="cls-2" d="M210.12,40.29l.35.26c0,.36-.07.77-.08,1.22s0,1,0,1.67v1.77a1.81,1.81,0,0,1,.68-.85,1.88,1.88,0,0,1,1.06-.3,1.67,1.67,0,0,1,1.56.82,5.1,5.1,0,0,1,.5,2.57v1.11a5.07,5.07,0,0,0,.16,1.67.72.72,0,0,0,.62.39v.5a4.29,4.29,0,0,1-.77-.08,5.52,5.52,0,0,1-.86-.26,3.79,3.79,0,0,1-.58.22l-.56.12c0-.36,0-.82.06-1.39s0-1.22,0-2a7.24,7.24,0,0,0-.2-2.12.75.75,0,0,0-.73-.52.77.77,0,0,0-.73.55,4.31,4.31,0,0,0-.24,1.66v1.13a5.63,5.63,0,0,0,.16,1.77.74.74,0,0,0,.62.4v.5a6.39,6.39,0,0,1-.85-.11,7,7,0,0,1-.87-.23,9.34,9.34,0,0,1-.91.23,5.84,5.84,0,0,1-.78.11v-.5a.7.7,0,0,0,.63-.4,6.53,6.53,0,0,0,.16-1.88v-5a5.41,5.41,0,0,0-.14-1.62.57.57,0,0,0-.56-.3h-.09v-.5l.56-.06.49,0h.35l.37,0,.3-.33Z"/><path class="cls-2" d="M221.82,47.64a3.86,3.86,0,0,1-.88,2.64,3.23,3.23,0,0,1-4.67,0,4.39,4.39,0,0,1,0-5.27,3.2,3.2,0,0,1,4.67,0A3.87,3.87,0,0,1,221.82,47.64Zm-3.21-3q-.57,0-.87.75a6.67,6.67,0,0,0-.28,2.23,6.81,6.81,0,0,0,.28,2.25q.3.75.87.75c.38,0,.67-.25.87-.76a6.66,6.66,0,0,0,.29-2.24,6.67,6.67,0,0,0-.29-2.23Q219.18,44.65,218.61,44.65Z"/><path class="cls-2" d="M224.64,44l.28.25a7,7,0,0,0-.08.79c0,.26,0,.52,0,.78l.14.05a3.26,3.26,0,0,1,.57-1.36,1.1,1.1,0,0,1,.89-.47.86.86,0,0,1,.67.28,1,1,0,0,1,.26.71,1.41,1.41,0,0,1-.17.69,2.16,2.16,0,0,1-.5.6,1.34,1.34,0,0,0-.35-.49.66.66,0,0,0-.44-.18.6.6,0,0,0-.58.43,4.22,4.22,0,0,0-.17,1.41v.71a5,5,0,0,0,.22,2,1.12,1.12,0,0,0,.88.44v.5a8.49,8.49,0,0,1-1-.11,10.17,10.17,0,0,1-1-.24c-.3.09-.59.17-.87.23l-.83.12v-.5a.7.7,0,0,0,.63-.4,6.48,6.48,0,0,0,.16-1.88V47.1a5.41,5.41,0,0,0-.14-1.62.55.55,0,0,0-.56-.3h-.09V44.7a4.05,4.05,0,0,1,.6-.11c.23,0,.54,0,.92,0l.06-.06C224.3,44.28,224.5,44.12,224.64,44Z"/><path class="cls-2" d="M229.44,42.56h.85v2l1.25,0v.89l-1.25,0v3.05a3.1,3.1,0,0,0,.21,1.33.67.67,0,0,0,.65.42.9.9,0,0,0,.41-.11,1.69,1.69,0,0,0,.39-.34l.23.49a2.68,2.68,0,0,1-.86.74,2.14,2.14,0,0,1-1,.25,1.58,1.58,0,0,1-1.47-.68,5.93,5.93,0,0,1-.42-2.74V45.4h-.62v-.6a1.73,1.73,0,0,0,1.16-.66A3.11,3.11,0,0,0,229.44,42.56Z"/><path class="cls-2" d="M234.78,40.29l.34.26c0,.36-.07.77-.08,1.22s0,1,0,1.67v1.77a1.81,1.81,0,0,1,.68-.85,1.89,1.89,0,0,1,1.07-.3,1.68,1.68,0,0,1,1.56.82,5.12,5.12,0,0,1,.49,2.57v1.11a5.07,5.07,0,0,0,.16,1.67.74.74,0,0,0,.62.39v.5a4.29,4.29,0,0,1-.77-.08,5.52,5.52,0,0,1-.86-.26,3.44,3.44,0,0,1-.58.22,5.59,5.59,0,0,1-.56.12c0-.36.05-.82.06-1.39s0-1.22,0-2a7.24,7.24,0,0,0-.2-2.12.75.75,0,0,0-.73-.52.77.77,0,0,0-.73.55,4.31,4.31,0,0,0-.24,1.66v1.13a5.63,5.63,0,0,0,.16,1.77.74.74,0,0,0,.63.4v.5a6.53,6.53,0,0,1-.86-.11,7,7,0,0,1-.87-.23,8.67,8.67,0,0,1-.91.23,5.62,5.62,0,0,1-.78.11v-.5a.7.7,0,0,0,.63-.4,6.16,6.16,0,0,0,.16-1.88v-5a5.41,5.41,0,0,0-.14-1.62.56.56,0,0,0-.56-.3h-.09v-.5l.57-.06.48,0h.35l.37,0a3.26,3.26,0,0,1,.31-.33A3,3,0,0,1,234.78,40.29Z"/><path class="cls-2" d="M245.36,47v1.4a5,5,0,0,0,.1,1.29.36.36,0,0,0,.35.29l.14,0,.19-.08.15.38a2.5,2.5,0,0,1-.69.72,1.39,1.39,0,0,1-.75.26,1,1,0,0,1-.75-.3,1.63,1.63,0,0,1-.37-.91,2.06,2.06,0,0,1-.81.89,2.16,2.16,0,0,1-1.18.32,1.59,1.59,0,0,1-1.2-.45,2,2,0,0,1,.07-2.57,4.13,4.13,0,0,1,1.84-.8,2,2,0,0,0,.94-.38,1.11,1.11,0,0,0,.16-.68,3.91,3.91,0,0,0-.16-1.36.56.56,0,0,0-.56-.34.66.66,0,0,0-.55.27,1.08,1.08,0,0,0-.2.7,2.77,2.77,0,0,0,0,.39,3.48,3.48,0,0,0,.1.41,1.25,1.25,0,0,1-.4.2,1.58,1.58,0,0,1-.45.06.63.63,0,0,1-.52-.24,1,1,0,0,1-.2-.65,1.51,1.51,0,0,1,.68-1.26,2.83,2.83,0,0,1,1.76-.5,2,2,0,0,1,1.74.69A3.75,3.75,0,0,1,245.36,47Zm-1.83.68-.07,0c-1,.37-1.42.86-1.42,1.49a1.17,1.17,0,0,0,.19.68.57.57,0,0,0,.49.26.63.63,0,0,0,.6-.35,2,2,0,0,0,.21-1Z"/><path class="cls-2" d="M248.91,44l.28.24-.06.51,0,.51.13.06a2.07,2.07,0,0,1,.73-1,1.86,1.86,0,0,1,1.12-.34,1.67,1.67,0,0,1,1.54.81,5.09,5.09,0,0,1,.49,2.57v1.09a5.5,5.5,0,0,0,.16,1.76.74.74,0,0,0,.64.4v.49a4.32,4.32,0,0,1-.79-.08,6,6,0,0,1-.87-.26,3.44,3.44,0,0,1-.58.22l-.55.12c0-.39.06-.88.08-1.45s0-1.22,0-1.92a7.17,7.17,0,0,0-.21-2.19.73.73,0,0,0-.72-.53.8.8,0,0,0-.75.55,4.46,4.46,0,0,0-.24,1.68v1.19a5.66,5.66,0,0,0,.16,1.78.74.74,0,0,0,.64.4v.49a6.46,6.46,0,0,1-.84-.11,6.25,6.25,0,0,1-.87-.23,8.23,8.23,0,0,1-.92.23,6,6,0,0,1-.79.11v-.49a.7.7,0,0,0,.63-.4,6.25,6.25,0,0,0,.16-1.89V47.1a5.41,5.41,0,0,0-.14-1.62.55.55,0,0,0-.56-.3h-.09v-.5c.27-.06.52-.1.74-.13l.62,0h.27l.34-.33Z"/><path class="cls-2" d="M260.16,40.29l.33.26c0,.33-.06.71-.08,1.14s0,1,0,1.76V48a5.26,5.26,0,0,0,.17,1.6.57.57,0,0,0,.56.46h.24l.07.54-.73.15a5.78,5.78,0,0,1-.71.05h-.37l-.3.22a2.06,2.06,0,0,0-.26.25l-.33-.24c0-.14-.05-.29-.07-.45a4,4,0,0,1,0-.5,1.93,1.93,0,0,1-.75.89,2.12,2.12,0,0,1-1.16.31,2,2,0,0,1-1.74-.92,4.2,4.2,0,0,1-.65-2.45,4,4,0,0,1,.89-2.73,3.11,3.11,0,0,1,2.83-1,2.21,2.21,0,0,1,.48.15V42.92a2.73,2.73,0,0,0-.17-1.18.68.68,0,0,0-.64-.3h-.16v-.5l.58-.06.54,0h.41l.44,0a2.35,2.35,0,0,1,.3-.33A3,3,0,0,1,260.16,40.29Zm-1.63,5.14a1.15,1.15,0,0,0-.36-.51.79.79,0,0,0-.51-.19,1.08,1.08,0,0,0-1,.63,3.6,3.6,0,0,0-.36,1.77,4.66,4.66,0,0,0,.4,2.09c.26.53.59.8,1,.8a.77.77,0,0,0,.56-.25,1.24,1.24,0,0,0,.28-.67c0-.23,0-.46,0-.71v-3Z"/><path class="cls-2" d="M265.37,40.6h.41a.26.26,0,0,0,.19.25,2.33,2.33,0,0,0,.74.08h4.61a2,2,0,0,0,.69-.08.27.27,0,0,0,.19-.25h.41a3.91,3.91,0,0,1-.05.48,3.39,3.39,0,0,1-.1.52c.08.34.15.67.2,1a8.33,8.33,0,0,1,.11,1h-.45a3,3,0,0,0-.46-1.39,1.51,1.51,0,0,0-1-.5h-.76c0,.46,0,.94-.05,1.41s0,1.14,0,2v1.85c0,1.07,0,1.8,0,2.19a3.3,3.3,0,0,0,.17.87.84.84,0,0,0,.36.41,2.3,2.3,0,0,0,.73.24v.48a7.13,7.13,0,0,1-1.08-.12,9.65,9.65,0,0,1-1.23-.28,10.34,10.34,0,0,1-1.24.29,6.19,6.19,0,0,1-1.09.11v-.48a2.21,2.21,0,0,0,.77-.23.89.89,0,0,0,.37-.42,3.34,3.34,0,0,0,.14-.77c0-.34,0-.95,0-1.84v-3c0-.64,0-1.15,0-1.53s0-.75-.05-1.13h-.77a1.24,1.24,0,0,0-1,.42,3.12,3.12,0,0,0-.49,1.47h-.44c0-.33.05-.66.1-1s.12-.67.21-1a2.66,2.66,0,0,1-.1-.49C265.4,40.94,265.38,40.77,265.37,40.6Z"/><path class="cls-2" d="M274.35,44l.28.25c0,.26-.07.53-.09.79s0,.52,0,.78l.14.05a3.26,3.26,0,0,1,.57-1.36,1.1,1.1,0,0,1,.89-.47.86.86,0,0,1,.67.28A1,1,0,0,1,277,45a1.53,1.53,0,0,1-.17.69,2.16,2.16,0,0,1-.5.6,1.34,1.34,0,0,0-.35-.49.68.68,0,0,0-.44-.18.6.6,0,0,0-.58.43,4,4,0,0,0-.17,1.41v.71a5,5,0,0,0,.22,2,1.12,1.12,0,0,0,.88.44v.5a8.27,8.27,0,0,1-1-.11,10.17,10.17,0,0,1-1-.24c-.3.09-.59.17-.87.23s-.56.09-.84.12v-.5a.68.68,0,0,0,.62-.4,6.12,6.12,0,0,0,.16-1.88V47.1a5.08,5.08,0,0,0-.14-1.62.55.55,0,0,0-.55-.3h-.09V44.7a4.05,4.05,0,0,1,.6-.11c.23,0,.54,0,.92,0l.06-.06C274,44.28,274.2,44.12,274.35,44Z"/><path class="cls-2" d="M282.78,47v1.4a5.47,5.47,0,0,0,.1,1.29c.07.19.18.29.35.29l.15,0,.19-.08.15.38A2.64,2.64,0,0,1,283,51a1.44,1.44,0,0,1-.75.26,1,1,0,0,1-.75-.3,1.63,1.63,0,0,1-.38-.91,2,2,0,0,1-.8.89,2.19,2.19,0,0,1-1.19.32,1.59,1.59,0,0,1-1.2-.45,1.77,1.77,0,0,1-.43-1.25,1.71,1.71,0,0,1,.51-1.32,4.08,4.08,0,0,1,1.83-.8,2.09,2.09,0,0,0,.95-.38,1.12,1.12,0,0,0,.15-.68,3.68,3.68,0,0,0-.16-1.36.56.56,0,0,0-.56-.34.65.65,0,0,0-.54.27,1.08,1.08,0,0,0-.21.7,1.84,1.84,0,0,0,0,.39,2.22,2.22,0,0,0,.1.41,1.36,1.36,0,0,1-.4.2,1.65,1.65,0,0,1-.46.06.64.64,0,0,1-.52-.24,1,1,0,0,1-.19-.65,1.5,1.5,0,0,1,.67-1.26,2.85,2.85,0,0,1,1.76-.5,2.08,2.08,0,0,1,1.75.69A3.75,3.75,0,0,1,282.78,47Zm-1.83.68-.06,0c-.95.37-1.42.86-1.42,1.49a1.1,1.1,0,0,0,.19.68.56.56,0,0,0,.49.26.63.63,0,0,0,.6-.35,2.13,2.13,0,0,0,.2-1Z"/><path class="cls-2" d="M286.6,44l.32.26c0,.27-.06.56-.07.87s0,.74,0,1.26V48.6a4.63,4.63,0,0,0,.17,1.63.86.86,0,0,0,.7.39v.5a6.7,6.7,0,0,1-.9-.1,6.52,6.52,0,0,1-.91-.25,7.9,7.9,0,0,1-.95.25,5.41,5.41,0,0,1-.86.1v-.5a.79.79,0,0,0,.7-.38,5.22,5.22,0,0,0,.18-1.81V47a4.52,4.52,0,0,0-.14-1.52.56.56,0,0,0-.56-.28h-.06V44.7l.69-.12c.21,0,.4,0,.58,0h.47a2.76,2.76,0,0,1,.3-.29Zm-.84-3.27a.82.82,0,0,1,.68.36,1.45,1.45,0,0,1,.27.89,1.42,1.42,0,0,1-.27.88.81.81,0,0,1-1.35,0,1.39,1.39,0,0,1-.28-.89,1.41,1.41,0,0,1,.27-.89A.84.84,0,0,1,285.76,40.73Z"/><path class="cls-2" d="M290.43,44l.28.24-.06.51,0,.51.12.06a2.15,2.15,0,0,1,.74-1,1.85,1.85,0,0,1,1.11-.34,1.68,1.68,0,0,1,1.55.81,5.2,5.2,0,0,1,.49,2.57v1.09a5.5,5.5,0,0,0,.16,1.76.73.73,0,0,0,.64.4v.49a4.32,4.32,0,0,1-.79-.08,6,6,0,0,1-.87-.26,3.79,3.79,0,0,1-.58.22l-.55.12c0-.39.06-.88.08-1.45s0-1.22,0-1.92a7.64,7.64,0,0,0-.2-2.19.74.74,0,0,0-.73-.53.79.79,0,0,0-.74.55,4.46,4.46,0,0,0-.24,1.68v1.19a5.66,5.66,0,0,0,.16,1.78.73.73,0,0,0,.64.4v.49a6.46,6.46,0,0,1-.84-.11,6.25,6.25,0,0,1-.87-.23A8.23,8.23,0,0,1,289,51a6.12,6.12,0,0,1-.8.11v-.49a.7.7,0,0,0,.63-.4,6.62,6.62,0,0,0,.16-1.89V47.1a5.41,5.41,0,0,0-.14-1.62.56.56,0,0,0-.56-.3h-.09v-.5c.27-.06.52-.1.74-.13l.62,0h.27l.34-.33Z"/><path class="cls-2" d="M298.33,44l.33.26c0,.27-.06.56-.08.87s0,.74,0,1.26V48.6a4.31,4.31,0,0,0,.18,1.63.83.83,0,0,0,.69.39v.5a5.88,5.88,0,0,1-1.81-.35,7.44,7.44,0,0,1-.95.25,5.16,5.16,0,0,1-.86.1v-.5a.82.82,0,0,0,.71-.38,5.49,5.49,0,0,0,.18-1.81V47a4.81,4.81,0,0,0-.14-1.52.58.58,0,0,0-.57-.28h-.06V44.7l.7-.12c.2,0,.4,0,.57,0h.47a4.11,4.11,0,0,1,.3-.29Zm-.84-3.27a.82.82,0,0,1,.68.36,1.45,1.45,0,0,1,.28.89,1.42,1.42,0,0,1-.28.88.81.81,0,0,1-1.35,0,1.45,1.45,0,0,1-.27-.89,1.41,1.41,0,0,1,.27-.89A.81.81,0,0,1,297.49,40.73Z"/><path class="cls-2" d="M302.16,44l.28.24-.06.51,0,.51.13.06a2.13,2.13,0,0,1,.73-1,1.86,1.86,0,0,1,1.12-.34,1.67,1.67,0,0,1,1.54.81,5.09,5.09,0,0,1,.49,2.57v1.09a5.39,5.39,0,0,0,.17,1.76.72.72,0,0,0,.63.4v.49a4.32,4.32,0,0,1-.79-.08,6,6,0,0,1-.87-.26,3.69,3.69,0,0,1-.57.22l-.56.12c0-.39.06-.88.08-1.45s0-1.22,0-1.92a7.17,7.17,0,0,0-.21-2.19.72.72,0,0,0-.72-.53.78.78,0,0,0-.74.55,4.23,4.23,0,0,0-.25,1.68v1.19a5.55,5.55,0,0,0,.17,1.78.72.72,0,0,0,.63.4v.49a6.1,6.1,0,0,1-.83-.11,6,6,0,0,1-.88-.23,8.23,8.23,0,0,1-.92.23,6,6,0,0,1-.79.11v-.49a.7.7,0,0,0,.63-.4,6.25,6.25,0,0,0,.16-1.89V47.1a5.41,5.41,0,0,0-.14-1.62.55.55,0,0,0-.56-.3h-.09v-.5c.27-.06.52-.1.74-.13l.62,0h.28a3.44,3.44,0,0,1,.34-.33A3.08,3.08,0,0,1,302.16,44Z"/><path class="cls-2" d="M313.73,44.25l-.15.86a.42.42,0,0,1-.19.32.94.94,0,0,1-.5.1h-.22a3.06,3.06,0,0,1,.2.58,3,3,0,0,1,.06.6,2.76,2.76,0,0,1-.63,1.88,2.58,2.58,0,0,1-1.74.84h-.2c-.48,0-.72.2-.72.5s.41.55,1.23.67l.15,0a4,4,0,0,1,2,.7,1.81,1.81,0,0,1,.56,1.47,2.35,2.35,0,0,1-.92,1.93,4.21,4.21,0,0,1-4.44.24,1.63,1.63,0,0,1-.74-1.41,1.51,1.51,0,0,1,.48-1.18,2.46,2.46,0,0,1,1.41-.51v-.14a1.5,1.5,0,0,1-.9-.38,1,1,0,0,1-.32-.8,1.09,1.09,0,0,1,.34-.81,1.61,1.61,0,0,1,.91-.42v-.07a2.15,2.15,0,0,1-1.21-.85,2.74,2.74,0,0,1-.44-1.57,2.78,2.78,0,0,1,.68-2,2.34,2.34,0,0,1,1.82-.74,4.07,4.07,0,0,1,1.2.2,5.42,5.42,0,0,0,.73.2,3.45,3.45,0,0,0,.58-.06C313,44.43,313.32,44.35,313.73,44.25ZM312,53.47a1.07,1.07,0,0,0-.41-.89,1.91,1.91,0,0,0-1.17-.32,1.61,1.61,0,0,0-1.1.34,1.16,1.16,0,0,0-.4.93,1.24,1.24,0,0,0,.38.94,1.54,1.54,0,0,0,1.06.35,1.77,1.77,0,0,0,1.19-.37A1.21,1.21,0,0,0,312,53.47Zm-1.62-8.71a.69.69,0,0,0-.65.45,3.43,3.43,0,0,0-.21,1.38,4.31,4.31,0,0,0,.23,1.62c.16.38.38.57.67.57a.67.67,0,0,0,.62-.46,3.29,3.29,0,0,0,.21-1.33,4.7,4.7,0,0,0-.22-1.66C310.89,45,310.68,44.76,310.39,44.76Z"/><path class="cls-2" d="M325,40.75l.36.18a4.23,4.23,0,0,1-.12.56,4.13,4.13,0,0,1-.15.5c0,.37.07.71.09,1s0,.59,0,.86v.19h-.55a3.85,3.85,0,0,0-.67-2,1.75,1.75,0,0,0-1.46-.69,2.1,2.1,0,0,0-1.87,1.21,6.58,6.58,0,0,0-.7,3.3,6.81,6.81,0,0,0,.73,3.45,2.23,2.23,0,0,0,2,1.24,2,2,0,0,0,1.47-.59,3,3,0,0,0,.71-1.71h.54c0,.24-.06.5-.1.76s-.09.55-.15.84a2.61,2.61,0,0,1,.08.33c0,.11,0,.22.05.32a4.3,4.3,0,0,1-1.3.59,5.67,5.67,0,0,1-1.54.21,4.62,4.62,0,0,1-3.55-1.39,5.35,5.35,0,0,1-1.29-3.78,5.75,5.75,0,0,1,1.31-4,4.49,4.49,0,0,1,3.53-1.48,6.06,6.06,0,0,1,1.33.17,6.7,6.7,0,0,0,.85.16.41.41,0,0,0,.17-.05A1.59,1.59,0,0,0,325,40.75Z"/><path class="cls-2" d="M331.72,47.06h-2.93a.72.72,0,0,0-.44.1c-.07.06-.1.2-.1.41a3.11,3.11,0,0,0,.54,1.87,1.65,1.65,0,0,0,1.39.76A1.86,1.86,0,0,0,331,50a2.3,2.3,0,0,0,.73-.57l.18.46a2.88,2.88,0,0,1-1.13,1,3.45,3.45,0,0,1-1.59.36,2.55,2.55,0,0,1-2.08-1,3.91,3.91,0,0,1-.79-2.55,4.17,4.17,0,0,1,.85-2.7A2.61,2.61,0,0,1,329.3,44a2.27,2.27,0,0,1,1.75.76,2.71,2.71,0,0,1,.69,1.88v.16C331.74,46.86,331.73,47,331.72,47.06Zm-2-.61a.38.38,0,0,0,.26-.06.36.36,0,0,0,.07-.24,1.87,1.87,0,0,0-.29-1,.82.82,0,0,0-.68-.45.74.74,0,0,0-.65.42,2.21,2.21,0,0,0-.24,1.1,1,1,0,0,0,0,.17v.1Z"/><path class="cls-2" d="M334.63,44l.28.24c0,.17,0,.34-.05.51s0,.34,0,.51l.13.06a2.07,2.07,0,0,1,.73-1,1.85,1.85,0,0,1,1.11-.34,1.68,1.68,0,0,1,1.55.81,5.09,5.09,0,0,1,.49,2.57v1.09a5.5,5.5,0,0,0,.16,1.76.74.74,0,0,0,.64.4v.49a4.32,4.32,0,0,1-.79-.08,6,6,0,0,1-.87-.26,3.44,3.44,0,0,1-.58.22l-.55.12c0-.39.06-.88.08-1.45s0-1.22,0-1.92a7.17,7.17,0,0,0-.21-2.19A.73.73,0,0,0,336,45a.8.8,0,0,0-.75.55,4.46,4.46,0,0,0-.24,1.68v1.19a5.55,5.55,0,0,0,.17,1.78.72.72,0,0,0,.63.4v.49A6.1,6.1,0,0,1,335,51a6,6,0,0,1-.88-.23,8.23,8.23,0,0,1-.92.23,6,6,0,0,1-.79.11v-.49a.7.7,0,0,0,.63-.4,6.25,6.25,0,0,0,.16-1.89V47.1a5.41,5.41,0,0,0-.14-1.62.55.55,0,0,0-.56-.3h-.09v-.5c.27-.06.52-.1.74-.13l.62,0H334q.18-.2.33-.33Z"/><path class="cls-2" d="M341.73,42.56h.85v2l1.25,0v.89l-1.25,0v3.05a3.3,3.3,0,0,0,.2,1.33.69.69,0,0,0,.66.42.86.86,0,0,0,.4-.11,1.54,1.54,0,0,0,.4-.34l.22.49a2.49,2.49,0,0,1-.86.74,2.08,2.08,0,0,1-1,.25,1.57,1.57,0,0,1-1.46-.68,5.93,5.93,0,0,1-.42-2.74V45.4h-.62v-.6a1.73,1.73,0,0,0,1.16-.66A3.11,3.11,0,0,0,341.73,42.56Z"/><path class="cls-2" d="M350.12,47.06h-2.93a.7.7,0,0,0-.44.1.56.56,0,0,0-.11.41,3.11,3.11,0,0,0,.55,1.87,1.64,1.64,0,0,0,1.39.76,1.86,1.86,0,0,0,.81-.2,2.3,2.3,0,0,0,.73-.57l.18.46a2.88,2.88,0,0,1-1.13,1,3.51,3.51,0,0,1-1.59.36,2.54,2.54,0,0,1-2.08-1,3.91,3.91,0,0,1-.79-2.55,4.17,4.17,0,0,1,.85-2.7A2.6,2.6,0,0,1,347.7,44a2.24,2.24,0,0,1,1.74.76,2.67,2.67,0,0,1,.7,1.88v.16C350.13,46.86,350.13,47,350.12,47.06Zm-2-.61a.38.38,0,0,0,.26-.06.37.37,0,0,0,.06-.24,1.86,1.86,0,0,0-.28-1,.82.82,0,0,0-.68-.45.73.73,0,0,0-.65.42,2.21,2.21,0,0,0-.24,1.1,1,1,0,0,0,0,.17v.1Z"/><path class="cls-2" d="M353,44l.28.25c0,.26-.06.53-.08.79s0,.52,0,.78l.14.05a3.26,3.26,0,0,1,.57-1.36,1.1,1.1,0,0,1,.89-.47.86.86,0,0,1,.67.28,1,1,0,0,1,.26.71,1.41,1.41,0,0,1-.17.69,2,2,0,0,1-.5.6,1.34,1.34,0,0,0-.35-.49.66.66,0,0,0-.44-.18.6.6,0,0,0-.58.43,4.22,4.22,0,0,0-.17,1.41v.71a5,5,0,0,0,.22,2,1.12,1.12,0,0,0,.88.44v.5a8.49,8.49,0,0,1-1-.11,9.41,9.41,0,0,1-1-.24c-.31.09-.6.17-.88.23s-.56.09-.84.12v-.5a.7.7,0,0,0,.63-.4,6.48,6.48,0,0,0,.16-1.88V47.1a5.41,5.41,0,0,0-.14-1.62.56.56,0,0,0-.56-.3h-.09V44.7a4.05,4.05,0,0,1,.6-.11l.92,0,.06-.06C352.61,44.28,352.81,44.12,353,44Z"/></g></g></svg>