<svg xmlns="http://www.w3.org/2000/svg" viewBox="0 0 345.36 52.56"><defs><style>.cls-1,.cls-2{fill:#ec1c24;stroke:#ec1c24;}.cls-1,.cls-2,.cls-3{stroke-miterlimit:10;}.cls-1{stroke-width:0.1px;}.cls-2,.cls-3{stroke-width:0.4px;}.cls-3{fill:#007089;stroke:#007089;}</style></defs><g id="Layer_2" data-name="Layer 2"><g id="Layer_1-2" data-name="Layer 1"><path class="cls-1" d="M89.06,4.63H87.42v7.76s0,0-.09-.13l-.26-.3-.42-.44,0-4a2.52,2.52,0,0,0-.16-.84,3.38,3.38,0,0,0-1.13-1.54,1.41,1.41,0,0,0-.82-.27A1.72,1.72,0,0,0,82.86,6a1.27,1.27,0,0,1,.39-.12l.41,0a1.75,1.75,0,0,1,1.06.32,1.17,1.17,0,0,1,.43,1,1.67,1.67,0,0,1-.14.63,6,6,0,0,1-.36.64A6.55,6.55,0,0,1,84.2,9c-.16.19-.3.35-.43.48l-.87-1,.37-.36.53-.54c.17-.19.33-.37.46-.54a.83.83,0,0,0,.2-.39.27.27,0,0,0-.12-.25.55.55,0,0,0-.29-.08.75.75,0,0,0-.3.1l-.41.22c-.14.07-.28.15-.42.21a.75.75,0,0,1-.33.11.59.59,0,0,1-.33-.11A1,1,0,0,1,82,6.62a1.17,1.17,0,0,1-.24-.69,1.8,1.8,0,0,1,.18-.8,2,2,0,0,1,.49-.62,2.36,2.36,0,0,1,.69-.4A2.39,2.39,0,0,1,83.91,4a4.39,4.39,0,0,1,1.33.17,1.94,1.94,0,0,1,.83.54,2.72,2.72,0,0,1,.53.88c.13.35.27.76.42,1.22,0-.73-.08-1.42-.13-2.08s-.08-1.36-.08-2.09l.45.43a.52.52,0,0,0-.05.22.91.91,0,0,0,.07.42.32.32,0,0,0,.2.16,1,1,0,0,0,.31,0h.41l.11,0Z"/><path class="cls-1" d="M91,3.84a1.56,1.56,0,0,1,.88.25,2.71,2.71,0,0,1,.67.64,4,4,0,0,1,.48.83,6.15,6.15,0,0,1,.3.84l-.13-1.75c0-.16,0-.35,0-.56l0-.62c0-.2,0-.38,0-.55s0-.28,0-.35a2.21,2.21,0,0,1,.32.41c.07.11.12.21.17.3a2.07,2.07,0,0,0,.2.27,2.24,2.24,0,0,0,.4.33h.53l.75.75H93.73v7.56s0,0-.08-.12l-.27-.3L93,11.36l0-4.14a2.4,2.4,0,0,0-.15-.81,2.48,2.48,0,0,0-.41-.75,2.51,2.51,0,0,0-.63-.54A1.54,1.54,0,0,0,91,4.9a1.21,1.21,0,0,0-.52.13,1.61,1.61,0,0,0-.44.32,1.77,1.77,0,0,0-.31.46,1.4,1.4,0,0,0-.11.53,1.71,1.71,0,0,0,0,.36,1.45,1.45,0,0,0,.12.42,1.25,1.25,0,0,0,.22.34.42.42,0,0,0,.33.14,1,1,0,0,0,0-.24V7.12a.47.47,0,0,1,.2-.45A1,1,0,0,1,91,6.55a.88.88,0,0,1,.64.28.9.9,0,0,1,.26.65.8.8,0,0,1-.12.43,1,1,0,0,1-.31.31,1.17,1.17,0,0,1-.42.2,1.5,1.5,0,0,1-.45.07,2,2,0,0,1-.83-.17,1.87,1.87,0,0,1-.64-.47,2.06,2.06,0,0,1-.41-.68,2.25,2.25,0,0,1-.15-.82,2.86,2.86,0,0,1,.16-1,2.38,2.38,0,0,1,.46-.79A2.09,2.09,0,0,1,90,4,2.33,2.33,0,0,1,91,3.84Z"/><path class="cls-1" d="M103,4.63h-1.63v7.56a2.21,2.21,0,0,1-.45-.37l-.38-.4c0-.71,0-1.35,0-1.91,0-.24,0-.48,0-.71s0-.44,0-.62,0-.39,0-.61a.94.94,0,0,0-.09-.36,4.25,4.25,0,0,0-.21-.43,2.7,2.7,0,0,0-.27-.39,1.06,1.06,0,0,0-.26-.26L97.28,8.68l-1.09-.4a1.75,1.75,0,0,1,.24-.23l.25-.25a1.31,1.31,0,0,0,.2-.28A.65.65,0,0,0,97,7.2,2.29,2.29,0,0,0,97,7a1,1,0,0,0-.08-.26.7.7,0,0,0-.15-.19.39.39,0,0,0-.25-.07.71.71,0,0,0-.24,0l-.25.1-.25.1a.68.68,0,0,1-.23,0,.52.52,0,0,1-.4-.21.59.59,0,0,1-.17-.4,1.23,1.23,0,0,1,.32-.82A3,3,0,0,1,96,4.62a4.9,4.9,0,0,1,1-.46A2.94,2.94,0,0,1,97.85,4a2.35,2.35,0,0,1,1.05.24,3.3,3.3,0,0,1,.89.64,4.22,4.22,0,0,1,.67.9,3.81,3.81,0,0,1,.37,1,14.54,14.54,0,0,1-.2-2c0-.64,0-1.32,0-2l.4.3,0,.08a1.14,1.14,0,0,0,.11.46,1.1,1.1,0,0,0,.37.29h.75Zm-3.83.71a1.41,1.41,0,0,0-1.12-.54,2.26,2.26,0,0,0-1,.22,1.63,1.63,0,0,0-.69.73h.06a.77.77,0,0,1,.44.12,1.22,1.22,0,0,1,.36.32,1.35,1.35,0,0,1,.2.44.69.69,0,0,1,0,.45Z"/><path class="cls-1" d="M101.29,12.64a1.93,1.93,0,0,1-.13-.21,2.53,2.53,0,0,0-.13-.22A.8.8,0,0,1,101,12c-.16-.27-.29-.5-.41-.68a1.71,1.71,0,0,0-.4-.44,1.66,1.66,0,0,0-.54-.23,3.89,3.89,0,0,0-.83-.07c-.33,0-.64,0-1,0s-.63,0-1,0a2.83,2.83,0,0,1-.93-.15,2.34,2.34,0,0,1-.76-.46,2.32,2.32,0,0,1-.53-.71,2.14,2.14,0,0,1-.2-.92c0-.19,0-.4,0-.61a3.08,3.08,0,0,1,.07-.61l.42.42a.72.72,0,0,0-.08.32,1.27,1.27,0,0,0,.32.94,1.78,1.78,0,0,0,.83.43,4.75,4.75,0,0,0,1.14.16q.63,0,1.26.12a5.79,5.79,0,0,1,1.21.3,2.08,2.08,0,0,1,1,.72l.29.39a3.29,3.29,0,0,1,.23.33,2.38,2.38,0,0,1,.17.31,2.52,2.52,0,0,1,.13.33v.79A1,1,0,0,1,101.29,12.64Z"/><path class="cls-1" d="M111.81,4.63h-5.09a.26.26,0,0,0-.15,0,.76.76,0,0,0-.19.12.61.61,0,0,0-.17.15.21.21,0,0,0-.07.14c0,.13.09.24.27.34a2.94,2.94,0,0,0,.63.24,6.19,6.19,0,0,0,.7.14,4,4,0,0,0,.49,0l.35,0,.39-.1.39-.12.33-.11,1.12,1.15a2.92,2.92,0,0,0-.82,1.1,5.93,5.93,0,0,0-.42,1.47,6.37,6.37,0,0,0,0,1.57,4.32,4.32,0,0,0,.32,1.35h0l-.37-.06a.84.84,0,0,1-.32-.14c-.1-.51-.17-1-.22-1.5a15.16,15.16,0,0,1-.08-1.52,4.56,4.56,0,0,1,.14-1.11,9.65,9.65,0,0,1,.33-1.08,7.16,7.16,0,0,1-1.2-.09,5.13,5.13,0,0,1-.94-.24,2.73,2.73,0,0,1-.7-.37,2.26,2.26,0,0,1-.5-.47.61.61,0,0,0-.38.17,2,2,0,0,0-.38.39,2.66,2.66,0,0,0-.3.47,1,1,0,0,0-.12.41.46.46,0,0,0,.15.38.65.65,0,0,0,.41.12.9.9,0,0,0,.35-.08l.45-.19a4.71,4.71,0,0,0,.45-.22l.35-.17.11,0c.09,0,.2,0,.33.2a4.72,4.72,0,0,1,.36.57,5.93,5.93,0,0,1,.29.69,1.88,1.88,0,0,1,.12.56,1.92,1.92,0,0,1-.16.79,2,2,0,0,1-.44.65,2.21,2.21,0,0,1-.64.44,1.92,1.92,0,0,1-.79.16,2.32,2.32,0,0,1-1.1-.25,3,3,0,0,1-.86-.65,3.89,3.89,0,0,1-.63-.91,8.39,8.39,0,0,1-.44-1,3.55,3.55,0,0,1-.16-.66c0-.25-.06-.51-.08-.76s0-.52,0-.77,0-.48,0-.69a1.13,1.13,0,0,0,.21.12l.21.12v.31a5.2,5.2,0,0,0,.09,1.11A4.35,4.35,0,0,0,103.61,8a4.17,4.17,0,0,0,.59.93,3.25,3.25,0,0,0,.85.71,1.37,1.37,0,0,0,.72.18,2.63,2.63,0,0,0,.84-.13,1.88,1.88,0,0,0,.7-.37.75.75,0,0,0,.29-.59.67.67,0,0,0,0-.18.86.86,0,0,0-.07-.21.64.64,0,0,0-.13-.15.24.24,0,0,0-.18-.07.69.69,0,0,0-.24.06l-.33.12-.39.12a1.37,1.37,0,0,1-.39.06,1.48,1.48,0,0,1-.7-.17,1.74,1.74,0,0,1-.54-.43,2.1,2.1,0,0,1-.49-1.33,1.69,1.69,0,0,1,.1-.56,1.77,1.77,0,0,1,.25-.47A3.37,3.37,0,0,1,104.8,5c.13-.14.25-.28.38-.41h-3l-.74-.75h9.59Z"/><path class="cls-1" d="M114.61,4.63h-1.84v7.82s-.06,0-.14-.12a3,3,0,0,0-.25-.26l-.36-.38V6.08a3.86,3.86,0,0,0,0-.61,1.67,1.67,0,0,0-.19-.49.88.88,0,0,0-.36-.3,1.07,1.07,0,0,0-.55,0l-.6-.75a1.29,1.29,0,0,0,.28,0h.22a1.45,1.45,0,0,1,.54.09.94.94,0,0,1,.4.28,1.59,1.59,0,0,1,.31.5,5.94,5.94,0,0,1,.29.75,2.82,2.82,0,0,0,0-.41c0-.13,0-.3-.07-.49s-.07-.43-.11-.71S112,3.26,112,2.83l.31.24a2.07,2.07,0,0,0,.06.26.75.75,0,0,0,.07.18,1.33,1.33,0,0,0,.12.16,2.2,2.2,0,0,1,.19.21h1.13Z"/><path class="cls-1" d="M123.2,4.63h-9.34l-.74-.75h9.3Zm-1.3,4.08a3,3,0,0,1-.29,1,2.79,2.79,0,0,1-.61.82,3,3,0,0,1-.87.54,2.78,2.78,0,0,1-1,.19,2.61,2.61,0,0,1-1.26-.31,4,4,0,0,1-1.07-.83A6.67,6.67,0,0,1,115.89,9a14.49,14.49,0,0,1-.71-1.35c-.2-.46-.38-.91-.53-1.36s-.28-.85-.38-1.2l.43.17c.12.32.27.65.43,1s.34.72.53,1.07a8.49,8.49,0,0,0,.65,1,5,5,0,0,0,.78.87,3.52,3.52,0,0,0,.94.61,2.73,2.73,0,0,0,1.12.23,1.85,1.85,0,0,0,.71-.15,2.51,2.51,0,0,0,.66-.41,2.57,2.57,0,0,0,.5-.59,1.91,1.91,0,0,0,.23-.71,1.53,1.53,0,0,0-.1-.7,1.79,1.79,0,0,0-.36-.61,1.67,1.67,0,0,0-.52-.44,1.24,1.24,0,0,0-.59-.17,1,1,0,0,0-.25,0l-.23,0a1.39,1.39,0,0,1,.21.4,1.74,1.74,0,0,1,.06.45,1,1,0,0,1-.31.82,1.38,1.38,0,0,1-.85.24,1.13,1.13,0,0,1-1-.4,1.61,1.61,0,0,1-.32-1,1.37,1.37,0,0,1,.15-.64,1.72,1.72,0,0,1,.4-.49,2,2,0,0,1,1.21-.44,3.13,3.13,0,0,1,2.24,1,3.3,3.3,0,0,1,.68,1.09A3.22,3.22,0,0,1,121.9,8.71Z"/><path class="cls-1" d="M125.28,6.05h-.12l-.17,0-.14,0a.12.12,0,0,0-.06.09.41.41,0,0,0,.11.24.46.46,0,0,1,.11.29.67.67,0,0,1-.26.54.91.91,0,0,1-.57.21.92.92,0,0,1-.92-.62,1.24,1.24,0,0,1-.06-.58,1.33,1.33,0,0,1,.22-.57,1.31,1.31,0,0,1,.49-.44,1.54,1.54,0,0,1,.77-.17,3.32,3.32,0,0,1,.75.1,2,2,0,0,1,.6.26,2.67,2.67,0,0,1,.49.41c.14.16.29.34.45.55V4.63h-4.83l-.79-.75h7.24l.75.75h-1.63V7.74H127a1.11,1.11,0,0,0-.15-.66,2.07,2.07,0,0,0-.48-.54,2.65,2.65,0,0,0-.6-.36A1.4,1.4,0,0,0,125.28,6.05Z"/><path class="cls-1" d="M127.74,12.81l-.28-.25a2.35,2.35,0,0,0-.55-.77,1.31,1.31,0,0,0-.91-.28,3.54,3.54,0,0,0-.85.11,3.08,3.08,0,0,1-.86.12,2.5,2.5,0,0,1-.88-.16,2.06,2.06,0,0,1-.69-.45,2.09,2.09,0,0,1-.46-.69,2.3,2.3,0,0,1-.16-.88c0-.11,0-.22,0-.35s0-.27.08-.4a2.22,2.22,0,0,1,.12-.39,1.8,1.8,0,0,1,.15-.31l.34.27a3.1,3.1,0,0,0-.14.88,1.91,1.91,0,0,0,.1.68,1,1,0,0,0,.29.42,1.06,1.06,0,0,0,.48.22,3.18,3.18,0,0,0,.66.07,5.16,5.16,0,0,0,.67-.05,4.87,4.87,0,0,1,.66,0,3.48,3.48,0,0,1,.49,0,1.37,1.37,0,0,1,.36.11,1.48,1.48,0,0,1,.29.22c.1.09.2.2.32.33V8.11a2.09,2.09,0,0,0,0-.25,1.69,1.69,0,0,0,0-.24.76.76,0,0,0-.12-.19.66.66,0,0,0-.22-.12.91.91,0,0,0-.44.12,1.4,1.4,0,0,0-.38.31,1.64,1.64,0,0,0-.29.4,1.34,1.34,0,0,0-.16.43,1.15,1.15,0,0,1,.34-.07.52.52,0,0,1,.43.21.68.68,0,0,1,.17.45.7.7,0,0,1-.09.35.92.92,0,0,1-.23.25,1.07,1.07,0,0,1-.32.16,1,1,0,0,1-.34.05,1,1,0,0,1-.47-.1,1,1,0,0,1-.34-.27,1.18,1.18,0,0,1-.19-.39,1.63,1.63,0,0,1-.06-.45,1.67,1.67,0,0,1,.21-.79,2.55,2.55,0,0,1,.55-.71,2.93,2.93,0,0,1,.75-.51,1.85,1.85,0,0,1,.8-.2,1,1,0,0,1,1.09.71,2.06,2.06,0,0,1,.11.68c0,.25,0,.49,0,.72Z"/><path class="cls-1" d="M132.42,4.63h-2.07v7.64l-.13-.12L130,11.9l-.37-.37V4.63h-.95l-.78-.75h1.82a4.14,4.14,0,0,0-.55-1.4,3.24,3.24,0,0,0-.93-.95A4.09,4.09,0,0,0,127,1a6.56,6.56,0,0,0-1.5-.17l-.48,0a5.54,5.54,0,0,0-.69.12,2.66,2.66,0,0,0-.62.22.41.41,0,0,0-.26.36c0,.15.09.25.29.29a3.45,3.45,0,0,0,.73.09l1,.05a3.2,3.2,0,0,1,1,.17,1.77,1.77,0,0,1,.73.45,1.31,1.31,0,0,1,.29.91,1.61,1.61,0,0,1-.07.46h-.78c.08-.07.15-.15.23-.23a.42.42,0,0,0,.12-.29.38.38,0,0,0-.28-.39,3,3,0,0,0-.72-.15l-.92-.08a3.93,3.93,0,0,1-.93-.16,1.55,1.55,0,0,1-.71-.4,1.06,1.06,0,0,1-.29-.8.84.84,0,0,1,.32-.65,3,3,0,0,1,.77-.43A5,5,0,0,1,125,.13a5.06,5.06,0,0,1,.75-.08,4.49,4.49,0,0,1,1,.11c.32.08.62.17.92.27a3.13,3.13,0,0,1,1,.55,3.61,3.61,0,0,1,.75.81,5.64,5.64,0,0,1,.54,1,8.74,8.74,0,0,1,.37,1.09h1.35Z"/><path class="cls-1" d="M142.8,4.63h-1.61v7.84a.31.31,0,0,0-.2-.13.21.21,0,0,1-.18-.14.38.38,0,0,1-.08-.18l-.06-.26c0-.1,0-.21-.07-.32a1.6,1.6,0,0,0-.1-.31,3.13,3.13,0,0,0-.71-1,5.35,5.35,0,0,0-.95-.71,4.38,4.38,0,0,0-.91-.41,4,4,0,0,0-1-.2l-1-1.36a19.78,19.78,0,0,1,2.14-1.31,15.54,15.54,0,0,1,2.3-1v-.5h-4.81l-.72-.75h7.16Zm-2.36,1.69A9.7,9.7,0,0,0,139,7c-.48.25-.94.54-1.4.84a6.6,6.6,0,0,1,1.64,1,5.05,5.05,0,0,1,1.23,1.45Z"/><path class="cls-1" d="M145.77,4.63h-1.83v7.82s-.07,0-.14-.12l-.26-.26-.35-.38V6.08a2.93,2.93,0,0,0-.06-.61,1.43,1.43,0,0,0-.19-.49.92.92,0,0,0-.35-.3,1.11,1.11,0,0,0-.56,0l-.59-.75a1.19,1.19,0,0,0,.27,0h.22a1.51,1.51,0,0,1,.55.09,1.08,1.08,0,0,1,.4.28,1.79,1.79,0,0,1,.31.5,8,8,0,0,1,.29.75,2.83,2.83,0,0,0,0-.41c0-.13,0-.3-.07-.49s-.06-.43-.1-.71-.09-.63-.13-1.06l.3.24a2.07,2.07,0,0,0,.06.26.75.75,0,0,0,.08.18,1.33,1.33,0,0,0,.12.16l.19.21H145Z"/><path class="cls-1" d="M147,7.73a1.71,1.71,0,0,1-.67-.14,1.76,1.76,0,0,1-.92-.94,1.67,1.67,0,0,1-.13-.67,1.37,1.37,0,0,1,.14-.62,1.79,1.79,0,0,1,.37-.54,1.68,1.68,0,0,1,.52-.4,1.38,1.38,0,0,1,.62-.15,1.59,1.59,0,0,1,1.18.54,1.71,1.71,0,0,1,.35.56,1.85,1.85,0,0,1,.13.66,1.78,1.78,0,0,1-.13.64,1.9,1.9,0,0,1-.34.54,1.66,1.66,0,0,1-.5.38A1.44,1.44,0,0,1,147,7.73Zm2.88,5.32c-.66-.63-1.32-1.21-2-1.75s-1.38-1.06-2.14-1.58V8a17.9,17.9,0,0,1,2.18,2.08c.67.76,1.32,1.52,2,2.31Zm-2.54-8a1.08,1.08,0,0,0-.48.13,1.57,1.57,0,0,0-.4.33,1.82,1.82,0,0,0-.29.45,1.23,1.23,0,0,0-.1.49.8.8,0,0,0,.08.39.35.35,0,0,0,.35.17.82.82,0,0,0,.33-.09,1.86,1.86,0,0,0,.39-.21,3,3,0,0,0,.35-.27,1.1,1.1,0,0,0,.21-.27,1.07,1.07,0,0,0,.07-.34,1.05,1.05,0,0,0,0-.36.62.62,0,0,0-.16-.3A.41.41,0,0,0,147.29,5Z"/><path class="cls-1" d="M156.17,4.63v7.64c-.12-.11-.23-.21-.32-.31l-.25-.24-.18-.17V7.41a.75.75,0,0,0-.09-.34,1.14,1.14,0,0,0-.53-.53.79.79,0,0,0-.34-.09.54.54,0,0,0-.46.2.82.82,0,0,0-.15.5,1.06,1.06,0,0,0,0,.25,1.87,1.87,0,0,0,0,.25l-.32.12a1.15,1.15,0,0,0-.21-.51,1.49,1.49,0,0,0-.38-.41,2,2,0,0,0-.49-.28,1.77,1.77,0,0,0-.54-.13,1.5,1.5,0,0,0-1,.2,1.12,1.12,0,0,0-.51.8,1.13,1.13,0,0,0,.09.7.77.77,0,0,0,.6.36,1,1,0,0,1-.17-.27.81.81,0,0,1-.06-.31.84.84,0,0,1,.27-.59.82.82,0,0,1,.59-.22.65.65,0,0,1,.39.12,1.07,1.07,0,0,1,.3.3,2.09,2.09,0,0,1,.19.4,1.64,1.64,0,0,1,.06.42.63.63,0,0,1-.24.5,1.43,1.43,0,0,1-.6.31,2,2,0,0,1-.78.06,1.64,1.64,0,0,1-.76-.28,1.66,1.66,0,0,1-.56-.68,2.41,2.41,0,0,1-.15-1.16,1.75,1.75,0,0,1,.17-.69,1.79,1.79,0,0,1,.42-.56,2,2,0,0,1,.6-.38,2.13,2.13,0,0,1,.76-.13,1.6,1.6,0,0,1,.92.25,3.31,3.31,0,0,1,.68.67.57.57,0,0,1,.09-.28,1.09,1.09,0,0,1,.23-.29,1.58,1.58,0,0,1,.29-.22.71.71,0,0,1,.3-.08,1,1,0,0,1,.47.12,1.4,1.4,0,0,1,.38.31,1.81,1.81,0,0,1,.28.42,3.36,3.36,0,0,1,.2.44v-2h-5.79l-.38-.38L149,4l-.12-.11H157l.12.11.26.26.39.38Z"/><path class="cls-1" d="M160.75,4.63h-1.83v7.82s-.07,0-.14-.12l-.26-.26-.35-.38V6.08a2.93,2.93,0,0,0-.06-.61,1.43,1.43,0,0,0-.19-.49.85.85,0,0,0-.35-.3,1.07,1.07,0,0,0-.55,0l-.6-.75a1.19,1.19,0,0,0,.27,0h.22a1.47,1.47,0,0,1,.55.09,1.08,1.08,0,0,1,.4.28,1.79,1.79,0,0,1,.31.5,8,8,0,0,1,.29.75,2.83,2.83,0,0,0,0-.41c0-.13,0-.3-.06-.49s-.07-.43-.11-.71-.09-.63-.13-1.06l.3.24a2.07,2.07,0,0,0,.06.26.75.75,0,0,0,.08.18,1.33,1.33,0,0,0,.12.16l.19.21H160Z"/><path class="cls-1" d="M165.1,4.63a1.85,1.85,0,0,0-.62.07,5.8,5.8,0,0,0-.59.19,4.46,4.46,0,0,0-1.22.71,3.36,3.36,0,0,0-.77,1,4.07,4.07,0,0,0-.4,1.19,7.74,7.74,0,0,0-.12,1.39,2.67,2.67,0,0,0,.1.69,2.91,2.91,0,0,0,.29.76,2.48,2.48,0,0,0,.49.61,1,1,0,0,0,.65.24H163a.13.13,0,0,0,.09,0,.8.8,0,0,1-.31-.34.94.94,0,0,1-.14-.46.68.68,0,0,1,.08-.31,1.15,1.15,0,0,1,.21-.27.88.88,0,0,1,.29-.18.87.87,0,0,1,.32-.06.68.68,0,0,1,.35.09,1.05,1.05,0,0,1,.29.23.89.89,0,0,1,.19.31.92.92,0,0,1,.07.36,1,1,0,0,1-.11.49,1.17,1.17,0,0,1-.29.38,1.29,1.29,0,0,1-.42.26,1.7,1.7,0,0,1-.51.08,1.84,1.84,0,0,1-1.14-.35,3,3,0,0,1-.8-.9,4.62,4.62,0,0,1-.47-1.17,5.17,5.17,0,0,1-.15-1.19,4.63,4.63,0,0,1,.44-2,7.22,7.22,0,0,1,1.12-1.73h-2.24l-.75-.75h5.25l.36.37.26.25A.56.56,0,0,1,165.1,4.63Z"/><path class="cls-1" d="M172.43,4.63h-6.12V7.77c.33-.24.63-.46.88-.67s.49-.4.73-.58.5-.35.78-.52a7.07,7.07,0,0,1,1-.47l1.29,1a11.62,11.62,0,0,0-.71,1.71A5.9,5.9,0,0,0,170,10a8.74,8.74,0,0,0,.08,1.14c.06.38.12.75.19,1.12l-.51-.24c-.12-.52-.22-1-.31-1.51A8.65,8.65,0,0,1,169.34,9a8.75,8.75,0,0,1,.22-2,4.94,4.94,0,0,0-.95.47A5.5,5.5,0,0,0,167.06,9a4.48,4.48,0,0,0-.5.94l-1-1V4.63h-1l-.75-.75h7.89Z"/><path class="cls-1" d="M180.18,4.63h-1.83v7.63a.61.61,0,0,1-.14-.12,3.08,3.08,0,0,1-.27-.25l-.39-.38,0-4.67a1.24,1.24,0,0,0-.14-.48,3.27,3.27,0,0,0-.35-.59,2.69,2.69,0,0,0-.46-.49.79.79,0,0,0-.46-.2.85.85,0,0,0-.25,0l-.26.12a.7.7,0,0,0-.2.18.35.35,0,0,0-.09.23,1.67,1.67,0,0,1,.5.28,2.12,2.12,0,0,1,.41.44,1.83,1.83,0,0,1,.25.53.92.92,0,0,1,0,.52.81.81,0,0,1-.3.42,1.47,1.47,0,0,1-.69.25.85.85,0,0,1-.36,0,1.11,1.11,0,0,1-.3-.17,1.6,1.6,0,0,1-.25-.27,2.11,2.11,0,0,1-.21-.31,1.68,1.68,0,0,1-.2.34A1.42,1.42,0,0,1,174,8a1.45,1.45,0,0,1-.34.2.77.77,0,0,1-.37,0,1.11,1.11,0,0,1-1-1.32,1.74,1.74,0,0,1,.44-.85,1.8,1.8,0,0,1,1-.52,1.69,1.69,0,0,0-.35-.57,1.17,1.17,0,0,0-.44-.26,1.93,1.93,0,0,0-.55-.06h-.66l-.37-.38L171,4a.61.61,0,0,1-.12-.14.64.64,0,0,0,.24,0h1.28A1.56,1.56,0,0,1,173,4a2.11,2.11,0,0,1,.52.31,1.84,1.84,0,0,1,.39.44,1.86,1.86,0,0,1,.22.53,3.3,3.3,0,0,1,.29-.51,2.55,2.55,0,0,1,.42-.45,1.91,1.91,0,0,1,.52-.33,1.33,1.33,0,0,1,.58-.13.85.85,0,0,1,.51.31,9,9,0,0,1,.61.71,7.37,7.37,0,0,1,.53.8,3.43,3.43,0,0,1,.28.57q-.1-1-.15-1.77T177.6,2.7l.25.21a2.39,2.39,0,0,1,.22.23.4.4,0,0,1,.09.22c0,.08,0,.16.05.24a.41.41,0,0,0,.12.2.48.48,0,0,0,.31.08h.63Z"/><path class="cls-1" d="M191.22,4.63h-1.61v7.64s-.05,0-.12-.13l-.26-.29-.36-.42V8a.46.46,0,0,0-.12-.29,1.28,1.28,0,0,0-.28-.29,2.32,2.32,0,0,0-.36-.22.83.83,0,0,0-.31-.08.73.73,0,0,0-.47.18,2.92,2.92,0,0,0-.41.44,6.66,6.66,0,0,0-.38.59,4.89,4.89,0,0,1-.39.58,2,2,0,0,1-.43.44.79.79,0,0,1-.5.18,1.24,1.24,0,0,1-.64-.15,1.55,1.55,0,0,1-.44-.37,2.9,2.9,0,0,1-.33-.52c-.09-.19-.2-.39-.31-.58l.5-.48a1.54,1.54,0,0,0,.07.27,3.36,3.36,0,0,0,.16.33,1.08,1.08,0,0,0,.23.28.35.35,0,0,0,.25.12.58.58,0,0,0,.35-.21,4.06,4.06,0,0,0,.43-.48c.14-.17.26-.34.37-.5s.18-.27.2-.31a2.45,2.45,0,0,0-.22-1,1.09,1.09,0,0,0-.4-.46,1.06,1.06,0,0,0-.52-.16l-.57-.06a2,2,0,0,1-.57-.16,1.26,1.26,0,0,1-.52-.47.57.57,0,0,1-.2-.12l-.26-.22-.25-.25-.17-.17h8.1Zm-2.35,0h-3.38a2.73,2.73,0,0,1,.84.77,1.35,1.35,0,0,1,.18,1,3.72,3.72,0,0,1,.45-.33.73.73,0,0,1,.87,0,2.25,2.25,0,0,1,.4.36,4.82,4.82,0,0,1,.36.43c.11.15.2.27.28.36Z"/><path class="cls-1" d="M197.4,4.63h-1.63v7.56a.7.7,0,0,1-.16-.13c0-.05-.11-.13-.22-.26s-.3-.52-.47-.86a4.79,4.79,0,0,0-.68-1,3.94,3.94,0,0,0-1.06-.84,3.88,3.88,0,0,0-1.62-.43l-1-1.33a21.27,21.27,0,0,1,2.13-1.3,12.81,12.81,0,0,1,2.3-.95V4.63h-4.57l-.74-.75h6.92ZM195,6.22a9.94,9.94,0,0,0-1.51.65,11.66,11.66,0,0,0-1.38.87,6.3,6.3,0,0,1,1.69,1,4.69,4.69,0,0,1,1.2,1.57ZM193,11.58a.78.78,0,0,1-.57-.24.81.81,0,0,1-.24-.57.73.73,0,0,1,.21-.51.63.63,0,0,1,.5-.22.8.8,0,0,1,.56.23.74.74,0,0,1,.23.55.76.76,0,0,1-.2.53A.61.61,0,0,1,193,11.58Z"/><path class="cls-1" d="M205.91,4.63h-4v.55a3,3,0,0,1,1.23.29,3.33,3.33,0,0,1,1,.71,2.93,2.93,0,0,1,.6,1,2,2,0,0,1,.13,1,1.59,1.59,0,0,1-.13.52,2,2,0,0,1-.28.46,1.53,1.53,0,0,1-.42.34,1.19,1.19,0,0,1-.54.12.92.92,0,0,1-.36-.07,1.13,1.13,0,0,1-.31-.19,1.23,1.23,0,0,1-.22-.29.86.86,0,0,1-.08-.36,1,1,0,0,1,.15-.54.7.7,0,0,1,.39-.29.85.85,0,0,1,.52,0,1.27,1.27,0,0,1,.56.37.15.15,0,0,1,0-.07V8.1a1.74,1.74,0,0,0-.17-.74,2.36,2.36,0,0,0-.47-.62,2.55,2.55,0,0,0-.66-.42,1.64,1.64,0,0,0-.75-.12H202v6l-.07,0a.45.45,0,0,0-.1-.09l-.14-.14a6.18,6.18,0,0,0-.55-1.19,4.33,4.33,0,0,0-.77-1,3.73,3.73,0,0,0-1-.68A4,4,0,0,0,198,8.71l-1-1.27a10.93,10.93,0,0,1,.94-.68c.34-.22.7-.43,1.07-.63s.74-.37,1.11-.53a9.63,9.63,0,0,1,1.09-.39V4.63h-4.56l-.75-.75h9.29ZM201.2,6.22a8.92,8.92,0,0,0-1.42.66c-.41.24-.84.51-1.28.83a5.31,5.31,0,0,1,2.7,2.42Z"/><path class="cls-1" d="M208.92,4.63h-1.84v7.82s-.06,0-.14-.12l-.25-.26-.36-.38V6.08a2.93,2.93,0,0,0-.06-.61,1.26,1.26,0,0,0-.19-.49.85.85,0,0,0-.35-.3,1.07,1.07,0,0,0-.55,0l-.6-.75a1.19,1.19,0,0,0,.27,0h.23a1.45,1.45,0,0,1,.54.09,1,1,0,0,1,.4.28,1.79,1.79,0,0,1,.31.5,8,8,0,0,1,.29.75c0-.14,0-.27,0-.41s0-.3-.07-.49-.07-.43-.11-.71-.08-.63-.13-1.06l.31.24a1.2,1.2,0,0,0,.05.26,1.59,1.59,0,0,0,.08.18,1.33,1.33,0,0,0,.12.16l.19.21h1.13Z"/><path class="cls-1" d="M215.1,4.63h-1.62v7.56a.53.53,0,0,1-.16-.13l-.22-.26c-.15-.24-.3-.52-.48-.86a4.43,4.43,0,0,0-.68-1,3.88,3.88,0,0,0-1.05-.84,3.92,3.92,0,0,0-1.62-.43l-1-1.33a19.22,19.22,0,0,1,2.13-1.3,12.71,12.71,0,0,1,2.29-.95V4.63h-4.56l-.75-.75h6.92Zm-2.37,1.59a10.27,10.27,0,0,0-1.5.65,12.63,12.63,0,0,0-1.39.87,6.52,6.52,0,0,1,1.7,1,4.67,4.67,0,0,1,1.19,1.57Zm-2.08,5.36a.78.78,0,0,1-.57-.24.81.81,0,0,1-.24-.57.73.73,0,0,1,.21-.51.66.66,0,0,1,.5-.22.77.77,0,0,1,.56.23.75.75,0,0,1,.24.55.81.81,0,0,1-.2.53A.62.62,0,0,1,210.65,11.58Z"/><path class="cls-1" d="M227.88,4.63h-1.61v7.63L226,12a5.09,5.09,0,0,0-.62-1.55,9.51,9.51,0,0,0-1-1.38,2.51,2.51,0,0,1-.75.8,1.86,1.86,0,0,1-1,.31,2.32,2.32,0,0,1-1.07-.26,3.24,3.24,0,0,1-.9-.68,5.35,5.35,0,0,1-.76-1,9.19,9.19,0,0,1-.59-1.12,10.58,10.58,0,0,1-.43-1.14c-.11-.39-.2-.73-.26-1l.47.2.48,1.25a5.85,5.85,0,0,0,.66,1.21,3.53,3.53,0,0,0,.94.91,2.32,2.32,0,0,0,1.32.35,1.65,1.65,0,0,0,.87-.19,1.16,1.16,0,0,0,.46-.5,1.36,1.36,0,0,0,.12-.64,2.27,2.27,0,0,0-.13-.65,1.76,1.76,0,0,0-.29-.49.56.56,0,0,0-.37-.19,1.19,1.19,0,0,1-.37.58,1,1,0,0,1-.65.21,1.35,1.35,0,0,1-.43-.08,1.28,1.28,0,0,1-.38-.21.87.87,0,0,1-.28-.32,1,1,0,0,1-.1-.43.79.79,0,0,1,.14-.47,1,1,0,0,1,.34-.32,1.7,1.7,0,0,1,.46-.18,2.1,2.1,0,0,1,.48-.06,2,2,0,0,1,1,.28,2.79,2.79,0,0,1,.82.71,3.05,3.05,0,0,1,.51,1,2.53,2.53,0,0,1,.09,1.09l.76,1.46V4.63H218.4l-.74-.75h9.46Z"/><path class="cls-1" d="M234.59,4.63H233v7.76l-.29-.35a.45.45,0,0,0,0-.11v-.11a4.63,4.63,0,0,0-.09-.83,9,9,0,0,0-.25-1,7.49,7.49,0,0,0-.41-1,5.22,5.22,0,0,0-.57-.89,2.75,2.75,0,0,0-.69-.64,1.47,1.47,0,0,0-.83-.25h-.1a.2.2,0,0,0-.09,0c.14.19.25.37.35.53a1.07,1.07,0,0,1,.15.6.81.81,0,0,1-.31.68,1.17,1.17,0,0,1-.72.23,1.25,1.25,0,0,1-1.42-1.42,1.58,1.58,0,0,1,.15-.69,1.46,1.46,0,0,1,.39-.53,1.82,1.82,0,0,1,.57-.35,1.92,1.92,0,0,1,.69-.12,1.87,1.87,0,0,1,.92.23,3,3,0,0,1,.75.58,4.2,4.2,0,0,1,.59.78,8.74,8.74,0,0,1,.45.84v-4h-5.09l-.74-.75h7.44Z"/><path class="cls-1" d="M234.66,14.85l-.09-.06c-.1-.13-.23-.28-.4-.46s-.36-.36-.55-.54-.39-.34-.58-.49a2.85,2.85,0,0,0-.49-.32l-.27.29-.28.25a1.42,1.42,0,0,1-.35.17,1.14,1.14,0,0,1-.43.07,2.73,2.73,0,0,1-.5,0,1.3,1.3,0,0,1-.45-.19,1.07,1.07,0,0,1-.33-.34,1.08,1.08,0,0,1,0-1,1.16,1.16,0,0,1,.3-.36,1.22,1.22,0,0,1,.42-.23,1.68,1.68,0,0,1,.5-.07,1.13,1.13,0,0,1,.36.06,2.32,2.32,0,0,1,.35.14l.27.14.13.06s.06,0,.07-.08a1,1,0,0,1,0-.11,2.79,2.79,0,0,0,0-.5,4.07,4.07,0,0,1,0-.5h0a.29.29,0,0,1,.22.13,1.41,1.41,0,0,1,.21.31c.05.12.11.24.15.36a1.07,1.07,0,0,1,.07.29,1.06,1.06,0,0,1,0,.3v.31c.13.1.3.24.51.43a5.7,5.7,0,0,1,.59.61,4.62,4.62,0,0,1,.47.68,1.05,1.05,0,0,1,.18.61Zm-3.41-2.58H231l-.25.05a.56.56,0,0,0-.2.12.29.29,0,0,0-.09.22.3.3,0,0,0,.13.28,1,1,0,0,0,.31.09.9.9,0,0,0,.27,0,1.68,1.68,0,0,0,.32-.09,1,1,0,0,0,.25-.16.27.27,0,0,0,.11-.2.17.17,0,0,0-.07-.14,1,1,0,0,0-.17-.1l-.21-.05Z"/><path class="cls-1" d="M238.9,4.63a1.85,1.85,0,0,0-.62.07,5.8,5.8,0,0,0-.59.19,4.25,4.25,0,0,0-1.21.71,3.23,3.23,0,0,0-.78,1,4.07,4.07,0,0,0-.4,1.19,7.74,7.74,0,0,0-.12,1.39,2.67,2.67,0,0,0,.1.69,2.94,2.94,0,0,0,.3.76,2.24,2.24,0,0,0,.48.61,1,1,0,0,0,.65.24h.09a.13.13,0,0,0,.09,0,.86.86,0,0,1-.31-.34.94.94,0,0,1-.14-.46.59.59,0,0,1,.09-.31.79.79,0,0,1,.21-.27.84.84,0,0,1,.28-.18.91.91,0,0,1,.32-.06.68.68,0,0,1,.35.09,1.05,1.05,0,0,1,.29.23.89.89,0,0,1,.19.31.92.92,0,0,1,.07.36,1.16,1.16,0,0,1-.1.49,1.53,1.53,0,0,1-.29.38,1.45,1.45,0,0,1-.43.26,1.7,1.7,0,0,1-.51.08,1.84,1.84,0,0,1-1.14-.35,3,3,0,0,1-.8-.9,4.26,4.26,0,0,1-.46-1.17,4.71,4.71,0,0,1-.16-1.19,4.63,4.63,0,0,1,.44-2,7.54,7.54,0,0,1,1.12-1.73h-2.24l-.75-.75h5.25l.37.37.25.25A.56.56,0,0,1,238.9,4.63Z"/><path class="cls-1" d="M245.86,4.63h-1.63v7.63l-.07-.06-.11-.11a1.21,1.21,0,0,1-.16-.16c0-.16-.08-.32-.13-.49a3.05,3.05,0,0,0-.17-.51,2.32,2.32,0,0,0-.24-.47,1.64,1.64,0,0,0-.31-.37l-.25-.22-.31-.25a2.35,2.35,0,0,0-.32-.23,1.49,1.49,0,0,0-.29-.14h0a1.53,1.53,0,0,1-.56.51,1.45,1.45,0,0,1-.73.19,1.29,1.29,0,0,1-.71-.18,1.14,1.14,0,0,1-.43-.47,1.39,1.39,0,0,1-.13-.61,1.36,1.36,0,0,1,.19-.61,1.45,1.45,0,0,1,.51-.47,1.74,1.74,0,0,1,.84-.18h.3l.16,0a.21.21,0,0,1,.1.08,2,2,0,0,0-.19-.86,1.58,1.58,0,0,0-.42-.55,2.15,2.15,0,0,0-.55-.31l-.58-.18-.49-.14a.48.48,0,0,1-.3-.18.84.84,0,0,1-.33-.35,1.25,1.25,0,0,0-.25-.38,2.57,2.57,0,0,0-.35-.39,4.43,4.43,0,0,1-.38-.36h7.51Zm-2.37,0H240c.18.16.38.32.59.48a7.43,7.43,0,0,1,.59.53,4,4,0,0,1,.49.6,2.17,2.17,0,0,1,.32.67c.06.22.11.45.16.71a3,3,0,0,1,0,.72c.23.24.45.48.66.73s.42.5.62.76Z"/><path class="cls-1" d="M248.83,4.63H247v7.82s-.06,0-.14-.12l-.25-.26-.36-.38V6.08a2.93,2.93,0,0,0-.06-.61A1.26,1.26,0,0,0,246,5a.79.79,0,0,0-.35-.3,1.07,1.07,0,0,0-.55,0l-.6-.75a1.29,1.29,0,0,0,.28,0H245a1.45,1.45,0,0,1,.54.09,1,1,0,0,1,.4.28,1.59,1.59,0,0,1,.31.5,8,8,0,0,1,.29.75c0-.14,0-.27,0-.41s0-.3-.07-.49-.07-.43-.11-.71-.08-.63-.13-1.06l.31.24a1.2,1.2,0,0,0,.05.26,1.59,1.59,0,0,0,.08.18,1.33,1.33,0,0,0,.12.16,2.2,2.2,0,0,1,.19.21h1.13Z"/><path class="cls-1" d="M249.33,3.19a.79.79,0,0,0,0,.12l.09.21c0,.08.07.15.1.22a1.3,1.3,0,0,1,.05.14H251l.75.75h-1.89v7.56c-.15-.13-.27-.26-.38-.37l-.26-.25c-.07-.08-.11-.11-.1-.11V4.63H248l-.75-.75h1.91a2.34,2.34,0,0,0-.22-.23,3,3,0,0,1-.25-.25,1.31,1.31,0,0,1-.2-.28.52.52,0,0,1-.09-.29,1.58,1.58,0,0,1,.29-.9,3.24,3.24,0,0,1,.71-.77,3.67,3.67,0,0,1,.92-.53,2.65,2.65,0,0,1,.94-.2,4.71,4.71,0,0,1,1.25.17,6.62,6.62,0,0,1,1.17.46,7.31,7.31,0,0,1,1,.69,10.64,10.64,0,0,1,.94.84l.16.48a10.82,10.82,0,0,0-1.71-1.18,6,6,0,0,0-1.41-.56,3,3,0,0,0-1.13-.08,2.59,2.59,0,0,0-.88.26,2.47,2.47,0,0,0-.63.45,3.33,3.33,0,0,0-.44.53,2.14,2.14,0,0,0-.25.46A1.21,1.21,0,0,0,249.33,3.19Z"/><path class="cls-1" d="M258.83,4.63h-6.12V7.77c.33-.24.63-.46.88-.67s.49-.4.73-.58.5-.35.78-.52a7.44,7.44,0,0,1,1-.47l1.3,1a11.62,11.62,0,0,0-.71,1.71,5.9,5.9,0,0,0-.28,1.81,8.74,8.74,0,0,0,.08,1.14l.18,1.12-.5-.24c-.12-.52-.22-1-.31-1.51A8.65,8.65,0,0,1,255.73,9,8.76,8.76,0,0,1,256,7a4.94,4.94,0,0,0-1,.47,4.65,4.65,0,0,0-.85.67,5,5,0,0,0-.7.82,4.48,4.48,0,0,0-.5.94l-1-1V4.63h-1l-.75-.75h7.89Z"/><path class="cls-1" d="M267.36,4.63H258l-.74-.75h9.29Zm-1.31,4.08a3,3,0,0,1-.28,1,2.65,2.65,0,0,1-.62.82,2.77,2.77,0,0,1-.87.54,2.73,2.73,0,0,1-1,.19A2.62,2.62,0,0,1,262,11a4,4,0,0,1-1.06-.83A7.25,7.25,0,0,1,260,9a14.39,14.39,0,0,1-.7-1.35,13.71,13.71,0,0,1-.54-1.36c-.15-.45-.28-.85-.38-1.2l.43.17c.13.32.27.65.43,1a11.91,11.91,0,0,0,.54,1.07,9.85,9.85,0,0,0,.64,1,5.09,5.09,0,0,0,.79.87,3.52,3.52,0,0,0,.94.61,2.69,2.69,0,0,0,1.11.23A1.86,1.86,0,0,0,264,9.9a2.41,2.41,0,0,0,1.15-1,1.93,1.93,0,0,0,.24-.71,1.53,1.53,0,0,0-.1-.7,2.18,2.18,0,0,0-.36-.61,1.71,1.71,0,0,0-.53-.44,1.21,1.21,0,0,0-.59-.17l-.24,0-.24,0a1.39,1.39,0,0,1,.21.4,1.41,1.41,0,0,1,.07.45,1,1,0,0,1-.32.82,1.36,1.36,0,0,1-.85.24,1.13,1.13,0,0,1-.95-.4,1.61,1.61,0,0,1-.31-1,1.37,1.37,0,0,1,.15-.64,1.57,1.57,0,0,1,.4-.49,1.64,1.64,0,0,1,.56-.32,1.82,1.82,0,0,1,.65-.12,3,3,0,0,1,1.22.25,3.2,3.2,0,0,1,1,.7,3.27,3.27,0,0,1,.67,1.09A3.22,3.22,0,0,1,266.05,8.71Z"/><path class="cls-2" d="M24.4,41h3v.23H27.2a1.41,1.41,0,0,0-.47.14,1.91,1.91,0,0,0-.57.42,4.91,4.91,0,0,0-.64.88L23.47,46V48.1a1.67,1.67,0,0,0,.18,1,1,1,0,0,0,.75.26h.28v.24H21.06v-.24h.3a.86.86,0,0,0,.77-.32,2,2,0,0,0,.14-.92v-2L19.93,42.5a8.91,8.91,0,0,0-.56-.79,2.41,2.41,0,0,0-.61-.38.92.92,0,0,0-.37-.06V41H22v.23h-.19a1.14,1.14,0,0,0-.54.14.45.45,0,0,0-.25.41,2,2,0,0,0,.39.82l1.77,2.75,1.67-2.63a2,2,0,0,0,.38-.88.54.54,0,0,0-.09-.31.56.56,0,0,0-.26-.22,1.36,1.36,0,0,0-.51-.08Z"/><path class="cls-2" d="M29.48,43.64a2.56,2.56,0,0,1,2.1,1,3.06,3.06,0,0,1,.67,2,3.63,3.63,0,0,1-.37,1.56,2.76,2.76,0,0,1-1,1.2,2.68,2.68,0,0,1-1.45.4,2.41,2.41,0,0,1-2.06-1,3.21,3.21,0,0,1-.65-2,3.51,3.51,0,0,1,.39-1.58,2.75,2.75,0,0,1,1-1.16A2.62,2.62,0,0,1,29.48,43.64Zm-.19.41a1.24,1.24,0,0,0-.67.2,1.35,1.35,0,0,0-.54.69,3.32,3.32,0,0,0-.21,1.28,4.49,4.49,0,0,0,.5,2.17,1.49,1.49,0,0,0,1.31.92,1.23,1.23,0,0,0,1-.51,2.88,2.88,0,0,0,.39-1.73,4,4,0,0,0-.66-2.42A1.34,1.34,0,0,0,29.29,44.05Z"/><path class="cls-2" d="M38.14,43.81V47.3a9.7,9.7,0,0,0,0,1.23.69.69,0,0,0,.15.31.37.37,0,0,0,.25.09,1.18,1.18,0,0,0,.44-.11l.08.22-1.72.71H37.1V48.53a5.19,5.19,0,0,1-1.13,1,1.81,1.81,0,0,1-.82.2,1.31,1.31,0,0,1-.84-.28,1.41,1.41,0,0,1-.49-.72,4.4,4.4,0,0,1-.14-1.24V44.93a1.29,1.29,0,0,0-.09-.57.61.61,0,0,0-.26-.24,1.5,1.5,0,0,0-.62-.08v-.23h2v3.86A1.48,1.48,0,0,0,35,48.73a1,1,0,0,0,.68.25,1.45,1.45,0,0,0,.61-.17,3.12,3.12,0,0,0,.81-.65V44.89a.9.9,0,0,0-.18-.66,1.12,1.12,0,0,0-.74-.19v-.23Z"/><path class="cls-2" d="M41.19,41.91v1.9h1.35v.44H41.19V48a1.34,1.34,0,0,0,.16.76.52.52,0,0,0,.41.19.71.71,0,0,0,.41-.13.78.78,0,0,0,.3-.38h.24a1.93,1.93,0,0,1-.62.93,1.32,1.32,0,0,1-.83.31,1.06,1.06,0,0,1-.56-.16,1,1,0,0,1-.41-.46,2.39,2.39,0,0,1-.13-.92V44.25h-.91V44a2.32,2.32,0,0,0,.7-.47,3.85,3.85,0,0,0,.65-.78,7.64,7.64,0,0,0,.4-.88Z"/><path class="cls-2" d="M44.78,40.62v4.22a5.26,5.26,0,0,1,1.11-1,1.75,1.75,0,0,1,.81-.21,1.32,1.32,0,0,1,.84.27,1.53,1.53,0,0,1,.52.85,6,6,0,0,1,.12,1.47v2a2.06,2.06,0,0,0,.09.75.46.46,0,0,0,.22.24,1.16,1.16,0,0,0,.55.09v.23H46.21v-.23h.14a.93.93,0,0,0,.55-.12.6.6,0,0,0,.22-.36,3.76,3.76,0,0,0,0-.6v-2A4.64,4.64,0,0,0,47,45a.76.76,0,0,0-.31-.44.85.85,0,0,0-.51-.15,1.41,1.41,0,0,0-.64.16,3.14,3.14,0,0,0-.8.66v3.05a2.17,2.17,0,0,0,.07.74.47.47,0,0,0,.24.24,1.34,1.34,0,0,0,.62.1v.23H42.86v-.23a1.22,1.22,0,0,0,.6-.12.42.42,0,0,0,.21-.24,2.26,2.26,0,0,0,.07-.72V43.05a8.64,8.64,0,0,0-.05-1.21.53.53,0,0,0-.14-.31.37.37,0,0,0-.26-.08,1.44,1.44,0,0,0-.43.1l-.09-.22,1.72-.71Z"/><path class="cls-2" d="M52.55,49.58v-.24h.32a.85.85,0,0,0,.77-.34,2,2,0,0,0,.14-.93V42.55a1.7,1.7,0,0,0-.18-1,.91.91,0,0,0-.73-.28h-.32V41H56a7.53,7.53,0,0,1,2.9.43,3.44,3.44,0,0,1,1.6,1.45,4.53,4.53,0,0,1,.6,2.34,4.28,4.28,0,0,1-1.07,3,4.75,4.75,0,0,1-3.69,1.34ZM55,49a6.28,6.28,0,0,0,1.34.18,3.17,3.17,0,0,0,2.41-1,4.52,4.52,0,0,0,0-5.57,3.24,3.24,0,0,0-2.46-1A5.44,5.44,0,0,0,55,41.7Z"/><path class="cls-2" d="M63,46a3,3,0,0,0,.62,2,1.92,1.92,0,0,0,1.48.73,1.66,1.66,0,0,0,1-.31,2.34,2.34,0,0,0,.7-1.07l.19.12a3,3,0,0,1-.76,1.58,2,2,0,0,1-1.59.7,2.31,2.31,0,0,1-1.77-.81,3.1,3.1,0,0,1-.74-2.17,3.27,3.27,0,0,1,.76-2.31,2.46,2.46,0,0,1,1.9-.83,2.09,2.09,0,0,1,1.58.64A2.34,2.34,0,0,1,67,46Zm0-.36h2.66a2.49,2.49,0,0,0-.13-.79,1.2,1.2,0,0,0-.47-.55,1.18,1.18,0,0,0-.65-.2,1.31,1.31,0,0,0-.93.4A1.84,1.84,0,0,0,63,45.62Z"/><path class="cls-2" d="M67.43,43.81h2.7V44H70a.53.53,0,0,0-.37.12.44.44,0,0,0-.13.32,1.46,1.46,0,0,0,.13.52l1.34,3.19,1.34-3.31a1.49,1.49,0,0,0,.15-.53.25.25,0,0,0,0-.15.36.36,0,0,0-.18-.12,1.34,1.34,0,0,0-.43,0v-.23h1.88V44a.9.9,0,0,0-.46.13,1.8,1.8,0,0,0-.39.63l-2,5h-.26l-2-4.87a2,2,0,0,0-.26-.48,1.15,1.15,0,0,0-.32-.25,1.52,1.52,0,0,0-.42-.11Z"/><path class="cls-2" d="M75.11,46a3,3,0,0,0,.62,2,1.92,1.92,0,0,0,1.48.73,1.64,1.64,0,0,0,1-.31,2.34,2.34,0,0,0,.7-1.07l.2.12a3.09,3.09,0,0,1-.77,1.58,2,2,0,0,1-1.59.7A2.31,2.31,0,0,1,75,48.94a3.1,3.1,0,0,1-.74-2.17A3.27,3.27,0,0,1,75,44.46a2.47,2.47,0,0,1,1.9-.83,2.09,2.09,0,0,1,1.58.64A2.34,2.34,0,0,1,79.09,46Zm0-.36h2.66a2.49,2.49,0,0,0-.13-.79,1.2,1.2,0,0,0-.47-.55,1.18,1.18,0,0,0-.64-.2,1.31,1.31,0,0,0-.94.4A1.84,1.84,0,0,0,75.11,45.62Z"/><path class="cls-2" d="M81.83,40.62v7.65a1.93,1.93,0,0,0,.08.72.53.53,0,0,0,.24.27,1.4,1.4,0,0,0,.61.09v.23H79.94v-.23a1.32,1.32,0,0,0,.54-.08.62.62,0,0,0,.23-.27,2.3,2.3,0,0,0,.08-.73V43a8.56,8.56,0,0,0-.05-1.2.47.47,0,0,0-.14-.3.34.34,0,0,0-.25-.08,1.09,1.09,0,0,0-.41.1l-.11-.22,1.72-.71Z"/><path class="cls-2" d="M86.23,43.64a2.56,2.56,0,0,1,2.1,1,3.06,3.06,0,0,1,.67,2,3.63,3.63,0,0,1-.37,1.56,2.76,2.76,0,0,1-1,1.2,2.66,2.66,0,0,1-1.45.4,2.41,2.41,0,0,1-2.06-1,3.21,3.21,0,0,1-.65-2,3.4,3.4,0,0,1,.4-1.58,2.67,2.67,0,0,1,1-1.16A2.64,2.64,0,0,1,86.23,43.64Zm-.19.41a1.26,1.26,0,0,0-.67.2,1.4,1.4,0,0,0-.54.69,3.32,3.32,0,0,0-.21,1.28,4.49,4.49,0,0,0,.5,2.17,1.49,1.49,0,0,0,1.31.92,1.22,1.22,0,0,0,1-.51,2.88,2.88,0,0,0,.39-1.73,4,4,0,0,0-.65-2.42A1.37,1.37,0,0,0,86,44.05Z"/><path class="cls-2" d="M89.43,44.38l1.77-.72h.24V45a3.36,3.36,0,0,1,.9-1.07,1.66,1.66,0,0,1,.94-.3,1.78,1.78,0,0,1,1.44.68,3.16,3.16,0,0,1,.71,2.16A3.6,3.6,0,0,1,94.58,49a2.24,2.24,0,0,1-1.77.8,2.13,2.13,0,0,1-.8-.13,1.81,1.81,0,0,1-.57-.38V51a2.15,2.15,0,0,0,.08.75.49.49,0,0,0,.25.26,1.59,1.59,0,0,0,.65.09v.24h-3V52.1h.16a1.1,1.1,0,0,0,.59-.13.52.52,0,0,0,.19-.22A3,3,0,0,0,90.4,51V45.51a3.13,3.13,0,0,0-.05-.71.44.44,0,0,0-.16-.23.51.51,0,0,0-.3-.08,1.08,1.08,0,0,0-.38.09Zm2,1v2.16a4.43,4.43,0,0,0,.06.92,1.2,1.2,0,0,0,.43.64,1.35,1.35,0,0,0,.86.28,1.24,1.24,0,0,0,1-.5,2.82,2.82,0,0,0,.51-1.8,3.22,3.22,0,0,0-.58-2,1.2,1.2,0,0,0-.95-.49,1.3,1.3,0,0,0-.6.15A3.64,3.64,0,0,0,91.44,45.38Z"/><path class="cls-2" d="M98,44.87l.74-.73a2.26,2.26,0,0,1,.61-.37,1.68,1.68,0,0,1,.65-.13,1.43,1.43,0,0,1,.93.31,1.58,1.58,0,0,1,.52.92,4.2,4.2,0,0,1,1.09-1,2,2,0,0,1,.92-.23,1.5,1.5,0,0,1,.81.23,1.64,1.64,0,0,1,.56.78,3.48,3.48,0,0,1,.14,1.14v2.48A2.49,2.49,0,0,0,105,49a.51.51,0,0,0,.23.23,1.1,1.1,0,0,0,.55.1v.23H103v-.23h.12a1,1,0,0,0,.57-.14.56.56,0,0,0,.21-.33,3.34,3.34,0,0,0,0-.61V45.79a2.11,2.11,0,0,0-.17-1,.87.87,0,0,0-.79-.41,1.55,1.55,0,0,0-.67.17,3.79,3.79,0,0,0-.81.62v3.09a2.17,2.17,0,0,0,.07.74.45.45,0,0,0,.25.24,1.31,1.31,0,0,0,.62.1v.23H99.5v-.23a1.42,1.42,0,0,0,.66-.11.57.57,0,0,0,.24-.34,2.49,2.49,0,0,0,0-.63V45.79a1.83,1.83,0,0,0-.21-1,.89.89,0,0,0-.77-.41,1.39,1.39,0,0,0-.67.19,2.55,2.55,0,0,0-.81.62v3.09a2.2,2.2,0,0,0,.08.74.58.58,0,0,0,.23.26,1.68,1.68,0,0,0,.63.08v.23H96.07v-.23a1.43,1.43,0,0,0,.56-.08.61.61,0,0,0,.24-.28,2.18,2.18,0,0,0,.08-.72v-2.2a7.58,7.58,0,0,0-.06-1.23.56.56,0,0,0-.14-.29.4.4,0,0,0-.26-.07,1.32,1.32,0,0,0-.42.09L96,44.34l1.73-.7H98Z"/><path class="cls-2" d="M107.24,46a2.94,2.94,0,0,0,.62,2,1.92,1.92,0,0,0,1.48.73,1.66,1.66,0,0,0,1-.31,2.34,2.34,0,0,0,.7-1.07l.19.12a3.07,3.07,0,0,1-.76,1.58,2.07,2.07,0,0,1-1.59.7,2.31,2.31,0,0,1-1.77-.81,3.06,3.06,0,0,1-.74-2.17,3.31,3.31,0,0,1,.75-2.31,2.49,2.49,0,0,1,1.9-.83,2.09,2.09,0,0,1,1.59.64,2.38,2.38,0,0,1,.62,1.71Zm0-.36h2.66a2.49,2.49,0,0,0-.13-.79,1.26,1.26,0,0,0-.47-.55,1.21,1.21,0,0,0-.65-.2,1.27,1.27,0,0,0-.93.4A1.84,1.84,0,0,0,107.24,45.62Z"/><path class="cls-2" d="M113.65,44.86a2.74,2.74,0,0,1,1.93-1.22,1.45,1.45,0,0,1,.81.23,1.62,1.62,0,0,1,.54.78,3.66,3.66,0,0,1,.14,1.16v2.46a2.4,2.4,0,0,0,.08.75.53.53,0,0,0,.23.24,1.23,1.23,0,0,0,.57.09v.23H115.1v-.23h.12a1,1,0,0,0,.56-.12.66.66,0,0,0,.23-.36,5.61,5.61,0,0,0,0-.6V45.91a2.5,2.5,0,0,0-.2-1.14.74.74,0,0,0-.69-.36,2.1,2.1,0,0,0-1.49.82v3a2.4,2.4,0,0,0,.07.73.64.64,0,0,0,.24.27,1.68,1.68,0,0,0,.63.08v.23h-2.85v-.23h.13a.66.66,0,0,0,.59-.22,1.58,1.58,0,0,0,.16-.86V46.13a9.27,9.27,0,0,0-.05-1.26.53.53,0,0,0-.14-.31.38.38,0,0,0-.26-.08,1.32,1.32,0,0,0-.43.09l-.09-.23,1.73-.7h.27Z"/><path class="cls-2" d="M120.07,41.91v1.9h1.35v.44h-1.35V48a1.34,1.34,0,0,0,.16.76.52.52,0,0,0,.41.19.71.71,0,0,0,.41-.13.78.78,0,0,0,.3-.38h.24a1.93,1.93,0,0,1-.62.93,1.32,1.32,0,0,1-.83.31,1.06,1.06,0,0,1-.56-.16,1,1,0,0,1-.41-.46,2.39,2.39,0,0,1-.13-.92V44.25h-.91V44a2.32,2.32,0,0,0,.7-.47,3.85,3.85,0,0,0,.65-.78,7.64,7.64,0,0,0,.4-.88Z"/><path class="cls-2" d="M132.52,40.84l.2,2.9h-.2a3.67,3.67,0,0,0-1.11-1.87,2.72,2.72,0,0,0-1.73-.58,2.82,2.82,0,0,0-1.53.44,2.77,2.77,0,0,0-1.08,1.37,6.21,6.21,0,0,0-.39,2.35,5,5,0,0,0,.37,2,2.75,2.75,0,0,0,1.12,1.3,3.11,3.11,0,0,0,1.69.46,2.94,2.94,0,0,0,1.47-.36,4.86,4.86,0,0,0,1.39-1.41l.19.12a4.39,4.39,0,0,1-1.49,1.67,3.73,3.73,0,0,1-2,.53,3.81,3.81,0,0,1-3.27-1.57,4.5,4.5,0,0,1-.87-2.76,4.92,4.92,0,0,1,.57-2.35,4.19,4.19,0,0,1,1.57-1.66,4.28,4.28,0,0,1,2.19-.59,4,4,0,0,1,1.82.45.88.88,0,0,0,.38.14.4.4,0,0,0,.29-.12.91.91,0,0,0,.23-.47Z"/><path class="cls-2" d="M136.57,43.64a2.56,2.56,0,0,1,2.1,1,3.06,3.06,0,0,1,.67,2,3.63,3.63,0,0,1-.37,1.56,2.76,2.76,0,0,1-1,1.2,2.68,2.68,0,0,1-1.45.4,2.41,2.41,0,0,1-2.06-1,3.21,3.21,0,0,1-.65-2,3.51,3.51,0,0,1,.39-1.58,2.75,2.75,0,0,1,1-1.16A2.59,2.59,0,0,1,136.57,43.64Zm-.19.41a1.24,1.24,0,0,0-.67.2,1.35,1.35,0,0,0-.54.69,3.32,3.32,0,0,0-.21,1.28,4.49,4.49,0,0,0,.5,2.17,1.49,1.49,0,0,0,1.31.92,1.23,1.23,0,0,0,1-.51,2.88,2.88,0,0,0,.39-1.73,4,4,0,0,0-.66-2.42A1.34,1.34,0,0,0,136.38,44.05Z"/><path class="cls-2" d="M141.89,44.87c.42-.42.67-.67.75-.73a2.21,2.21,0,0,1,.6-.37,1.71,1.71,0,0,1,.65-.13,1.43,1.43,0,0,1,.93.31,1.58,1.58,0,0,1,.52.92,4.2,4.2,0,0,1,1.09-1,2,2,0,0,1,.92-.23,1.5,1.5,0,0,1,.81.23,1.58,1.58,0,0,1,.56.78,3.48,3.48,0,0,1,.14,1.14v2.48a2.49,2.49,0,0,0,.08.75.51.51,0,0,0,.23.23,1.14,1.14,0,0,0,.56.1v.23h-2.84v-.23H147a1.06,1.06,0,0,0,.58-.14.6.6,0,0,0,.2-.33,3.34,3.34,0,0,0,0-.61V45.79a2.11,2.11,0,0,0-.17-1,.86.86,0,0,0-.79-.41,1.47,1.47,0,0,0-.66.17,3.57,3.57,0,0,0-.82.62v3.09a2.48,2.48,0,0,0,.07.74.49.49,0,0,0,.25.24,1.34,1.34,0,0,0,.62.1v.23h-2.91v-.23a1.42,1.42,0,0,0,.66-.11.62.62,0,0,0,.25-.34,3.55,3.55,0,0,0,0-.63V45.79a1.83,1.83,0,0,0-.21-1,.88.88,0,0,0-.77-.41,1.39,1.39,0,0,0-.67.19,2.55,2.55,0,0,0-.81.62v3.09A2.2,2.2,0,0,0,142,49a.58.58,0,0,0,.23.26,1.72,1.72,0,0,0,.63.08v.23H140v-.23a1.41,1.41,0,0,0,.55-.08.61.61,0,0,0,.24-.28,2.18,2.18,0,0,0,.08-.72v-2.2a7.58,7.58,0,0,0-.06-1.23.49.49,0,0,0-.14-.29.37.37,0,0,0-.25-.07,1.22,1.22,0,0,0-.42.09l-.1-.23,1.73-.7h.27Z"/><path class="cls-2" d="M149.77,44.38l1.77-.72h.24V45a3.35,3.35,0,0,1,.89-1.07,1.69,1.69,0,0,1,1-.3,1.79,1.79,0,0,1,1.44.68,3.21,3.21,0,0,1,.71,2.16,3.65,3.65,0,0,1-.85,2.47,2.42,2.42,0,0,1-2.58.67,1.9,1.9,0,0,1-.56-.38V51a2.24,2.24,0,0,0,.07.75.53.53,0,0,0,.25.26,1.63,1.63,0,0,0,.65.09v.24h-3V52.1h.16a1.12,1.12,0,0,0,.59-.13.5.5,0,0,0,.18-.22,2.87,2.87,0,0,0,.07-.79V45.51a3.13,3.13,0,0,0-.05-.71.5.5,0,0,0-.16-.23.56.56,0,0,0-.3-.08,1.08,1.08,0,0,0-.38.09Zm2,1v2.16a5.68,5.68,0,0,0,.05.92,1.22,1.22,0,0,0,.44.64,1.33,1.33,0,0,0,.86.28,1.21,1.21,0,0,0,1-.5,2.82,2.82,0,0,0,.51-1.8,3.22,3.22,0,0,0-.57-2,1.2,1.2,0,0,0-1-.49,1.33,1.33,0,0,0-.6.15A3.68,3.68,0,0,0,151.78,45.38Z"/><path class="cls-2" d="M161.65,43.81V47.3a8.91,8.91,0,0,0,0,1.23.53.53,0,0,0,.15.31.36.36,0,0,0,.24.09,1.14,1.14,0,0,0,.44-.11l.09.22-1.72.71h-.29V48.53a5.45,5.45,0,0,1-1.12,1,1.85,1.85,0,0,1-.83.2,1.26,1.26,0,0,1-.83-.28,1.43,1.43,0,0,1-.5-.72,4.4,4.4,0,0,1-.14-1.24V44.93a1.32,1.32,0,0,0-.08-.57.67.67,0,0,0-.26-.24,1.59,1.59,0,0,0-.63-.08v-.23h2v3.86a1.43,1.43,0,0,0,.28,1.06,1,1,0,0,0,.67.25,1.45,1.45,0,0,0,.61-.17,3.12,3.12,0,0,0,.81-.65V44.89a.9.9,0,0,0-.17-.66,1.15,1.15,0,0,0-.75-.19v-.23Z"/><path class="cls-2" d="M164.71,41.91v1.9h1.34v.44h-1.34V48a1.26,1.26,0,0,0,.16.76.49.49,0,0,0,.41.19.68.68,0,0,0,.4-.13.78.78,0,0,0,.3-.38h.24a1.93,1.93,0,0,1-.62.93,1.3,1.3,0,0,1-.83.31,1.06,1.06,0,0,1-.56-.16,1,1,0,0,1-.41-.46,2.39,2.39,0,0,1-.13-.92V44.25h-.91V44a2.36,2.36,0,0,0,.71-.47,3.81,3.81,0,0,0,.64-.78,6.2,6.2,0,0,0,.4-.88Z"/><path class="cls-2" d="M167.57,46a3,3,0,0,0,.63,2,1.9,1.9,0,0,0,1.47.73,1.64,1.64,0,0,0,1-.31,2.34,2.34,0,0,0,.7-1.07l.2.12a3.09,3.09,0,0,1-.77,1.58,2,2,0,0,1-1.59.7,2.31,2.31,0,0,1-1.77-.81,3.1,3.1,0,0,1-.74-2.17,3.27,3.27,0,0,1,.76-2.31,2.47,2.47,0,0,1,1.9-.83,2.13,2.13,0,0,1,1.59.64,2.38,2.38,0,0,1,.62,1.71Zm0-.36h2.67a2.74,2.74,0,0,0-.14-.79,1.23,1.23,0,0,0-1.11-.75,1.27,1.27,0,0,0-.93.4A1.79,1.79,0,0,0,167.57,45.62Z"/><path class="cls-2" d="M174,43.64v1.3c.48-.87,1-1.3,1.48-1.3a.8.8,0,0,1,.57.21.64.64,0,0,1,.22.49.56.56,0,0,1-.16.41.5.5,0,0,1-.39.17.82.82,0,0,1-.49-.21.78.78,0,0,0-.41-.22.39.39,0,0,0-.24.12,3.17,3.17,0,0,0-.58.85v2.77a1.69,1.69,0,0,0,.11.72.73.73,0,0,0,.29.29,1.37,1.37,0,0,0,.6.11v.23h-2.94v-.23a1.23,1.23,0,0,0,.65-.14.55.55,0,0,0,.22-.32,3.34,3.34,0,0,0,0-.61V46a8.89,8.89,0,0,0,0-1.2.54.54,0,0,0-.15-.28.43.43,0,0,0-.27-.08,1.28,1.28,0,0,0-.44.09l-.07-.23,1.74-.7Z"/><path class="cls-2" d="M186,44.08h2.64v.23a1.59,1.59,0,0,0-.81.24,5.17,5.17,0,0,0-.81,1.2,12.9,12.9,0,0,1-1.24,1.87,4.2,4.2,0,0,0,1,.92,1.69,1.69,0,0,0,.89.26,1.18,1.18,0,0,0,.73-.23,1.22,1.22,0,0,0,.43-.7L189,48a2.42,2.42,0,0,1-.74,1.31,1.87,1.87,0,0,1-1.2.42,2.21,2.21,0,0,1-1-.28,4.53,4.53,0,0,1-1.16-1,5.15,5.15,0,0,1-1.4,1,3.47,3.47,0,0,1-1.33.26,2.37,2.37,0,0,1-1.65-.55,1.74,1.74,0,0,1-.6-1.32,2.64,2.64,0,0,1,.54-1.53,6.25,6.25,0,0,1,2.05-1.57,7.17,7.17,0,0,1-.4-1.07,3.3,3.3,0,0,1-.1-.8,1.9,1.9,0,0,1,.79-1.65,2.35,2.35,0,0,1,1.4-.44,1.71,1.71,0,0,1,1.21.44,1.45,1.45,0,0,1,.47,1.1,1.72,1.72,0,0,1-.45,1.17,5.77,5.77,0,0,1-1.61,1.1,24.91,24.91,0,0,0,1.66,2.61A3.84,3.84,0,0,0,186.55,45a.83.83,0,0,0-.19-.52.59.59,0,0,0-.4-.2Zm-1.42,4.1c-.55-.76-.94-1.31-1.15-1.66s-.45-.78-.7-1.3a3.6,3.6,0,0,0-1.14,1,1.93,1.93,0,0,0-.38,1.14,1.76,1.76,0,0,0,.44,1.18,1.45,1.45,0,0,0,1.16.51,1.87,1.87,0,0,0,.77-.16A4.74,4.74,0,0,0,184.54,48.18Zm-1-3.94a3.51,3.51,0,0,0,1.16-.84,1.63,1.63,0,0,0,.39-1,1.05,1.05,0,0,0-.28-.75.92.92,0,0,0-.7-.3,1,1,0,0,0-.82.38,1.25,1.25,0,0,0-.28.75,2.67,2.67,0,0,0,.1.69C183.22,43.37,183.36,43.75,183.57,44.24Z"/><path class="cls-2" d="M198.51,40.84v3h-.23a3.91,3.91,0,0,0-.41-1.36,2.07,2.07,0,0,0-.83-.8,2.27,2.27,0,0,0-1.12-.3,1.57,1.57,0,0,0-1.08.4,1.23,1.23,0,0,0-.42.91,1.09,1.09,0,0,0,.27.72,6.91,6.91,0,0,0,1.85,1.26,12.91,12.91,0,0,1,1.63,1,2.46,2.46,0,0,1,.67.81,2.22,2.22,0,0,1-.52,2.65,2.7,2.7,0,0,1-1.93.7,5,5,0,0,1-.69-.05,7.49,7.49,0,0,1-.81-.23,3.23,3.23,0,0,0-.78-.2.32.32,0,0,0-.24.09.82.82,0,0,0-.14.39h-.23V46.84h.23a4.21,4.21,0,0,0,.44,1.38A2.12,2.12,0,0,0,195,49a2.58,2.58,0,0,0,1.24.3,1.8,1.8,0,0,0,1.24-.41,1.32,1.32,0,0,0,.46-1,1.26,1.26,0,0,0-.18-.63,1.74,1.74,0,0,0-.53-.6,13.41,13.41,0,0,0-1.34-.8,12.59,12.59,0,0,1-1.55-1,2.76,2.76,0,0,1-.7-.81,2,2,0,0,1-.24-1,2.09,2.09,0,0,1,.7-1.58,2.49,2.49,0,0,1,1.79-.67,3.65,3.65,0,0,1,1.44.33,1.38,1.38,0,0,0,.49.16.36.36,0,0,0,.27-.1.79.79,0,0,0,.17-.39Z"/><path class="cls-2" d="M201.85,40.62v4.22a5,5,0,0,1,1.11-1,1.75,1.75,0,0,1,.81-.21,1.32,1.32,0,0,1,.84.27,1.6,1.6,0,0,1,.53.85,6.73,6.73,0,0,1,.11,1.47v2a2.06,2.06,0,0,0,.09.75.51.51,0,0,0,.22.24,1.16,1.16,0,0,0,.55.09v.23h-2.83v-.23h.14a.93.93,0,0,0,.55-.12.6.6,0,0,0,.22-.36,3.76,3.76,0,0,0,0-.6v-2a5.31,5.31,0,0,0-.09-1.24.86.86,0,0,0-.31-.44.91.91,0,0,0-.52-.15,1.44,1.44,0,0,0-.64.16,3.14,3.14,0,0,0-.8.66v3.05a2.17,2.17,0,0,0,.07.74.47.47,0,0,0,.24.24,1.34,1.34,0,0,0,.62.1v.23h-2.85v-.23a1.22,1.22,0,0,0,.6-.12.42.42,0,0,0,.21-.24,2.26,2.26,0,0,0,.07-.72V43.05a7.23,7.23,0,0,0-.05-1.21.53.53,0,0,0-.14-.31.35.35,0,0,0-.26-.08,1.44,1.44,0,0,0-.43.1l-.08-.22,1.71-.71Z"/><path class="cls-2" d="M209.4,43.64a2.56,2.56,0,0,1,2.1,1,3.06,3.06,0,0,1,.67,2,3.63,3.63,0,0,1-.37,1.56,2.76,2.76,0,0,1-1,1.2,2.68,2.68,0,0,1-1.45.4,2.41,2.41,0,0,1-2.06-1,3.21,3.21,0,0,1-.65-2,3.51,3.51,0,0,1,.39-1.58,2.75,2.75,0,0,1,1-1.16A2.62,2.62,0,0,1,209.4,43.64Zm-.19.41a1.24,1.24,0,0,0-.67.2,1.3,1.3,0,0,0-.54.69,3.32,3.32,0,0,0-.21,1.28,4.49,4.49,0,0,0,.5,2.17,1.49,1.49,0,0,0,1.31.92,1.23,1.23,0,0,0,1-.51,2.88,2.88,0,0,0,.39-1.73,4,4,0,0,0-.66-2.42A1.34,1.34,0,0,0,209.21,44.05Z"/><path class="cls-2" d="M214.7,43.64v1.3c.48-.87,1-1.3,1.48-1.3a.8.8,0,0,1,.57.21.65.65,0,0,1,.23.49.57.57,0,0,1-.17.41.47.47,0,0,1-.38.17.85.85,0,0,1-.5-.21.76.76,0,0,0-.4-.22.39.39,0,0,0-.25.12,3.17,3.17,0,0,0-.58.85v2.77a1.67,1.67,0,0,0,.12.72.62.62,0,0,0,.29.29,1.32,1.32,0,0,0,.59.11v.23h-2.94v-.23a1.23,1.23,0,0,0,.65-.14.51.51,0,0,0,.22-.32,3.34,3.34,0,0,0,0-.61V46a8.89,8.89,0,0,0,0-1.2.43.43,0,0,0-.15-.28.4.4,0,0,0-.27-.08,1.28,1.28,0,0,0-.44.09l-.06-.23,1.74-.7Z"/><path class="cls-2" d="M219,41.91v1.9h1.34v.44H219V48a1.26,1.26,0,0,0,.16.76.49.49,0,0,0,.41.19.68.68,0,0,0,.4-.13.78.78,0,0,0,.3-.38h.25a2,2,0,0,1-.63.93,1.29,1.29,0,0,1-.82.31,1.07,1.07,0,0,1-.57-.16,1,1,0,0,1-.41-.46,2.39,2.39,0,0,1-.13-.92V44.25H217V44a2.36,2.36,0,0,0,.71-.47,3.81,3.81,0,0,0,.64-.78,6.2,6.2,0,0,0,.4-.88Z"/><path class="cls-2" d="M222.56,40.62v4.22a5,5,0,0,1,1.1-1,1.75,1.75,0,0,1,.82-.21,1.36,1.36,0,0,1,.84.27,1.65,1.65,0,0,1,.52.85,6,6,0,0,1,.12,1.47v2a2.06,2.06,0,0,0,.09.75.49.49,0,0,0,.21.24,1.16,1.16,0,0,0,.55.09v.23H224v-.23h.13a1,1,0,0,0,.56-.12.72.72,0,0,0,.22-.36,5.77,5.77,0,0,0,0-.6v-2a5.13,5.13,0,0,0-.1-1.24.86.86,0,0,0-.31-.44.89.89,0,0,0-.52-.15,1.44,1.44,0,0,0-.64.16,3.13,3.13,0,0,0-.79.66v3.05a2.62,2.62,0,0,0,.06.74.53.53,0,0,0,.25.24,1.29,1.29,0,0,0,.61.1v.23h-2.84v-.23a1.28,1.28,0,0,0,.6-.12.45.45,0,0,0,.2-.24,2.26,2.26,0,0,0,.07-.72V43.05a9.41,9.41,0,0,0,0-1.21.47.47,0,0,0-.15-.31.35.35,0,0,0-.26-.08,1.34,1.34,0,0,0-.42.1l-.09-.22,1.72-.71Z"/><path class="cls-2" d="M230.55,48.75a10.22,10.22,0,0,1-1.11.79,1.76,1.76,0,0,1-.72.16,1.28,1.28,0,0,1-1-.41,1.51,1.51,0,0,1-.39-1.08,1.35,1.35,0,0,1,.19-.73,2.54,2.54,0,0,1,.89-.81,14.14,14.14,0,0,1,2.12-.92v-.22a1.93,1.93,0,0,0-.27-1.19,1,1,0,0,0-.8-.32.84.84,0,0,0-.62.22.63.63,0,0,0-.24.49v.36a.63.63,0,0,1-.15.45.5.5,0,0,1-.38.16.49.49,0,0,1-.38-.17.62.62,0,0,1-.15-.44,1.32,1.32,0,0,1,.55-1,2.4,2.4,0,0,1,1.55-.45,2.62,2.62,0,0,1,1.26.26,1.12,1.12,0,0,1,.54.61,3.26,3.26,0,0,1,.12,1.11v2a9.72,9.72,0,0,0,0,1,.38.38,0,0,0,.1.24.23.23,0,0,0,.17.07.31.31,0,0,0,.17,0,3,3,0,0,0,.51-.46v.36c-.47.63-.91.94-1.34.94a.61.61,0,0,1-.49-.21A1.23,1.23,0,0,1,230.55,48.75Zm0-.41v-2.2a13.14,13.14,0,0,0-1.22.53,2.19,2.19,0,0,0-.71.58,1.15,1.15,0,0,0-.21.66,1.09,1.09,0,0,0,.27.76.79.79,0,0,0,.62.3A2.29,2.29,0,0,0,230.55,48.34Z"/><path class="cls-2" d="M234.68,44.86a2.71,2.71,0,0,1,1.92-1.22,1.41,1.41,0,0,1,.81.23,1.56,1.56,0,0,1,.54.78,3.66,3.66,0,0,1,.14,1.16v2.46a2.06,2.06,0,0,0,.09.75.51.51,0,0,0,.22.24,1.23,1.23,0,0,0,.57.09v.23h-2.84v-.23h.11a1,1,0,0,0,.57-.12.65.65,0,0,0,.22-.36,3.68,3.68,0,0,0,0-.6V45.91a2.37,2.37,0,0,0-.2-1.14.74.74,0,0,0-.69-.36,2.07,2.07,0,0,0-1.48.82v3a2.54,2.54,0,0,0,.06.73.6.6,0,0,0,.25.27,1.62,1.62,0,0,0,.62.08v.23h-2.84v-.23h.12a.69.69,0,0,0,.6-.22,1.7,1.7,0,0,0,.15-.86V46.13a9.27,9.27,0,0,0,0-1.26.53.53,0,0,0-.14-.31.37.37,0,0,0-.26-.08,1.22,1.22,0,0,0-.42.09l-.1-.23,1.74-.7h.27Z"/><path class="cls-2" d="M243.49,48.93a3,3,0,0,1-.83.63,1.9,1.9,0,0,1-.86.19,2.14,2.14,0,0,1-1.65-.79,2.91,2.91,0,0,1-.7-2,3.67,3.67,0,0,1,.78-2.27,2.39,2.39,0,0,1,2-1,1.7,1.7,0,0,1,1.26.49V43.05a8.64,8.64,0,0,0-.05-1.21.47.47,0,0,0-.15-.31.36.36,0,0,0-.25-.08,1.23,1.23,0,0,0-.43.1l-.08-.22,1.71-.71h.28v6.67a9,9,0,0,0,0,1.24.53.53,0,0,0,.15.31.36.36,0,0,0,.24.09,1.44,1.44,0,0,0,.45-.11l.07.22-1.71.71h-.28Zm0-.44v-3a2.08,2.08,0,0,0-.23-.78,1.35,1.35,0,0,0-.5-.53,1.21,1.21,0,0,0-.6-.18,1.3,1.3,0,0,0-1,.5,2.83,2.83,0,0,0-.57,1.91,3,3,0,0,0,.55,2,1.57,1.57,0,0,0,1.23.68A1.55,1.55,0,0,0,243.49,48.49Z"/><path class="cls-2" d="M255.87,41l.09,2h-.24a2.63,2.63,0,0,0-.18-.76,1.36,1.36,0,0,0-.52-.54,1.89,1.89,0,0,0-.85-.17H253V48.1a1.69,1.69,0,0,0,.17,1,.92.92,0,0,0,.73.26h.3v.24h-3.61v-.24h.3a.87.87,0,0,0,.77-.32,2,2,0,0,0,.13-.92V41.57h-1a2.81,2.81,0,0,0-.85.09,1.21,1.21,0,0,0-.56.46,1.93,1.93,0,0,0-.27.92h-.24l.1-2Z"/><path class="cls-2" d="M257.91,43.64v1.3c.48-.87,1-1.3,1.48-1.3a.81.81,0,0,1,.58.21.64.64,0,0,1,.22.49.56.56,0,0,1-.16.41.5.5,0,0,1-.39.17.82.82,0,0,1-.49-.21.78.78,0,0,0-.41-.22.39.39,0,0,0-.24.12,3.17,3.17,0,0,0-.59.85v2.77A1.67,1.67,0,0,0,258,49a.67.67,0,0,0,.29.29,1.37,1.37,0,0,0,.6.11v.23h-3v-.23a1.27,1.27,0,0,0,.66-.14.55.55,0,0,0,.22-.32,3.34,3.34,0,0,0,0-.61V46a11.23,11.23,0,0,0,0-1.2.54.54,0,0,0-.15-.28.44.44,0,0,0-.28-.08,1.32,1.32,0,0,0-.44.09l-.06-.23,1.74-.7Z"/><path class="cls-2" d="M263.77,48.75a10.22,10.22,0,0,1-1.11.79,1.8,1.8,0,0,1-.72.16,1.32,1.32,0,0,1-1-.41,1.55,1.55,0,0,1-.38-1.08,1.35,1.35,0,0,1,.19-.73,2.54,2.54,0,0,1,.89-.81,14.14,14.14,0,0,1,2.12-.92v-.22a1.93,1.93,0,0,0-.27-1.19,1,1,0,0,0-.8-.32.88.88,0,0,0-.63.22.65.65,0,0,0-.23.49v.36a.63.63,0,0,1-.15.45.53.53,0,0,1-.38.16.47.47,0,0,1-.38-.17.62.62,0,0,1-.15-.44,1.29,1.29,0,0,1,.55-1,2.4,2.4,0,0,1,1.55-.45,2.62,2.62,0,0,1,1.26.26,1.2,1.2,0,0,1,.54.61,3.26,3.26,0,0,1,.12,1.11v2a9.72,9.72,0,0,0,0,1,.38.38,0,0,0,.1.24.22.22,0,0,0,.17.07.34.34,0,0,0,.17,0,3,3,0,0,0,.51-.46v.36c-.47.63-.92.94-1.34.94a.61.61,0,0,1-.49-.21A1.16,1.16,0,0,1,263.77,48.75Zm0-.41v-2.2a13.14,13.14,0,0,0-1.22.53,2.19,2.19,0,0,0-.71.58,1.15,1.15,0,0,0,.05,1.42.82.82,0,0,0,.62.3A2.28,2.28,0,0,0,263.77,48.34Z"/><path class="cls-2" d="M268.2,43.64v4.63a2.14,2.14,0,0,0,.08.72.56.56,0,0,0,.23.27,1.21,1.21,0,0,0,.56.09v.23h-2.79v-.23a1.33,1.33,0,0,0,.56-.08.56.56,0,0,0,.23-.27,2,2,0,0,0,.09-.73V46.05a7.51,7.51,0,0,0-.06-1.22.49.49,0,0,0-.14-.28.39.39,0,0,0-.25-.07,1.32,1.32,0,0,0-.43.09l-.09-.23,1.73-.7Zm-.52-3a.63.63,0,0,1,.63.64.64.64,0,0,1-.18.45.61.61,0,0,1-.45.19.58.58,0,0,1-.45-.19.64.64,0,0,1,0-.9A.62.62,0,0,1,267.68,40.62Z"/><path class="cls-2" d="M271.46,44.86a2.74,2.74,0,0,1,1.93-1.22,1.45,1.45,0,0,1,.81.23,1.56,1.56,0,0,1,.54.78,3.66,3.66,0,0,1,.14,1.16v2.46A2.06,2.06,0,0,0,275,49a.51.51,0,0,0,.22.24,1.23,1.23,0,0,0,.57.09v.23h-2.85v-.23H273a1,1,0,0,0,.56-.12.66.66,0,0,0,.23-.36,5.61,5.61,0,0,0,0-.6V45.91a2.5,2.5,0,0,0-.2-1.14.74.74,0,0,0-.69-.36,2.1,2.1,0,0,0-1.49.82v3a2.4,2.4,0,0,0,.07.73.64.64,0,0,0,.24.27,1.68,1.68,0,0,0,.63.08v.23h-2.84v-.23h.12a.66.66,0,0,0,.59-.22,1.58,1.58,0,0,0,.16-.86V46.13a9.27,9.27,0,0,0-.05-1.26.53.53,0,0,0-.14-.31.38.38,0,0,0-.26-.08,1.22,1.22,0,0,0-.42.09l-.1-.23,1.73-.7h.27Z"/><path class="cls-2" d="M278.2,43.64v4.63a1.9,1.9,0,0,0,.08.72.56.56,0,0,0,.23.27,1.21,1.21,0,0,0,.56.09v.23h-2.79v-.23a1.33,1.33,0,0,0,.56-.08.56.56,0,0,0,.23-.27,2,2,0,0,0,.09-.73V46.05a7.51,7.51,0,0,0-.06-1.22.57.57,0,0,0-.14-.28.4.4,0,0,0-.26-.07,1.27,1.27,0,0,0-.42.09l-.09-.23,1.73-.7Zm-.52-3a.63.63,0,0,1,.63.64.64.64,0,0,1-.18.45.61.61,0,0,1-.45.19.62.62,0,0,1-.46-.19.64.64,0,0,1-.18-.45.61.61,0,0,1,.18-.45A.62.62,0,0,1,277.68,40.62Z"/><path class="cls-2" d="M281.46,44.86a2.72,2.72,0,0,1,1.93-1.22,1.45,1.45,0,0,1,.81.23,1.69,1.69,0,0,1,.54.78,3.72,3.72,0,0,1,.13,1.16v2.46A2.06,2.06,0,0,0,285,49a.56.56,0,0,0,.22.24,1.29,1.29,0,0,0,.57.09v.23h-2.84v-.23H283a1,1,0,0,0,.56-.12.6.6,0,0,0,.22-.36,3.2,3.2,0,0,0,0-.6V45.91a2.5,2.5,0,0,0-.2-1.14.74.74,0,0,0-.69-.36,2.08,2.08,0,0,0-1.49.82v3a2.1,2.1,0,0,0,.07.73.64.64,0,0,0,.24.27,1.65,1.65,0,0,0,.63.08v.23h-2.85v-.23h.13a.66.66,0,0,0,.59-.22,1.68,1.68,0,0,0,.16-.86V46.13a9.27,9.27,0,0,0-.05-1.26.47.47,0,0,0-.15-.31.35.35,0,0,0-.26-.08,1.32,1.32,0,0,0-.42.09l-.09-.23,1.73-.7h.27Z"/><path class="cls-2" d="M287.75,47.47a1.88,1.88,0,0,1-1.09-1.74,2,2,0,0,1,.64-1.47,2.26,2.26,0,0,1,1.65-.62,2.47,2.47,0,0,1,1.42.4h1.22a1.43,1.43,0,0,1,.31,0,.12.12,0,0,1,.07,0,.49.49,0,0,1,0,.2.6.6,0,0,1,0,.23.1.1,0,0,1-.06.05,1.56,1.56,0,0,1-.32,0h-.75a1.8,1.8,0,0,1,.35,1.16,1.84,1.84,0,0,1-.61,1.38,2.33,2.33,0,0,1-1.65.57,2.91,2.91,0,0,1-.87-.13,1.7,1.7,0,0,0-.38.42.71.71,0,0,0-.09.31.29.29,0,0,0,.1.21.82.82,0,0,0,.4.14c.12,0,.41,0,.88,0,.86,0,1.42,0,1.68.09a1.57,1.57,0,0,1,.93.44,1.18,1.18,0,0,1,.35.87,1.8,1.8,0,0,1-.67,1.33,3.58,3.58,0,0,1-2.55.92,3.63,3.63,0,0,1-2-.55c-.31-.21-.47-.43-.47-.65a.82.82,0,0,1,.07-.3,3.2,3.2,0,0,1,.44-.65s.24-.27.64-.68a2,2,0,0,1-.46-.35.53.53,0,0,1-.13-.35,1.12,1.12,0,0,1,.17-.52A4.13,4.13,0,0,1,287.75,47.47Zm-.06,2.11a2.75,2.75,0,0,0-.45.6,1.06,1.06,0,0,0-.15.51.65.65,0,0,0,.36.53,3.49,3.49,0,0,0,1.82.39,2.81,2.81,0,0,0,1.66-.4,1.12,1.12,0,0,0,.54-.86.47.47,0,0,0-.32-.46,4,4,0,0,0-1.29-.17A19.71,19.71,0,0,1,287.69,49.58Zm1.15-5.64a1,1,0,0,0-.78.37,1.74,1.74,0,0,0-.31,1.14,2.41,2.41,0,0,0,.43,1.54,1,1,0,0,0,.82.42,1,1,0,0,0,.79-.36,1.73,1.73,0,0,0,.31-1.13,2.49,2.49,0,0,0-.44-1.56A1,1,0,0,0,288.84,43.94Z"/><path class="cls-2" d="M303.19,40.84l.19,2.9h-.19a3.67,3.67,0,0,0-1.11-1.87,2.72,2.72,0,0,0-1.73-.58,2.7,2.7,0,0,0-2.61,1.81,6.21,6.21,0,0,0-.39,2.35,5,5,0,0,0,.37,2,2.68,2.68,0,0,0,1.11,1.3,3.12,3.12,0,0,0,1.7.46,2.9,2.9,0,0,0,1.46-.36,4.74,4.74,0,0,0,1.39-1.41l.2.12a4.49,4.49,0,0,1-1.5,1.67,3.69,3.69,0,0,1-2,.53,3.83,3.83,0,0,1-3.28-1.57,4.5,4.5,0,0,1-.87-2.76,4.92,4.92,0,0,1,.57-2.35,4.22,4.22,0,0,1,3.76-2.25,4,4,0,0,1,1.82.45.93.93,0,0,0,.38.14.44.44,0,0,0,.3-.12,1.09,1.09,0,0,0,.23-.47Z"/><path class="cls-2" d="M305.39,46a3,3,0,0,0,.62,2,1.92,1.92,0,0,0,1.48.73,1.66,1.66,0,0,0,1-.31,2.34,2.34,0,0,0,.7-1.07l.19.12a3.07,3.07,0,0,1-.76,1.58,2.07,2.07,0,0,1-1.59.7,2.31,2.31,0,0,1-1.77-.81,3.06,3.06,0,0,1-.74-2.17,3.27,3.27,0,0,1,.76-2.31,2.45,2.45,0,0,1,1.89-.83,2.09,2.09,0,0,1,1.59.64,2.34,2.34,0,0,1,.62,1.71Zm0-.36h2.66a2.49,2.49,0,0,0-.13-.79,1.26,1.26,0,0,0-.47-.55,1.21,1.21,0,0,0-.65-.2,1.27,1.27,0,0,0-.93.4A1.84,1.84,0,0,0,305.39,45.62Z"/><path class="cls-2" d="M311.8,44.86a2.74,2.74,0,0,1,1.93-1.22,1.45,1.45,0,0,1,.81.23,1.56,1.56,0,0,1,.54.78,3.66,3.66,0,0,1,.14,1.16v2.46a2.06,2.06,0,0,0,.09.75.51.51,0,0,0,.22.24,1.23,1.23,0,0,0,.57.09v.23h-2.85v-.23h.12a1,1,0,0,0,.56-.12.61.61,0,0,0,.23-.36,5.61,5.61,0,0,0,0-.6V45.91a2.5,2.5,0,0,0-.2-1.14.74.74,0,0,0-.69-.36,2.1,2.1,0,0,0-1.49.82v3a2.4,2.4,0,0,0,.07.73.64.64,0,0,0,.24.27,1.72,1.72,0,0,0,.63.08v.23H309.9v-.23H310a.66.66,0,0,0,.59-.22,1.58,1.58,0,0,0,.16-.86V46.13a9.27,9.27,0,0,0,0-1.26.53.53,0,0,0-.14-.31.37.37,0,0,0-.26-.08,1.22,1.22,0,0,0-.42.09l-.1-.23,1.73-.7h.27Z"/><path class="cls-2" d="M318.22,41.91v1.9h1.35v.44h-1.35V48a1.25,1.25,0,0,0,.17.76.49.49,0,0,0,.41.19.7.7,0,0,0,.4-.13.78.78,0,0,0,.3-.38h.24a1.93,1.93,0,0,1-.62.93,1.32,1.32,0,0,1-.83.31,1.06,1.06,0,0,1-.56-.16,1,1,0,0,1-.41-.46,2.39,2.39,0,0,1-.13-.92V44.25h-.91V44a2.32,2.32,0,0,0,.7-.47,3.55,3.55,0,0,0,.65-.78,7.64,7.64,0,0,0,.4-.88Z"/><path class="cls-2" d="M321.09,46a3,3,0,0,0,.62,2,1.92,1.92,0,0,0,1.48.73,1.66,1.66,0,0,0,1-.31,2.34,2.34,0,0,0,.7-1.07l.19.12a3,3,0,0,1-.76,1.58,2,2,0,0,1-1.59.7,2.31,2.31,0,0,1-1.77-.81,3.1,3.1,0,0,1-.74-2.17,3.27,3.27,0,0,1,.76-2.31,2.46,2.46,0,0,1,1.9-.83,2.09,2.09,0,0,1,1.58.64,2.34,2.34,0,0,1,.62,1.71Zm0-.36h2.66a2.49,2.49,0,0,0-.13-.79,1.2,1.2,0,0,0-.47-.55,1.18,1.18,0,0,0-.65-.2,1.31,1.31,0,0,0-.93.4A1.84,1.84,0,0,0,321.09,45.62Z"/><path class="cls-2" d="M327.51,43.64v1.3c.48-.87,1-1.3,1.48-1.3a.8.8,0,0,1,.57.21.62.62,0,0,1,.23.49.56.56,0,0,1-.16.41.5.5,0,0,1-.39.17.82.82,0,0,1-.49-.21.81.81,0,0,0-.41-.22.37.37,0,0,0-.24.12,3.17,3.17,0,0,0-.59.85v2.77a1.67,1.67,0,0,0,.12.72.67.67,0,0,0,.29.29,1.37,1.37,0,0,0,.6.11v.23h-2.95v-.23a1.27,1.27,0,0,0,.66-.14.59.59,0,0,0,.22-.32,3.34,3.34,0,0,0,0-.61V46a11.23,11.23,0,0,0,0-1.2.54.54,0,0,0-.15-.28.44.44,0,0,0-.28-.08,1.32,1.32,0,0,0-.44.09l-.06-.23,1.74-.7Z"/><path class="cls-3" d="M13.31,22.75H10.69V35.61l-.53-.54a14.79,14.79,0,0,0-1-2,7,7,0,0,0-1.26-1.47,5.69,5.69,0,0,0-1.62-1,6.28,6.28,0,0,0-2.1-.39L2.52,28.19c.57-.6,1.15-1.16,1.75-1.69s1.21-1.05,1.85-1.58A5,5,0,0,0,5,24.34c-.43-.17-.85-.31-1.26-.44l-1.12-.36A1.44,1.44,0,0,1,2,23.17c-.23-.3-.47-.58-.72-.86s-.52-.55-.79-.82H12.08Zm-3.83,0H4.85A5.65,5.65,0,0,1,6.55,24c.48.51,1,1.05,1.42,1.61a17.36,17.36,0,0,1-1.45,1.52,17.37,17.37,0,0,0-1.44,1.53A7.44,7.44,0,0,1,7.6,30.09a9.54,9.54,0,0,1,1.88,2.25Z"/><path class="cls-3" d="M13.44,40l-.15-.11a9,9,0,0,0-.64-.78c-.28-.3-.58-.61-.89-.9s-.63-.58-.94-.83A5.33,5.33,0,0,0,10,36.8l-.45.49a2.61,2.61,0,0,1-.46.42,2.22,2.22,0,0,1-.55.3,2.14,2.14,0,0,1-.7.11A3.88,3.88,0,0,1,7.06,38a2.14,2.14,0,0,1-.72-.32,1.81,1.81,0,0,1-.53-.57,1.64,1.64,0,0,1-.2-.83,1.71,1.71,0,0,1,.18-.8,2.23,2.23,0,0,1,.49-.61A1.82,1.82,0,0,1,7,34.52a2.44,2.44,0,0,1,.8-.13,1.8,1.8,0,0,1,.59.11,5.19,5.19,0,0,1,.57.23l.43.24a.65.65,0,0,0,.21.1c.06,0,.09,0,.11-.14s0-.15,0-.18a4.71,4.71,0,0,0,0-.84,5.92,5.92,0,0,1,0-.84l0,0a.51.51,0,0,1,.37.22,2.41,2.41,0,0,1,.32.52,5.22,5.22,0,0,1,.25.61,2.34,2.34,0,0,1,.12.48,2.31,2.31,0,0,1,0,.51c0,.16,0,.33,0,.51.22.18.5.42.83.73a9.35,9.35,0,0,1,.95,1,8,8,0,0,1,.77,1.15,1.8,1.8,0,0,1,.28,1ZM7.92,35.61a2.56,2.56,0,0,0-.37,0,1.75,1.75,0,0,0-.41.08.81.81,0,0,0-.33.21.6.6,0,0,0,.06.83,1.34,1.34,0,0,0,.5.16,1.87,1.87,0,0,0,.45,0,2.76,2.76,0,0,0,.51-.16,1.27,1.27,0,0,0,.41-.27.48.48,0,0,0,.17-.33.34.34,0,0,0-.11-.25,1.47,1.47,0,0,0-.28-.16,1.32,1.32,0,0,0-.33-.08A1.42,1.42,0,0,0,7.92,35.61Z"/><path class="cls-3" d="M23.64,22.75H21V36a.47.47,0,0,0-.32-.22c-.1,0-.2-.07-.3-.23a.83.83,0,0,1-.12-.31q0-.19-.09-.45c0-.16-.07-.34-.11-.52a4.68,4.68,0,0,0-.17-.53,5.32,5.32,0,0,0-1.15-1.75,9.22,9.22,0,0,0-1.53-1.2,8.2,8.2,0,0,0-1.47-.69,6,6,0,0,0-1.57-.33l-1.55-2.28a29.7,29.7,0,0,1,3.46-2.21,23.59,23.59,0,0,1,3.71-1.63v-.85H12.06L10.9,21.49H22.47ZM19.83,25.6a16.51,16.51,0,0,0-2.38,1.1c-.76.44-1.51.91-2.25,1.42a11.12,11.12,0,0,1,2.65,1.65,8.47,8.47,0,0,1,2,2.45Z"/><path class="cls-3" d="M27.82,21.49h11a2.29,2.29,0,0,0-.27-1.14,1,1,0,0,0-.92-.48l-1.17,0L35,20,33.66,20l-1.17,0a3.39,3.39,0,0,1-1.07-.2,4.07,4.07,0,0,1-1.05-.56,3,3,0,0,1-.8-.84,1.94,1.94,0,0,1-.32-1.07,5.65,5.65,0,0,1,.08-.89,1.41,1.41,0,0,1,.41-.77l.6.19a1.51,1.51,0,0,0-.31.9,1.36,1.36,0,0,0,.26.9,1.41,1.41,0,0,0,.63.45,2.57,2.57,0,0,0,.85.16c.32,0,.62,0,.9,0s.53,0,.9,0l1.11,0,1.12-.06c.36,0,.66,0,.89,0a3.5,3.5,0,0,1,1.3.25,3.27,3.27,0,0,1,1.06.68,3.09,3.09,0,0,1,.71,1.05A3.23,3.23,0,0,1,40,21.49h1.6l1.21,1.26H35.15v3.71a1.46,1.46,0,0,0,.17.68.57.57,0,0,0,.55.32c.1,0,.25-.12.46-.35s.44-.5.68-.79a9.37,9.37,0,0,1,.71-.79,1,1,0,0,1,.57-.35,1.2,1.2,0,0,1,.87.45,4.41,4.41,0,0,1,.73,1.06A7.56,7.56,0,0,1,40.38,28,4.16,4.16,0,0,1,40.56,29a6.85,6.85,0,0,1-.27,2,4.49,4.49,0,0,1-.83,1.56,3.8,3.8,0,0,1-1.38,1,4.67,4.67,0,0,1-1.9.36,4.26,4.26,0,0,1-2.12-.51,5.31,5.31,0,0,1-1.57-1.34,8.15,8.15,0,0,1-1.1-1.92,17.34,17.34,0,0,1-.72-2.25q-.29-1.17-.45-2.31T30,23.49l.74.41a12.45,12.45,0,0,0,.42,2.49,11.27,11.27,0,0,0,1,2.57,6.93,6.93,0,0,0,1.62,2,3.37,3.37,0,0,0,2.23.81,3.33,3.33,0,0,0,1.69-.46A3.75,3.75,0,0,0,39,30.17a3,3,0,0,0,.55-1.55A2.22,2.22,0,0,0,38.88,27a2.36,2.36,0,0,1-.45.74,5.93,5.93,0,0,1-.8.78,5.86,5.86,0,0,1-.92.61,1.68,1.68,0,0,1-.82.26,1.79,1.79,0,0,1-1.35-.55A2.06,2.06,0,0,1,34,27.52V22.75H29Z"/><path class="cls-3" d="M53.72,22.75H51.07V35.82l-.47-.6a.62.62,0,0,0,0-.18v-.18a7.68,7.68,0,0,0-.14-1.4,15,15,0,0,0-.41-1.67,12.48,12.48,0,0,0-.67-1.72,7.87,7.87,0,0,0-.91-1.5,5,5,0,0,0-1.12-1.08A2.32,2.32,0,0,0,46,27.08h-.16a.19.19,0,0,0-.14.07c.21.33.4.62.56.89a1.91,1.91,0,0,1,.24,1,1.36,1.36,0,0,1-.5,1.15,1.78,1.78,0,0,1-1.16.38,2.07,2.07,0,0,1-2.3-2.38A2.78,2.78,0,0,1,42.81,27a2.82,2.82,0,0,1,.63-.89,3,3,0,0,1,.92-.58,3.18,3.18,0,0,1,1.12-.2,3,3,0,0,1,1.5.38,4.87,4.87,0,0,1,1.2,1,7.57,7.57,0,0,1,1,1.32c.28.48.52.95.73,1.4V22.75H41.63l-1.19-1.26h12Z"/><path class="cls-3" d="M50.92,38.3a2,2,0,0,1-.26-.18,2.42,2.42,0,0,1-.32-.27,1.47,1.47,0,0,0-.07-.68c-.06-.15-.14-.36-.22-.63a8.68,8.68,0,0,0-.59-1.38,5.57,5.57,0,0,0-.9-1.23,4.23,4.23,0,0,0-1.18-.88,3.13,3.13,0,0,0-1.45-.34,1,1,0,0,0-.24,0l-.25.07a2.77,2.77,0,0,1,.64.82,2.19,2.19,0,0,1,.24,1,1.76,1.76,0,0,1-.38,1.14,1.33,1.33,0,0,1-1.07.46,2.08,2.08,0,0,1-1.46-.53,1.89,1.89,0,0,1-.57-1.48,2.7,2.7,0,0,1,.79-2.12,3,3,0,0,1,2.1-.72,3.32,3.32,0,0,1,1.35.31,4.81,4.81,0,0,1,1.24.83,5.44,5.44,0,0,1,1,1.16,5.29,5.29,0,0,1,.6,1.31V31a5,5,0,0,0,.43.34,4.64,4.64,0,0,0,.4.31l.37.29v6.4Z"/><path class="cls-3" d="M64.19,22.75H61.44V35.67a2,2,0,0,1-.6-.78q-.23-.48-.42-.93a6.1,6.1,0,0,0-2.25-2.67,6.58,6.58,0,0,0-3.24-1l-1.62-2.14c.57-.59,1.15-1.15,1.75-1.67s1.2-1,1.83-1.55a2.54,2.54,0,0,0-1-.73,6.6,6.6,0,0,0-1.26-.27,3.64,3.64,0,0,1-1.09-.3,3.52,3.52,0,0,1-.79-.53,6.15,6.15,0,0,1-.69-.74c-.23-.27-.49-.56-.79-.86h11.7ZM56.91,34.56a1.3,1.3,0,0,1-.94-.4,1.32,1.32,0,0,1-.41-1,1.28,1.28,0,0,1,.35-.92,1.15,1.15,0,0,1,.86-.36,1.36,1.36,0,0,1,.94.38,1.22,1.22,0,0,1,.41.94,1.35,1.35,0,0,1-.35.93A1.11,1.11,0,0,1,56.91,34.56Zm3.32-11.81H55.85a8.14,8.14,0,0,1,1.54,1.35c.44.49.88,1,1.35,1.57-.47.54-1,1-1.44,1.51a17.7,17.7,0,0,0-1.43,1.54,7.17,7.17,0,0,1,2.51,1.42,8.56,8.56,0,0,1,1.85,2.27Z"/><path class="cls-3" d="M74.92,22.75H72.28V35.82l-.47-.6a1.41,1.41,0,0,0,0-.18v-.18a8.69,8.69,0,0,0-.14-1.4c-.1-.53-.24-1.09-.41-1.67a12.48,12.48,0,0,0-.67-1.72,8.42,8.42,0,0,0-.91-1.5,5,5,0,0,0-1.13-1.08,2.29,2.29,0,0,0-1.33-.41h-.16a.21.21,0,0,0-.15.07c.22.33.41.62.57.89a2,2,0,0,1,.23,1,1.36,1.36,0,0,1-.49,1.15,1.83,1.83,0,0,1-1.17.38c-1.53,0-2.29-.79-2.29-2.38A2.94,2.94,0,0,1,64,27a2.85,2.85,0,0,1,.64-.89,2.82,2.82,0,0,1,.92-.58,3.18,3.18,0,0,1,1.12-.2,3,3,0,0,1,1.49.38,4.92,4.92,0,0,1,1.21,1,7.52,7.52,0,0,1,1,1.32,14.56,14.56,0,0,1,.73,1.4V22.75H62.83l-1.18-1.26h12Z"/><path class="cls-3" d="M95.21,22.75H88.79v.94a4.35,4.35,0,0,1,2,.49,5.3,5.3,0,0,1,1.56,1.19,4.88,4.88,0,0,1,1,1.6,3.65,3.65,0,0,1,.22,1.71,3,3,0,0,1-.22.87,3.08,3.08,0,0,1-.46.78,2.29,2.29,0,0,1-.68.56,1.67,1.67,0,0,1-.86.22,1.43,1.43,0,0,1-.58-.12,1.81,1.81,0,0,1-.5-.33,1.72,1.72,0,0,1-.36-.49,1.38,1.38,0,0,1-.13-.6,1.67,1.67,0,0,1,.24-.91,1.2,1.2,0,0,1,.63-.49,1.47,1.47,0,0,1,.85,0,2.15,2.15,0,0,1,.9.61.37.37,0,0,1,0-.11.49.49,0,0,0,0-.12,2.85,2.85,0,0,0-.29-1.24,3.53,3.53,0,0,0-.76-1,3.79,3.79,0,0,0-1.06-.71,2.57,2.57,0,0,0-1.21-.21h-.18a.1.1,0,0,1-.09,0v10a.18.18,0,0,1-.1-.06l-.16-.15A1.66,1.66,0,0,1,88.3,35a10.82,10.82,0,0,0-.89-2,7.4,7.4,0,0,0-1.24-1.62,6.13,6.13,0,0,0-1.64-1.15,6.32,6.32,0,0,0-2.07-.58l-1.68-2.13a18.22,18.22,0,0,1,1.52-1.14c.56-.38,1.14-.73,1.73-1.06s1.19-.62,1.8-.89a15.36,15.36,0,0,1,1.75-.66v-1H80.21L79,21.49H94Zm-7.63,2.68a16.12,16.12,0,0,0-2.28,1.1c-.68.41-1.37.87-2.08,1.4a9,9,0,0,1,2.52,1.64A8.76,8.76,0,0,1,87.58,32Z"/><path class="cls-3" d="M96.05,20.34a.86.86,0,0,0,.06.2l.14.35.16.36a2.21,2.21,0,0,0,.09.24h2.25L100,22.75h-3V35.48l-.62-.62-.41-.43c-.12-.12-.17-.19-.16-.19V22.75H93.94l-1.21-1.26h3.09a4.43,4.43,0,0,0-.37-.39,5.22,5.22,0,0,1-.4-.41,2.3,2.3,0,0,1-.32-.47,1,1,0,0,1-.14-.5,2.87,2.87,0,0,1,.46-1.52,5.61,5.61,0,0,1,1.15-1.29A6,6,0,0,1,97.7,16a4,4,0,0,1,1.5-.33,6.87,6.87,0,0,1,2,.29,10,10,0,0,1,1.89.77,11.35,11.35,0,0,1,1.7,1.16,20,20,0,0,1,1.51,1.4l.27.81a17.49,17.49,0,0,0-2.77-2,9.61,9.61,0,0,0-2.27-.95,5,5,0,0,0-1.84-.14,4.41,4.41,0,0,0-1.41.44,3.85,3.85,0,0,0-1,.77,5.37,5.37,0,0,0-.71.88,4.8,4.8,0,0,0-.4.77A1.76,1.76,0,0,0,96.05,20.34Z"/><path class="cls-3" d="M109.75,22.75h-2.6a3.34,3.34,0,0,1,.62,1A3.81,3.81,0,0,1,108,25a4.69,4.69,0,0,1-.15,1.13,4.19,4.19,0,0,1-.46,1.11,3.11,3.11,0,0,1-.76.85,1.67,1.67,0,0,1-1,.34,2.45,2.45,0,0,1-1-.2,4.68,4.68,0,0,1-.87-.5,7,7,0,0,1-.77-.67l-.68-.7,0,.19a1.22,1.22,0,0,1-.5,1.1,1.88,1.88,0,0,1-1.14.38,1.08,1.08,0,0,1-.94-.49,2,2,0,0,1-.31-1.07,1.74,1.74,0,0,1,.18-.84,1.57,1.57,0,0,1,.45-.53,1.71,1.71,0,0,1,1.09-.29,3,3,0,0,0,0-.44,4.55,4.55,0,0,0-.12-.69,2.64,2.64,0,0,0-.29-.66.58.58,0,0,0-.51-.28h-2l-1-1.26h11.33Zm-8.07,0a1.17,1.17,0,0,1,.19.27c0,.1.11.23.17.38a3.46,3.46,0,0,1,.17.58c0,.16.05.3.06.41a1.33,1.33,0,0,0,0,.34,3.42,3.42,0,0,0,.57.6c.25.21.51.41.79.61a4.71,4.71,0,0,0,.85.46,1.92,1.92,0,0,0,.78.19,1.35,1.35,0,0,0,.85-.31,1.75,1.75,0,0,0,.46-.72,2.73,2.73,0,0,0,.13-.92,3.77,3.77,0,0,0-.13-.91,2.13,2.13,0,0,0-.33-.71.58.58,0,0,0-.45-.27Z"/><path class="cls-3" d="M119.67,22.75h-2.54V35.48l-.66-.66c-.21-.22-.44-.43-.67-.64l.08-3.24,0-1.19c0-.39,0-.74,0-1v-1c-.07-.19-.14-.41-.21-.65a6.65,6.65,0,0,0-.28-.69,3.76,3.76,0,0,0-.37-.62,2,2,0,0,0-.47-.45l-4.08,4.29-1.76-.68a2.82,2.82,0,0,1,.39-.38,4.16,4.16,0,0,0,.42-.42,2.56,2.56,0,0,0,.33-.48,1.12,1.12,0,0,0,.13-.53,2,2,0,0,0,0-.38,3,3,0,0,0-.12-.43,1.16,1.16,0,0,0-.22-.36.45.45,0,0,0-.34-.13,1.07,1.07,0,0,0-.47.08.42.42,0,0,1-.2.13l-.37.13-.38.1-.24.05a.79.79,0,0,1-.53-.18.89.89,0,0,1-.29-.42,1.47,1.47,0,0,1,0-.56,1.24,1.24,0,0,1,.18-.53A5.85,5.85,0,0,1,109,22.36a4.48,4.48,0,0,1,2.48-.68,4.36,4.36,0,0,1,2.4.86A5.7,5.7,0,0,1,115.74,25l.38.91a5.9,5.9,0,0,1,.31,1c-.19-1.19-.32-2.36-.41-3.49s-.12-2.31-.12-3.52l.66.51.06.13a1.6,1.6,0,0,0,.06.39.9.9,0,0,0,.12.24.86.86,0,0,0,.23.17l.37.2a4.87,4.87,0,0,1,1.08,0Zm-6.08,1.19a2.21,2.21,0,0,0-1.83-.89,3.38,3.38,0,0,0-1.61.37A2.61,2.61,0,0,0,109,24.64h.12a1.19,1.19,0,0,1,.7.2,2.2,2.2,0,0,1,.56.54,2.17,2.17,0,0,1,.34.74,1.31,1.31,0,0,1,0,.76Z"/><path class="cls-3" d="M117.33,21.49h11a2.29,2.29,0,0,0-.27-1.14,1,1,0,0,0-.92-.48l-1.17,0-1.38.06-1.39.07-1.16,0a3.34,3.34,0,0,1-1.07-.2,4.07,4.07,0,0,1-1-.56,2.91,2.91,0,0,1-.8-.84,1.87,1.87,0,0,1-.32-1.07,5.65,5.65,0,0,1,.08-.89,1.35,1.35,0,0,1,.41-.77l.59.19a1.57,1.57,0,0,0-.3.9,1.36,1.36,0,0,0,.25.9,1.44,1.44,0,0,0,.64.45,2.47,2.47,0,0,0,.85.16c.31,0,.61,0,.9,0s.53,0,.89,0l1.12,0,1.11-.06c.37,0,.66,0,.9,0a3.54,3.54,0,0,1,1.3.25,3.22,3.22,0,0,1,1,.68,3.27,3.27,0,0,1,.72,1.05,3.23,3.23,0,0,1,.27,1.33h1.59l1.21,1.26h-7.68v3.71a1.45,1.45,0,0,0,.16.68.59.59,0,0,0,.56.32c.09,0,.25-.12.46-.35l.67-.79c.24-.29.48-.56.71-.79a1,1,0,0,1,.57-.35,1.24,1.24,0,0,1,.88.45,4.39,4.39,0,0,1,.72,1.06,6.79,6.79,0,0,1,.49,1.27,3.83,3.83,0,0,1,.19,1.06,6.51,6.51,0,0,1-.28,2,4.33,4.33,0,0,1-.83,1.56,3.77,3.77,0,0,1-1.37,1,4.72,4.72,0,0,1-1.91.36,4.29,4.29,0,0,1-2.12-.51A5.27,5.27,0,0,1,122,32.07a7.82,7.82,0,0,1-1.1-1.92,17.38,17.38,0,0,1-.73-2.25q-.29-1.17-.45-2.31c-.11-.76-.2-1.46-.26-2.1l.73.41a12.45,12.45,0,0,0,.42,2.49,11.29,11.29,0,0,0,1,2.57,6.62,6.62,0,0,0,1.62,2,3.41,3.41,0,0,0,3.92.35,3.84,3.84,0,0,0,1.3-1.16,2.93,2.93,0,0,0,.54-1.55A2.17,2.17,0,0,0,128.4,27a2.36,2.36,0,0,1-.45.74,5.93,5.93,0,0,1-.8.78,6.37,6.37,0,0,1-.92.61,1.71,1.71,0,0,1-.82.26,1.77,1.77,0,0,1-1.35-.55,2.07,2.07,0,0,1-.6-1.33V22.75h-5Z"/><path class="cls-3" d="M134,22.75v8.4a.86.86,0,0,0,.26.7,1,1,0,0,0,.69.22,2.07,2.07,0,0,0,1.12-.4,5.3,5.3,0,0,0,1.11-1,6.29,6.29,0,0,0,.87-1.24,3.33,3.33,0,0,0,.42-1.17.34.34,0,0,1-.16,0h-.19a1.68,1.68,0,0,1-1.07-.37,1.21,1.21,0,0,1-.49-1,1.7,1.7,0,0,1,.47-1.23,1.53,1.53,0,0,1,1.17-.48,1.7,1.7,0,0,1,.85.21,2,2,0,0,1,.64.57,2.87,2.87,0,0,1,.54,1.67,5.11,5.11,0,0,1-.43,1.95,8.44,8.44,0,0,1-1.12,2,7.18,7.18,0,0,1-1.53,1.49,2.92,2.92,0,0,1-1.67.6,3.36,3.36,0,0,1-1.39-.25,1.76,1.76,0,0,1-.8-.75,3.12,3.12,0,0,1-.38-1.24,14.88,14.88,0,0,1-.1-1.77V22.75H131l-1-1.26h9.77c0-.11,0-.23,0-.35s0-.24,0-.36a.86.86,0,0,0-.15-.49,1.63,1.63,0,0,0-.39-.35,1.94,1.94,0,0,0-.5-.2,2.24,2.24,0,0,0-.48-.06,16.85,16.85,0,0,0-1.73.09,14.55,14.55,0,0,1-1.75.1,5.64,5.64,0,0,1-1.25-.16,4,4,0,0,1-1.2-.51,3.11,3.11,0,0,1-.89-.88,2.26,2.26,0,0,1-.35-1.27,2.2,2.2,0,0,1,.21-.88,1.53,1.53,0,0,1,.25-.39.45.45,0,0,1,.38-.13h0a1.83,1.83,0,0,1,.07.46.82.82,0,0,0-.29.64,1.14,1.14,0,0,0,.17.63,1.45,1.45,0,0,0,.45.44,2.55,2.55,0,0,0,.61.26,2.86,2.86,0,0,0,.63.08,12.08,12.08,0,0,0,1.71-.12,14,14,0,0,1,1.71-.11,6,6,0,0,1,1.51.19,3.53,3.53,0,0,1,1.31.62,2.7,2.7,0,0,1,.87,1.1,3.07,3.07,0,0,1,.21,1.65h1s.06,0,.19.16l.41.44c.17.18.38.4.61.66Z"/><path class="cls-3" d="M147.86,22.75h-3V35.9s-.1-.06-.22-.2l-.41-.43-.58-.64V25.2a5.56,5.56,0,0,0-.09-1,2.28,2.28,0,0,0-.31-.83,1.32,1.32,0,0,0-.57-.5,1.68,1.68,0,0,0-.89-.09l-1-1.26a3.49,3.49,0,0,0,.44,0h.35a2.37,2.37,0,0,1,.89.15,1.61,1.61,0,0,1,.64.47,3,3,0,0,1,.5.84c.15.35.31.77.47,1.27a5.07,5.07,0,0,0,0-.68c0-.23-.06-.51-.11-.84s-.11-.72-.17-1.19-.14-1.07-.21-1.79l.49.4a2.58,2.58,0,0,0,.1.45,1.17,1.17,0,0,0,.12.3,1.93,1.93,0,0,0,.19.27l.31.35h1.82Z"/><path class="cls-3" d="M157.86,22.75h-2.62V35.48a1,1,0,0,1-.26-.23l-.36-.43c-.23-.4-.48-.88-.76-1.45a8.38,8.38,0,0,0-1.1-1.66,6.48,6.48,0,0,0-1.71-1.4,5.82,5.82,0,0,0-2.61-.72l-1.56-2.24a31.19,31.19,0,0,1,3.44-2.19,20.57,20.57,0,0,1,3.71-1.6v-.81h-7.38l-1.21-1.26h11.19ZM154,25.43a18,18,0,0,0-2.43,1.09A18.66,18.66,0,0,0,149.36,28a10,10,0,0,1,2.74,1.74A7.8,7.8,0,0,1,154,32.39Zm-3.36,9a1.2,1.2,0,0,1-.92-.41,1.35,1.35,0,0,1-.39-.95,1.22,1.22,0,0,1,.34-.86,1,1,0,0,1,.81-.38,1.21,1.21,0,0,1,.91.4,1.3,1.3,0,0,1,.38.93,1.34,1.34,0,0,1-.33.88A1,1,0,0,1,150.67,34.45Z"/><path class="cls-3" d="M171.81,22a3.77,3.77,0,0,1,1.13.17,2.78,2.78,0,0,1,.94.52,2.32,2.32,0,0,1,.66.85,2.72,2.72,0,0,1,.24,1.17,5.61,5.61,0,0,1-.06.76,7.24,7.24,0,0,1-.18.88,5.81,5.81,0,0,1-.3.86,2.25,2.25,0,0,1-.38.64,6.67,6.67,0,0,1,.77,1.29,3.67,3.67,0,0,1,0,2.93,2.93,2.93,0,0,1-.79,1.07,3.61,3.61,0,0,1-1.15.65,4.61,4.61,0,0,1-1.4.22,4.07,4.07,0,0,1-2.11-.57A6.72,6.72,0,0,1,167.47,32a11.28,11.28,0,0,1-1.4-2.08A21.25,21.25,0,0,1,165,27.55c-.32-.81-.6-1.6-.83-2.37s-.42-1.45-.57-2.05l.82.47c.17.5.38,1.06.62,1.67s.51,1.24.81,1.87a18.08,18.08,0,0,0,1,1.83,9.61,9.61,0,0,0,1.24,1.59,5.91,5.91,0,0,0,1.48,1.11,3.67,3.67,0,0,0,1.74.42,3.55,3.55,0,0,0,1-.14,2.67,2.67,0,0,0,.88-.43,2.23,2.23,0,0,0,.62-.71,2,2,0,0,0,.24-1,1.07,1.07,0,0,0-.24-.69,4.22,4.22,0,0,0-.5-.53,1.42,1.42,0,0,1-1.11.51,1.48,1.48,0,0,1-1.06-.41,1.46,1.46,0,0,1-.43-1.1,1.7,1.7,0,0,1,.4-1.11,1.25,1.25,0,0,1,1-.49,2,2,0,0,1,1,.25,1.77,1.77,0,0,0,.63-.55,1.38,1.38,0,0,0,.23-.81,1.69,1.69,0,0,0-.37-1.17,1.39,1.39,0,0,0-1.1-.43,3.86,3.86,0,0,0-1,.14,4.94,4.94,0,0,0-1,.38,5.12,5.12,0,0,0-.87.59,2.92,2.92,0,0,0-.64.77,1.57,1.57,0,0,1,.58.7,2.35,2.35,0,0,1,.17.92.8.8,0,0,1-.38.79,2.06,2.06,0,0,1-.87.19,1.57,1.57,0,0,1-1.29-.48,2.14,2.14,0,0,1-.39-1.38,2.73,2.73,0,0,1,.51-1.61,4.55,4.55,0,0,1,1.26-1.21,6,6,0,0,1,1.64-.77A5.48,5.48,0,0,1,171.81,22Z"/><path class="cls-3" d="M195.85,22.75h-3V35.59a1.31,1.31,0,0,1-.23-.2c-.14-.12-.28-.27-.43-.42l-.63-.64.08-7.85a2.14,2.14,0,0,0-.23-.82,6,6,0,0,0-.56-1,4.26,4.26,0,0,0-.75-.82,1.21,1.21,0,0,0-.74-.35,1.29,1.29,0,0,0-.4.08,2.67,2.67,0,0,0-.42.2,1.23,1.23,0,0,0-.33.31.65.65,0,0,0-.14.4,2.15,2.15,0,0,1,.8.45,4,4,0,0,1,.67.75,3,3,0,0,1,.4.89,1.71,1.71,0,0,1,0,.87,1.41,1.41,0,0,1-.49.71,2.27,2.27,0,0,1-1.12.42,1.19,1.19,0,0,1-.57-.05,1.68,1.68,0,0,1-.5-.29,3,3,0,0,1-.41-.45,4.76,4.76,0,0,1-.32-.51,4.79,4.79,0,0,1-.33.56,2.9,2.9,0,0,1-.46.52,1.91,1.91,0,0,1-.56.34,1,1,0,0,1-.6.05,1.85,1.85,0,0,1-1.37-.82,2,2,0,0,1-.27-1.41,2.82,2.82,0,0,1,.71-1.42,2.78,2.78,0,0,1,1.54-.87,2.67,2.67,0,0,0-.56-1,1.7,1.7,0,0,0-.72-.44,2.76,2.76,0,0,0-.89-.1H182l-.6-.63-.41-.45a2,2,0,0,1-.18-.22,1.76,1.76,0,0,0,.38,0h2.08a2.3,2.3,0,0,1,.92.19,3.37,3.37,0,0,1,.83.51,3,3,0,0,1,.63.75,3,3,0,0,1,.36.89,6.6,6.6,0,0,1,.47-.85,4.52,4.52,0,0,1,.68-.77,3.8,3.8,0,0,1,.84-.55,2.19,2.19,0,0,1,.94-.21c.22,0,.49.17.82.52a13.87,13.87,0,0,1,1,1.19,14.47,14.47,0,0,1,.86,1.35,6.32,6.32,0,0,1,.45.95c-.11-1.07-.19-2.06-.25-3s-.1-1.91-.14-3l.4.35a3.33,3.33,0,0,1,.36.39.73.73,0,0,1,.15.36c0,.15,0,.28.08.41a.61.61,0,0,0,.69.47h1Z"/><path class="cls-3" d="M197.16,22.75v8.4a.85.85,0,0,0,.25.7,1,1,0,0,0,.69.22,2.1,2.1,0,0,0,1.13-.4,5.51,5.51,0,0,0,1.1-1,5.94,5.94,0,0,0,.88-1.24,3.79,3.79,0,0,0,.42-1.17.35.35,0,0,1-.17,0h-.18A1.7,1.7,0,0,1,200.2,28a1.23,1.23,0,0,1-.48-1,1.69,1.69,0,0,1,.46-1.23,1.57,1.57,0,0,1,1.18-.48,1.73,1.73,0,0,1,.85.21,2,2,0,0,1,.63.57,2.45,2.45,0,0,1,.4.79,2.67,2.67,0,0,1,.15.88,5.31,5.31,0,0,1-.43,1.95,8.44,8.44,0,0,1-1.12,2,7.22,7.22,0,0,1-1.54,1.49,2.87,2.87,0,0,1-1.67.6,3.34,3.34,0,0,1-1.38-.25,1.73,1.73,0,0,1-.81-.75,3.29,3.29,0,0,1-.38-1.24,15.09,15.09,0,0,1-.09-1.77V22.75h-1.84l-1-1.26h9.78c0-.11,0-.23,0-.35s0-.24,0-.36a.8.8,0,0,0-.16-.49,1.32,1.32,0,0,0-.39-.35,1.69,1.69,0,0,0-.5-.2,2.16,2.16,0,0,0-.47-.06,16.85,16.85,0,0,0-1.73.09,14.67,14.67,0,0,1-1.75.1,5.56,5.56,0,0,1-1.25-.16,4,4,0,0,1-1.2-.51,3.11,3.11,0,0,1-.89-.88,2.18,2.18,0,0,1-.35-1.27,2.38,2.38,0,0,1,.05-.41,2.35,2.35,0,0,1,.15-.47,1.56,1.56,0,0,1,.26-.39.44.44,0,0,1,.38-.13h0a1.82,1.82,0,0,1,.06.46.85.85,0,0,0-.29.64,1.07,1.07,0,0,0,.18.63,1.27,1.27,0,0,0,.45.44,2.32,2.32,0,0,0,.6.26,2.87,2.87,0,0,0,.64.08,12.29,12.29,0,0,0,1.71-.12,14,14,0,0,1,1.71-.11,6,6,0,0,1,1.51.19,3.61,3.61,0,0,1,1.31.62,2.88,2.88,0,0,1,.87,1.1,3.18,3.18,0,0,1,.2,1.65h1.05s.06,0,.18.16l.41.44c.18.18.39.4.62.66Z"/><path class="cls-3" d="M206.67,15.43l-5.13,5.21h-2.91l7-5.36Z"/><path class="cls-3" d="M216.48,36.33a11.51,11.51,0,0,0-1.95-1.86A14.69,14.69,0,0,0,212.17,33a18.62,18.62,0,0,0-2.61-1.08,19.3,19.3,0,0,0-2.63-.69l-1.33-3.39A6.14,6.14,0,0,0,209.23,29a6.29,6.29,0,0,0,1.08-.12,5.71,5.71,0,0,0,1.27-.41,3.73,3.73,0,0,0,1.06-.69,1.31,1.31,0,0,0,.44-1,1.61,1.61,0,0,0-.2-.8,1.79,1.79,0,0,0-.5-.59,2.3,2.3,0,0,0-.7-.35,2.53,2.53,0,0,0-.77-.12l-.26,0a1.34,1.34,0,0,0-.26.09,1.86,1.86,0,0,1-.21.83,3.23,3.23,0,0,1-.54.77,2.8,2.8,0,0,1-.74.55,1.76,1.76,0,0,1-.8.22,1.43,1.43,0,0,1-1-.37,1.3,1.3,0,0,1-.42-1,1.69,1.69,0,0,1,.27-1,2.66,2.66,0,0,1,.69-.69,3.57,3.57,0,0,1,.88-.48l.88-.37,0-.1a.68.68,0,0,0-.25-.34,1.48,1.48,0,0,0-.37-.2,1.84,1.84,0,0,0-.37-.07l-.26,0h-3.24l-1.23-1.26h11.85l1.19,1.26h-6.62a1,1,0,0,0,.21.39,1.65,1.65,0,0,1,.28.37,4.19,4.19,0,0,1,1.33.41,4.12,4.12,0,0,1,1.12.81,4,4,0,0,1,.77,1.15,3.51,3.51,0,0,1,.28,1.41,2.58,2.58,0,0,1-.31,1.34,3.43,3.43,0,0,1-.82.92,5.41,5.41,0,0,1-1.12.66c-.41.19-.81.38-1.19.6.46.28.87.51,1.21.69l.91.48c.27.14.51.28.74.42a5.61,5.61,0,0,1,.7.49c.23.19.49.42.77.7s.62.63,1,1.06Z"/><path class="cls-3" d="M218.79,25.26a11.24,11.24,0,0,0,.13,1.65q.12.81.27,1.62c.11.54.2,1.07.29,1.61a9.63,9.63,0,0,1,.13,1.61,3.44,3.44,0,0,1-.32,1.41,5.12,5.12,0,0,1-.84,1.29,4.84,4.84,0,0,1-1.14.95,2.38,2.38,0,0,1-1.22.38.61.61,0,0,1-.4-.16.48.48,0,0,1-.17-.38.22.22,0,0,1,.14-.2l.34-.14.38-.11a1.29,1.29,0,0,0,.28-.12,7.72,7.72,0,0,0,.64-.57,2.58,2.58,0,0,0,.44-.56,2.11,2.11,0,0,0,.24-.68,4.78,4.78,0,0,0,.08-.9,5.3,5.3,0,0,0-.15-1.26c-.09-.41-.19-.82-.3-1.24s-.22-.82-.31-1.24a5.49,5.49,0,0,1-.14-1.27,4.73,4.73,0,0,1,.14-1.25,4.48,4.48,0,0,1,.39-1,7.51,7.51,0,0,1,.56-.94l.69-1h-3.38l-1.21-1.26h7.17l.59.6.42.42c.13.13.2.21.2.24H221a2,2,0,0,0-1.72.68A3,3,0,0,0,218.79,25.26Z"/><path class="cls-3" d="M227.56,22.75h-3V35.9s-.1-.06-.22-.2l-.41-.43-.58-.64V25.2a5.56,5.56,0,0,0-.09-1,2.28,2.28,0,0,0-.31-.83,1.32,1.32,0,0,0-.57-.5,1.68,1.68,0,0,0-.89-.09l-1-1.26a3.49,3.49,0,0,0,.44,0h.36a2.35,2.35,0,0,1,.88.15,1.61,1.61,0,0,1,.64.47,3,3,0,0,1,.5.84c.15.35.31.77.48,1.27a5.06,5.06,0,0,0-.05-.68c0-.23-.06-.51-.11-.84s-.1-.72-.17-1.19-.14-1.07-.21-1.79l.49.4a2.58,2.58,0,0,0,.1.45,1.17,1.17,0,0,0,.12.3,1.93,1.93,0,0,0,.19.27c.09.09.19.21.31.35h1.82Z"/><path class="cls-3" d="M240.74,22.75h-7v4.67a.78.78,0,0,0,.1.39.31.31,0,0,0,.35.12,3.29,3.29,0,0,0,.77-.61,8.1,8.1,0,0,0,.65-.76c.2-.27.39-.54.57-.83l.53-.83a3.78,3.78,0,0,1,.76.83,5.83,5.83,0,0,1,.55,1.05,5.64,5.64,0,0,1,.34,1.15,5.72,5.72,0,0,1,.12,1.13,6.3,6.3,0,0,1-.32,2.05,4.64,4.64,0,0,1-.92,1.59,4.2,4.2,0,0,1-1.48,1,5.14,5.14,0,0,1-2,.36,4.23,4.23,0,0,1-2-.44,5.67,5.67,0,0,1-1.57-1.15A7.68,7.68,0,0,1,229,30.88a18.72,18.72,0,0,1-1-1.82,7.57,7.57,0,0,1-.46-1.24c-.14-.44-.25-.89-.35-1.35s-.2-.93-.28-1.39-.17-.9-.27-1.31l1,1.09a17,17,0,0,0,.67,2.56,10.22,10.22,0,0,0,1.18,2.36,6.18,6.18,0,0,0,1.78,1.75,4.36,4.36,0,0,0,2.47.69,4,4,0,0,0,1.36-.24,4.32,4.32,0,0,0,1.23-.67,3.42,3.42,0,0,0,.89-1.07,3,3,0,0,0,.34-1.39,3,3,0,0,0-.52-1.71,2.2,2.2,0,0,1-.46.76,6.24,6.24,0,0,1-.83.78,5.46,5.46,0,0,1-1,.6,1.87,1.87,0,0,1-.82.25,1.13,1.13,0,0,1-.79-.27,1.85,1.85,0,0,1-.47-.66,5.3,5.3,0,0,1-.29-.85,8.45,8.45,0,0,0-.23-.82,1.67,1.67,0,0,0-.2-.31l-.33-.43a4.73,4.73,0,0,0-.34-.4l-.28-.27,0,.06a3.28,3.28,0,0,1,.18.53,1,1,0,0,1,0,.55.84.84,0,0,1-.27.48,1.42,1.42,0,0,1-.76.28,1,1,0,0,1-.69-.17,1.47,1.47,0,0,1-.46-.58,1.86,1.86,0,0,1-.17-.79,1.81,1.81,0,0,1,.15-.8,1.48,1.48,0,0,1,.54-.63,1.79,1.79,0,0,1,1-.25,1.22,1.22,0,0,1,.65.19,2.35,2.35,0,0,1,.6.5,3.45,3.45,0,0,1,.44.66,2.14,2.14,0,0,1,.21.67V22.75h-6.21l-1.14-1.26h14.32Z"/><path class="cls-3" d="M259.69,22.75h-2.64V35.48a3.82,3.82,0,0,1-.72-.62l-.61-.68c0-1.2,0-2.27.06-3.22l0-1.19c0-.39,0-.74,0-1s0-.65,0-1a1.64,1.64,0,0,0-.15-.59,5.87,5.87,0,0,0-.33-.73,5.36,5.36,0,0,0-.43-.66,2.46,2.46,0,0,0-.42-.43l-4.08,4.29-1.76-.68a2.73,2.73,0,0,1,.38-.38,5.44,5.44,0,0,0,.41-.42,2.51,2.51,0,0,0,.32-.48,1.13,1.13,0,0,0,.14-.53,3.46,3.46,0,0,0,0-.43,1.44,1.44,0,0,0-.13-.43,1,1,0,0,0-.24-.32.63.63,0,0,0-.4-.12,1.11,1.11,0,0,0-.39.07l-.41.17-.4.17a1.08,1.08,0,0,1-.38.08.86.86,0,0,1-.64-.35,1,1,0,0,1-.28-.68,2.14,2.14,0,0,1,.52-1.37,5.26,5.26,0,0,1,1.26-1.13A7.23,7.23,0,0,1,250,22a4.37,4.37,0,0,1,1.4-.29,3.71,3.71,0,0,1,1.7.41,5.51,5.51,0,0,1,1.44,1.07,6.82,6.82,0,0,1,1.07,1.52,6,6,0,0,1,.61,1.71,24.26,24.26,0,0,1-.33-3.39c0-1.08,0-2.22,0-3.41l.65.51.07.13a1.67,1.67,0,0,0,.18.77,1.63,1.63,0,0,0,.59.49h1.21Zm-6.19,1.19a2.26,2.26,0,0,0-1.82-.89,3.38,3.38,0,0,0-1.61.37A2.68,2.68,0,0,0,249,24.64h.11a1.21,1.21,0,0,1,.7.2,2,2,0,0,1,.58.54,2.38,2.38,0,0,1,.34.74,1.3,1.3,0,0,1,0,.76Z"/><path class="cls-3" d="M256.91,36.24q-.11-.16-.21-.36l-.21-.37-.14-.29c-.25-.45-.46-.83-.66-1.14a2.71,2.71,0,0,0-.64-.73,2.16,2.16,0,0,0-.88-.4,6.2,6.2,0,0,0-1.34-.12c-.52,0-1,0-1.55.06s-1,0-1.53,0a4.16,4.16,0,0,1-1.5-.27,3.58,3.58,0,0,1-1.24-.76,3.79,3.79,0,0,1-.85-1.2,3.69,3.69,0,0,1-.32-1.54c0-.33,0-.67,0-1a5.69,5.69,0,0,1,.12-1l.68.7a1.25,1.25,0,0,0-.12.54,2.13,2.13,0,0,0,.51,1.57,2.84,2.84,0,0,0,1.33.74,8.39,8.39,0,0,0,1.84.27,17.55,17.55,0,0,1,2.05.19,9,9,0,0,1,2,.51,3.4,3.4,0,0,1,1.55,1.22l.47.65c.14.19.26.37.37.55a3.71,3.71,0,0,1,.27.52,6,6,0,0,1,.22.56v1.32A1.13,1.13,0,0,1,256.91,36.24Z"/><path class="cls-3" d="M260.45,20.34a.86.86,0,0,0,.06.2l.14.35.16.36c0,.12.08.2.09.24h2.25l1.21,1.26h-3.05V35.48l-.62-.62-.41-.43c-.12-.12-.17-.19-.16-.19V22.75h-1.78l-1.21-1.26h3.09a4.43,4.43,0,0,0-.37-.39,5.22,5.22,0,0,1-.4-.41,2.79,2.79,0,0,1-.32-.47,1,1,0,0,1-.14-.5,2.87,2.87,0,0,1,.46-1.52,5.61,5.61,0,0,1,1.15-1.29,6,6,0,0,1,1.5-.89,4,4,0,0,1,1.5-.33,6.87,6.87,0,0,1,2,.29,9.73,9.73,0,0,1,1.89.77,11.35,11.35,0,0,1,1.7,1.16,18.26,18.26,0,0,1,1.51,1.4l.27.81a17.49,17.49,0,0,0-2.77-2A9.61,9.61,0,0,0,266,17.2a4.93,4.93,0,0,0-1.83-.14,4.55,4.55,0,0,0-1.42.44,3.85,3.85,0,0,0-1,.77,6,6,0,0,0-.71.88,4.8,4.8,0,0,0-.4.77A1.76,1.76,0,0,0,260.45,20.34Z"/><path class="cls-3" d="M276.86,22.75h-3V35.59l-.23-.2-.43-.42-.63-.64.08-7.85a2.14,2.14,0,0,0-.23-.82,5.36,5.36,0,0,0-.56-1,3.7,3.7,0,0,0-.75-.82,1.22,1.22,0,0,0-.73-.35,1.19,1.19,0,0,0-.4.08,2,2,0,0,0-.42.2,1.27,1.27,0,0,0-.34.31.64.64,0,0,0-.13.4,2.19,2.19,0,0,1,.79.45,3.64,3.64,0,0,1,.67.75,2.74,2.74,0,0,1,.4.89,1.71,1.71,0,0,1,0,.87,1.41,1.41,0,0,1-.49.71,2.23,2.23,0,0,1-1.12.42,1.2,1.2,0,0,1-.57-.05,1.63,1.63,0,0,1-.49-.29,2.52,2.52,0,0,1-.41-.45,3.67,3.67,0,0,1-.33-.51,3,3,0,0,1-.33.56,2.9,2.9,0,0,1-.46.52,2,2,0,0,1-.55.34,1.06,1.06,0,0,1-.61.05,1.87,1.87,0,0,1-1.37-.82,2,2,0,0,1-.27-1.41,2.82,2.82,0,0,1,.71-1.42,2.78,2.78,0,0,1,1.55-.87,2.82,2.82,0,0,0-.57-1,1.72,1.72,0,0,0-.71-.44,2.86,2.86,0,0,0-.9-.1H263l-.59-.63-.41-.45a1.63,1.63,0,0,1-.19-.22,1.88,1.88,0,0,0,.38,0h2.08a2.3,2.3,0,0,1,.92.19,3.37,3.37,0,0,1,.83.51,3.07,3.07,0,0,1,.64.75,3,3,0,0,1,.36.89,5.58,5.58,0,0,1,.47-.85,4.07,4.07,0,0,1,.67-.77,3.8,3.8,0,0,1,.84-.55,2.23,2.23,0,0,1,.95-.21,1.3,1.3,0,0,1,.81.52,13.87,13.87,0,0,1,1,1.19,12.67,12.67,0,0,1,.86,1.35,5.43,5.43,0,0,1,.45.95c-.11-1.07-.19-2.06-.25-3s-.1-1.91-.14-3c.14.11.27.23.4.35a3.33,3.33,0,0,1,.36.39.73.73,0,0,1,.15.36c0,.15.05.28.08.41a.61.61,0,0,0,.69.47h1Z"/><path class="cls-3" d="M292.56,22.75h-6.4v2a3.82,3.82,0,0,1,1.58,0,3.73,3.73,0,0,1,1.39.62,3.62,3.62,0,0,1,1,1.12,2.94,2.94,0,0,1,.39,1.5,2.78,2.78,0,0,1-.1.76,2.11,2.11,0,0,1-.28.67,1.47,1.47,0,0,1-.51.48,1.36,1.36,0,0,1-.71.18,2.78,2.78,0,0,1-1.09-.18,1.29,1.29,0,0,1-.59-.46,1.07,1.07,0,0,1-.19-.6,1.51,1.51,0,0,1,.12-.61,1.15,1.15,0,0,1,.3-.46.6.6,0,0,1,.4-.18,3.94,3.94,0,0,1,.9.1.94.94,0,0,1,.66.6,1.78,1.78,0,0,0,.07-1,1.14,1.14,0,0,0-.44-.65,2.14,2.14,0,0,0-.81-.35,4.74,4.74,0,0,0-1-.11,4.58,4.58,0,0,0-.53,0,2.42,2.42,0,0,0-.56.14v9a.54.54,0,0,1-.1-.15,2.44,2.44,0,0,0-.16-.23l-.23-.32-.47-1.38a8.41,8.41,0,0,0-.55-1.26,5.43,5.43,0,0,0-.79-1.09,3.87,3.87,0,0,0-1.16-.83,1.59,1.59,0,0,1-1.64,1.19,1.52,1.52,0,0,1-1.15-.43,1.62,1.62,0,0,1-.41-1.17,1.58,1.58,0,0,1,.18-.76,1.41,1.41,0,0,1,.47-.53,2.12,2.12,0,0,1,.65-.29,2,2,0,0,1,.73,0,1.52,1.52,0,0,0,.06-1,2,2,0,0,0-.48-.89,1.53,1.53,0,0,0-.8-.47,1.18,1.18,0,0,0-.91.19,1.54,1.54,0,0,1-.12.61A1.72,1.72,0,0,1,279,27a1.87,1.87,0,0,1-.47.37,1.27,1.27,0,0,1-.58.14,1.17,1.17,0,0,1-.76-.26,1.64,1.64,0,0,1-.49-.64,2.5,2.5,0,0,1-.17-.83,2,2,0,0,1,.14-.83,1.46,1.46,0,0,1,.49-.63,1.29,1.29,0,0,1,.84-.25.92.92,0,0,0-.22-.85,1.7,1.7,0,0,0-.75-.4,4.1,4.1,0,0,0-.94-.11h-.76l-1.1-1.26h17.15ZM285,26.44a3.8,3.8,0,0,1-1.3-.38,4,4,0,0,1-1.11-.8,4,4,0,0,1-.82-1.13,3.6,3.6,0,0,1-.39-1.38h-3a3.56,3.56,0,0,1,.28.59,5.8,5.8,0,0,0,.27.62s.12.08.33.16.45.2.75.35a8,8,0,0,1,1,.61,5.46,5.46,0,0,1,1,.9,5.17,5.17,0,0,1,.77,1.22,4.29,4.29,0,0,1,.34,1.62,5.14,5.14,0,0,1,1.18,1.05,3.93,3.93,0,0,1,.72,1.41Zm0-3.69h-2.21a.2.2,0,0,0-.22.2,1.65,1.65,0,0,0,0,.33,1.54,1.54,0,0,0,.26.94,1.62,1.62,0,0,0,.64.52,3.59,3.59,0,0,0,.8.27c.29,0,.55.11.78.17Z"/><path class="cls-3" d="M295.65,21.43a2.47,2.47,0,0,1,1.42.42,4.43,4.43,0,0,1,1.09,1.07,7.22,7.22,0,0,1,.78,1.39,10.34,10.34,0,0,1,.48,1.42l-.21-2.94c0-.27,0-.58,0-.94s0-.7-.05-1,0-.65,0-.93,0-.47,0-.59a3.72,3.72,0,0,1,.52.68l.28.51a2.5,2.5,0,0,0,.32.45,3.19,3.19,0,0,0,.64.56h.86l1.21,1.26h-2.72V35.48s0-.07-.15-.21-.26-.31-.43-.5-.41-.43-.65-.7l0-6.95a4.26,4.26,0,0,0-.24-1.37,4.39,4.39,0,0,0-.66-1.25,3.88,3.88,0,0,0-1-.92,2.38,2.38,0,0,0-1.28-.36,1.8,1.8,0,0,0-.84.21,2.72,2.72,0,0,0-.72.54,2.66,2.66,0,0,0-.49.77,2.32,2.32,0,0,0-.18.89,3.78,3.78,0,0,0,.06.61,3.4,3.4,0,0,0,.2.71,2,2,0,0,0,.36.57.69.69,0,0,0,.53.24c0-.16,0-.3,0-.42s0-.25,0-.39a.82.82,0,0,1,.32-.76,1.56,1.56,0,0,1,.8-.2,1.36,1.36,0,0,1,1,.47,1.58,1.58,0,0,1,.43,1.09,1.34,1.34,0,0,1-.2.72,1.69,1.69,0,0,1-.5.53,2,2,0,0,1-.69.33,2.36,2.36,0,0,1-.72.12,3,3,0,0,1-1.35-.29,3.06,3.06,0,0,1-1-.79,3.55,3.55,0,0,1-.67-1.15,4.15,4.15,0,0,1-.23-1.37,5.31,5.31,0,0,1,.25-1.67,3.86,3.86,0,0,1,.75-1.33,3.58,3.58,0,0,1,2.79-1.22Z"/><path class="cls-3" d="M314.77,22.75a4.59,4.59,0,0,0-2.19.79A6.17,6.17,0,0,0,311,25.19a8.35,8.35,0,0,0-1,2.19,8.93,8.93,0,0,0-.34,2.37,7.68,7.68,0,0,0,.15,1.45,4.89,4.89,0,0,0,.48,1.44,3.41,3.41,0,0,0,.87,1.11,2,2,0,0,0,1.31.45l0-.07a1.64,1.64,0,0,1-.46-.48,1.06,1.06,0,0,1-.24-.62c0-.64.16-1.05.49-1.22a2.71,2.71,0,0,1,1.28-.26.72.72,0,0,1,.43.15,1.64,1.64,0,0,1,.36.38,1.87,1.87,0,0,1,.26.48,1.39,1.39,0,0,1,.09.47,2.25,2.25,0,0,1-.16.85,1.92,1.92,0,0,1-.45.68,2.12,2.12,0,0,1-.68.45,2.08,2.08,0,0,1-.82.17,2.92,2.92,0,0,1-1.86-.62A4.93,4.93,0,0,1,309.45,33a7.55,7.55,0,0,1-.74-2,9.3,9.3,0,0,1-.24-2c0-.42,0-.84.07-1.26a7.74,7.74,0,0,1,.51-2,8.88,8.88,0,0,1,1.07-2,6.76,6.76,0,0,1,1.54-1.57,3.16,3.16,0,0,1,1.9-.63Z"/><path class="cls-3" d="M329.37,22.75H323v.94a4.38,4.38,0,0,1,2,.49,5.3,5.3,0,0,1,1.56,1.19,4.88,4.88,0,0,1,1,1.6,3.64,3.64,0,0,1,.21,1.71,3,3,0,0,1-.21.87,3.41,3.41,0,0,1-.46.78,2.29,2.29,0,0,1-.68.56,1.69,1.69,0,0,1-.86.22,1.43,1.43,0,0,1-.58-.12,1.72,1.72,0,0,1-.51-.33,1.52,1.52,0,0,1-.35-.49,1.39,1.39,0,0,1-.14-.6,1.59,1.59,0,0,1,.25-.91,1.18,1.18,0,0,1,.62-.49,1.47,1.47,0,0,1,.85,0,2.12,2.12,0,0,1,.91.61.37.37,0,0,1,0-.11s0-.08,0-.12a2.85,2.85,0,0,0-.29-1.24,3.72,3.72,0,0,0-.76-1,3.79,3.79,0,0,0-1.06-.71,2.57,2.57,0,0,0-1.21-.21H323a.08.08,0,0,1-.08,0v10s-.06,0-.1-.06l-.17-.15a2.54,2.54,0,0,1-.22-.23,11.52,11.52,0,0,0-.89-2,7.4,7.4,0,0,0-1.24-1.62,6.29,6.29,0,0,0-1.64-1.15,6.46,6.46,0,0,0-2.07-.58L315,27.48a16.7,16.7,0,0,1,1.52-1.14,20,20,0,0,1,1.73-1.06c.59-.32,1.19-.62,1.8-.89a15.36,15.36,0,0,1,1.75-.66v-1h-7.37l-1.21-1.26h15Zm-7.62,2.68a15.13,15.13,0,0,0-2.28,1.1c-.68.41-1.37.87-2.08,1.4a9,9,0,0,1,2.52,1.64A9,9,0,0,1,321.75,32Z"/><path class="cls-3" d="M331.34,26.29a2.09,2.09,0,0,1,.37.38,1.32,1.32,0,0,1,0,1.12,1.57,1.57,0,0,1-.35.42,1.64,1.64,0,0,1-.49.26,1.55,1.55,0,0,1-.54.1,1.44,1.44,0,0,1-1.62-1.64,2.35,2.35,0,0,1,.68-1.69,2.19,2.19,0,0,1,.75-.48,2.5,2.5,0,0,1,.9-.14,2.87,2.87,0,0,1,.94.23,3.67,3.67,0,0,1,.88.51,3.17,3.17,0,0,1,.66.71,1.45,1.45,0,0,1,.27.81V22.75h-6.13l-1.19-1.26H334l1.48,1.26H335v7.57a.94.94,0,0,1-.26-.19c-.14-.13-.3-.27-.46-.43l-.43-.43c-.12-.13-.18-.19-.16-.19V28c-.13-.19-.25-.39-.38-.59a3,3,0,0,0-.47-.55,2.47,2.47,0,0,0-.64-.4A2.18,2.18,0,0,0,331.34,26.29Z"/><path class="cls-3" d="M344.88,22.75H335V28c.54-.4,1-.78,1.42-1.12s.8-.68,1.19-1a13.36,13.36,0,0,1,1.26-.88,10.93,10.93,0,0,1,1.64-.8l2.09,1.64a21,21,0,0,0-1.14,2.88,10.21,10.21,0,0,0-.46,3,13.52,13.52,0,0,0,.13,1.91q.13.94.3,1.89l-.82-.41c-.19-.86-.36-1.71-.5-2.55a15.51,15.51,0,0,1-.22-2.59,15.31,15.31,0,0,1,.37-3.3,7.48,7.48,0,0,0-1.54.79,8.25,8.25,0,0,0-1.38,1.12,9.38,9.38,0,0,0-1.12,1.38,7.45,7.45,0,0,0-.81,1.59l-1.62-1.75V22.75h-1.66l-1.21-1.26h12.74Z"/><path class="cls-3" d="M341,30.42c.22-.24.42-.44.59-.61s.29-.29.42-.4.2-.14.2-.12v8.77a2.71,2.71,0,0,1-.72-.65c-.16-.24-.33-.46-.49-.67a2.33,2.33,0,0,0-.58-.55,2,2,0,0,0-1-.26,11,11,0,0,0-1.55,0c-.58,0-1.16,0-1.77,0a14.57,14.57,0,0,1-1.76-.14,5.38,5.38,0,0,1-1.53-.47,2.8,2.8,0,0,1-1.07-1,3.13,3.13,0,0,1-.41-1.69,5.18,5.18,0,0,1,.14-1.16c.1-.39.2-.77.31-1.14l.49.51a.8.8,0,0,0-.16.5c0,.24,0,.42,0,.54a1.81,1.81,0,0,0,.5,1.4,2.71,2.71,0,0,0,1.29.64,7.89,7.89,0,0,0,1.75.19c.64,0,1.28,0,1.91.08a7.89,7.89,0,0,1,1.75.3,2.27,2.27,0,0,1,1.26.85q.12.15.24.33L341,36Z"/></g></g></svg>