<svg xmlns="http://www.w3.org/2000/svg" viewBox="0 0 126.14 10.42"><defs><style>.cls-1{fill:#1d1d1b;}</style></defs><g id="Layer_2" data-name="Layer 2"><g id="Layer_1-2" data-name="Layer 1"><path class="cls-1" d="M122.69,8.7a3.31,3.31,0,0,1-.55,0A1.44,1.44,0,0,1,121,7.2a1.43,1.43,0,0,1,1.15-1.45h0c1.64-.34,3.73,1,3.82,1.11a.4.4,0,0,1,.18.34.4.4,0,0,1-.18.33A6.93,6.93,0,0,1,122.69,8.7Z"/><path class="cls-1" d="M.18,7.53A.4.4,0,0,1,0,7.2a.4.4,0,0,1,.18-.34C.26,6.8,2.36,5.41,4,5.75H4A1.43,1.43,0,0,1,5.15,7.2,1.44,1.44,0,0,1,4,8.65a3.31,3.31,0,0,1-.55,0A6.88,6.88,0,0,1,.18,7.53Z"/><path class="cls-1" d="M31.35,7.65c5.75,0,16-.26,16.09-.21A15.51,15.51,0,0,0,59.85,10a6.58,6.58,0,0,0,2.81-1.65A6.47,6.47,0,0,0,65.46,10a15.53,15.53,0,0,0,12.42-2.6c.05-.05,10.33.19,16.08.21,13.61.06,29.6-.42,29.6-.53s-15.84-.52-29.45-.47c-6.25,0-16.27-.1-16.54.43h0A19.18,19.18,0,0,1,73,9.37c-6.55,1.49-8.85-.73-9.74-1.78a4.53,4.53,0,0,0,.13-4.33s0,0-.06-.07a2.82,2.82,0,0,1,4.2.27c1.11,2-.24,3.56-1.23,3.51C64.87,6.89,65,5.91,65,5.58a.86.86,0,0,1,.51-.71c.24-.12.55-.49.44-.74-.26-.56-.88-.39-1.12-.27a1.58,1.58,0,0,0-.78,1.64c.08.73.36,2.56,2.58,2.08.62-.13,2.38-1.09,1.59-3.86l2,1.23a2.86,2.86,0,0,1,1.24,1.54,1.07,1.07,0,0,1-.36,1.23.63.63,0,0,1-.67-.15c-.14-.18,0-.45.12-.66.31-.48-.42-1.11-1-.55a1.36,1.36,0,0,0,.07,1.93,1.54,1.54,0,0,0,1.94,0c.38-.33,1-1.46-.34-3A4.31,4.31,0,0,0,74.56,6a2.86,2.86,0,0,0,2.27-2.7,3.45,3.45,0,0,0-1.59-3,2.61,2.61,0,0,0-2.57,0c-1.21.94-1.2,3.49.68,3.56A1.6,1.6,0,0,0,74.8,3c.3-.82-.23-1.07-.46-1.11-.87-.18-.8,1.09-1.46.49-.33-.3-.09-1,.31-1.36A1.62,1.62,0,0,1,74.76.86,2.45,2.45,0,0,1,76.27,3.2a2.43,2.43,0,0,1-1.71,2.18,3.84,3.84,0,0,1-2.24-.08C70.63,4.62,67.81,2.43,66.79,2a3.77,3.77,0,0,0-.7-.31,4.25,4.25,0,0,0-1.15-.16,3.47,3.47,0,0,0-2.28.9,3.49,3.49,0,0,0-2.28-.9,4.27,4.27,0,0,0-1.16.16,3.7,3.7,0,0,0-.69.31c-1,.41-3.84,2.6-5.54,3.28a3.84,3.84,0,0,1-2.24.08,2.4,2.4,0,0,1-.2-4.52A1.62,1.62,0,0,1,52.12,1c.4.33.65,1.06.31,1.36-.66.6-.58-.67-1.46-.49-.22,0-.76.29-.46,1.11a1.61,1.61,0,0,0,1.46.9c1.87-.07,1.88-2.62.67-3.56a2.6,2.6,0,0,0-2.57,0,3.45,3.45,0,0,0-1.59,3A2.87,2.87,0,0,0,50.75,6,4.3,4.3,0,0,0,54,5.35c-1.38,1.5-.71,2.63-.34,3a1.55,1.55,0,0,0,2,0,1.37,1.37,0,0,0,.06-1.93c-.54-.56-1.28.07-1,.55.13.21.26.48.12.66a.63.63,0,0,1-.67.15,1.07,1.07,0,0,1-.36-1.23A2.91,2.91,0,0,1,55,5l2-1.23c-.79,2.77,1,3.73,1.6,3.86,2.22.48,2.5-1.35,2.57-2.08a1.58,1.58,0,0,0-.78-1.64.79.79,0,0,0-1.12.27c-.11.25.2.62.44.74a.89.89,0,0,1,.52.71c0,.33.15,1.31-1.25,1.39-1,0-2.34-1.52-1.22-3.51A2.82,2.82,0,0,1,62,3.19L62,3.26a4.5,4.5,0,0,0,.12,4.33c-.89,1.05-3.19,3.27-9.74,1.78a19.13,19.13,0,0,1-4.59-2.28h0c-.27-.53-10.28-.4-16.54-.43C17.59,6.6,1.75,7,1.75,7.12S17.74,7.71,31.35,7.65ZM62.66,4a3.07,3.07,0,0,1,0,2.71A3,3,0,0,1,62.66,4Z"/></g></g></svg>