<svg xmlns="http://www.w3.org/2000/svg" viewBox="0 0 290.87 50.93"><defs><style>.cls-1{fill:#e30613;}.cls-2{font-size:22.3px;fill:#006885;font-family:SutonnyMJ-Bold, SutonnyMJ;font-weight:700;}</style></defs><g id="Layer_2" data-name="Layer 2"><g id="Layer_1-2" data-name="Layer 1"><path class="cls-1" d="M73.25,3.9H71.63v6.65l-.72-.76L71,6.35a2.2,2.2,0,0,0-.31-1.06A2.56,2.56,0,0,0,70,4.4a1.38,1.38,0,0,0-.81-.3A1.43,1.43,0,0,0,67.72,5a1.78,1.78,0,0,1,.68-.11,1.09,1.09,0,0,1,1.24,1c.07.49-.32,1.19-1.16,2.1l-.73-.82c.22-.2.47-.46.76-.77s.55-.67.55-.79-.12-.28-.34-.28a1.86,1.86,0,0,0-.59.27,1.77,1.77,0,0,1-.64.27.4.4,0,0,1-.21-.07A1,1,0,0,1,66.79,5,1.61,1.61,0,0,1,67,4.21a1.8,1.8,0,0,1,.59-.63,1.87,1.87,0,0,1,1-.24A2.16,2.16,0,0,1,71,4.83l.27.92c0-.39-.06-1-.13-1.93,0-.46,0-1,0-1.77l.38.37a.86.86,0,0,0,.09.67c0,.08.13.14.29.17h.83Z"/><path class="cls-1" d="M78.91,3.87H77.27v6.49l-.68-.72V6.11A2.05,2.05,0,0,0,76,4.68a1.54,1.54,0,0,0-.93-.53,1,1,0,0,0-1,.44,1.1,1.1,0,0,0-.3.64,1.51,1.51,0,0,0,.11.74c.11.31.27.47.47.47s.07,0,.06-.06a1.18,1.18,0,0,1,0-.35c0-.33.19-.49.59-.49a.7.7,0,0,1,.68.49.69.69,0,0,1,.07.3.73.73,0,0,1-.4.66,1.27,1.27,0,0,1-.82.2,1.65,1.65,0,0,1-1.2-.65,1.92,1.92,0,0,1-.37-1.36A2.25,2.25,0,0,1,73.34,4a1.66,1.66,0,0,1,1.07-.67,2.79,2.79,0,0,1,.46,0,1.11,1.11,0,0,1,.43.07c.21.12.34.21.4.25a2.52,2.52,0,0,1,.75,1l.41.87c-.06-.39-.13-.94-.19-1.66a14.62,14.62,0,0,1,0-1.71l.23.25a.65.65,0,0,1,.14.23.92.92,0,0,0,.28.55l.26.17h.72Z"/><path class="cls-1" d="M85.66,3.92H84.07v6.44a6.18,6.18,0,0,1-.68-.67l.08-3.28a3.42,3.42,0,0,0-.25-.66,1.33,1.33,0,0,0-.46-.56L80.64,7.37,79.72,7l.54-.58a.6.6,0,0,0,.09-.55c-.06-.3-.19-.44-.39-.43a5.18,5.18,0,0,0-.78.22.36.36,0,0,1-.35-.14.56.56,0,0,1-.18-.36.74.74,0,0,1,.11-.35,2.64,2.64,0,0,1,2.3-1.45,2.13,2.13,0,0,1,1.38.48A2.93,2.93,0,0,1,83.35,5a4.45,4.45,0,0,1,.37,1L83.5,4.32l-.07-2,.34.25,0,.07a.79.79,0,0,0,.18.49l.22.14H85Zm-3.43.59a3.92,3.92,0,0,0-.36-.3,1,1,0,0,0-.58-.15,1.45,1.45,0,0,0-1.42.81.69.69,0,0,1,.63.26,1.34,1.34,0,0,1,.27.72.49.49,0,0,1,0,.15Z"/><path class="cls-1" d="M84.09,10.86a2.9,2.9,0,0,1-.4-.63l-.43-.75A1.89,1.89,0,0,0,81.85,9l-1.48.05a2.29,2.29,0,0,1-1-.19,1.71,1.71,0,0,1-.79-.68,1.94,1.94,0,0,1-.31-1.05,3.74,3.74,0,0,1,.07-1l.35.36a.67.67,0,0,0-.06.28,1.27,1.27,0,0,0,.82,1.17,2.56,2.56,0,0,0,.81.12l1,.06a4.83,4.83,0,0,1,1.47.31A2.37,2.37,0,0,1,83.4,9a3.25,3.25,0,0,1,.6,1A2.75,2.75,0,0,1,84.09,10.86Z"/><path class="cls-1" d="M93.06,3.9H89.15a2.13,2.13,0,0,0-.39.22.28.28,0,0,0-.1.19c0,.19.21.36.63.49a2.32,2.32,0,0,0,.85.14,5.76,5.76,0,0,0,1.13-.3l1,1a3.13,3.13,0,0,0-.56.8,2.92,2.92,0,0,0-.42,1.3,5.64,5.64,0,0,0-.07.77,4.77,4.77,0,0,0,.48,1.82h0a1.41,1.41,0,0,1-.32-.07c-.17-.05-.25-.08-.26-.11s-.11-.49-.28-1.18a6.58,6.58,0,0,1-.21-1.39,5.56,5.56,0,0,1,.38-1.88,5.11,5.11,0,0,1-1.28-.18,2,2,0,0,1-1.11-.57c0-.05-.15-.21-.37-.49h0c-.18,0-.39.2-.63.59a2,2,0,0,0-.36.89c0,.29.15.44.46.44a3.39,3.39,0,0,0,1.06-.42,2.39,2.39,0,0,1,.3-.14.16.16,0,0,1,.09,0s.17.11.37.36a2.5,2.5,0,0,1,.52,1,1.55,1.55,0,0,1,0,.8A1.73,1.73,0,0,1,89,9.14a1.66,1.66,0,0,1-.73.17,2.38,2.38,0,0,1-1.9-1.07,4.85,4.85,0,0,1-.65-1.35,8.5,8.5,0,0,1-.24-2.45,2,2,0,0,1,.35.2,4.64,4.64,0,0,0,.39,2.13,2.84,2.84,0,0,0,1.17,1.29,1.19,1.19,0,0,0,.73.18A2.7,2.7,0,0,0,89,8c.35-.17.53-.38.53-.66a.59.59,0,0,0-.09-.31.25.25,0,0,0-.25-.21.34.34,0,0,0-.15,0,2.64,2.64,0,0,1-1,.25A1.39,1.39,0,0,1,87.41,7a1.72,1.72,0,0,1-.78-1.11A1.57,1.57,0,0,1,86.68,5a3.23,3.23,0,0,1,.46-.72l.34-.37H85l-.63-.64h8.07Z"/><path class="cls-1" d="M95.59,3.9H94v6.68l-.61-.66V5.16a1.16,1.16,0,0,0-.17-.68,1.18,1.18,0,0,0-1-.58h-.16l-.64-.64a4.08,4.08,0,0,1,1,0,1.21,1.21,0,0,1,.95.87,6.34,6.34,0,0,1,.29.78,15.25,15.25,0,0,1-.22-1.76c0-.3,0-.64,0-1l.25.21a2.9,2.9,0,0,0,.16.69c.05.06.11.15.2.25H95Z"/><path class="cls-1" d="M102.79,3.9H94.94l-.63-.64h7.82Zm-1.48,2.43a2.77,2.77,0,0,1,.12.8,2,2,0,0,1-1,1.79A2.69,2.69,0,0,1,99,9.34a2.83,2.83,0,0,1-.76-.15,2.2,2.2,0,0,1-.69-.37,5.23,5.23,0,0,1-.65-.77,5.47,5.47,0,0,1-.73-1.22c-.41-1-.71-1.89-.91-2.56l.37.15c.22.53.41,1,.58,1.34A9.16,9.16,0,0,0,96.92,7a2.62,2.62,0,0,0,2.21,1.26,2,2,0,0,0,1.27-.56,1.32,1.32,0,0,0,.5-1,1.51,1.51,0,0,0-.29-.9.93.93,0,0,0-.78-.47,1.91,1.91,0,0,0-.41.06,1.18,1.18,0,0,1,.23.73c0,.61-.33.91-1,.91a1,1,0,0,1-1-.89,2,2,0,0,1,0-.32,1.19,1.19,0,0,1,.46-1,1.47,1.47,0,0,1,1-.37,2.65,2.65,0,0,1,.56.07A2.34,2.34,0,0,1,101.31,6.33Z"/><path class="cls-1" d="M107.17,6.27c-.61-.11-.9-.22-.88-.32a2.6,2.6,0,0,1-.52-.43,1.87,1.87,0,0,0-.86-.42l0,.05a.61.61,0,0,1,.22.45,1,1,0,0,1-.22.56.63.63,0,0,1-.51.28.83.83,0,0,1-.72-.41.77.77,0,0,1-.09-.68,1,1,0,0,1,1.09-.86,1.8,1.8,0,0,1,1,.32c.58.38.89.63.91.75a1,1,0,0,0,.5-.35A1.09,1.09,0,0,0,107,4.07a.36.36,0,0,0-.36-.17h-4.58l-.65-.64H109l.64.64h-2.1s.11.13.2.4a3.09,3.09,0,0,1,.22.79,1.15,1.15,0,0,1-.38.77C107.49,5.93,107.36,6.06,107.17,6.27Z"/><path class="cls-1" d="M107.74,6.29a11.35,11.35,0,0,1,0,1.21v3.41l-.23-.22a5.93,5.93,0,0,0-.3-.53,1.12,1.12,0,0,0-.92-.4,4,4,0,0,0-.69.1,5.88,5.88,0,0,1-.65.1,2,2,0,0,1-.87-.15,1.39,1.39,0,0,1-.7-.51A2.35,2.35,0,0,1,103,8.12a2.92,2.92,0,0,1,.18-.94c.07-.21.12-.31.14-.3l.29.23a2.25,2.25,0,0,0-.13.73,1.17,1.17,0,0,0,.41,1,2.87,2.87,0,0,0,1.63.12h.37a1.35,1.35,0,0,1,1,.29,3.71,3.71,0,0,1,.29.31V6.88a1.4,1.4,0,0,0-.09-.4c-.06-.18-.11-.27-.18-.25a.09.09,0,0,0-.08,0,1,1,0,0,0-.33.09,3.66,3.66,0,0,0-.47.38,1.17,1.17,0,0,0-.26.6,1.18,1.18,0,0,1,.29,0,.48.48,0,0,1,.36.17.64.64,0,0,1,.14.39.67.67,0,0,1-.26.51.91.91,0,0,1-.57.19.88.88,0,0,1-.5-.18.69.69,0,0,1-.33-.4,1.9,1.9,0,0,1-.07-.46,1.29,1.29,0,0,1,.27-.83l.45-.54.58-.36c.09-.11.31-.16.65-.16A1,1,0,0,1,107.74,6.29Z"/><path class="cls-1" d="M112.1,3.9h-1.76v6.54l-.62-.64V3.9h-.78l-.68-.64h1.55l-.1-.49a3.13,3.13,0,0,0-.54-.95,2.21,2.21,0,0,0-.75-.65,4.43,4.43,0,0,0-2.17-.51,2.56,2.56,0,0,0-1.67.45.2.2,0,0,0-.06.16c0,.2.2.31.59.32.92,0,1.42.06,1.53.08,1,.13,1.44.56,1.46,1.29a1.21,1.21,0,0,1-.06.38h-.67c.2-.16.31-.31.31-.44a.37.37,0,0,0-.09-.22c-.11-.14-.42-.23-1-.25l-1-.05a2.13,2.13,0,0,1-1-.38.89.89,0,0,1-.44-.79.61.61,0,0,1,.22-.5,2.16,2.16,0,0,1,.43-.31A5.13,5.13,0,0,1,106.09,0a1.94,1.94,0,0,1,.4,0,5.36,5.36,0,0,1,1.58.32,3.15,3.15,0,0,1,1,.64,3.08,3.08,0,0,1,.65.77,3.46,3.46,0,0,1,.43.93l.16.6h1.14Z"/><path class="cls-1" d="M121.06,3.9h-1.54v6.58l-.33-.48a4,4,0,0,0-1.64-2A3.73,3.73,0,0,0,116,7.44l-.81-1.16a13.4,13.4,0,0,1,1.55-1,14.68,14.68,0,0,1,2.19-1V3.9h-4.05l-.62-.64h6.22ZM118.9,8.7V5.35a11.15,11.15,0,0,0-2.42,1.27A5.08,5.08,0,0,1,118.9,8.7Z"/><path class="cls-1" d="M123.6,3.9H122v6.68l-.6-.66V5.16a1.24,1.24,0,0,0-.17-.68,1.2,1.2,0,0,0-1-.58h-.16l-.64-.64a4.08,4.08,0,0,1,1,0,1.21,1.21,0,0,1,1,.87,5.31,5.31,0,0,1,.28.78,15.51,15.51,0,0,1-.21-1.76c0-.3,0-.64,0-1l.24.21a2.91,2.91,0,0,0,.17.69,2.06,2.06,0,0,0,.19.25h1Z"/><path class="cls-1" d="M125.77,6.11a1.37,1.37,0,0,1-.49.39,1.22,1.22,0,0,1-.44,0,1.36,1.36,0,0,1-1-.44,1.5,1.5,0,0,1-.43-1.05A1.52,1.52,0,0,1,124,3.92a1.19,1.19,0,0,1,.81-.32,1.29,1.29,0,0,1,1,.46,1.51,1.51,0,0,1,.41,1.05A1.48,1.48,0,0,1,125.77,6.11Zm1.49,5-.75-.74a23.45,23.45,0,0,0-2.73-2.11V6.82a18.77,18.77,0,0,1,1.42,1.3,28.79,28.79,0,0,1,2.06,2.44Zm-2.15-5.5a1,1,0,0,0,.38-.39,1.37,1.37,0,0,0,.05-.44c0-.35-.14-.52-.42-.52a1.32,1.32,0,0,0-.77.41,1,1,0,0,0-.31.79c0,.31.11.47.37.47A1.38,1.38,0,0,0,125.11,5.61Z"/><path class="cls-1" d="M133.81,3.9h-1.55v6.54l-.63-.63V6.27a.76.76,0,0,0-.29-.58.71.71,0,0,0-.6-.23.41.41,0,0,0-.35.25.73.73,0,0,0-.08.45l.05.32-.26.11s0-.15-.13-.31a1.9,1.9,0,0,0-.35-.48,1.18,1.18,0,0,0-.89-.34,1.09,1.09,0,0,0-.79.32,1,1,0,0,0-.35.78.87.87,0,0,0,.83.91.83.83,0,0,1-.18-.5.69.69,0,0,1,.2-.5.72.72,0,0,1,.51-.19c.3,0,.52.17.66.55a1,1,0,0,1,.1.64.94.94,0,0,1-.94.61,1.81,1.81,0,0,1-1.11-.35,1.53,1.53,0,0,1-.61-1,2.63,2.63,0,0,1,0-.49,2,2,0,0,1,.36-1.18,1.18,1.18,0,0,1,1-.58,1.53,1.53,0,0,1,1.17.5l.22.29a.72.72,0,0,1,.28-.49.7.7,0,0,1,.49-.26,1,1,0,0,1,.59.23c.06.09.13.18.21.28a1.51,1.51,0,0,1,.31.6V3.9h-4.87l-.65-.66h7Z"/><path class="cls-1" d="M136.39,3.9h-1.58v6.68l-.6-.66V5.16A1.22,1.22,0,0,0,133,3.9h-.16l-.64-.64a4.16,4.16,0,0,1,1,0,1.21,1.21,0,0,1,1,.87,6.34,6.34,0,0,1,.29.78,13.32,13.32,0,0,1-.22-1.76c0-.3,0-.64,0-1l.24.21a2.91,2.91,0,0,0,.17.69,2.06,2.06,0,0,0,.19.25h.95Z"/><path class="cls-1" d="M140.09,3.89a2.82,2.82,0,0,0-1,.24,3.35,3.35,0,0,0-.93.52,3.1,3.1,0,0,0-1.1,2.1,5,5,0,0,0,0,1.58,2.1,2.1,0,0,0,1,1.35.54.54,0,0,0,.26.05c.12,0,.17,0,.15-.05s-.12-.08-.21-.23a1.17,1.17,0,0,1-.15-.33.68.68,0,0,1,.4-.74.78.78,0,0,1,.35-.1.45.45,0,0,1,.35.14.73.73,0,0,1,.4.71,1,1,0,0,1-.33.74,1.12,1.12,0,0,1-.78.3,1.45,1.45,0,0,1-1-.3A3.18,3.18,0,0,1,136.42,8a4.42,4.42,0,0,1-.1-.94,4.88,4.88,0,0,1,1.27-3.19h-1.9l-.63-.64h4.42Z"/><path class="cls-1" d="M145.89,3.9h-5.1V6.59a3.67,3.67,0,0,0,.44-.37l.66-.59a6.46,6.46,0,0,1,1.71-1l1.1.82a6.79,6.79,0,0,0-.84,3,3.64,3.64,0,0,0,0,.57,11.9,11.9,0,0,0,.18,1.36l-.42-.21-.16-.77a8.45,8.45,0,0,1-.2-1.85A7.63,7.63,0,0,1,143.48,6a3.74,3.74,0,0,0-1.23.7A4.8,4.8,0,0,0,141,8.42l-.84-.88V3.9h-.64l-.64-.64h6.42Z"/><path class="cls-1" d="M152.27,3.92h-1.43v6.5l-.64-.65,0-4a1.88,1.88,0,0,0-.39-.87c-.3-.45-.58-.66-.83-.64a1.17,1.17,0,0,0-.43.17.42.42,0,0,0-.21.34,7.15,7.15,0,0,1,.56.45,1.15,1.15,0,0,1,.39.8,3,3,0,0,1-.08.45c-.1.27-.34.4-.73.4a1.12,1.12,0,0,1-.94-.69,1.25,1.25,0,0,1-.79.71.93.93,0,0,1-.22,0q-.54,0-.72-.66a.84.84,0,0,1,0-.27,1.37,1.37,0,0,1,.51-1,2.1,2.1,0,0,1,.33-.27.37.37,0,0,1,.23-.11,2.12,2.12,0,0,0-.35-.54.88.88,0,0,0-.55-.22h-.78l-.63-.64h1.3a1.23,1.23,0,0,1,.76.24l.31.29a1.22,1.22,0,0,1,.35.65,2.08,2.08,0,0,1,.34-.57,2.08,2.08,0,0,1,.91-.55l.28-.06q.26,0,.75.63a7.8,7.8,0,0,1,.5.74,4.16,4.16,0,0,1,.41.74l-.18-2.06-.06-1.2a3.57,3.57,0,0,1,.39.39.36.36,0,0,1,.07.24.8.8,0,0,0,0,.23.53.53,0,0,0,.37.29h.54Z"/><path class="cls-1" d="M162.1,3.9h-1.54v6.54L160,9.71V6.78a.94.94,0,0,0-.34-.49.88.88,0,0,0-.54-.24.81.81,0,0,0-.66.43c-.68,1-1.11,1.56-1.29,1.6h-.23c-.29,0-.46,0-.5-.11s-.41-.3-.69-.81l-.25-.47.41-.41a1.15,1.15,0,0,0,.14.39,1.26,1.26,0,0,0,.21.34.41.41,0,0,0,.25.13c.14,0,.35-.18.61-.54l.53-.74a2.32,2.32,0,0,0-.1-.62,1,1,0,0,0-1-.79,4.12,4.12,0,0,1-.7-.07,1.05,1.05,0,0,1-.53-.48l-.17-.09-.57-.56h7ZM160,6.15V3.9h-2.84l.35.29a1.34,1.34,0,0,1,.46,1.1,1,1,0,0,1,0,.24,1.65,1.65,0,0,0,.41-.25.59.59,0,0,1,1,0A7.47,7.47,0,0,1,160,6.15Z"/><path class="cls-1" d="M167.46,3.9H166v6.46l-.24-.23-.57-1.06A3.14,3.14,0,0,0,164,7.89a3.38,3.38,0,0,0-1.59-.51l-.82-1.14a13.22,13.22,0,0,1,3.72-1.92V3.9h-3.83l-.64-.64h5.94Zm-2.11,4.89V5.26a10.21,10.21,0,0,0-1.39.6,11.23,11.23,0,0,0-1,.7A4.5,4.5,0,0,1,165.35,8.79Zm-1.75,1a.63.63,0,0,1-.42-.16.65.65,0,0,1-.24-.39.62.62,0,0,1,.12-.52.57.57,0,0,1,.47-.24.69.69,0,0,1,.65.52.7.7,0,0,1-.11.54A.54.54,0,0,1,163.6,9.83Z"/><path class="cls-1" d="M174.63,3.9h-3.36v.48l.13,0a1.9,1.9,0,0,1,1.38.65,2.59,2.59,0,0,1,.78,1.36,2.22,2.22,0,0,1,.07.54,1.36,1.36,0,0,1-.27.84.89.89,0,0,1-.75.39.8.8,0,0,1-.57-.23.69.69,0,0,1-.25-.54.84.84,0,0,1,.35-.65,1.09,1.09,0,0,1,.37-.07,1,1,0,0,1,.64.33.25.25,0,0,0,0-.11,1.54,1.54,0,0,0-.49-1.09,1.68,1.68,0,0,0-1.4-.53v5.09l-.23-.23-.18-.56a3,3,0,0,0-.56-.88,3.84,3.84,0,0,0-.76-.73A3.67,3.67,0,0,0,168,7.39l-.87-1.08a10.21,10.21,0,0,1,1.16-.82,10.91,10.91,0,0,1,2.36-1.09V3.9h-3.82l-.64-.64H174Zm-4,4.7V5.26a8.08,8.08,0,0,0-1.44.7l-.81.58A4.41,4.41,0,0,1,170.65,8.6Z"/><path class="cls-1" d="M177.22,3.9h-1.57v6.68L175,9.92V5.16a1.16,1.16,0,0,0-.17-.68,1.18,1.18,0,0,0-1-.58h-.16l-.64-.64a4.08,4.08,0,0,1,1,0,1.21,1.21,0,0,1,.95.87,5,5,0,0,1,.29.78,15.25,15.25,0,0,1-.22-1.76c0-.3,0-.64,0-1l.25.21a2.9,2.9,0,0,0,.16.69c.05.06.11.15.2.25h.94Z"/><path class="cls-1" d="M182.56,3.9h-1.47v6.46l-.24-.23-.57-1.06a3.07,3.07,0,0,0-1.14-1.18,3.38,3.38,0,0,0-1.59-.51l-.82-1.14a13.13,13.13,0,0,1,3.73-1.92V3.9h-3.84L176,3.26h5.94Zm-2.1,4.89V5.26a9.24,9.24,0,0,0-1.39.6,9.83,9.83,0,0,0-1,.7A4.56,4.56,0,0,1,180.46,8.79Zm-1.75,1a.64.64,0,0,1-.43-.16.65.65,0,0,1-.24-.39.62.62,0,0,1,.12-.52.57.57,0,0,1,.47-.24.69.69,0,0,1,.65.52.66.66,0,0,1-.11.54A.53.53,0,0,1,178.71,9.83Z"/><path class="cls-1" d="M193,3.9H192v6.52l-.24-.19a6.34,6.34,0,0,0-1.34-2.5,1.73,1.73,0,0,1-1.52.95A2.81,2.81,0,0,1,186.57,7a8,8,0,0,1-1.08-2.83l.39.17a9.15,9.15,0,0,0,1,2.13,2.25,2.25,0,0,0,1.9,1.08,1.26,1.26,0,0,0,.85-.3A1,1,0,0,0,190,6.5a1.88,1.88,0,0,0-.17-.73c-.12-.31-.28-.47-.48-.46a.83.83,0,0,1-.85.65,1.06,1.06,0,0,1-.7-.25.74.74,0,0,1-.31-.62.76.76,0,0,1,.4-.68,1.57,1.57,0,0,1,.79-.2,1.92,1.92,0,0,1,1.48.7,2.36,2.36,0,0,1,.62,1.59,1.32,1.32,0,0,1,0,.34l.63,1.25V3.9h-6l-.63-.64h7.69Z"/><path class="cls-1" d="M199.29,3.9H197.7v6.65l-.24-.32a3.85,3.85,0,0,0-.19-1.36,4.62,4.62,0,0,0-1.18-2.3A1.56,1.56,0,0,0,195,6.11c-.06,0-.1,0-.1,0l.2.29a1.35,1.35,0,0,1,.18.41.79.79,0,0,1-.83,1.05A1,1,0,0,1,193.3,7c0-.1,0-.2,0-.3a1.33,1.33,0,0,1,.44-1,1.56,1.56,0,0,1,1.07-.41,2.34,2.34,0,0,1,2,1.46,6,6,0,0,1,.32.6V3.9h-4.28l-.63-.64h6.48Z"/><path class="cls-1" d="M199,12.5s0,0,0,.07,0,.06-.08.06,0,0-.07-.05a7.07,7.07,0,0,0-1.17-1.15c-.34-.28-.52-.41-.54-.38q-.45.42-.54.48a.94.94,0,0,1-.57.18,1.54,1.54,0,0,1-.75-.17.75.75,0,0,1-.42-.59.94.94,0,0,1,.27-.82,1.17,1.17,0,0,1,.84-.32,1.87,1.87,0,0,1,.91.34c.06,0,.09,0,.1-.16s0-.22,0-.48c0-.11,0-.24,0-.37h0c.12,0,.24.12.37.38a1.67,1.67,0,0,1,.19.54v.22a1.33,1.33,0,0,0,0,.32,3.11,3.11,0,0,1,.58.53A2.64,2.64,0,0,1,199,12.5Zm-2.45-1.86a.62.62,0,0,0-.6-.2c-.37,0-.55.13-.55.34s.12.33.36.33a1.37,1.37,0,0,0,.5-.13C196.5,10.87,196.59,10.76,196.55,10.64Z"/><path class="cls-1" d="M202.87,3.89a2.87,2.87,0,0,0-1,.24,3.43,3.43,0,0,0-.92.52,3.16,3.16,0,0,0-1.11,2.1,4.91,4.91,0,0,0,0,1.58,2.09,2.09,0,0,0,1,1.35.56.56,0,0,0,.27.05c.12,0,.17,0,.15-.05s-.12-.08-.22-.23a1.17,1.17,0,0,1-.15-.33.69.69,0,0,1,.41-.74.74.74,0,0,1,.35-.1.47.47,0,0,1,.35.14.73.73,0,0,1,.4.71,1,1,0,0,1-.33.74,1.15,1.15,0,0,1-.79.3,1.44,1.44,0,0,1-.95-.3A3.19,3.19,0,0,1,199.19,8a5.18,5.18,0,0,1-.1-.94,4.93,4.93,0,0,1,1.27-3.19h-1.89l-.63-.64h4.42Z"/><path class="cls-1" d="M208.83,3.92h-1.66v6.5l-.27-.29c0-.08-.07-.27-.16-.58a2.11,2.11,0,0,0-.55-1,3.74,3.74,0,0,0-1-.71h0s-.12.17-.38.37a1.15,1.15,0,0,1-.71.22,1,1,0,0,1-.77-.26,1.66,1.66,0,0,1-.2-.26,1.09,1.09,0,0,0,0-.26,1.14,1.14,0,0,1,0-.26,1,1,0,0,1,.4-.84,1.43,1.43,0,0,1,.89-.26c.27,0,.43,0,.47.11a1.57,1.57,0,0,0-.67-1.32,3.14,3.14,0,0,0-.81-.31,1.91,1.91,0,0,1-.64-.25,1.7,1.7,0,0,1-.36-.36l-.13-.28-.63-.64h6.59Zm-2.27,4.43V3.92h-2.9c.57.48,1,.81,1.13,1a2.1,2.1,0,0,1,.53.93,4.23,4.23,0,0,1,.18,1.23C205.75,7.33,206.1,7.76,206.56,8.35Z"/><path class="cls-1" d="M211.33,3.9h-1.58v6.68l-.6-.66V5.16A1.22,1.22,0,0,0,208,3.9h-.16l-.64-.64a4.08,4.08,0,0,1,1,0,1.21,1.21,0,0,1,1,.87,6.34,6.34,0,0,1,.29.78,13.32,13.32,0,0,1-.22-1.76c0-.3,0-.64,0-1l.24.21a2.91,2.91,0,0,0,.17.69l.19.25h.95Z"/><path class="cls-1" d="M217.23,2.57l-1.06-.81A3.5,3.5,0,0,0,214,1a2.09,2.09,0,0,0-1.2.34l-.31.2c-.07.08-.17.2-.28.35-.32.42-.47.68-.43.8l.24.55h1.16l.63.64h-1.57v6.46l-.65-.63V3.9h-.92L210,3.26h1.62l-.56-.6a.42.42,0,0,1-.08-.29,1,1,0,0,1,.12-.54,4.9,4.9,0,0,1,.46-.68,3.48,3.48,0,0,1,1-.67,1.83,1.83,0,0,1,.81-.17,4.9,4.9,0,0,1,2.59.87,6.88,6.88,0,0,1,1.12,1Z"/><path class="cls-1" d="M219.51,3.9h-5.1V6.59a3.67,3.67,0,0,0,.44-.37l.66-.59a6.46,6.46,0,0,1,1.71-1l1.1.82a6.79,6.79,0,0,0-.84,3,3.64,3.64,0,0,0,0,.57,11.9,11.9,0,0,0,.18,1.36l-.42-.21-.16-.77a8.45,8.45,0,0,1-.2-1.85A7.63,7.63,0,0,1,217.1,6a3.85,3.85,0,0,0-1.23.7,4.65,4.65,0,0,0-1.29,1.77l-.85-.88V3.9h-.63l-.64-.64h6.41Z"/><path class="cls-1" d="M226.64,3.9h-7.86l-.63-.64H226Zm-1.49,2.43a2.48,2.48,0,0,1,.13.8,2,2,0,0,1-1,1.79,2.71,2.71,0,0,1-1.42.42,3,3,0,0,1-.77-.15,2.2,2.2,0,0,1-.69-.37,5.93,5.93,0,0,1-.65-.77A5.88,5.88,0,0,1,220,6.83c-.41-1-.71-1.89-.9-2.56l.36.15c.22.53.41,1,.58,1.34A9.11,9.11,0,0,0,220.77,7,2.6,2.6,0,0,0,223,8.27a1.94,1.94,0,0,0,1.27-.56,1.3,1.3,0,0,0,.51-1,1.58,1.58,0,0,0-.29-.9.93.93,0,0,0-.79-.47,2,2,0,0,0-.41.06,1.13,1.13,0,0,1,.24.73c0,.61-.34.91-1,.91a1,1,0,0,1-1-.89,1.33,1.33,0,0,1,0-.32,1.19,1.19,0,0,1,.46-1,1.51,1.51,0,0,1,1-.37,2.73,2.73,0,0,1,.57.07A2.35,2.35,0,0,1,225.15,6.33Z"/><path class="cls-1" d="M14.19,39.27a5.82,5.82,0,0,1,.73.09c.24,0,.47.11.71.18a4.59,4.59,0,0,1,.59-.16,6.35,6.35,0,0,1,.78-.11v.39a.6.6,0,0,0-.32.14.33.33,0,0,0-.09.25,4.17,4.17,0,0,0,.32,1c.21.53.51,1.21.89,2,.4-.93.67-1.6.82-2a3.11,3.11,0,0,0,.22-.92.45.45,0,0,0-.13-.36.58.58,0,0,0-.39-.14v-.39a3.09,3.09,0,0,1,.6.08,4.5,4.5,0,0,1,.6.17,3.45,3.45,0,0,1,.52-.16,2.54,2.54,0,0,1,.54-.09v.39A1,1,0,0,0,20,40a8.14,8.14,0,0,0-.78,1.39q-.31.66-.54,1.2a8,8,0,0,0-.31.78,2.71,2.71,0,0,0-.11.51,4.24,4.24,0,0,0,0,.67v.11a5.72,5.72,0,0,0,.19,1.89.8.8,0,0,0,.71.49v.39a4.29,4.29,0,0,1-.76-.1,8.32,8.32,0,0,1-.9-.22,9,9,0,0,1-.89.23,5.53,5.53,0,0,1-.77.09v-.39a.78.78,0,0,0,.7-.41,3.14,3.14,0,0,0,.2-1.36V44.9a5.18,5.18,0,0,0,0-.62,1.56,1.56,0,0,0-.1-.4,6.25,6.25,0,0,0-.28-.69c-.14-.29-.37-.77-.7-1.43l-.07-.15c-.64-1.28-1.09-1.93-1.36-2Z"/><path class="cls-1" d="M24.31,44.68a3.22,3.22,0,0,1-.67,2.1,2.38,2.38,0,0,1-3.56,0,3.63,3.63,0,0,1,0-4.2,2.22,2.22,0,0,1,1.78-.8,2.19,2.19,0,0,1,1.77.81A3.13,3.13,0,0,1,24.31,44.68ZM21.86,42.3q-.43,0-.66.6A5.57,5.57,0,0,0,21,44.67a5.71,5.71,0,0,0,.22,1.79q.23.6.66.6t.66-.6a5.38,5.38,0,0,0,.23-1.79,5.29,5.29,0,0,0-.23-1.77Q22.3,42.3,21.86,42.3Z"/><path class="cls-1" d="M29.35,41.75l.26.21c0,.28-.05.56-.06.85s0,.58,0,.86V45a4.55,4.55,0,0,0,.13,1.27c.09.25.23.37.43.37h.18l0,.43a3,3,0,0,1-.55.14,4.47,4.47,0,0,1-.67,0H29a1.83,1.83,0,0,0-.24.19l-.19.17-.26-.21A2.16,2.16,0,0,1,28.2,47c0-.14,0-.3,0-.49a1.63,1.63,0,0,1-.57.82,1.68,1.68,0,0,1-1,.29A1.14,1.14,0,0,1,25.55,47a4.81,4.81,0,0,1-.31-2.08V44.2A3.71,3.71,0,0,0,25.13,43a.39.39,0,0,0-.4-.23V42.4a4.09,4.09,0,0,1,.61-.1,4.26,4.26,0,0,1,.63,0A2.61,2.61,0,0,1,26.2,42l.27-.22.27.22c0,.22,0,.49,0,.81s0,.75,0,1.32v.6a5.59,5.59,0,0,0,.15,1.58.53.53,0,0,0,.52.43.62.62,0,0,0,.57-.44,2.92,2.92,0,0,0,.21-1.24v-.84A4.27,4.27,0,0,0,28,43a.41.41,0,0,0-.4-.25v-.38a4.51,4.51,0,0,1,.53-.09,5.17,5.17,0,0,1,.57,0h.13l.24-.24A2,2,0,0,1,29.35,41.75Z"/><path class="cls-1" d="M31.88,40.63h.64v1.61l.95,0v.71l-.95,0v2.44a2.73,2.73,0,0,0,.16,1.06.51.51,0,0,0,.49.33.59.59,0,0,0,.31-.09,1,1,0,0,0,.3-.27l.18.39a2.13,2.13,0,0,1-.66.59,1.51,1.51,0,0,1-.78.2A1.2,1.2,0,0,1,31.41,47a5,5,0,0,1-.32-2.19V42.89h-.47v-.48a1.24,1.24,0,0,0,.88-.52A2.65,2.65,0,0,0,31.88,40.63Z"/><path class="cls-1" d="M35.94,38.83l.26.2c0,.29-.05.61-.07,1s0,.8,0,1.33v1.4a1.42,1.42,0,0,1,.52-.67,1.38,1.38,0,0,1,.81-.24,1.28,1.28,0,0,1,1.19.65A4.23,4.23,0,0,1,39,44.53v.88a4.3,4.3,0,0,0,.12,1.33.53.53,0,0,0,.47.31v.4a2.41,2.41,0,0,1-.58-.07,3.77,3.77,0,0,1-.66-.2,3.14,3.14,0,0,1-.44.18,3.29,3.29,0,0,1-.43.09c0-.29,0-.65,0-1.1s0-1,0-1.58a6,6,0,0,0-.15-1.69.56.56,0,0,0-.56-.41.6.6,0,0,0-.56.43,3.91,3.91,0,0,0-.18,1.33v.9a4.25,4.25,0,0,0,.13,1.4.52.52,0,0,0,.47.32v.4a3.76,3.76,0,0,1-.65-.09,4,4,0,0,1-.66-.18l-.69.19a4.51,4.51,0,0,1-.6.08v-.4a.53.53,0,0,0,.47-.31,4.82,4.82,0,0,0,.13-1.5v-4A4.4,4.4,0,0,0,34.6,40a.45.45,0,0,0-.43-.24h-.06v-.39l.43-.05.36,0h.27l.28,0,.23-.26A2.53,2.53,0,0,1,35.94,38.83Z"/><path class="cls-1" d="M44.1,47.13a6.17,6.17,0,0,1-.72.21,6.6,6.6,0,0,1-.81.11v-.4a.8.8,0,0,0,.64-.47,5.83,5.83,0,0,0,.17-1.81V41.93a5.87,5.87,0,0,0-.17-1.81.78.78,0,0,0-.64-.47v-.38a8.5,8.5,0,0,1,.86.12,3.79,3.79,0,0,1,.67.2,3.57,3.57,0,0,1,.86-.26,4.75,4.75,0,0,1,1-.09,3.37,3.37,0,0,1,2.67,1.11,4.41,4.41,0,0,1,1,3,4.35,4.35,0,0,1-1,3,3.46,3.46,0,0,1-2.75,1.1,4.39,4.39,0,0,1-.91-.09A3.31,3.31,0,0,1,44.1,47.13Zm.82-3c0,.94,0,1.55,0,1.81a2.59,2.59,0,0,0,0,.51.54.54,0,0,0,.22.38.86.86,0,0,0,.5.12,1.78,1.78,0,0,0,1.58-.91,4.84,4.84,0,0,0,.57-2.55,5.39,5.39,0,0,0-.59-2.76,1.9,1.9,0,0,0-1.7-1l-.26,0-.31.06c0,.25,0,.6,0,1s0,1,0,1.68Z"/><path class="cls-1" d="M54.23,44.22H52a.54.54,0,0,0-.34.08.49.49,0,0,0-.08.33A2.54,2.54,0,0,0,52,46.12a1.25,1.25,0,0,0,1,.6,1.39,1.39,0,0,0,.62-.16,2,2,0,0,0,.56-.45l.14.36a2.26,2.26,0,0,1-.86.82,2.61,2.61,0,0,1-1.22.29,1.88,1.88,0,0,1-1.58-.77,3.19,3.19,0,0,1-.6-2,3.43,3.43,0,0,1,.65-2.16,2,2,0,0,1,1.62-.85,1.68,1.68,0,0,1,1.33.61,2.16,2.16,0,0,1,.54,1.5.53.53,0,0,1,0,.12C54.24,44.06,54.23,44.13,54.23,44.22Zm-1.52-.49a.32.32,0,0,0,.2,0s0-.09,0-.19a1.6,1.6,0,0,0-.21-.83.64.64,0,0,0-.53-.35.54.54,0,0,0-.48.33,1.74,1.74,0,0,0-.19.88.57.57,0,0,0,0,.13v.08Z"/><path class="cls-1" d="M54.42,42a2.81,2.81,0,0,1,.65.07,3,3,0,0,1,.67.21,4,4,0,0,1,.68-.21A2.68,2.68,0,0,1,57,42v.38a.44.44,0,0,0-.26.15.46.46,0,0,0-.08.31,3.65,3.65,0,0,0,.15.76q.15.57.72,2.4.39-1.29.54-2a4.54,4.54,0,0,0,.16-1,.87.87,0,0,0-.12-.51.55.55,0,0,0-.39-.21V42a2.31,2.31,0,0,1,.52.06,3.39,3.39,0,0,1,.51.17l.45-.15a2.72,2.72,0,0,1,.51-.08v.37c-.24,0-.49.31-.76.89a43.57,43.57,0,0,0-1.38,4.17l-.44-.15-.61.19c-.6-2-1-3.36-1.34-4.06s-.56-1-.78-1h0Z"/><path class="cls-1" d="M64.07,44.22H61.84a.52.52,0,0,0-.34.08.49.49,0,0,0-.08.33,2.54,2.54,0,0,0,.42,1.49,1.23,1.23,0,0,0,1,.6,1.39,1.39,0,0,0,.62-.16,2,2,0,0,0,.56-.45l.14.36a2.33,2.33,0,0,1-.86.82,2.61,2.61,0,0,1-1.22.29,1.89,1.89,0,0,1-1.58-.77,3.19,3.19,0,0,1-.6-2,3.55,3.55,0,0,1,.64-2.16,2,2,0,0,1,1.63-.85,1.68,1.68,0,0,1,1.33.61,2.15,2.15,0,0,1,.53,1.5V44C64.08,44.06,64.07,44.13,64.07,44.22Zm-1.52-.49a.32.32,0,0,0,.2,0s0-.09,0-.19a1.6,1.6,0,0,0-.21-.83.64.64,0,0,0-.53-.35.56.56,0,0,0-.49.33,1.86,1.86,0,0,0-.18.88.57.57,0,0,0,0,.13v.08Z"/><path class="cls-1" d="M66.38,38.83l.26.2c0,.29,0,.61-.06,1s0,.81,0,1.33v4a4.06,4.06,0,0,0,.14,1.43.62.62,0,0,0,.53.31v.39a4,4,0,0,1-.67-.09,5.51,5.51,0,0,1-.72-.19,4.39,4.39,0,0,1-.69.18,5.16,5.16,0,0,1-.67.1v-.39a.59.59,0,0,0,.53-.3,4.32,4.32,0,0,0,.14-1.44V41.21A4.07,4.07,0,0,0,65,40a.45.45,0,0,0-.44-.23h-.12v-.39l.46-.05.39,0h.26l.31,0a2.85,2.85,0,0,1,.23-.26A1.71,1.71,0,0,1,66.38,38.83Z"/><path class="cls-1" d="M72.51,44.68a3.22,3.22,0,0,1-.67,2.1,2.38,2.38,0,0,1-3.56,0,3.63,3.63,0,0,1,0-4.2,2.23,2.23,0,0,1,1.78-.8,2.19,2.19,0,0,1,1.77.81A3.13,3.13,0,0,1,72.51,44.68ZM70.06,42.3c-.29,0-.51.2-.65.6a5.25,5.25,0,0,0-.23,1.77,5.38,5.38,0,0,0,.23,1.79c.14.4.36.6.65.6s.51-.2.66-.6A5.38,5.38,0,0,0,71,44.67a5.29,5.29,0,0,0-.23-1.77Q70.49,42.3,70.06,42.3Z"/><path class="cls-1" d="M74.64,41.8l.21.2a4.57,4.57,0,0,0,0,.46c0,.14,0,.25,0,.35l.1,0a1.92,1.92,0,0,1,.57-.77,1.27,1.27,0,0,1,.8-.27,1.58,1.58,0,0,1,1.35.76,3.39,3.39,0,0,1,.52,2,3.34,3.34,0,0,1-.68,2.16,2.18,2.18,0,0,1-1.76.83,1.58,1.58,0,0,1-.38,0,2,2,0,0,1-.35-.1v1.08A3.93,3.93,0,0,0,75.11,50a.85.85,0,0,0,.69.33v.38a6.67,6.67,0,0,1-.74-.08c-.26,0-.54-.12-.83-.2a6.29,6.29,0,0,1-.69.2,3.3,3.3,0,0,1-.61.08v-.38A.54.54,0,0,0,73.4,50a4.87,4.87,0,0,0,.13-1.5V44.26A4.4,4.4,0,0,0,73.42,43a.42.42,0,0,0-.43-.24h-.06v-.37a4.85,4.85,0,0,1,.55-.09,3.27,3.27,0,0,1,.54,0h.13A2.77,2.77,0,0,1,74.4,42Zm.3,4.78a1,1,0,0,0,.32.34.65.65,0,0,0,.37.12.81.81,0,0,0,.74-.54,3.72,3.72,0,0,0,.25-1.56,4.22,4.22,0,0,0-.25-1.63c-.16-.39-.4-.59-.69-.59a.6.6,0,0,0-.57.41,4,4,0,0,0-.17,1.35Z"/><path class="cls-1" d="M80.36,41.78l.21.19c0,.14,0,.28,0,.41l0,.41.08,0a1.71,1.71,0,0,1,.53-.76,1.19,1.19,0,0,1,.77-.27,1.2,1.2,0,0,1,.81.27,1.91,1.91,0,0,1,.54.84,1.93,1.93,0,0,1,.56-.82,1.23,1.23,0,0,1,.8-.29,1.25,1.25,0,0,1,1.17.64,4.16,4.16,0,0,1,.37,2v.94a4.3,4.3,0,0,0,.12,1.33.53.53,0,0,0,.48.31v.4a3.22,3.22,0,0,1-.58-.08,3.86,3.86,0,0,1-.65-.19c-.15.07-.3.12-.44.17a3.2,3.2,0,0,1-.42.1c0-.33,0-.73.06-1.19s0-1,0-1.54a5.88,5.88,0,0,0-.15-1.66.52.52,0,0,0-.51-.43.56.56,0,0,0-.53.44,4.31,4.31,0,0,0-.17,1.4v.87a4.22,4.22,0,0,0,.13,1.39.52.52,0,0,0,.47.32v.4a2.92,2.92,0,0,1-.55-.08,3.59,3.59,0,0,1-.62-.19,2.83,2.83,0,0,1-.4.17l-.45.1c0-.33,0-.73.06-1.19s0-1,0-1.54a6.65,6.65,0,0,0-.13-1.65c-.1-.3-.25-.44-.48-.44a.59.59,0,0,0-.56.42,3.58,3.58,0,0,0-.18,1.32v.86a5.23,5.23,0,0,0,.12,1.5.55.55,0,0,0,.49.32v.4a4.88,4.88,0,0,1-.61-.08c-.21,0-.44-.11-.69-.19l-.7.19a4.17,4.17,0,0,1-.59.08v-.4a.52.52,0,0,0,.48-.32,5.23,5.23,0,0,0,.12-1.5v-1a4.55,4.55,0,0,0-.1-1.29.44.44,0,0,0-.43-.24h-.07v-.4a3.86,3.86,0,0,1,.51-.09,5.17,5.17,0,0,1,.57,0h.16l.25-.26Z"/><path class="cls-1" d="M91.17,44.22H88.93a.53.53,0,0,0-.33.08.49.49,0,0,0-.08.33,2.54,2.54,0,0,0,.42,1.49,1.25,1.25,0,0,0,1,.6,1.44,1.44,0,0,0,.63-.16,2.09,2.09,0,0,0,.55-.45l.13.36a2.16,2.16,0,0,1-.85.82,2.61,2.61,0,0,1-1.22.29,1.89,1.89,0,0,1-1.58-.77,3.19,3.19,0,0,1-.6-2,3.49,3.49,0,0,1,.65-2.16,2,2,0,0,1,1.62-.85,1.66,1.66,0,0,1,1.33.61,2.16,2.16,0,0,1,.54,1.5.53.53,0,0,1,0,.12C91.18,44.06,91.17,44.13,91.17,44.22Zm-1.52-.49a.3.3,0,0,0,.2,0s0-.09,0-.19a1.6,1.6,0,0,0-.21-.83.63.63,0,0,0-.52-.35.54.54,0,0,0-.49.33,1.74,1.74,0,0,0-.19.88.57.57,0,0,0,0,.13v.08Z"/><path class="cls-1" d="M93.38,41.78l.22.19c0,.14,0,.27,0,.41s0,.27,0,.41l.09,0a1.71,1.71,0,0,1,.56-.78,1.39,1.39,0,0,1,.85-.27,1.26,1.26,0,0,1,1.18.64,4.27,4.27,0,0,1,.37,2v.87a4.25,4.25,0,0,0,.13,1.4.54.54,0,0,0,.48.32v.39a2.46,2.46,0,0,1-.6-.07,3.77,3.77,0,0,1-.66-.2,3.14,3.14,0,0,1-.44.18l-.42.09c0-.31,0-.7.05-1.15s0-1,0-1.53A6.24,6.24,0,0,0,95,43a.56.56,0,0,0-.55-.42.6.6,0,0,0-.56.44,3.46,3.46,0,0,0-.19,1.33v1a4.83,4.83,0,0,0,.12,1.41.57.57,0,0,0,.49.32v.39a4.86,4.86,0,0,1-.64-.08,6.75,6.75,0,0,1-.66-.19c-.25.08-.49.14-.7.19a4.65,4.65,0,0,1-.61.08v-.39a.52.52,0,0,0,.48-.32,5.33,5.33,0,0,0,.12-1.5v-1A4.4,4.4,0,0,0,92.17,43a.41.41,0,0,0-.42-.24h-.07v-.4a4.44,4.44,0,0,1,.56-.1l.48,0h.2l.26-.26Z"/><path class="cls-1" d="M98.79,40.63h.65v1.61l1,0v.71l-1,0v2.44a2.77,2.77,0,0,0,.15,1.06.52.52,0,0,0,.5.33.64.64,0,0,0,.31-.09,1.22,1.22,0,0,0,.3-.27l.17.39a2.1,2.1,0,0,1-.65.59,1.51,1.51,0,0,1-.78.2A1.18,1.18,0,0,1,98.33,47,4.78,4.78,0,0,1,98,44.81V42.89h-.47v-.48a1.22,1.22,0,0,0,.88-.52A2.54,2.54,0,0,0,98.79,40.63Z"/><path class="cls-1" d="M109.41,39.19l.27.14a2.75,2.75,0,0,1-.09.45,2.64,2.64,0,0,1-.12.4c0,.29.06.56.07.81s0,.47,0,.68v.15h-.42a3.26,3.26,0,0,0-.51-1.62,1.32,1.32,0,0,0-1.11-.55,1.62,1.62,0,0,0-1.43,1,5.51,5.51,0,0,0-.53,2.62,5.56,5.56,0,0,0,.56,2.75,1.69,1.69,0,0,0,1.52,1,1.43,1.43,0,0,0,1.12-.47,2.5,2.5,0,0,0,.54-1.36h.41c0,.2,0,.4-.08.61a6.21,6.21,0,0,1-.11.67,1.38,1.38,0,0,1,.06.26,2.34,2.34,0,0,1,0,.26,3.23,3.23,0,0,1-1,.46,3.85,3.85,0,0,1-1.17.17,3.43,3.43,0,0,1-2.7-1.11,4.35,4.35,0,0,1-1-3,4.71,4.71,0,0,1,1-3.16,3.34,3.34,0,0,1,2.69-1.18,4.3,4.3,0,0,1,1,.13,5,5,0,0,0,.64.13.2.2,0,0,0,.13,0A.71.71,0,0,0,109.41,39.19Z"/><path class="cls-1" d="M115.3,44.68a3.17,3.17,0,0,1-.67,2.1,2.37,2.37,0,0,1-3.55,0,3.63,3.63,0,0,1,0-4.2,2.22,2.22,0,0,1,1.78-.8,2.19,2.19,0,0,1,1.77.81A3.12,3.12,0,0,1,115.3,44.68Zm-2.44-2.38q-.44,0-.66.6a5.29,5.29,0,0,0-.22,1.77,5.43,5.43,0,0,0,.22,1.79q.22.6.66.6t.66-.6a5.43,5.43,0,0,0,.22-1.79,5.33,5.33,0,0,0-.22-1.77Q113.3,42.3,112.86,42.3Z"/><path class="cls-1" d="M117.51,41.78l.21.19c0,.14,0,.28,0,.41s0,.27,0,.41l.07,0a1.71,1.71,0,0,1,.53-.76,1.23,1.23,0,0,1,.77-.27,1.25,1.25,0,0,1,.82.27,2.1,2.1,0,0,1,.54.84,1.91,1.91,0,0,1,.55-.82,1.23,1.23,0,0,1,.8-.29,1.25,1.25,0,0,1,1.17.64,4.16,4.16,0,0,1,.37,2v.94a4.3,4.3,0,0,0,.12,1.33.54.54,0,0,0,.48.31v.4a3,3,0,0,1-.57-.08,3.7,3.7,0,0,1-.66-.19c-.15.07-.3.12-.44.17a3.2,3.2,0,0,1-.42.1c0-.33,0-.73.06-1.19s0-1,0-1.54a5.88,5.88,0,0,0-.15-1.66.52.52,0,0,0-.51-.43.56.56,0,0,0-.53.44,4.31,4.31,0,0,0-.17,1.4v.87a4.22,4.22,0,0,0,.13,1.39.52.52,0,0,0,.47.32v.4a2.92,2.92,0,0,1-.55-.08,3.59,3.59,0,0,1-.62-.19,2.4,2.4,0,0,1-.4.17l-.45.1c0-.33,0-.73.06-1.19s0-1,0-1.54a6.5,6.5,0,0,0-.14-1.65c-.1-.3-.25-.44-.48-.44a.59.59,0,0,0-.56.42,3.58,3.58,0,0,0-.18,1.32v.86a5.23,5.23,0,0,0,.12,1.5.55.55,0,0,0,.49.32v.4a4.44,4.44,0,0,1-.61-.08c-.22,0-.45-.11-.71-.19-.25.08-.48.14-.69.19a4.17,4.17,0,0,1-.59.08v-.4a.52.52,0,0,0,.48-.32,5.23,5.23,0,0,0,.12-1.5v-1a4.55,4.55,0,0,0-.1-1.29.42.42,0,0,0-.43-.24h-.07v-.4a3.86,3.86,0,0,1,.51-.09,5.17,5.17,0,0,1,.57,0h.16l.26-.26A1.27,1.27,0,0,1,117.51,41.78Z"/><path class="cls-1" d="M125.82,41.8l.21.2c0,.17,0,.33,0,.46a2.3,2.3,0,0,0,0,.35l.09,0a2,2,0,0,1,.57-.77,1.29,1.29,0,0,1,.8-.27,1.57,1.57,0,0,1,1.35.76,3.39,3.39,0,0,1,.52,2,3.34,3.34,0,0,1-.68,2.16,2.16,2.16,0,0,1-1.76.83,1.58,1.58,0,0,1-.38,0,2,2,0,0,1-.35-.1v1.08a3.93,3.93,0,0,0,.17,1.51.85.85,0,0,0,.69.33v.38a6.67,6.67,0,0,1-.74-.08c-.26,0-.53-.12-.83-.2a6.29,6.29,0,0,1-.69.2,3.3,3.3,0,0,1-.61.08v-.38a.54.54,0,0,0,.47-.32,4.87,4.87,0,0,0,.13-1.5V44.26A4.4,4.4,0,0,0,124.6,43a.41.41,0,0,0-.42-.24h-.07v-.37l.55-.09a3.27,3.27,0,0,1,.54,0h.13a2.84,2.84,0,0,1,.26-.24A1.77,1.77,0,0,1,125.82,41.8Zm.3,4.78a1,1,0,0,0,.32.34.65.65,0,0,0,.37.12.81.81,0,0,0,.74-.54,3.69,3.69,0,0,0,.26-1.56,4.2,4.2,0,0,0-.26-1.63c-.16-.39-.39-.59-.69-.59a.58.58,0,0,0-.56.41,3.69,3.69,0,0,0-.18,1.35Z"/><path class="cls-1" d="M134.38,41.75l.26.21c0,.28,0,.56-.06.85s0,.58,0,.86V45a4.55,4.55,0,0,0,.13,1.27c.09.25.23.37.43.37h.18l.05.43a3,3,0,0,1-.55.14,4.47,4.47,0,0,1-.67,0H134l-.24.19-.18.17-.26-.21a2.16,2.16,0,0,1-.06-.38c0-.14,0-.3,0-.49a1.59,1.59,0,0,1-.58.82,1.64,1.64,0,0,1-1,.29,1.13,1.13,0,0,1-1.08-.59,4.81,4.81,0,0,1-.31-2.08V44.2a3.71,3.71,0,0,0-.11-1.18.39.39,0,0,0-.4-.23V42.4a4.09,4.09,0,0,1,.61-.1,4.26,4.26,0,0,1,.63,0,2.61,2.61,0,0,1,.23-.24l.27-.22.27.22c0,.22,0,.49-.06.81s0,.75,0,1.32v.6a5.59,5.59,0,0,0,.15,1.58c.1.29.27.43.51.43a.63.63,0,0,0,.58-.44,2.92,2.92,0,0,0,.21-1.24v-.84A4.27,4.27,0,0,0,133,43a.41.41,0,0,0-.4-.25v-.38a4.51,4.51,0,0,1,.53-.09,5.12,5.12,0,0,1,.56,0h.14a2.72,2.72,0,0,1,.24-.24A3,3,0,0,1,134.38,41.75Z"/><path class="cls-1" d="M136.91,40.63h.64v1.61l.95,0v.71l-.95,0v2.44a2.55,2.55,0,0,0,.16,1.06.52.52,0,0,0,.5.33.58.58,0,0,0,.3-.09,1,1,0,0,0,.3-.27l.18.39a2.13,2.13,0,0,1-.66.59,1.51,1.51,0,0,1-.78.2,1.2,1.2,0,0,1-1.11-.54,5,5,0,0,1-.32-2.19V42.89h-.47v-.48a1.24,1.24,0,0,0,.88-.52A2.65,2.65,0,0,0,136.91,40.63Z"/><path class="cls-1" d="M143.29,44.22h-2.23a.54.54,0,0,0-.34.08.49.49,0,0,0-.08.33,2.54,2.54,0,0,0,.42,1.49,1.25,1.25,0,0,0,1.06.6,1.43,1.43,0,0,0,.62-.16,1.94,1.94,0,0,0,.55-.45l.14.36a2.26,2.26,0,0,1-.86.82,2.59,2.59,0,0,1-1.22.29,1.89,1.89,0,0,1-1.58-.77,3.19,3.19,0,0,1-.6-2,3.49,3.49,0,0,1,.65-2.16,2,2,0,0,1,1.63-.85,1.69,1.69,0,0,1,1.33.61,2.2,2.2,0,0,1,.53,1.5.53.53,0,0,1,0,.12A1.79,1.79,0,0,1,143.29,44.22Zm-1.52-.49a.3.3,0,0,0,.2,0s0-.09,0-.19a1.6,1.6,0,0,0-.21-.83.62.62,0,0,0-.52-.35.54.54,0,0,0-.49.33,1.85,1.85,0,0,0-.19.88.57.57,0,0,0,0,.13v.08Z"/><path class="cls-1" d="M145.45,41.79l.21.19q0,.33-.06.63c0,.22,0,.42,0,.63l.1,0a2.87,2.87,0,0,1,.44-1.09.83.83,0,0,1,.68-.37.65.65,0,0,1,.51.22.84.84,0,0,1,.2.57,1.21,1.21,0,0,1-.14.55,1.67,1.67,0,0,1-.38.48,1.11,1.11,0,0,0-.26-.4.52.52,0,0,0-.34-.13.46.46,0,0,0-.44.33,3.39,3.39,0,0,0-.13,1.13v.57A4.15,4.15,0,0,0,146,46.7a.82.82,0,0,0,.67.35v.4a4.78,4.78,0,0,1-.76-.09,7.38,7.38,0,0,1-.78-.19,4.46,4.46,0,0,1-.67.18,4.84,4.84,0,0,1-.63.1v-.4a.53.53,0,0,0,.48-.31,5.33,5.33,0,0,0,.12-1.5v-1a4.06,4.06,0,0,0-.11-1.29.41.41,0,0,0-.42-.24h-.07v-.38a2.68,2.68,0,0,1,.46-.09c.17,0,.41,0,.7,0l0,0A3.83,3.83,0,0,1,145.45,41.79Z"/><path class="cls-1" d="M154.69,39.07l.31.17a2.33,2.33,0,0,1-.1.32,3.29,3.29,0,0,1-.16.33c0,.21,0,.41,0,.59s0,.35,0,.5v.31h-.4A3.12,3.12,0,0,0,154,40a.74.74,0,0,0-.64-.44.62.62,0,0,0-.54.31,1.47,1.47,0,0,0-.21.82,3.25,3.25,0,0,0,.64,1.73,17.67,17.67,0,0,0,2.1,2.5c0-.16.06-.29.08-.42a2.48,2.48,0,0,0-.25-1.44,1.42,1.42,0,0,0-.89-.51v-.37a5.9,5.9,0,0,1,.72.09,6.93,6.93,0,0,1,.75.2,7.7,7.7,0,0,1,.78-.21,5.46,5.46,0,0,1,.68-.08v.37a1.48,1.48,0,0,0-.72.29,1.67,1.67,0,0,0-.35.78c0,.05,0,.13-.05.25-.12.54-.24,1-.37,1.4A9.07,9.07,0,0,0,157,46.44a1.66,1.66,0,0,0,.89.34.69.69,0,0,0,.25,0,1.17,1.17,0,0,0,.24-.09l.14.35a2.23,2.23,0,0,1-.69.47,2,2,0,0,1-.77.16,2.12,2.12,0,0,1-.92-.23,5,5,0,0,1-1-.74,3.06,3.06,0,0,1-1,.7,2.88,2.88,0,0,1-1.17.24,2.27,2.27,0,0,1-1.68-.62,2.2,2.2,0,0,1-.63-1.65,2.35,2.35,0,0,1,.41-1.39,2.4,2.4,0,0,1,1.14-.87,3.15,3.15,0,0,1-.36-.82,3.3,3.3,0,0,1-.13-.89,2.4,2.4,0,0,1,.52-1.59,1.63,1.63,0,0,1,1.31-.62,2,2,0,0,1,.53.07l.33.06a.23.23,0,0,0,.15,0A.92.92,0,0,0,154.69,39.07Zm.06,7.25a15.74,15.74,0,0,1-1.49-1.71c-.51-.67-.83-1-1-1a.38.38,0,0,0-.34.22,1.11,1.11,0,0,0-.14.58,2.32,2.32,0,0,0,.62,1.56,1.86,1.86,0,0,0,1.43.71,1.26,1.26,0,0,0,.49-.09A1.18,1.18,0,0,0,154.75,46.32Z"/><path class="cls-1" d="M165.27,39.12l.37.07c0,.14,0,.28-.07.41s-.07.26-.11.4,0,.41.07.6,0,.37,0,.54v.29h-.39a2.4,2.4,0,0,0-.36-1.31,1,1,0,0,0-.87-.47.9.9,0,0,0-.72.32,1.27,1.27,0,0,0-.27.85c0,.57.49,1.13,1.46,1.66l.12.07a3.23,3.23,0,0,1,1.2,1,2.57,2.57,0,0,1,.35,1.41,2.73,2.73,0,0,1-.62,1.89,2.1,2.1,0,0,1-1.67.7,2.89,2.89,0,0,1-1-.18l-.5-.19a.18.18,0,0,0-.15.07.69.69,0,0,0-.1.21l-.33-.09c0-.14,0-.28.05-.43s.07-.35.12-.59a6.48,6.48,0,0,1-.1-.77,6.87,6.87,0,0,1,0-.79v-.15h.39a3.84,3.84,0,0,0,.5,1.76,1.25,1.25,0,0,0,1.07.62.94.94,0,0,0,.76-.35,1.4,1.4,0,0,0,.3-.93,1.43,1.43,0,0,0-.25-.85,3.94,3.94,0,0,0-1.2-.88A3.44,3.44,0,0,1,162,43a3,3,0,0,1,.21-3.19,1.92,1.92,0,0,1,1.54-.67,2.81,2.81,0,0,1,.79.12l.43.12a.28.28,0,0,0,.18-.06A.39.39,0,0,0,165.27,39.12Z"/><path class="cls-1" d="M168.46,38.83l.26.2c0,.29-.05.61-.06,1s0,.8,0,1.33v1.4a1.42,1.42,0,0,1,.52-.67,1.38,1.38,0,0,1,.81-.24,1.28,1.28,0,0,1,1.19.65,4.23,4.23,0,0,1,.38,2.05v.88a4.3,4.3,0,0,0,.12,1.33.53.53,0,0,0,.47.31v.4a2.55,2.55,0,0,1-.59-.07,4,4,0,0,1-.65-.2,3.14,3.14,0,0,1-.44.18,3.29,3.29,0,0,1-.43.09c0-.29,0-.65,0-1.1s0-1,0-1.58a5.56,5.56,0,0,0-.16-1.69.54.54,0,0,0-.55-.41.6.6,0,0,0-.56.43,3.67,3.67,0,0,0-.18,1.33v.9a4.25,4.25,0,0,0,.13,1.4.52.52,0,0,0,.47.32v.4a3.76,3.76,0,0,1-.65-.09,4,4,0,0,1-.66-.18l-.69.19a4.51,4.51,0,0,1-.6.08v-.4a.53.53,0,0,0,.48-.31,5.33,5.33,0,0,0,.12-1.5v-4a4.55,4.55,0,0,0-.1-1.29.45.45,0,0,0-.43-.24h-.07v-.39l.43-.05.37,0h.27l.28,0c.08-.09.15-.18.23-.26A2.46,2.46,0,0,1,168.46,38.83Z"/><path class="cls-1" d="M177.37,44.68a3.22,3.22,0,0,1-.67,2.1,2.37,2.37,0,0,1-3.55,0,3.58,3.58,0,0,1,0-4.2,2.36,2.36,0,0,1,3.55,0A3.18,3.18,0,0,1,177.37,44.68Zm-2.45-2.38c-.29,0-.51.2-.65.6a5.25,5.25,0,0,0-.23,1.77,5.38,5.38,0,0,0,.23,1.79c.14.4.36.6.65.6s.51-.2.67-.6a5.43,5.43,0,0,0,.22-1.79,5.33,5.33,0,0,0-.22-1.77C175.43,42.5,175.21,42.3,174.92,42.3Z"/><path class="cls-1" d="M179.52,41.79l.21.19c0,.22,0,.43-.07.63s0,.42,0,.63l.1,0a2.71,2.71,0,0,1,.44-1.09.82.82,0,0,1,.67-.37.67.67,0,0,1,.52.22.84.84,0,0,1,.2.57,1.21,1.21,0,0,1-.14.55,1.87,1.87,0,0,1-.38.48,1.11,1.11,0,0,0-.26-.4.52.52,0,0,0-.34-.13.46.46,0,0,0-.44.33,3.39,3.39,0,0,0-.13,1.13v.57a4.15,4.15,0,0,0,.17,1.56.8.8,0,0,0,.67.35v.4a4.78,4.78,0,0,1-.76-.09c-.26,0-.52-.11-.79-.19a4.34,4.34,0,0,1-.66.18,5.12,5.12,0,0,1-.63.1v-.4a.53.53,0,0,0,.48-.31,5.33,5.33,0,0,0,.12-1.5v-1a4.4,4.4,0,0,0-.11-1.29.41.41,0,0,0-.42-.24h-.07v-.38a2.5,2.5,0,0,1,.46-.09c.17,0,.41,0,.7,0l0,0C179.26,42,179.41,41.87,179.52,41.79Z"/><path class="cls-1" d="M183.17,40.63h.65v1.61l1,0v.71l-1,0v2.44a2.77,2.77,0,0,0,.15,1.06.53.53,0,0,0,.5.33.61.61,0,0,0,.31-.09,1.22,1.22,0,0,0,.3-.27l.17.39a2.1,2.1,0,0,1-.65.59,1.51,1.51,0,0,1-.78.2,1.18,1.18,0,0,1-1.11-.54,4.78,4.78,0,0,1-.33-2.19V42.89h-.47v-.48a1.26,1.26,0,0,0,.89-.52A2.54,2.54,0,0,0,183.17,40.63Z"/><path class="cls-1" d="M187.23,38.83l.26.2c0,.29-.05.61-.06,1s0,.8,0,1.33v1.4a1.42,1.42,0,0,1,.52-.67,1.38,1.38,0,0,1,.81-.24,1.28,1.28,0,0,1,1.19.65,4.25,4.25,0,0,1,.37,2.05v.88a4.3,4.3,0,0,0,.12,1.33.53.53,0,0,0,.48.31v.4a2.49,2.49,0,0,1-.59-.07,4,4,0,0,1-.66-.2,2.62,2.62,0,0,1-.43.18,3.43,3.43,0,0,1-.44.09c0-.29,0-.65.06-1.1s0-1,0-1.58a5.67,5.67,0,0,0-.15-1.69.55.55,0,0,0-.55-.41.59.59,0,0,0-.56.43,3.67,3.67,0,0,0-.18,1.33v.9a4.7,4.7,0,0,0,.12,1.4.54.54,0,0,0,.48.32v.4a3.76,3.76,0,0,1-.65-.09,4.46,4.46,0,0,1-.67-.18c-.25.08-.48.14-.69.19a4.3,4.3,0,0,1-.6.08v-.4a.53.53,0,0,0,.48-.31,5.33,5.33,0,0,0,.12-1.5v-4a4.06,4.06,0,0,0-.11-1.29.43.43,0,0,0-.42-.24h-.07v-.39l.43-.05.37,0h.26l.29,0a2.85,2.85,0,0,1,.23-.26A1.71,1.71,0,0,1,187.23,38.83Z"/><path class="cls-1" d="M195.29,44.17v1.11a4.36,4.36,0,0,0,.07,1q.07.24.27.24l.11,0,.14-.07.12.31a2,2,0,0,1-.53.57,1,1,0,0,1-.57.21.75.75,0,0,1-.57-.24,1.33,1.33,0,0,1-.28-.72,1.65,1.65,0,0,1-.62.71,1.63,1.63,0,0,1-.9.25,1.17,1.17,0,0,1-.91-.36,1.41,1.41,0,0,1-.33-1,1.46,1.46,0,0,1,.38-1.06,3.33,3.33,0,0,1,1.4-.64,1.46,1.46,0,0,0,.72-.29.89.89,0,0,0,.12-.54,3.16,3.16,0,0,0-.12-1.09.43.43,0,0,0-.43-.27.48.48,0,0,0-.41.21.89.89,0,0,0-.16.56c0,.1,0,.2,0,.31s.05.22.08.33a1.08,1.08,0,0,1-.3.16,1.29,1.29,0,0,1-.35.05.45.45,0,0,1-.39-.2.79.79,0,0,1-.15-.51,1.22,1.22,0,0,1,.51-1,2.16,2.16,0,0,1,1.34-.4,1.56,1.56,0,0,1,1.33.55A3.15,3.15,0,0,1,195.29,44.17Zm-1.4.54,0,0c-.72.29-1.08.69-1.08,1.19a.91.91,0,0,0,.15.54.42.42,0,0,0,.37.2.5.5,0,0,0,.46-.27,1.81,1.81,0,0,0,.15-.83Z"/><path class="cls-1" d="M198,41.78l.21.19c0,.14,0,.27,0,.41s0,.27,0,.41l.09,0a1.71,1.71,0,0,1,.56-.78,1.39,1.39,0,0,1,.85-.27,1.27,1.27,0,0,1,1.18.64,4.4,4.4,0,0,1,.37,2v.87a4.7,4.7,0,0,0,.12,1.4.57.57,0,0,0,.49.32v.39a2.46,2.46,0,0,1-.6-.07,3.77,3.77,0,0,1-.66-.2,2.82,2.82,0,0,1-.45.18l-.42.09c0-.31.05-.7.06-1.15s0-1,0-1.53A6.37,6.37,0,0,0,199.6,43a.57.57,0,0,0-.56-.42.61.61,0,0,0-.56.44,3.67,3.67,0,0,0-.19,1.33v1a4.69,4.69,0,0,0,.13,1.41.55.55,0,0,0,.48.32v.39a4.86,4.86,0,0,1-.64-.08,6.91,6.91,0,0,1-.67-.19c-.25.08-.48.14-.69.19a4.88,4.88,0,0,1-.61.08v-.39a.52.52,0,0,0,.47-.32,4.82,4.82,0,0,0,.13-1.5v-1a4.4,4.4,0,0,0-.11-1.29.42.42,0,0,0-.43-.24h-.06v-.4a4.44,4.44,0,0,1,.56-.1l.48,0h.2l.26-.26Z"/><path class="cls-1" d="M206.55,38.83l.26.2c0,.27-.05.57-.06.91s0,.8,0,1.4V45a4.11,4.11,0,0,0,.13,1.27c.08.25.22.37.42.37h.19l.05.43a3,3,0,0,1-.56.12,3.27,3.27,0,0,1-.54,0h-.28l-.22.17a2,2,0,0,0-.21.2l-.24-.19a3.37,3.37,0,0,1-.06-.36c0-.12,0-.25,0-.4a1.5,1.5,0,0,1-1.46,1,1.54,1.54,0,0,1-1.32-.73,3.44,3.44,0,0,1-.49-2,3.34,3.34,0,0,1,.67-2.18,2.16,2.16,0,0,1,1.76-.84,2.46,2.46,0,0,1,.4,0,1.65,1.65,0,0,1,.36.11V40.92a2.15,2.15,0,0,0-.13-.94.48.48,0,0,0-.48-.24h-.12v-.39l.43-.05.42,0h.31l.33,0c.08-.09.15-.18.23-.26A1.71,1.71,0,0,1,206.55,38.83Zm-1.24,4.09a.87.87,0,0,0-.27-.41.6.6,0,0,0-.39-.15.86.86,0,0,0-.76.5,3.19,3.19,0,0,0-.26,1.41,3.81,3.81,0,0,0,.3,1.67c.2.42.45.63.76.63a.53.53,0,0,0,.42-.2.92.92,0,0,0,.22-.53c0-.18,0-.36,0-.56s0-.47,0-.82Z"/><path class="cls-1" d="M210.52,39.07h.31a.24.24,0,0,0,.15.2,2.12,2.12,0,0,0,.56,0h3.51a1.87,1.87,0,0,0,.52,0,.24.24,0,0,0,.15-.2H216a2.53,2.53,0,0,1,0,.38c0,.13-.05.27-.08.41s.11.54.15.8.07.53.09.79h-.35a2.43,2.43,0,0,0-.35-1.1,1.1,1.1,0,0,0-.79-.4h-.57c0,.37,0,.74,0,1.12s0,.91,0,1.57v1.48c0,.85,0,1.43,0,1.74a2.4,2.4,0,0,0,.12.69.69.69,0,0,0,.28.33,1.74,1.74,0,0,0,.55.19v.38a6.4,6.4,0,0,1-.82-.09c-.29,0-.6-.13-.94-.22-.34.1-.65.17-.94.23a5,5,0,0,1-.83.08v-.38a1.72,1.72,0,0,0,.59-.18.67.67,0,0,0,.28-.34,2.38,2.38,0,0,0,.1-.61q0-.4,0-1.47v-2.4c0-.51,0-.92,0-1.22s0-.6,0-.9h-.59a.9.9,0,0,0-.77.34,2.38,2.38,0,0,0-.37,1.16h-.34a7.29,7.29,0,0,1,.08-.79c0-.26.09-.53.15-.8a2.66,2.66,0,0,1-.07-.39C210.54,39.34,210.53,39.21,210.52,39.07Z"/><path class="cls-1" d="M217.36,41.79l.21.19q0,.33-.06.63c0,.22,0,.42,0,.63l.1,0a2.71,2.71,0,0,1,.44-1.09.83.83,0,0,1,.68-.37.65.65,0,0,1,.51.22.84.84,0,0,1,.2.57,1.21,1.21,0,0,1-.14.55,1.67,1.67,0,0,1-.38.48,1.11,1.11,0,0,0-.26-.4.52.52,0,0,0-.34-.13.46.46,0,0,0-.44.33,3.39,3.39,0,0,0-.13,1.13v.57a4.15,4.15,0,0,0,.17,1.56.82.82,0,0,0,.67.35v.4a5,5,0,0,1-.77-.09,7.85,7.85,0,0,1-.77-.19,6.34,6.34,0,0,1-1.3.28v-.4a.53.53,0,0,0,.48-.31,5.33,5.33,0,0,0,.12-1.5v-1A4.4,4.4,0,0,0,216.2,43a.41.41,0,0,0-.42-.24h-.07v-.38a2.68,2.68,0,0,1,.46-.09c.17,0,.41,0,.7,0l0,0A4.94,4.94,0,0,1,217.36,41.79Z"/><path class="cls-1" d="M223.78,44.17v1.11a4.36,4.36,0,0,0,.07,1q.08.24.27.24l.11,0a.66.66,0,0,0,.15-.07l.11.31a2,2,0,0,1-.53.57,1,1,0,0,1-.56.21.75.75,0,0,1-.58-.24,1.33,1.33,0,0,1-.28-.72,1.65,1.65,0,0,1-.62.71,1.6,1.6,0,0,1-.9.25,1.17,1.17,0,0,1-.91-.36,1.41,1.41,0,0,1-.33-1,1.43,1.43,0,0,1,.39-1.06,3.21,3.21,0,0,1,1.39-.64,1.46,1.46,0,0,0,.72-.29.89.89,0,0,0,.12-.54,3.16,3.16,0,0,0-.12-1.09.44.44,0,0,0-.43-.27.48.48,0,0,0-.41.21.89.89,0,0,0-.16.56,1.71,1.71,0,0,0,0,.31,2.17,2.17,0,0,0,.07.33,1.08,1.08,0,0,1-.3.16,1.23,1.23,0,0,1-.35.05.51.51,0,0,1-.4-.2.86.86,0,0,1-.14-.51,1.22,1.22,0,0,1,.51-1,2.16,2.16,0,0,1,1.34-.4,1.56,1.56,0,0,1,1.33.55A3.15,3.15,0,0,1,223.78,44.17Zm-1.4.54,0,0c-.72.29-1.08.69-1.08,1.19a.91.91,0,0,0,.15.54.42.42,0,0,0,.37.2.49.49,0,0,0,.46-.27,1.81,1.81,0,0,0,.15-.83Z"/><path class="cls-1" d="M226.68,41.78l.25.21a6.83,6.83,0,0,0-.06.69c0,.25,0,.59,0,1v1.75a3.68,3.68,0,0,0,.13,1.3.61.61,0,0,0,.53.31v.4a4.06,4.06,0,0,1-.69-.08,5.24,5.24,0,0,1-.69-.2,4.35,4.35,0,0,1-.72.2,3.13,3.13,0,0,1-.66.08v-.4a.6.6,0,0,0,.54-.3,4.32,4.32,0,0,0,.14-1.44V44.16a3.87,3.87,0,0,0-.11-1.21.41.41,0,0,0-.43-.23h-.05v-.38l.53-.1.44,0h.36a2.5,2.5,0,0,1,.23-.23A2,2,0,0,1,226.68,41.78ZM226,39.17a.63.63,0,0,1,.52.29,1.17,1.17,0,0,1,.21.71,1.14,1.14,0,0,1-.21.7.61.61,0,0,1-.52.3.62.62,0,0,1-.51-.29,1.31,1.31,0,0,1,0-1.42A.62.62,0,0,1,226,39.17Z"/><path class="cls-1" d="M229.6,41.78l.21.19c0,.14,0,.27,0,.41s0,.27,0,.41l.09,0a1.71,1.71,0,0,1,.56-.78,1.37,1.37,0,0,1,.85-.27,1.25,1.25,0,0,1,1.17.64,4.27,4.27,0,0,1,.37,2v.87a4.56,4.56,0,0,0,.13,1.4.54.54,0,0,0,.48.32v.39a2.58,2.58,0,0,1-.6-.07,3.77,3.77,0,0,1-.66-.2,2.72,2.72,0,0,1-.44.18l-.42.09c0-.31,0-.7.06-1.15s0-1,0-1.53a6.37,6.37,0,0,0-.15-1.75.57.57,0,0,0-.56-.42.6.6,0,0,0-.56.44,3.46,3.46,0,0,0-.19,1.33v1a4.37,4.37,0,0,0,.13,1.41.54.54,0,0,0,.48.32v.39a4.66,4.66,0,0,1-.64-.08,6.19,6.19,0,0,1-.67-.19c-.25.08-.48.14-.7.19a4.51,4.51,0,0,1-.6.08v-.39a.52.52,0,0,0,.48-.32,5.33,5.33,0,0,0,.12-1.5v-1a4.55,4.55,0,0,0-.1-1.29.43.43,0,0,0-.43-.24h-.07v-.4a5.18,5.18,0,0,1,.56-.1l.48,0h.21l.25-.26Z"/><path class="cls-1" d="M235.61,41.78l.25.21c0,.21,0,.44-.05.69s0,.59,0,1v1.75a3.68,3.68,0,0,0,.13,1.3.62.62,0,0,0,.53.31v.4a3.83,3.83,0,0,1-.68-.08,5,5,0,0,1-.7-.2,4.35,4.35,0,0,1-.72.2,3,3,0,0,1-.65.08v-.4a.59.59,0,0,0,.53-.3,4.32,4.32,0,0,0,.14-1.44V44.16a3.87,3.87,0,0,0-.11-1.21.41.41,0,0,0-.43-.23h0v-.38l.53-.1.43,0h.36a2.5,2.5,0,0,1,.23-.23A2.88,2.88,0,0,1,235.61,41.78ZM235,39.17a.62.62,0,0,1,.51.29,1.17,1.17,0,0,1,.21.71,1.14,1.14,0,0,1-.21.7.61.61,0,0,1-.51.3.63.63,0,0,1-.52-.29,1.31,1.31,0,0,1,0-1.42A.63.63,0,0,1,235,39.17Z"/><path class="cls-1" d="M238.53,41.78l.21.19c0,.14,0,.27,0,.41s0,.27,0,.41l.09,0a1.71,1.71,0,0,1,.56-.78,1.37,1.37,0,0,1,.85-.27,1.24,1.24,0,0,1,1.17.64,4.26,4.26,0,0,1,.38,2v.87a4.7,4.7,0,0,0,.12,1.4.57.57,0,0,0,.48.32v.39a2.58,2.58,0,0,1-.6-.07,4.37,4.37,0,0,1-.66-.2,2.72,2.72,0,0,1-.44.18l-.42.09c0-.31,0-.7.06-1.15s0-1,0-1.53a6.37,6.37,0,0,0-.15-1.75.57.57,0,0,0-.56-.42A.6.6,0,0,0,239,43a3.46,3.46,0,0,0-.19,1.33v1a4.69,4.69,0,0,0,.13,1.41.54.54,0,0,0,.48.32v.39a4.66,4.66,0,0,1-.64-.08,6.19,6.19,0,0,1-.67-.19c-.25.08-.48.14-.7.19a4.51,4.51,0,0,1-.6.08v-.39a.52.52,0,0,0,.48-.32,5.18,5.18,0,0,0,.13-1.5v-1a4.4,4.4,0,0,0-.11-1.29.43.43,0,0,0-.43-.24h-.07v-.4a4.92,4.92,0,0,1,.57-.1l.47,0h.21c.09-.1.18-.18.26-.26A1.27,1.27,0,0,1,238.53,41.78Z"/><path class="cls-1" d="M247.33,42l-.11.68a.31.31,0,0,1-.14.26.76.76,0,0,1-.39.08h-.16a1.9,1.9,0,0,1,.15.46,2.59,2.59,0,0,1,0,.48,2.29,2.29,0,0,1-.48,1.5,1.88,1.88,0,0,1-1.31.67h-.16q-.54,0-.54.39c0,.26.31.44.93.53l.11,0a3,3,0,0,1,1.54.56,1.52,1.52,0,0,1,.42,1.17,1.92,1.92,0,0,1-.7,1.54,2.66,2.66,0,0,1-1.8.6,2.7,2.7,0,0,1-1.58-.41,1.3,1.3,0,0,1-.56-1.13,1.2,1.2,0,0,1,.36-.93,1.78,1.78,0,0,1,1.07-.41v-.11a1.13,1.13,0,0,1-.68-.3.89.89,0,0,1-.24-.64.87.87,0,0,1,.25-.64,1.22,1.22,0,0,1,.7-.34V46a1.64,1.64,0,0,1-.92-.69,2.15,2.15,0,0,1-.34-1.24,2.27,2.27,0,0,1,.52-1.57,1.74,1.74,0,0,1,1.38-.59,3.13,3.13,0,0,1,.92.16,3.09,3.09,0,0,0,.56.16,2,2,0,0,0,.44-.05C246.78,42.12,247,42.06,247.33,42ZM246,49.33a.86.86,0,0,0-.32-.71,1.39,1.39,0,0,0-.89-.26,1.25,1.25,0,0,0-.84.27,1,1,0,0,0-.3.74,1,1,0,0,0,.29.75,1.13,1.13,0,0,0,.81.28,1.33,1.33,0,0,0,.91-.3A1,1,0,0,0,246,49.33Zm-1.24-6.94a.52.52,0,0,0-.49.36,2.75,2.75,0,0,0-.16,1.09,4,4,0,0,0,.17,1.3q.18.45.51.45a.5.5,0,0,0,.47-.36,2.71,2.71,0,0,0,.17-1.07,4,4,0,0,0-.17-1.32C245.18,42.54,245,42.39,244.79,42.39Z"/><path class="cls-1" d="M255.92,39.19l.27.14a4.47,4.47,0,0,1-.09.45,2.64,2.64,0,0,1-.12.4c0,.29.06.56.07.81s0,.47,0,.68v.15h-.42a3.17,3.17,0,0,0-.5-1.62,1.35,1.35,0,0,0-1.11-.55,1.61,1.61,0,0,0-1.43,1,5.39,5.39,0,0,0-.53,2.62,5.68,5.68,0,0,0,.55,2.75,1.7,1.7,0,0,0,1.53,1,1.4,1.4,0,0,0,1.11-.47,2.43,2.43,0,0,0,.55-1.36h.41c0,.2-.05.4-.08.61s-.07.43-.11.67,0,.18.06.26a2.34,2.34,0,0,1,0,.26,3.4,3.4,0,0,1-1,.46,3.75,3.75,0,0,1-1.16.17,3.44,3.44,0,0,1-2.71-1.11,4.4,4.4,0,0,1-1-3,4.71,4.71,0,0,1,1-3.16A3.32,3.32,0,0,1,254,39.12a4.3,4.3,0,0,1,1,.13,4.64,4.64,0,0,0,.64.13.2.2,0,0,0,.13,0A1,1,0,0,0,255.92,39.19Z"/><path class="cls-1" d="M261,44.22H258.8a.49.49,0,0,0-.33.08c-.06.05-.08.16-.08.33a2.54,2.54,0,0,0,.41,1.49,1.25,1.25,0,0,0,1.06.6,1.43,1.43,0,0,0,.62-.16,1.94,1.94,0,0,0,.55-.45l.14.36a2.26,2.26,0,0,1-.86.82,2.57,2.57,0,0,1-1.21.29,1.9,1.9,0,0,1-1.59-.77,3.19,3.19,0,0,1-.6-2,3.49,3.49,0,0,1,.65-2.16,2,2,0,0,1,1.63-.85,1.69,1.69,0,0,1,1.33.61,2.2,2.2,0,0,1,.53,1.5V44C261,44.06,261,44.13,261,44.22Zm-1.52-.49a.3.3,0,0,0,.2,0,.27.27,0,0,0,.05-.19,1.6,1.6,0,0,0-.22-.83.63.63,0,0,0-.52-.35.55.55,0,0,0-.49.33,1.86,1.86,0,0,0-.18.88v.21Z"/><path class="cls-1" d="M263.25,41.78l.21.19c0,.14,0,.27,0,.41l0,.41.1,0a1.64,1.64,0,0,1,.56-.78,1.36,1.36,0,0,1,.84-.27,1.26,1.26,0,0,1,1.18.64,4.27,4.27,0,0,1,.37,2v.87a4.56,4.56,0,0,0,.13,1.4.55.55,0,0,0,.48.32v.39a2.58,2.58,0,0,1-.6-.07,3.77,3.77,0,0,1-.66-.2,2.72,2.72,0,0,1-.44.18l-.42.09c0-.31,0-.7.06-1.15s0-1,0-1.53a6.37,6.37,0,0,0-.15-1.75.57.57,0,0,0-.56-.42.6.6,0,0,0-.56.44,3.46,3.46,0,0,0-.19,1.33v1a4.37,4.37,0,0,0,.13,1.41.54.54,0,0,0,.48.32v.39a4.66,4.66,0,0,1-.64-.08,6.19,6.19,0,0,1-.67-.19c-.25.08-.48.14-.7.19a4.51,4.51,0,0,1-.6.08v-.39a.52.52,0,0,0,.48-.32,5.33,5.33,0,0,0,.12-1.5v-1A4.55,4.55,0,0,0,262,43a.44.44,0,0,0-.43-.24h-.07v-.4a4.78,4.78,0,0,1,.56-.1l.48,0h.21l.25-.26Z"/><path class="cls-1" d="M268.65,40.63h.65v1.61l.95,0v.71l-.95,0v2.44a2.77,2.77,0,0,0,.15,1.06.53.53,0,0,0,.5.33.59.59,0,0,0,.31-.09,1.22,1.22,0,0,0,.3-.27l.17.39a2,2,0,0,1-.65.59,1.51,1.51,0,0,1-.78.2,1.18,1.18,0,0,1-1.11-.54,4.81,4.81,0,0,1-.32-2.19V42.89h-.47v-.48a1.24,1.24,0,0,0,.88-.52A2.54,2.54,0,0,0,268.65,40.63Z"/><path class="cls-1" d="M275,44.22H272.8a.53.53,0,0,0-.33.08.49.49,0,0,0-.08.33,2.54,2.54,0,0,0,.42,1.49,1.23,1.23,0,0,0,1.05.6,1.39,1.39,0,0,0,.62-.16,2,2,0,0,0,.56-.45l.14.36a2.26,2.26,0,0,1-.86.82,2.61,2.61,0,0,1-1.22.29,1.88,1.88,0,0,1-1.58-.77,3.19,3.19,0,0,1-.6-2,3.43,3.43,0,0,1,.65-2.16,2,2,0,0,1,1.62-.85,1.66,1.66,0,0,1,1.33.61,2.16,2.16,0,0,1,.54,1.5s0,.08,0,.12A1.79,1.79,0,0,1,275,44.22Zm-1.52-.49a.3.3,0,0,0,.2,0s0-.09,0-.19a1.6,1.6,0,0,0-.21-.83.63.63,0,0,0-.52-.35.54.54,0,0,0-.49.33,1.74,1.74,0,0,0-.19.88.57.57,0,0,0,0,.13v.08Z"/><path class="cls-1" d="M277.2,41.79l.2.19q0,.33-.06.63c0,.22,0,.42,0,.63l.1,0a2.71,2.71,0,0,1,.44-1.09.82.82,0,0,1,.67-.37.67.67,0,0,1,.52.22.84.84,0,0,1,.19.57,1.2,1.2,0,0,1-.13.55,1.67,1.67,0,0,1-.38.48,1.11,1.11,0,0,0-.26-.4.52.52,0,0,0-.34-.13.46.46,0,0,0-.44.33,3.39,3.39,0,0,0-.13,1.13v.57a4.15,4.15,0,0,0,.17,1.56.8.8,0,0,0,.66.35v.4a5.07,5.07,0,0,1-.76-.09c-.25,0-.51-.11-.78-.19a4.68,4.68,0,0,1-.66.18,5,5,0,0,1-.64.1v-.4a.53.53,0,0,0,.48-.31,5.33,5.33,0,0,0,.12-1.5v-1A4.4,4.4,0,0,0,276,43a.41.41,0,0,0-.42-.24h-.07v-.38a2.5,2.5,0,0,1,.46-.09c.17,0,.41,0,.7,0l0,0A4.81,4.81,0,0,1,277.2,41.79Z"/><text class="cls-2" transform="translate(1.83 34.07) scale(0.91 1)">hye Dbœqb Kw¤úDUvi I kU©n¨vÛ cÖwkÿY †K›`ª</text></g></g></svg>