<?xml version="1.0" encoding="utf-8"?>
<!-- Generator: Adobe Illustrator 24.1.2, SVG Export Plug-In . SVG Version: 6.00 Build 0)  -->
<svg version="1.1" id="Layer_1" xmlns="http://www.w3.org/2000/svg" xmlns:xlink="http://www.w3.org/1999/xlink" x="0px" y="0px"
	 viewBox="0 0 820.8 604.8" style="enable-background:new 0 0 820.8 604.8;" xml:space="preserve">
<style type="text/css">
	.st0{clip-path:url(#SVGID_2_);}
	.st1{fill:none;stroke:#F8F8F0;stroke-width:1.3277;stroke-miterlimit:10;}
</style>
<g>
	<g>
		<defs>
			<path id="SVGID_1_" d="M0,0v604.8h820.8V0H0z"/>
		</defs>
		<use xlink:href="#SVGID_1_"  style="overflow:visible;fill:#F1F1E3;"/>
		<clipPath id="SVGID_2_">
			<use xlink:href="#SVGID_1_"  style="overflow:visible;"/>
		</clipPath>
		<g class="st0">
			<path class="st1" d="M0,614.9c10.8,0,10.8,5.4,21.6,5.4c10.8,0,10.8-5.4,21.6-5.4c10.8,0,10.8,5.4,21.6,5.4
				c10.8,0,10.8-5.4,21.6-5.4c10.8,0,10.8,5.4,21.6,5.4c10.8,0,10.8-5.4,21.6-5.4c10.8,0,10.8,5.4,21.6,5.4
				c10.8,0,10.8-5.4,21.6-5.4c10.8,0,10.8,5.4,21.6,5.4c10.8,0,10.8-5.4,21.6-5.4c10.8,0,10.8,5.4,21.6,5.4
				c10.8,0,10.8-5.4,21.6-5.4c10.8,0,10.8,5.4,21.6,5.4c10.8,0,10.8-5.4,21.6-5.4c10.8,0,10.8,5.4,21.6,5.4
				c10.8,0,10.8-5.4,21.6-5.4c10.8,0,10.8,5.4,21.6,5.4c10.8,0,10.8-5.4,21.6-5.4c10.8,0,10.8,5.4,21.6,5.4
				c10.8,0,10.8-5.4,21.6-5.4c10.8,0,10.8,5.4,21.6,5.4c10.8,0,10.8-5.4,21.6-5.4c10.8,0,10.8,5.4,21.6,5.4
				c10.8,0,10.8-5.4,21.6-5.4c10.8,0,10.8,5.4,21.6,5.4c10.8,0,10.8-5.4,21.6-5.4c10.8,0,10.8,5.4,21.6,5.4
				c10.8,0,10.8-5.4,21.6-5.4c10.8,0,10.8,5.4,21.6,5.4c10.8,0,10.8-5.4,21.6-5.4c10.8,0,10.8,5.4,21.6,5.4
				c10.8,0,10.8-5.4,21.6-5.4c10.8,0,10.8,5.4,21.6,5.4c10.8,0,10.8-5.4,21.6-5.4c10.8,0,10.8,5.4,21.6,5.4
				c10.8,0,10.8-5.4,21.6-5.4c10.8,0,10.8,5.4,21.6,5.4s10.8-5.4,21.6-5.4"/>
			<path class="st1" d="M0,608.2c10.8,0,10.8,5.4,21.6,5.4c10.8,0,10.8-5.4,21.6-5.4c10.8,0,10.8,5.4,21.6,5.4
				c10.8,0,10.8-5.4,21.6-5.4c10.8,0,10.8,5.4,21.6,5.4c10.8,0,10.8-5.4,21.6-5.4c10.8,0,10.8,5.4,21.6,5.4
				c10.8,0,10.8-5.4,21.6-5.4c10.8,0,10.8,5.4,21.6,5.4c10.8,0,10.8-5.4,21.6-5.4c10.8,0,10.8,5.4,21.6,5.4
				c10.8,0,10.8-5.4,21.6-5.4c10.8,0,10.8,5.4,21.6,5.4c10.8,0,10.8-5.4,21.6-5.4c10.8,0,10.8,5.4,21.6,5.4
				c10.8,0,10.8-5.4,21.6-5.4c10.8,0,10.8,5.4,21.6,5.4c10.8,0,10.8-5.4,21.6-5.4c10.8,0,10.8,5.4,21.6,5.4
				c10.8,0,10.8-5.4,21.6-5.4c10.8,0,10.8,5.4,21.6,5.4c10.8,0,10.8-5.4,21.6-5.4c10.8,0,10.8,5.4,21.6,5.4
				c10.8,0,10.8-5.4,21.6-5.4c10.8,0,10.8,5.4,21.6,5.4c10.8,0,10.8-5.4,21.6-5.4c10.8,0,10.8,5.4,21.6,5.4
				c10.8,0,10.8-5.4,21.6-5.4c10.8,0,10.8,5.4,21.6,5.4c10.8,0,10.8-5.4,21.6-5.4c10.8,0,10.8,5.4,21.6,5.4
				c10.8,0,10.8-5.4,21.6-5.4c10.8,0,10.8,5.4,21.6,5.4c10.8,0,10.8-5.4,21.6-5.4c10.8,0,10.8,5.4,21.6,5.4
				c10.8,0,10.8-5.4,21.6-5.4c10.8,0,10.8,5.4,21.6,5.4s10.8-5.4,21.6-5.4"/>
			<path class="st1" d="M0,601.5c10.8,0,10.8,5.4,21.6,5.4c10.8,0,10.8-5.4,21.6-5.4c10.8,0,10.8,5.4,21.6,5.4
				c10.8,0,10.8-5.4,21.6-5.4c10.8,0,10.8,5.4,21.6,5.4c10.8,0,10.8-5.4,21.6-5.4c10.8,0,10.8,5.4,21.6,5.4
				c10.8,0,10.8-5.4,21.6-5.4c10.8,0,10.8,5.4,21.6,5.4c10.8,0,10.8-5.4,21.6-5.4c10.8,0,10.8,5.4,21.6,5.4
				c10.8,0,10.8-5.4,21.6-5.4c10.8,0,10.8,5.4,21.6,5.4c10.8,0,10.8-5.4,21.6-5.4c10.8,0,10.8,5.4,21.6,5.4
				c10.8,0,10.8-5.4,21.6-5.4c10.8,0,10.8,5.4,21.6,5.4c10.8,0,10.8-5.4,21.6-5.4c10.8,0,10.8,5.4,21.6,5.4
				c10.8,0,10.8-5.4,21.6-5.4c10.8,0,10.8,5.4,21.6,5.4c10.8,0,10.8-5.4,21.6-5.4c10.8,0,10.8,5.4,21.6,5.4
				c10.8,0,10.8-5.4,21.6-5.4c10.8,0,10.8,5.4,21.6,5.4c10.8,0,10.8-5.4,21.6-5.4c10.8,0,10.8,5.4,21.6,5.4
				c10.8,0,10.8-5.4,21.6-5.4c10.8,0,10.8,5.4,21.6,5.4c10.8,0,10.8-5.4,21.6-5.4c10.8,0,10.8,5.4,21.6,5.4
				c10.8,0,10.8-5.4,21.6-5.4c10.8,0,10.8,5.4,21.6,5.4c10.8,0,10.8-5.4,21.6-5.4c10.8,0,10.8,5.4,21.6,5.4
				c10.8,0,10.8-5.4,21.6-5.4c10.8,0,10.8,5.4,21.6,5.4s10.8-5.4,21.6-5.4"/>
			<path class="st1" d="M0,594.7c10.8,0,10.8,5.4,21.6,5.4c10.8,0,10.8-5.4,21.6-5.4c10.8,0,10.8,5.4,21.6,5.4
				c10.8,0,10.8-5.4,21.6-5.4c10.8,0,10.8,5.4,21.6,5.4c10.8,0,10.8-5.4,21.6-5.4c10.8,0,10.8,5.4,21.6,5.4
				c10.8,0,10.8-5.4,21.6-5.4c10.8,0,10.8,5.4,21.6,5.4c10.8,0,10.8-5.4,21.6-5.4c10.8,0,10.8,5.4,21.6,5.4
				c10.8,0,10.8-5.4,21.6-5.4c10.8,0,10.8,5.4,21.6,5.4c10.8,0,10.8-5.4,21.6-5.4c10.8,0,10.8,5.4,21.6,5.4
				c10.8,0,10.8-5.4,21.6-5.4c10.8,0,10.8,5.4,21.6,5.4c10.8,0,10.8-5.4,21.6-5.4c10.8,0,10.8,5.4,21.6,5.4
				c10.8,0,10.8-5.4,21.6-5.4c10.8,0,10.8,5.4,21.6,5.4c10.8,0,10.8-5.4,21.6-5.4c10.8,0,10.8,5.4,21.6,5.4
				c10.8,0,10.8-5.4,21.6-5.4c10.8,0,10.8,5.4,21.6,5.4c10.8,0,10.8-5.4,21.6-5.4c10.8,0,10.8,5.4,21.6,5.4
				c10.8,0,10.8-5.4,21.6-5.4c10.8,0,10.8,5.4,21.6,5.4c10.8,0,10.8-5.4,21.6-5.4c10.8,0,10.8,5.4,21.6,5.4
				c10.8,0,10.8-5.4,21.6-5.4c10.8,0,10.8,5.4,21.6,5.4c10.8,0,10.8-5.4,21.6-5.4c10.8,0,10.8,5.4,21.6,5.4
				c10.8,0,10.8-5.4,21.6-5.4c10.8,0,10.8,5.4,21.6,5.4s10.8-5.4,21.6-5.4"/>
			<path class="st1" d="M0,588c10.8,0,10.8,5.4,21.6,5.4c10.8,0,10.8-5.4,21.6-5.4c10.8,0,10.8,5.4,21.6,5.4
				c10.8,0,10.8-5.4,21.6-5.4c10.8,0,10.8,5.4,21.6,5.4c10.8,0,10.8-5.4,21.6-5.4c10.8,0,10.8,5.4,21.6,5.4
				c10.8,0,10.8-5.4,21.6-5.4c10.8,0,10.8,5.4,21.6,5.4c10.8,0,10.8-5.4,21.6-5.4c10.8,0,10.8,5.4,21.6,5.4
				c10.8,0,10.8-5.4,21.6-5.4c10.8,0,10.8,5.4,21.6,5.4c10.8,0,10.8-5.4,21.6-5.4c10.8,0,10.8,5.4,21.6,5.4
				c10.8,0,10.8-5.4,21.6-5.4c10.8,0,10.8,5.4,21.6,5.4c10.8,0,10.8-5.4,21.6-5.4c10.8,0,10.8,5.4,21.6,5.4
				c10.8,0,10.8-5.4,21.6-5.4c10.8,0,10.8,5.4,21.6,5.4c10.8,0,10.8-5.4,21.6-5.4c10.8,0,10.8,5.4,21.6,5.4
				c10.8,0,10.8-5.4,21.6-5.4c10.8,0,10.8,5.4,21.6,5.4c10.8,0,10.8-5.4,21.6-5.4c10.8,0,10.8,5.4,21.6,5.4
				c10.8,0,10.8-5.4,21.6-5.4c10.8,0,10.8,5.4,21.6,5.4c10.8,0,10.8-5.4,21.6-5.4c10.8,0,10.8,5.4,21.6,5.4
				c10.8,0,10.8-5.4,21.6-5.4c10.8,0,10.8,5.4,21.6,5.4c10.8,0,10.8-5.4,21.6-5.4c10.8,0,10.8,5.4,21.6,5.4
				c10.8,0,10.8-5.4,21.6-5.4c10.8,0,10.8,5.4,21.6,5.4s10.8-5.4,21.6-5.4"/>
			<path class="st1" d="M0,581.3c10.8,0,10.8,5.4,21.6,5.4c10.8,0,10.8-5.4,21.6-5.4c10.8,0,10.8,5.4,21.6,5.4
				c10.8,0,10.8-5.4,21.6-5.4c10.8,0,10.8,5.4,21.6,5.4c10.8,0,10.8-5.4,21.6-5.4c10.8,0,10.8,5.4,21.6,5.4
				c10.8,0,10.8-5.4,21.6-5.4c10.8,0,10.8,5.4,21.6,5.4c10.8,0,10.8-5.4,21.6-5.4c10.8,0,10.8,5.4,21.6,5.4
				c10.8,0,10.8-5.4,21.6-5.4c10.8,0,10.8,5.4,21.6,5.4c10.8,0,10.8-5.4,21.6-5.4c10.8,0,10.8,5.4,21.6,5.4
				c10.8,0,10.8-5.4,21.6-5.4c10.8,0,10.8,5.4,21.6,5.4c10.8,0,10.8-5.4,21.6-5.4c10.8,0,10.8,5.4,21.6,5.4
				c10.8,0,10.8-5.4,21.6-5.4c10.8,0,10.8,5.4,21.6,5.4c10.8,0,10.8-5.4,21.6-5.4c10.8,0,10.8,5.4,21.6,5.4
				c10.8,0,10.8-5.4,21.6-5.4c10.8,0,10.8,5.4,21.6,5.4c10.8,0,10.8-5.4,21.6-5.4c10.8,0,10.8,5.4,21.6,5.4
				c10.8,0,10.8-5.4,21.6-5.4c10.8,0,10.8,5.4,21.6,5.4c10.8,0,10.8-5.4,21.6-5.4c10.8,0,10.8,5.4,21.6,5.4
				c10.8,0,10.8-5.4,21.6-5.4c10.8,0,10.8,5.4,21.6,5.4c10.8,0,10.8-5.4,21.6-5.4c10.8,0,10.8,5.4,21.6,5.4
				c10.8,0,10.8-5.4,21.6-5.4c10.8,0,10.8,5.4,21.6,5.4s10.8-5.4,21.6-5.4"/>
			<path class="st1" d="M0,574.6c10.8,0,10.8,5.4,21.6,5.4c10.8,0,10.8-5.4,21.6-5.4c10.8,0,10.8,5.4,21.6,5.4
				c10.8,0,10.8-5.4,21.6-5.4c10.8,0,10.8,5.4,21.6,5.4c10.8,0,10.8-5.4,21.6-5.4c10.8,0,10.8,5.4,21.6,5.4
				c10.8,0,10.8-5.4,21.6-5.4c10.8,0,10.8,5.4,21.6,5.4c10.8,0,10.8-5.4,21.6-5.4c10.8,0,10.8,5.4,21.6,5.4
				c10.8,0,10.8-5.4,21.6-5.4c10.8,0,10.8,5.4,21.6,5.4c10.8,0,10.8-5.4,21.6-5.4c10.8,0,10.8,5.4,21.6,5.4
				c10.8,0,10.8-5.4,21.6-5.4c10.8,0,10.8,5.4,21.6,5.4c10.8,0,10.8-5.4,21.6-5.4c10.8,0,10.8,5.4,21.6,5.4
				c10.8,0,10.8-5.4,21.6-5.4c10.8,0,10.8,5.4,21.6,5.4c10.8,0,10.8-5.4,21.6-5.4c10.8,0,10.8,5.4,21.6,5.4
				c10.8,0,10.8-5.4,21.6-5.4c10.8,0,10.8,5.4,21.6,5.4c10.8,0,10.8-5.4,21.6-5.4c10.8,0,10.8,5.4,21.6,5.4
				c10.8,0,10.8-5.4,21.6-5.4c10.8,0,10.8,5.4,21.6,5.4c10.8,0,10.8-5.4,21.6-5.4c10.8,0,10.8,5.4,21.6,5.4
				c10.8,0,10.8-5.4,21.6-5.4c10.8,0,10.8,5.4,21.6,5.4c10.8,0,10.8-5.4,21.6-5.4c10.8,0,10.8,5.4,21.6,5.4
				c10.8,0,10.8-5.4,21.6-5.4c10.8,0,10.8,5.4,21.6,5.4s10.8-5.4,21.6-5.4"/>
			<path class="st1" d="M0,567.9c10.8,0,10.8,5.4,21.6,5.4c10.8,0,10.8-5.4,21.6-5.4c10.8,0,10.8,5.4,21.6,5.4
				c10.8,0,10.8-5.4,21.6-5.4c10.8,0,10.8,5.4,21.6,5.4c10.8,0,10.8-5.4,21.6-5.4c10.8,0,10.8,5.4,21.6,5.4
				c10.8,0,10.8-5.4,21.6-5.4c10.8,0,10.8,5.4,21.6,5.4c10.8,0,10.8-5.4,21.6-5.4c10.8,0,10.8,5.4,21.6,5.4
				c10.8,0,10.8-5.4,21.6-5.4c10.8,0,10.8,5.4,21.6,5.4c10.8,0,10.8-5.4,21.6-5.4c10.8,0,10.8,5.4,21.6,5.4
				c10.8,0,10.8-5.4,21.6-5.4c10.8,0,10.8,5.4,21.6,5.4c10.8,0,10.8-5.4,21.6-5.4c10.8,0,10.8,5.4,21.6,5.4
				c10.8,0,10.8-5.4,21.6-5.4c10.8,0,10.8,5.4,21.6,5.4c10.8,0,10.8-5.4,21.6-5.4c10.8,0,10.8,5.4,21.6,5.4
				c10.8,0,10.8-5.4,21.6-5.4c10.8,0,10.8,5.4,21.6,5.4c10.8,0,10.8-5.4,21.6-5.4c10.8,0,10.8,5.4,21.6,5.4
				c10.8,0,10.8-5.4,21.6-5.4c10.8,0,10.8,5.4,21.6,5.4c10.8,0,10.8-5.4,21.6-5.4c10.8,0,10.8,5.4,21.6,5.4
				c10.8,0,10.8-5.4,21.6-5.4c10.8,0,10.8,5.4,21.6,5.4c10.8,0,10.8-5.4,21.6-5.4c10.8,0,10.8,5.4,21.6,5.4
				c10.8,0,10.8-5.4,21.6-5.4c10.8,0,10.8,5.4,21.6,5.4s10.8-5.4,21.6-5.4"/>
			<path class="st1" d="M0,561.2c10.8,0,10.8,5.4,21.6,5.4c10.8,0,10.8-5.4,21.6-5.4c10.8,0,10.8,5.4,21.6,5.4
				c10.8,0,10.8-5.4,21.6-5.4c10.8,0,10.8,5.4,21.6,5.4c10.8,0,10.8-5.4,21.6-5.4c10.8,0,10.8,5.4,21.6,5.4
				c10.8,0,10.8-5.4,21.6-5.4c10.8,0,10.8,5.4,21.6,5.4c10.8,0,10.8-5.4,21.6-5.4c10.8,0,10.8,5.4,21.6,5.4
				c10.8,0,10.8-5.4,21.6-5.4c10.8,0,10.8,5.4,21.6,5.4c10.8,0,10.8-5.4,21.6-5.4c10.8,0,10.8,5.4,21.6,5.4
				c10.8,0,10.8-5.4,21.6-5.4c10.8,0,10.8,5.4,21.6,5.4c10.8,0,10.8-5.4,21.6-5.4c10.8,0,10.8,5.4,21.6,5.4
				c10.8,0,10.8-5.4,21.6-5.4c10.8,0,10.8,5.4,21.6,5.4c10.8,0,10.8-5.4,21.6-5.4c10.8,0,10.8,5.4,21.6,5.4
				c10.8,0,10.8-5.4,21.6-5.4c10.8,0,10.8,5.4,21.6,5.4c10.8,0,10.8-5.4,21.6-5.4c10.8,0,10.8,5.4,21.6,5.4
				c10.8,0,10.8-5.4,21.6-5.4c10.8,0,10.8,5.4,21.6,5.4c10.8,0,10.8-5.4,21.6-5.4c10.8,0,10.8,5.4,21.6,5.4
				c10.8,0,10.8-5.4,21.6-5.4c10.8,0,10.8,5.4,21.6,5.4c10.8,0,10.8-5.4,21.6-5.4c10.8,0,10.8,5.4,21.6,5.4
				c10.8,0,10.8-5.4,21.6-5.4c10.8,0,10.8,5.4,21.6,5.4s10.8-5.4,21.6-5.4"/>
			<path class="st1" d="M0,554.4c10.8,0,10.8,5.4,21.6,5.4c10.8,0,10.8-5.4,21.6-5.4c10.8,0,10.8,5.4,21.6,5.4
				c10.8,0,10.8-5.4,21.6-5.4c10.8,0,10.8,5.4,21.6,5.4c10.8,0,10.8-5.4,21.6-5.4c10.8,0,10.8,5.4,21.6,5.4
				c10.8,0,10.8-5.4,21.6-5.4c10.8,0,10.8,5.4,21.6,5.4c10.8,0,10.8-5.4,21.6-5.4c10.8,0,10.8,5.4,21.6,5.4
				c10.8,0,10.8-5.4,21.6-5.4c10.8,0,10.8,5.4,21.6,5.4c10.8,0,10.8-5.4,21.6-5.4c10.8,0,10.8,5.4,21.6,5.4
				c10.8,0,10.8-5.4,21.6-5.4c10.8,0,10.8,5.4,21.6,5.4c10.8,0,10.8-5.4,21.6-5.4c10.8,0,10.8,5.4,21.6,5.4
				c10.8,0,10.8-5.4,21.6-5.4c10.8,0,10.8,5.4,21.6,5.4c10.8,0,10.8-5.4,21.6-5.4c10.8,0,10.8,5.4,21.6,5.4
				c10.8,0,10.8-5.4,21.6-5.4c10.8,0,10.8,5.4,21.6,5.4c10.8,0,10.8-5.4,21.6-5.4c10.8,0,10.8,5.4,21.6,5.4
				c10.8,0,10.8-5.4,21.6-5.4c10.8,0,10.8,5.4,21.6,5.4c10.8,0,10.8-5.4,21.6-5.4c10.8,0,10.8,5.4,21.6,5.4
				c10.8,0,10.8-5.4,21.6-5.4c10.8,0,10.8,5.4,21.6,5.4c10.8,0,10.8-5.4,21.6-5.4c10.8,0,10.8,5.4,21.6,5.4
				c10.8,0,10.8-5.4,21.6-5.4c10.8,0,10.8,5.4,21.6,5.4s10.8-5.4,21.6-5.4"/>
			<path class="st1" d="M0,547.7c10.8,0,10.8,5.4,21.6,5.4c10.8,0,10.8-5.4,21.6-5.4c10.8,0,10.8,5.4,21.6,5.4
				c10.8,0,10.8-5.4,21.6-5.4c10.8,0,10.8,5.4,21.6,5.4c10.8,0,10.8-5.4,21.6-5.4c10.8,0,10.8,5.4,21.6,5.4
				c10.8,0,10.8-5.4,21.6-5.4c10.8,0,10.8,5.4,21.6,5.4c10.8,0,10.8-5.4,21.6-5.4c10.8,0,10.8,5.4,21.6,5.4
				c10.8,0,10.8-5.4,21.6-5.4c10.8,0,10.8,5.4,21.6,5.4c10.8,0,10.8-5.4,21.6-5.4c10.8,0,10.8,5.4,21.6,5.4
				c10.8,0,10.8-5.4,21.6-5.4c10.8,0,10.8,5.4,21.6,5.4c10.8,0,10.8-5.4,21.6-5.4c10.8,0,10.8,5.4,21.6,5.4
				c10.8,0,10.8-5.4,21.6-5.4c10.8,0,10.8,5.4,21.6,5.4c10.8,0,10.8-5.4,21.6-5.4c10.8,0,10.8,5.4,21.6,5.4
				c10.8,0,10.8-5.4,21.6-5.4c10.8,0,10.8,5.4,21.6,5.4c10.8,0,10.8-5.4,21.6-5.4c10.8,0,10.8,5.4,21.6,5.4
				c10.8,0,10.8-5.4,21.6-5.4c10.8,0,10.8,5.4,21.6,5.4c10.8,0,10.8-5.4,21.6-5.4c10.8,0,10.8,5.4,21.6,5.4
				c10.8,0,10.8-5.4,21.6-5.4c10.8,0,10.8,5.4,21.6,5.4c10.8,0,10.8-5.4,21.6-5.4c10.8,0,10.8,5.4,21.6,5.4
				c10.8,0,10.8-5.4,21.6-5.4c10.8,0,10.8,5.4,21.6,5.4s10.8-5.4,21.6-5.4"/>
			<path class="st1" d="M0,541c10.8,0,10.8,5.4,21.6,5.4c10.8,0,10.8-5.4,21.6-5.4c10.8,0,10.8,5.4,21.6,5.4
				c10.8,0,10.8-5.4,21.6-5.4c10.8,0,10.8,5.4,21.6,5.4c10.8,0,10.8-5.4,21.6-5.4c10.8,0,10.8,5.4,21.6,5.4
				c10.8,0,10.8-5.4,21.6-5.4c10.8,0,10.8,5.4,21.6,5.4c10.8,0,10.8-5.4,21.6-5.4c10.8,0,10.8,5.4,21.6,5.4
				c10.8,0,10.8-5.4,21.6-5.4c10.8,0,10.8,5.4,21.6,5.4c10.8,0,10.8-5.4,21.6-5.4c10.8,0,10.8,5.4,21.6,5.4
				c10.8,0,10.8-5.4,21.6-5.4c10.8,0,10.8,5.4,21.6,5.4c10.8,0,10.8-5.4,21.6-5.4c10.8,0,10.8,5.4,21.6,5.4
				c10.8,0,10.8-5.4,21.6-5.4c10.8,0,10.8,5.4,21.6,5.4c10.8,0,10.8-5.4,21.6-5.4c10.8,0,10.8,5.4,21.6,5.4
				c10.8,0,10.8-5.4,21.6-5.4c10.8,0,10.8,5.4,21.6,5.4c10.8,0,10.8-5.4,21.6-5.4c10.8,0,10.8,5.4,21.6,5.4
				c10.8,0,10.8-5.4,21.6-5.4c10.8,0,10.8,5.4,21.6,5.4c10.8,0,10.8-5.4,21.6-5.4c10.8,0,10.8,5.4,21.6,5.4
				c10.8,0,10.8-5.4,21.6-5.4c10.8,0,10.8,5.4,21.6,5.4c10.8,0,10.8-5.4,21.6-5.4c10.8,0,10.8,5.4,21.6,5.4
				c10.8,0,10.8-5.4,21.6-5.4c10.8,0,10.8,5.4,21.6,5.4s10.8-5.4,21.6-5.4"/>
			<path class="st1" d="M0,534.3c10.8,0,10.8,5.4,21.6,5.4c10.8,0,10.8-5.4,21.6-5.4c10.8,0,10.8,5.4,21.6,5.4
				c10.8,0,10.8-5.4,21.6-5.4c10.8,0,10.8,5.4,21.6,5.4c10.8,0,10.8-5.4,21.6-5.4c10.8,0,10.8,5.4,21.6,5.4
				c10.8,0,10.8-5.4,21.6-5.4c10.8,0,10.8,5.4,21.6,5.4c10.8,0,10.8-5.4,21.6-5.4c10.8,0,10.8,5.4,21.6,5.4
				c10.8,0,10.8-5.4,21.6-5.4c10.8,0,10.8,5.4,21.6,5.4c10.8,0,10.8-5.4,21.6-5.4c10.8,0,10.8,5.4,21.6,5.4
				c10.8,0,10.8-5.4,21.6-5.4c10.8,0,10.8,5.4,21.6,5.4c10.8,0,10.8-5.4,21.6-5.4c10.8,0,10.8,5.4,21.6,5.4
				c10.8,0,10.8-5.4,21.6-5.4c10.8,0,10.8,5.4,21.6,5.4c10.8,0,10.8-5.4,21.6-5.4c10.8,0,10.8,5.4,21.6,5.4
				c10.8,0,10.8-5.4,21.6-5.4c10.8,0,10.8,5.4,21.6,5.4c10.8,0,10.8-5.4,21.6-5.4c10.8,0,10.8,5.4,21.6,5.4
				c10.8,0,10.8-5.4,21.6-5.4c10.8,0,10.8,5.4,21.6,5.4c10.8,0,10.8-5.4,21.6-5.4c10.8,0,10.8,5.4,21.6,5.4
				c10.8,0,10.8-5.4,21.6-5.4c10.8,0,10.8,5.4,21.6,5.4c10.8,0,10.8-5.4,21.6-5.4c10.8,0,10.8,5.4,21.6,5.4
				c10.8,0,10.8-5.4,21.6-5.4c10.8,0,10.8,5.4,21.6,5.4s10.8-5.4,21.6-5.4"/>
			<path class="st1" d="M0,527.6c10.8,0,10.8,5.4,21.6,5.4c10.8,0,10.8-5.4,21.6-5.4c10.8,0,10.8,5.4,21.6,5.4
				c10.8,0,10.8-5.4,21.6-5.4c10.8,0,10.8,5.4,21.6,5.4c10.8,0,10.8-5.4,21.6-5.4c10.8,0,10.8,5.4,21.6,5.4
				c10.8,0,10.8-5.4,21.6-5.4c10.8,0,10.8,5.4,21.6,5.4c10.8,0,10.8-5.4,21.6-5.4c10.8,0,10.8,5.4,21.6,5.4
				c10.8,0,10.8-5.4,21.6-5.4c10.8,0,10.8,5.4,21.6,5.4c10.8,0,10.8-5.4,21.6-5.4c10.8,0,10.8,5.4,21.6,5.4
				c10.8,0,10.8-5.4,21.6-5.4c10.8,0,10.8,5.4,21.6,5.4c10.8,0,10.8-5.4,21.6-5.4c10.8,0,10.8,5.4,21.6,5.4
				c10.8,0,10.8-5.4,21.6-5.4c10.8,0,10.8,5.4,21.6,5.4c10.8,0,10.8-5.4,21.6-5.4c10.8,0,10.8,5.4,21.6,5.4
				c10.8,0,10.8-5.4,21.6-5.4c10.8,0,10.8,5.4,21.6,5.4c10.8,0,10.8-5.4,21.6-5.4c10.8,0,10.8,5.4,21.6,5.4
				c10.8,0,10.8-5.4,21.6-5.4c10.8,0,10.8,5.4,21.6,5.4c10.8,0,10.8-5.4,21.6-5.4c10.8,0,10.8,5.4,21.6,5.4
				c10.8,0,10.8-5.4,21.6-5.4c10.8,0,10.8,5.4,21.6,5.4c10.8,0,10.8-5.4,21.6-5.4c10.8,0,10.8,5.4,21.6,5.4
				c10.8,0,10.8-5.4,21.6-5.4c10.8,0,10.8,5.4,21.6,5.4s10.8-5.4,21.6-5.4"/>
			<path class="st1" d="M0,520.9c10.8,0,10.8,5.4,21.6,5.4c10.8,0,10.8-5.4,21.6-5.4c10.8,0,10.8,5.4,21.6,5.4
				c10.8,0,10.8-5.4,21.6-5.4c10.8,0,10.8,5.4,21.6,5.4c10.8,0,10.8-5.4,21.6-5.4c10.8,0,10.8,5.4,21.6,5.4
				c10.8,0,10.8-5.4,21.6-5.4c10.8,0,10.8,5.4,21.6,5.4c10.8,0,10.8-5.4,21.6-5.4c10.8,0,10.8,5.4,21.6,5.4
				c10.8,0,10.8-5.4,21.6-5.4c10.8,0,10.8,5.4,21.6,5.4c10.8,0,10.8-5.4,21.6-5.4c10.8,0,10.8,5.4,21.6,5.4
				c10.8,0,10.8-5.4,21.6-5.4c10.8,0,10.8,5.4,21.6,5.4c10.8,0,10.8-5.4,21.6-5.4c10.8,0,10.8,5.4,21.6,5.4
				c10.8,0,10.8-5.4,21.6-5.4c10.8,0,10.8,5.4,21.6,5.4c10.8,0,10.8-5.4,21.6-5.4c10.8,0,10.8,5.4,21.6,5.4
				c10.8,0,10.8-5.4,21.6-5.4c10.8,0,10.8,5.4,21.6,5.4c10.8,0,10.8-5.4,21.6-5.4c10.8,0,10.8,5.4,21.6,5.4
				c10.8,0,10.8-5.4,21.6-5.4c10.8,0,10.8,5.4,21.6,5.4c10.8,0,10.8-5.4,21.6-5.4c10.8,0,10.8,5.4,21.6,5.4
				c10.8,0,10.8-5.4,21.6-5.4c10.8,0,10.8,5.4,21.6,5.4c10.8,0,10.8-5.4,21.6-5.4c10.8,0,10.8,5.4,21.6,5.4
				c10.8,0,10.8-5.4,21.6-5.4c10.8,0,10.8,5.4,21.6,5.4s10.8-5.4,21.6-5.4"/>
			<path class="st1" d="M0,514.2c10.8,0,10.8,5.4,21.6,5.4c10.8,0,10.8-5.4,21.6-5.4c10.8,0,10.8,5.4,21.6,5.4
				c10.8,0,10.8-5.4,21.6-5.4c10.8,0,10.8,5.4,21.6,5.4c10.8,0,10.8-5.4,21.6-5.4c10.8,0,10.8,5.4,21.6,5.4
				c10.8,0,10.8-5.4,21.6-5.4c10.8,0,10.8,5.4,21.6,5.4c10.8,0,10.8-5.4,21.6-5.4c10.8,0,10.8,5.4,21.6,5.4
				c10.8,0,10.8-5.4,21.6-5.4c10.8,0,10.8,5.4,21.6,5.4c10.8,0,10.8-5.4,21.6-5.4c10.8,0,10.8,5.4,21.6,5.4
				c10.8,0,10.8-5.4,21.6-5.4c10.8,0,10.8,5.4,21.6,5.4c10.8,0,10.8-5.4,21.6-5.4c10.8,0,10.8,5.4,21.6,5.4
				c10.8,0,10.8-5.4,21.6-5.4c10.8,0,10.8,5.4,21.6,5.4c10.8,0,10.8-5.4,21.6-5.4c10.8,0,10.8,5.4,21.6,5.4
				c10.8,0,10.8-5.4,21.6-5.4c10.8,0,10.8,5.4,21.6,5.4c10.8,0,10.8-5.4,21.6-5.4c10.8,0,10.8,5.4,21.6,5.4
				c10.8,0,10.8-5.4,21.6-5.4c10.8,0,10.8,5.4,21.6,5.4c10.8,0,10.8-5.4,21.6-5.4c10.8,0,10.8,5.4,21.6,5.4
				c10.8,0,10.8-5.4,21.6-5.4c10.8,0,10.8,5.4,21.6,5.4c10.8,0,10.8-5.4,21.6-5.4c10.8,0,10.8,5.4,21.6,5.4
				c10.8,0,10.8-5.4,21.6-5.4c10.8,0,10.8,5.4,21.6,5.4s10.8-5.4,21.6-5.4"/>
			<path class="st1" d="M0,507.4c10.8,0,10.8,5.4,21.6,5.4c10.8,0,10.8-5.4,21.6-5.4c10.8,0,10.8,5.4,21.6,5.4
				c10.8,0,10.8-5.4,21.6-5.4c10.8,0,10.8,5.4,21.6,5.4c10.8,0,10.8-5.4,21.6-5.4c10.8,0,10.8,5.4,21.6,5.4
				c10.8,0,10.8-5.4,21.6-5.4c10.8,0,10.8,5.4,21.6,5.4c10.8,0,10.8-5.4,21.6-5.4c10.8,0,10.8,5.4,21.6,5.4
				c10.8,0,10.8-5.4,21.6-5.4c10.8,0,10.8,5.4,21.6,5.4c10.8,0,10.8-5.4,21.6-5.4c10.8,0,10.8,5.4,21.6,5.4
				c10.8,0,10.8-5.4,21.6-5.4c10.8,0,10.8,5.4,21.6,5.4c10.8,0,10.8-5.4,21.6-5.4c10.8,0,10.8,5.4,21.6,5.4
				c10.8,0,10.8-5.4,21.6-5.4c10.8,0,10.8,5.4,21.6,5.4c10.8,0,10.8-5.4,21.6-5.4c10.8,0,10.8,5.4,21.6,5.4
				c10.8,0,10.8-5.4,21.6-5.4c10.8,0,10.8,5.4,21.6,5.4c10.8,0,10.8-5.4,21.6-5.4c10.8,0,10.8,5.4,21.6,5.4
				c10.8,0,10.8-5.4,21.6-5.4c10.8,0,10.8,5.4,21.6,5.4c10.8,0,10.8-5.4,21.6-5.4c10.8,0,10.8,5.4,21.6,5.4
				c10.8,0,10.8-5.4,21.6-5.4c10.8,0,10.8,5.4,21.6,5.4c10.8,0,10.8-5.4,21.6-5.4c10.8,0,10.8,5.4,21.6,5.4
				c10.8,0,10.8-5.4,21.6-5.4c10.8,0,10.8,5.4,21.6,5.4s10.8-5.4,21.6-5.4"/>
			<path class="st1" d="M0,500.7c10.8,0,10.8,5.4,21.6,5.4c10.8,0,10.8-5.4,21.6-5.4c10.8,0,10.8,5.4,21.6,5.4
				c10.8,0,10.8-5.4,21.6-5.4c10.8,0,10.8,5.4,21.6,5.4c10.8,0,10.8-5.4,21.6-5.4c10.8,0,10.8,5.4,21.6,5.4
				c10.8,0,10.8-5.4,21.6-5.4c10.8,0,10.8,5.4,21.6,5.4c10.8,0,10.8-5.4,21.6-5.4c10.8,0,10.8,5.4,21.6,5.4
				c10.8,0,10.8-5.4,21.6-5.4c10.8,0,10.8,5.4,21.6,5.4c10.8,0,10.8-5.4,21.6-5.4c10.8,0,10.8,5.4,21.6,5.4
				c10.8,0,10.8-5.4,21.6-5.4c10.8,0,10.8,5.4,21.6,5.4c10.8,0,10.8-5.4,21.6-5.4c10.8,0,10.8,5.4,21.6,5.4
				c10.8,0,10.8-5.4,21.6-5.4c10.8,0,10.8,5.4,21.6,5.4c10.8,0,10.8-5.4,21.6-5.4c10.8,0,10.8,5.4,21.6,5.4
				c10.8,0,10.8-5.4,21.6-5.4c10.8,0,10.8,5.4,21.6,5.4c10.8,0,10.8-5.4,21.6-5.4c10.8,0,10.8,5.4,21.6,5.4
				c10.8,0,10.8-5.4,21.6-5.4c10.8,0,10.8,5.4,21.6,5.4c10.8,0,10.8-5.4,21.6-5.4c10.8,0,10.8,5.4,21.6,5.4
				c10.8,0,10.8-5.4,21.6-5.4c10.8,0,10.8,5.4,21.6,5.4c10.8,0,10.8-5.4,21.6-5.4c10.8,0,10.8,5.4,21.6,5.4
				c10.8,0,10.8-5.4,21.6-5.4c10.8,0,10.8,5.4,21.6,5.4s10.8-5.4,21.6-5.4"/>
			<path class="st1" d="M0,494c10.8,0,10.8,5.4,21.6,5.4c10.8,0,10.8-5.4,21.6-5.4c10.8,0,10.8,5.4,21.6,5.4
				c10.8,0,10.8-5.4,21.6-5.4c10.8,0,10.8,5.4,21.6,5.4c10.8,0,10.8-5.4,21.6-5.4c10.8,0,10.8,5.4,21.6,5.4
				c10.8,0,10.8-5.4,21.6-5.4c10.8,0,10.8,5.4,21.6,5.4c10.8,0,10.8-5.4,21.6-5.4c10.8,0,10.8,5.4,21.6,5.4
				c10.8,0,10.8-5.4,21.6-5.4c10.8,0,10.8,5.4,21.6,5.4c10.8,0,10.8-5.4,21.6-5.4c10.8,0,10.8,5.4,21.6,5.4
				c10.8,0,10.8-5.4,21.6-5.4c10.8,0,10.8,5.4,21.6,5.4c10.8,0,10.8-5.4,21.6-5.4c10.8,0,10.8,5.4,21.6,5.4
				c10.8,0,10.8-5.4,21.6-5.4c10.8,0,10.8,5.4,21.6,5.4c10.8,0,10.8-5.4,21.6-5.4c10.8,0,10.8,5.4,21.6,5.4
				c10.8,0,10.8-5.4,21.6-5.4c10.8,0,10.8,5.4,21.6,5.4c10.8,0,10.8-5.4,21.6-5.4c10.8,0,10.8,5.4,21.6,5.4
				c10.8,0,10.8-5.4,21.6-5.4c10.8,0,10.8,5.4,21.6,5.4c10.8,0,10.8-5.4,21.6-5.4c10.8,0,10.8,5.4,21.6,5.4
				c10.8,0,10.8-5.4,21.6-5.4c10.8,0,10.8,5.4,21.6,5.4c10.8,0,10.8-5.4,21.6-5.4c10.8,0,10.8,5.4,21.6,5.4
				c10.8,0,10.8-5.4,21.6-5.4c10.8,0,10.8,5.4,21.6,5.4s10.8-5.4,21.6-5.4"/>
			<path class="st1" d="M0,487.3c10.8,0,10.8,5.4,21.6,5.4c10.8,0,10.8-5.4,21.6-5.4c10.8,0,10.8,5.4,21.6,5.4
				c10.8,0,10.8-5.4,21.6-5.4c10.8,0,10.8,5.4,21.6,5.4c10.8,0,10.8-5.4,21.6-5.4c10.8,0,10.8,5.4,21.6,5.4
				c10.8,0,10.8-5.4,21.6-5.4c10.8,0,10.8,5.4,21.6,5.4c10.8,0,10.8-5.4,21.6-5.4c10.8,0,10.8,5.4,21.6,5.4
				c10.8,0,10.8-5.4,21.6-5.4c10.8,0,10.8,5.4,21.6,5.4c10.8,0,10.8-5.4,21.6-5.4c10.8,0,10.8,5.4,21.6,5.4
				c10.8,0,10.8-5.4,21.6-5.4c10.8,0,10.8,5.4,21.6,5.4c10.8,0,10.8-5.4,21.6-5.4c10.8,0,10.8,5.4,21.6,5.4
				c10.8,0,10.8-5.4,21.6-5.4c10.8,0,10.8,5.4,21.6,5.4c10.8,0,10.8-5.4,21.6-5.4c10.8,0,10.8,5.4,21.6,5.4
				c10.8,0,10.8-5.4,21.6-5.4c10.8,0,10.8,5.4,21.6,5.4c10.8,0,10.8-5.4,21.6-5.4c10.8,0,10.8,5.4,21.6,5.4
				c10.8,0,10.8-5.4,21.6-5.4c10.8,0,10.8,5.4,21.6,5.4c10.8,0,10.8-5.4,21.6-5.4c10.8,0,10.8,5.4,21.6,5.4
				c10.8,0,10.8-5.4,21.6-5.4c10.8,0,10.8,5.4,21.6,5.4c10.8,0,10.8-5.4,21.6-5.4c10.8,0,10.8,5.4,21.6,5.4
				c10.8,0,10.8-5.4,21.6-5.4c10.8,0,10.8,5.4,21.6,5.4s10.8-5.4,21.6-5.4"/>
			<path class="st1" d="M0,480.6c10.8,0,10.8,5.4,21.6,5.4c10.8,0,10.8-5.4,21.6-5.4c10.8,0,10.8,5.4,21.6,5.4
				c10.8,0,10.8-5.4,21.6-5.4c10.8,0,10.8,5.4,21.6,5.4c10.8,0,10.8-5.4,21.6-5.4c10.8,0,10.8,5.4,21.6,5.4
				c10.8,0,10.8-5.4,21.6-5.4c10.8,0,10.8,5.4,21.6,5.4c10.8,0,10.8-5.4,21.6-5.4c10.8,0,10.8,5.4,21.6,5.4
				c10.8,0,10.8-5.4,21.6-5.4c10.8,0,10.8,5.4,21.6,5.4c10.8,0,10.8-5.4,21.6-5.4c10.8,0,10.8,5.4,21.6,5.4
				c10.8,0,10.8-5.4,21.6-5.4c10.8,0,10.8,5.4,21.6,5.4c10.8,0,10.8-5.4,21.6-5.4c10.8,0,10.8,5.4,21.6,5.4
				c10.8,0,10.8-5.4,21.6-5.4c10.8,0,10.8,5.4,21.6,5.4c10.8,0,10.8-5.4,21.6-5.4c10.8,0,10.8,5.4,21.6,5.4
				c10.8,0,10.8-5.4,21.6-5.4c10.8,0,10.8,5.4,21.6,5.4c10.8,0,10.8-5.4,21.6-5.4c10.8,0,10.8,5.4,21.6,5.4
				c10.8,0,10.8-5.4,21.6-5.4c10.8,0,10.8,5.4,21.6,5.4c10.8,0,10.8-5.4,21.6-5.4c10.8,0,10.8,5.4,21.6,5.4
				c10.8,0,10.8-5.4,21.6-5.4c10.8,0,10.8,5.4,21.6,5.4c10.8,0,10.8-5.4,21.6-5.4c10.8,0,10.8,5.4,21.6,5.4
				c10.8,0,10.8-5.4,21.6-5.4c10.8,0,10.8,5.4,21.6,5.4s10.8-5.4,21.6-5.4"/>
			<path class="st1" d="M0,473.9c10.8,0,10.8,5.4,21.6,5.4c10.8,0,10.8-5.4,21.6-5.4c10.8,0,10.8,5.4,21.6,5.4
				c10.8,0,10.8-5.4,21.6-5.4c10.8,0,10.8,5.4,21.6,5.4c10.8,0,10.8-5.4,21.6-5.4c10.8,0,10.8,5.4,21.6,5.4
				c10.8,0,10.8-5.4,21.6-5.4c10.8,0,10.8,5.4,21.6,5.4c10.8,0,10.8-5.4,21.6-5.4c10.8,0,10.8,5.4,21.6,5.4
				c10.8,0,10.8-5.4,21.6-5.4c10.8,0,10.8,5.4,21.6,5.4c10.8,0,10.8-5.4,21.6-5.4c10.8,0,10.8,5.4,21.6,5.4
				c10.8,0,10.8-5.4,21.6-5.4c10.8,0,10.8,5.4,21.6,5.4c10.8,0,10.8-5.4,21.6-5.4c10.8,0,10.8,5.4,21.6,5.4
				c10.8,0,10.8-5.4,21.6-5.4c10.8,0,10.8,5.4,21.6,5.4c10.8,0,10.8-5.4,21.6-5.4c10.8,0,10.8,5.4,21.6,5.4
				c10.8,0,10.8-5.4,21.6-5.4c10.8,0,10.8,5.4,21.6,5.4c10.8,0,10.8-5.4,21.6-5.4c10.8,0,10.8,5.4,21.6,5.4
				c10.8,0,10.8-5.4,21.6-5.4c10.8,0,10.8,5.4,21.6,5.4c10.8,0,10.8-5.4,21.6-5.4c10.8,0,10.8,5.4,21.6,5.4
				c10.8,0,10.8-5.4,21.6-5.4c10.8,0,10.8,5.4,21.6,5.4c10.8,0,10.8-5.4,21.6-5.4c10.8,0,10.8,5.4,21.6,5.4
				c10.8,0,10.8-5.4,21.6-5.4c10.8,0,10.8,5.4,21.6,5.4s10.8-5.4,21.6-5.4"/>
			<path class="st1" d="M0,467.1c10.8,0,10.8,5.4,21.6,5.4c10.8,0,10.8-5.4,21.6-5.4c10.8,0,10.8,5.4,21.6,5.4
				c10.8,0,10.8-5.4,21.6-5.4c10.8,0,10.8,5.4,21.6,5.4c10.8,0,10.8-5.4,21.6-5.4c10.8,0,10.8,5.4,21.6,5.4
				c10.8,0,10.8-5.4,21.6-5.4c10.8,0,10.8,5.4,21.6,5.4c10.8,0,10.8-5.4,21.6-5.4c10.8,0,10.8,5.4,21.6,5.4
				c10.8,0,10.8-5.4,21.6-5.4c10.8,0,10.8,5.4,21.6,5.4c10.8,0,10.8-5.4,21.6-5.4c10.8,0,10.8,5.4,21.6,5.4
				c10.8,0,10.8-5.4,21.6-5.4c10.8,0,10.8,5.4,21.6,5.4c10.8,0,10.8-5.4,21.6-5.4c10.8,0,10.8,5.4,21.6,5.4
				c10.8,0,10.8-5.4,21.6-5.4c10.8,0,10.8,5.4,21.6,5.4c10.8,0,10.8-5.4,21.6-5.4c10.8,0,10.8,5.4,21.6,5.4
				c10.8,0,10.8-5.4,21.6-5.4c10.8,0,10.8,5.4,21.6,5.4c10.8,0,10.8-5.4,21.6-5.4c10.8,0,10.8,5.4,21.6,5.4
				c10.8,0,10.8-5.4,21.6-5.4c10.8,0,10.8,5.4,21.6,5.4c10.8,0,10.8-5.4,21.6-5.4c10.8,0,10.8,5.4,21.6,5.4
				c10.8,0,10.8-5.4,21.6-5.4c10.8,0,10.8,5.4,21.6,5.4c10.8,0,10.8-5.4,21.6-5.4c10.8,0,10.8,5.4,21.6,5.4
				c10.8,0,10.8-5.4,21.6-5.4c10.8,0,10.8,5.4,21.6,5.4s10.8-5.4,21.6-5.4"/>
			<path class="st1" d="M0,460.4c10.8,0,10.8,5.4,21.6,5.4c10.8,0,10.8-5.4,21.6-5.4c10.8,0,10.8,5.4,21.6,5.4
				c10.8,0,10.8-5.4,21.6-5.4c10.8,0,10.8,5.4,21.6,5.4c10.8,0,10.8-5.4,21.6-5.4c10.8,0,10.8,5.4,21.6,5.4
				c10.8,0,10.8-5.4,21.6-5.4c10.8,0,10.8,5.4,21.6,5.4c10.8,0,10.8-5.4,21.6-5.4c10.8,0,10.8,5.4,21.6,5.4
				c10.8,0,10.8-5.4,21.6-5.4c10.8,0,10.8,5.4,21.6,5.4c10.8,0,10.8-5.4,21.6-5.4c10.8,0,10.8,5.4,21.6,5.4
				c10.8,0,10.8-5.4,21.6-5.4c10.8,0,10.8,5.4,21.6,5.4c10.8,0,10.8-5.4,21.6-5.4c10.8,0,10.8,5.4,21.6,5.4
				c10.8,0,10.8-5.4,21.6-5.4c10.8,0,10.8,5.4,21.6,5.4c10.8,0,10.8-5.4,21.6-5.4c10.8,0,10.8,5.4,21.6,5.4
				c10.8,0,10.8-5.4,21.6-5.4c10.8,0,10.8,5.4,21.6,5.4c10.8,0,10.8-5.4,21.6-5.4c10.8,0,10.8,5.4,21.6,5.4
				c10.8,0,10.8-5.4,21.6-5.4c10.8,0,10.8,5.4,21.6,5.4c10.8,0,10.8-5.4,21.6-5.4c10.8,0,10.8,5.4,21.6,5.4
				c10.8,0,10.8-5.4,21.6-5.4c10.8,0,10.8,5.4,21.6,5.4c10.8,0,10.8-5.4,21.6-5.4c10.8,0,10.8,5.4,21.6,5.4
				c10.8,0,10.8-5.4,21.6-5.4c10.8,0,10.8,5.4,21.6,5.4s10.8-5.4,21.6-5.4"/>
			<path class="st1" d="M0,453.7c10.8,0,10.8,5.4,21.6,5.4c10.8,0,10.8-5.4,21.6-5.4c10.8,0,10.8,5.4,21.6,5.4
				c10.8,0,10.8-5.4,21.6-5.4c10.8,0,10.8,5.4,21.6,5.4c10.8,0,10.8-5.4,21.6-5.4c10.8,0,10.8,5.4,21.6,5.4
				c10.8,0,10.8-5.4,21.6-5.4c10.8,0,10.8,5.4,21.6,5.4c10.8,0,10.8-5.4,21.6-5.4c10.8,0,10.8,5.4,21.6,5.4
				c10.8,0,10.8-5.4,21.6-5.4c10.8,0,10.8,5.4,21.6,5.4c10.8,0,10.8-5.4,21.6-5.4c10.8,0,10.8,5.4,21.6,5.4
				c10.8,0,10.8-5.4,21.6-5.4c10.8,0,10.8,5.4,21.6,5.4c10.8,0,10.8-5.4,21.6-5.4c10.8,0,10.8,5.4,21.6,5.4
				c10.8,0,10.8-5.4,21.6-5.4c10.8,0,10.8,5.4,21.6,5.4c10.8,0,10.8-5.4,21.6-5.4c10.8,0,10.8,5.4,21.6,5.4
				c10.8,0,10.8-5.4,21.6-5.4c10.8,0,10.8,5.4,21.6,5.4c10.8,0,10.8-5.4,21.6-5.4c10.8,0,10.8,5.4,21.6,5.4
				c10.8,0,10.8-5.4,21.6-5.4c10.8,0,10.8,5.4,21.6,5.4c10.8,0,10.8-5.4,21.6-5.4c10.8,0,10.8,5.4,21.6,5.4
				c10.8,0,10.8-5.4,21.6-5.4c10.8,0,10.8,5.4,21.6,5.4c10.8,0,10.8-5.4,21.6-5.4c10.8,0,10.8,5.4,21.6,5.4
				c10.8,0,10.8-5.4,21.6-5.4c10.8,0,10.8,5.4,21.6,5.4s10.8-5.4,21.6-5.4"/>
			<path class="st1" d="M0,447c10.8,0,10.8,5.4,21.6,5.4c10.8,0,10.8-5.4,21.6-5.4c10.8,0,10.8,5.4,21.6,5.4
				c10.8,0,10.8-5.4,21.6-5.4c10.8,0,10.8,5.4,21.6,5.4c10.8,0,10.8-5.4,21.6-5.4c10.8,0,10.8,5.4,21.6,5.4
				c10.8,0,10.8-5.4,21.6-5.4c10.8,0,10.8,5.4,21.6,5.4c10.8,0,10.8-5.4,21.6-5.4c10.8,0,10.8,5.4,21.6,5.4
				c10.8,0,10.8-5.4,21.6-5.4c10.8,0,10.8,5.4,21.6,5.4c10.8,0,10.8-5.4,21.6-5.4c10.8,0,10.8,5.4,21.6,5.4
				c10.8,0,10.8-5.4,21.6-5.4c10.8,0,10.8,5.4,21.6,5.4c10.8,0,10.8-5.4,21.6-5.4c10.8,0,10.8,5.4,21.6,5.4
				c10.8,0,10.8-5.4,21.6-5.4c10.8,0,10.8,5.4,21.6,5.4c10.8,0,10.8-5.4,21.6-5.4c10.8,0,10.8,5.4,21.6,5.4
				c10.8,0,10.8-5.4,21.6-5.4c10.8,0,10.8,5.4,21.6,5.4c10.8,0,10.8-5.4,21.6-5.4c10.8,0,10.8,5.4,21.6,5.4
				c10.8,0,10.8-5.4,21.6-5.4c10.8,0,10.8,5.4,21.6,5.4c10.8,0,10.8-5.4,21.6-5.4c10.8,0,10.8,5.4,21.6,5.4
				c10.8,0,10.8-5.4,21.6-5.4c10.8,0,10.8,5.4,21.6,5.4c10.8,0,10.8-5.4,21.6-5.4c10.8,0,10.8,5.4,21.6,5.4
				c10.8,0,10.8-5.4,21.6-5.4c10.8,0,10.8,5.4,21.6,5.4s10.8-5.4,21.6-5.4"/>
			<path class="st1" d="M0,440.3c10.8,0,10.8,5.4,21.6,5.4c10.8,0,10.8-5.4,21.6-5.4c10.8,0,10.8,5.4,21.6,5.4
				c10.8,0,10.8-5.4,21.6-5.4c10.8,0,10.8,5.4,21.6,5.4c10.8,0,10.8-5.4,21.6-5.4c10.8,0,10.8,5.4,21.6,5.4
				c10.8,0,10.8-5.4,21.6-5.4c10.8,0,10.8,5.4,21.6,5.4c10.8,0,10.8-5.4,21.6-5.4c10.8,0,10.8,5.4,21.6,5.4
				c10.8,0,10.8-5.4,21.6-5.4c10.8,0,10.8,5.4,21.6,5.4c10.8,0,10.8-5.4,21.6-5.4c10.8,0,10.8,5.4,21.6,5.4
				c10.8,0,10.8-5.4,21.6-5.4c10.8,0,10.8,5.4,21.6,5.4c10.8,0,10.8-5.4,21.6-5.4c10.8,0,10.8,5.4,21.6,5.4
				c10.8,0,10.8-5.4,21.6-5.4c10.8,0,10.8,5.4,21.6,5.4c10.8,0,10.8-5.4,21.6-5.4c10.8,0,10.8,5.4,21.6,5.4
				c10.8,0,10.8-5.4,21.6-5.4c10.8,0,10.8,5.4,21.6,5.4c10.8,0,10.8-5.4,21.6-5.4c10.8,0,10.8,5.4,21.6,5.4
				c10.8,0,10.8-5.4,21.6-5.4c10.8,0,10.8,5.4,21.6,5.4c10.8,0,10.8-5.4,21.6-5.4c10.8,0,10.8,5.4,21.6,5.4
				c10.8,0,10.8-5.4,21.6-5.4c10.8,0,10.8,5.4,21.6,5.4c10.8,0,10.8-5.4,21.6-5.4c10.8,0,10.8,5.4,21.6,5.4
				c10.8,0,10.8-5.4,21.6-5.4c10.8,0,10.8,5.4,21.6,5.4s10.8-5.4,21.6-5.4"/>
			<path class="st1" d="M0,433.6c10.8,0,10.8,5.4,21.6,5.4c10.8,0,10.8-5.4,21.6-5.4c10.8,0,10.8,5.4,21.6,5.4
				c10.8,0,10.8-5.4,21.6-5.4c10.8,0,10.8,5.4,21.6,5.4c10.8,0,10.8-5.4,21.6-5.4c10.8,0,10.8,5.4,21.6,5.4
				c10.8,0,10.8-5.4,21.6-5.4c10.8,0,10.8,5.4,21.6,5.4c10.8,0,10.8-5.4,21.6-5.4c10.8,0,10.8,5.4,21.6,5.4
				c10.8,0,10.8-5.4,21.6-5.4c10.8,0,10.8,5.4,21.6,5.4c10.8,0,10.8-5.4,21.6-5.4c10.8,0,10.8,5.4,21.6,5.4
				c10.8,0,10.8-5.4,21.6-5.4c10.8,0,10.8,5.4,21.6,5.4c10.8,0,10.8-5.4,21.6-5.4c10.8,0,10.8,5.4,21.6,5.4
				c10.8,0,10.8-5.4,21.6-5.4c10.8,0,10.8,5.4,21.6,5.4c10.8,0,10.8-5.4,21.6-5.4c10.8,0,10.8,5.4,21.6,5.4
				c10.8,0,10.8-5.4,21.6-5.4c10.8,0,10.8,5.4,21.6,5.4c10.8,0,10.8-5.4,21.6-5.4c10.8,0,10.8,5.4,21.6,5.4
				c10.8,0,10.8-5.4,21.6-5.4c10.8,0,10.8,5.4,21.6,5.4c10.8,0,10.8-5.4,21.6-5.4c10.8,0,10.8,5.4,21.6,5.4
				c10.8,0,10.8-5.4,21.6-5.4c10.8,0,10.8,5.4,21.6,5.4c10.8,0,10.8-5.4,21.6-5.4c10.8,0,10.8,5.4,21.6,5.4
				c10.8,0,10.8-5.4,21.6-5.4c10.8,0,10.8,5.4,21.6,5.4s10.8-5.4,21.6-5.4"/>
			<path class="st1" d="M0,426.9c10.8,0,10.8,5.4,21.6,5.4c10.8,0,10.8-5.4,21.6-5.4c10.8,0,10.8,5.4,21.6,5.4
				c10.8,0,10.8-5.4,21.6-5.4c10.8,0,10.8,5.4,21.6,5.4c10.8,0,10.8-5.4,21.6-5.4c10.8,0,10.8,5.4,21.6,5.4
				c10.8,0,10.8-5.4,21.6-5.4c10.8,0,10.8,5.4,21.6,5.4c10.8,0,10.8-5.4,21.6-5.4c10.8,0,10.8,5.4,21.6,5.4
				c10.8,0,10.8-5.4,21.6-5.4c10.8,0,10.8,5.4,21.6,5.4c10.8,0,10.8-5.4,21.6-5.4c10.8,0,10.8,5.4,21.6,5.4
				c10.8,0,10.8-5.4,21.6-5.4c10.8,0,10.8,5.4,21.6,5.4c10.8,0,10.8-5.4,21.6-5.4c10.8,0,10.8,5.4,21.6,5.4
				c10.8,0,10.8-5.4,21.6-5.4c10.8,0,10.8,5.4,21.6,5.4c10.8,0,10.8-5.4,21.6-5.4c10.8,0,10.8,5.4,21.6,5.4
				c10.8,0,10.8-5.4,21.6-5.4c10.8,0,10.8,5.4,21.6,5.4c10.8,0,10.8-5.4,21.6-5.4c10.8,0,10.8,5.4,21.6,5.4
				c10.8,0,10.8-5.4,21.6-5.4c10.8,0,10.8,5.4,21.6,5.4c10.8,0,10.8-5.4,21.6-5.4c10.8,0,10.8,5.4,21.6,5.4
				c10.8,0,10.8-5.4,21.6-5.4c10.8,0,10.8,5.4,21.6,5.4c10.8,0,10.8-5.4,21.6-5.4c10.8,0,10.8,5.4,21.6,5.4
				c10.8,0,10.8-5.4,21.6-5.4c10.8,0,10.8,5.4,21.6,5.4s10.8-5.4,21.6-5.4"/>
			<path class="st1" d="M0,420.1c10.8,0,10.8,5.4,21.6,5.4c10.8,0,10.8-5.4,21.6-5.4c10.8,0,10.8,5.4,21.6,5.4
				c10.8,0,10.8-5.4,21.6-5.4c10.8,0,10.8,5.4,21.6,5.4c10.8,0,10.8-5.4,21.6-5.4c10.8,0,10.8,5.4,21.6,5.4
				c10.8,0,10.8-5.4,21.6-5.4c10.8,0,10.8,5.4,21.6,5.4c10.8,0,10.8-5.4,21.6-5.4c10.8,0,10.8,5.4,21.6,5.4
				c10.8,0,10.8-5.4,21.6-5.4c10.8,0,10.8,5.4,21.6,5.4c10.8,0,10.8-5.4,21.6-5.4c10.8,0,10.8,5.4,21.6,5.4
				c10.8,0,10.8-5.4,21.6-5.4c10.8,0,10.8,5.4,21.6,5.4c10.8,0,10.8-5.4,21.6-5.4c10.8,0,10.8,5.4,21.6,5.4
				c10.8,0,10.8-5.4,21.6-5.4c10.8,0,10.8,5.4,21.6,5.4c10.8,0,10.8-5.4,21.6-5.4c10.8,0,10.8,5.4,21.6,5.4
				c10.8,0,10.8-5.4,21.6-5.4c10.8,0,10.8,5.4,21.6,5.4c10.8,0,10.8-5.4,21.6-5.4c10.8,0,10.8,5.4,21.6,5.4
				c10.8,0,10.8-5.4,21.6-5.4c10.8,0,10.8,5.4,21.6,5.4c10.8,0,10.8-5.4,21.6-5.4c10.8,0,10.8,5.4,21.6,5.4
				c10.8,0,10.8-5.4,21.6-5.4c10.8,0,10.8,5.4,21.6,5.4c10.8,0,10.8-5.4,21.6-5.4c10.8,0,10.8,5.4,21.6,5.4
				c10.8,0,10.8-5.4,21.6-5.4c10.8,0,10.8,5.4,21.6,5.4s10.8-5.4,21.6-5.4"/>
			<path class="st1" d="M0,413.4c10.8,0,10.8,5.4,21.6,5.4c10.8,0,10.8-5.4,21.6-5.4c10.8,0,10.8,5.4,21.6,5.4
				c10.8,0,10.8-5.4,21.6-5.4c10.8,0,10.8,5.4,21.6,5.4c10.8,0,10.8-5.4,21.6-5.4c10.8,0,10.8,5.4,21.6,5.4
				c10.8,0,10.8-5.4,21.6-5.4c10.8,0,10.8,5.4,21.6,5.4c10.8,0,10.8-5.4,21.6-5.4c10.8,0,10.8,5.4,21.6,5.4
				c10.8,0,10.8-5.4,21.6-5.4c10.8,0,10.8,5.4,21.6,5.4c10.8,0,10.8-5.4,21.6-5.4c10.8,0,10.8,5.4,21.6,5.4
				c10.8,0,10.8-5.4,21.6-5.4c10.8,0,10.8,5.4,21.6,5.4c10.8,0,10.8-5.4,21.6-5.4c10.8,0,10.8,5.4,21.6,5.4
				c10.8,0,10.8-5.4,21.6-5.4c10.8,0,10.8,5.4,21.6,5.4c10.8,0,10.8-5.4,21.6-5.4c10.8,0,10.8,5.4,21.6,5.4
				c10.8,0,10.8-5.4,21.6-5.4c10.8,0,10.8,5.4,21.6,5.4c10.8,0,10.8-5.4,21.6-5.4c10.8,0,10.8,5.4,21.6,5.4
				c10.8,0,10.8-5.4,21.6-5.4c10.8,0,10.8,5.4,21.6,5.4c10.8,0,10.8-5.4,21.6-5.4c10.8,0,10.8,5.4,21.6,5.4
				c10.8,0,10.8-5.4,21.6-5.4c10.8,0,10.8,5.4,21.6,5.4c10.8,0,10.8-5.4,21.6-5.4c10.8,0,10.8,5.4,21.6,5.4
				c10.8,0,10.8-5.4,21.6-5.4c10.8,0,10.8,5.4,21.6,5.4s10.8-5.4,21.6-5.4"/>
			<path class="st1" d="M0,406.7c10.8,0,10.8,5.4,21.6,5.4c10.8,0,10.8-5.4,21.6-5.4c10.8,0,10.8,5.4,21.6,5.4
				c10.8,0,10.8-5.4,21.6-5.4c10.8,0,10.8,5.4,21.6,5.4c10.8,0,10.8-5.4,21.6-5.4c10.8,0,10.8,5.4,21.6,5.4
				c10.8,0,10.8-5.4,21.6-5.4c10.8,0,10.8,5.4,21.6,5.4c10.8,0,10.8-5.4,21.6-5.4c10.8,0,10.8,5.4,21.6,5.4
				c10.8,0,10.8-5.4,21.6-5.4c10.8,0,10.8,5.4,21.6,5.4c10.8,0,10.8-5.4,21.6-5.4c10.8,0,10.8,5.4,21.6,5.4
				c10.8,0,10.8-5.4,21.6-5.4c10.8,0,10.8,5.4,21.6,5.4c10.8,0,10.8-5.4,21.6-5.4c10.8,0,10.8,5.4,21.6,5.4
				c10.8,0,10.8-5.4,21.6-5.4c10.8,0,10.8,5.4,21.6,5.4c10.8,0,10.8-5.4,21.6-5.4c10.8,0,10.8,5.4,21.6,5.4
				c10.8,0,10.8-5.4,21.6-5.4c10.8,0,10.8,5.4,21.6,5.4c10.8,0,10.8-5.4,21.6-5.4c10.8,0,10.8,5.4,21.6,5.4
				c10.8,0,10.8-5.4,21.6-5.4c10.8,0,10.8,5.4,21.6,5.4c10.8,0,10.8-5.4,21.6-5.4c10.8,0,10.8,5.4,21.6,5.4
				c10.8,0,10.8-5.4,21.6-5.4c10.8,0,10.8,5.4,21.6,5.4c10.8,0,10.8-5.4,21.6-5.4c10.8,0,10.8,5.4,21.6,5.4
				c10.8,0,10.8-5.4,21.6-5.4c10.8,0,10.8,5.4,21.6,5.4s10.8-5.4,21.6-5.4"/>
			<path class="st1" d="M0,400c10.8,0,10.8,5.4,21.6,5.4c10.8,0,10.8-5.4,21.6-5.4c10.8,0,10.8,5.4,21.6,5.4
				c10.8,0,10.8-5.4,21.6-5.4c10.8,0,10.8,5.4,21.6,5.4c10.8,0,10.8-5.4,21.6-5.4c10.8,0,10.8,5.4,21.6,5.4
				c10.8,0,10.8-5.4,21.6-5.4c10.8,0,10.8,5.4,21.6,5.4c10.8,0,10.8-5.4,21.6-5.4c10.8,0,10.8,5.4,21.6,5.4
				c10.8,0,10.8-5.4,21.6-5.4c10.8,0,10.8,5.4,21.6,5.4c10.8,0,10.8-5.4,21.6-5.4c10.8,0,10.8,5.4,21.6,5.4
				c10.8,0,10.8-5.4,21.6-5.4c10.8,0,10.8,5.4,21.6,5.4c10.8,0,10.8-5.4,21.6-5.4c10.8,0,10.8,5.4,21.6,5.4
				c10.8,0,10.8-5.4,21.6-5.4c10.8,0,10.8,5.4,21.6,5.4c10.8,0,10.8-5.4,21.6-5.4c10.8,0,10.8,5.4,21.6,5.4
				c10.8,0,10.8-5.4,21.6-5.4c10.8,0,10.8,5.4,21.6,5.4c10.8,0,10.8-5.4,21.6-5.4c10.8,0,10.8,5.4,21.6,5.4
				c10.8,0,10.8-5.4,21.6-5.4c10.8,0,10.8,5.4,21.6,5.4c10.8,0,10.8-5.4,21.6-5.4c10.8,0,10.8,5.4,21.6,5.4
				c10.8,0,10.8-5.4,21.6-5.4c10.8,0,10.8,5.4,21.6,5.4c10.8,0,10.8-5.4,21.6-5.4c10.8,0,10.8,5.4,21.6,5.4
				c10.8,0,10.8-5.4,21.6-5.4c10.8,0,10.8,5.4,21.6,5.4s10.8-5.4,21.6-5.4"/>
			<path class="st1" d="M0,393.3c10.8,0,10.8,5.4,21.6,5.4c10.8,0,10.8-5.4,21.6-5.4c10.8,0,10.8,5.4,21.6,5.4
				c10.8,0,10.8-5.4,21.6-5.4c10.8,0,10.8,5.4,21.6,5.4c10.8,0,10.8-5.4,21.6-5.4c10.8,0,10.8,5.4,21.6,5.4
				c10.8,0,10.8-5.4,21.6-5.4c10.8,0,10.8,5.4,21.6,5.4c10.8,0,10.8-5.4,21.6-5.4c10.8,0,10.8,5.4,21.6,5.4
				c10.8,0,10.8-5.4,21.6-5.4c10.8,0,10.8,5.4,21.6,5.4c10.8,0,10.8-5.4,21.6-5.4c10.8,0,10.8,5.4,21.6,5.4
				c10.8,0,10.8-5.4,21.6-5.4c10.8,0,10.8,5.4,21.6,5.4c10.8,0,10.8-5.4,21.6-5.4c10.8,0,10.8,5.4,21.6,5.4
				c10.8,0,10.8-5.4,21.6-5.4c10.8,0,10.8,5.4,21.6,5.4c10.8,0,10.8-5.4,21.6-5.4c10.8,0,10.8,5.4,21.6,5.4
				c10.8,0,10.8-5.4,21.6-5.4c10.8,0,10.8,5.4,21.6,5.4c10.8,0,10.8-5.4,21.6-5.4c10.8,0,10.8,5.4,21.6,5.4
				c10.8,0,10.8-5.4,21.6-5.4c10.8,0,10.8,5.4,21.6,5.4c10.8,0,10.8-5.4,21.6-5.4c10.8,0,10.8,5.4,21.6,5.4
				c10.8,0,10.8-5.4,21.6-5.4c10.8,0,10.8,5.4,21.6,5.4c10.8,0,10.8-5.4,21.6-5.4c10.8,0,10.8,5.4,21.6,5.4
				c10.8,0,10.8-5.4,21.6-5.4c10.8,0,10.8,5.4,21.6,5.4s10.8-5.4,21.6-5.4"/>
			<path class="st1" d="M0,386.6c10.8,0,10.8,5.4,21.6,5.4c10.8,0,10.8-5.4,21.6-5.4c10.8,0,10.8,5.4,21.6,5.4
				c10.8,0,10.8-5.4,21.6-5.4c10.8,0,10.8,5.4,21.6,5.4c10.8,0,10.8-5.4,21.6-5.4c10.8,0,10.8,5.4,21.6,5.4
				c10.8,0,10.8-5.4,21.6-5.4c10.8,0,10.8,5.4,21.6,5.4c10.8,0,10.8-5.4,21.6-5.4c10.8,0,10.8,5.4,21.6,5.4
				c10.8,0,10.8-5.4,21.6-5.4c10.8,0,10.8,5.4,21.6,5.4c10.8,0,10.8-5.4,21.6-5.4c10.8,0,10.8,5.4,21.6,5.4
				c10.8,0,10.8-5.4,21.6-5.4c10.8,0,10.8,5.4,21.6,5.4c10.8,0,10.8-5.4,21.6-5.4c10.8,0,10.8,5.4,21.6,5.4
				c10.8,0,10.8-5.4,21.6-5.4c10.8,0,10.8,5.4,21.6,5.4c10.8,0,10.8-5.4,21.6-5.4c10.8,0,10.8,5.4,21.6,5.4
				c10.8,0,10.8-5.4,21.6-5.4c10.8,0,10.8,5.4,21.6,5.4c10.8,0,10.8-5.4,21.6-5.4c10.8,0,10.8,5.4,21.6,5.4
				c10.8,0,10.8-5.4,21.6-5.4c10.8,0,10.8,5.4,21.6,5.4c10.8,0,10.8-5.4,21.6-5.4c10.8,0,10.8,5.4,21.6,5.4
				c10.8,0,10.8-5.4,21.6-5.4c10.8,0,10.8,5.4,21.6,5.4c10.8,0,10.8-5.4,21.6-5.4c10.8,0,10.8,5.4,21.6,5.4
				c10.8,0,10.8-5.4,21.6-5.4c10.8,0,10.8,5.4,21.6,5.4s10.8-5.4,21.6-5.4"/>
			<path class="st1" d="M0,379.9c10.8,0,10.8,5.4,21.6,5.4c10.8,0,10.8-5.4,21.6-5.4c10.8,0,10.8,5.4,21.6,5.4
				c10.8,0,10.8-5.4,21.6-5.4c10.8,0,10.8,5.4,21.6,5.4c10.8,0,10.8-5.4,21.6-5.4c10.8,0,10.8,5.4,21.6,5.4
				c10.8,0,10.8-5.4,21.6-5.4c10.8,0,10.8,5.4,21.6,5.4c10.8,0,10.8-5.4,21.6-5.4c10.8,0,10.8,5.4,21.6,5.4
				c10.8,0,10.8-5.4,21.6-5.4c10.8,0,10.8,5.4,21.6,5.4c10.8,0,10.8-5.4,21.6-5.4c10.8,0,10.8,5.4,21.6,5.4
				c10.8,0,10.8-5.4,21.6-5.4c10.8,0,10.8,5.4,21.6,5.4c10.8,0,10.8-5.4,21.6-5.4c10.8,0,10.8,5.4,21.6,5.4
				c10.8,0,10.8-5.4,21.6-5.4c10.8,0,10.8,5.4,21.6,5.4c10.8,0,10.8-5.4,21.6-5.4c10.8,0,10.8,5.4,21.6,5.4
				c10.8,0,10.8-5.4,21.6-5.4c10.8,0,10.8,5.4,21.6,5.4c10.8,0,10.8-5.4,21.6-5.4c10.8,0,10.8,5.4,21.6,5.4
				c10.8,0,10.8-5.4,21.6-5.4c10.8,0,10.8,5.4,21.6,5.4c10.8,0,10.8-5.4,21.6-5.4c10.8,0,10.8,5.4,21.6,5.4
				c10.8,0,10.8-5.4,21.6-5.4c10.8,0,10.8,5.4,21.6,5.4c10.8,0,10.8-5.4,21.6-5.4c10.8,0,10.8,5.4,21.6,5.4
				c10.8,0,10.8-5.4,21.6-5.4c10.8,0,10.8,5.4,21.6,5.4s10.8-5.4,21.6-5.4"/>
			<path class="st1" d="M0,373.1c10.8,0,10.8,5.4,21.6,5.4c10.8,0,10.8-5.4,21.6-5.4c10.8,0,10.8,5.4,21.6,5.4
				c10.8,0,10.8-5.4,21.6-5.4c10.8,0,10.8,5.4,21.6,5.4c10.8,0,10.8-5.4,21.6-5.4c10.8,0,10.8,5.4,21.6,5.4
				c10.8,0,10.8-5.4,21.6-5.4c10.8,0,10.8,5.4,21.6,5.4c10.8,0,10.8-5.4,21.6-5.4c10.8,0,10.8,5.4,21.6,5.4
				c10.8,0,10.8-5.4,21.6-5.4c10.8,0,10.8,5.4,21.6,5.4c10.8,0,10.8-5.4,21.6-5.4c10.8,0,10.8,5.4,21.6,5.4
				c10.8,0,10.8-5.4,21.6-5.4c10.8,0,10.8,5.4,21.6,5.4c10.8,0,10.8-5.4,21.6-5.4c10.8,0,10.8,5.4,21.6,5.4
				c10.8,0,10.8-5.4,21.6-5.4c10.8,0,10.8,5.4,21.6,5.4c10.8,0,10.8-5.4,21.6-5.4c10.8,0,10.8,5.4,21.6,5.4
				c10.8,0,10.8-5.4,21.6-5.4c10.8,0,10.8,5.4,21.6,5.4c10.8,0,10.8-5.4,21.6-5.4c10.8,0,10.8,5.4,21.6,5.4
				c10.8,0,10.8-5.4,21.6-5.4c10.8,0,10.8,5.4,21.6,5.4c10.8,0,10.8-5.4,21.6-5.4c10.8,0,10.8,5.4,21.6,5.4
				c10.8,0,10.8-5.4,21.6-5.4c10.8,0,10.8,5.4,21.6,5.4c10.8,0,10.8-5.4,21.6-5.4c10.8,0,10.8,5.4,21.6,5.4
				c10.8,0,10.8-5.4,21.6-5.4c10.8,0,10.8,5.4,21.6,5.4s10.8-5.4,21.6-5.4"/>
			<path class="st1" d="M0,366.4c10.8,0,10.8,5.4,21.6,5.4c10.8,0,10.8-5.4,21.6-5.4c10.8,0,10.8,5.4,21.6,5.4
				c10.8,0,10.8-5.4,21.6-5.4c10.8,0,10.8,5.4,21.6,5.4c10.8,0,10.8-5.4,21.6-5.4c10.8,0,10.8,5.4,21.6,5.4
				c10.8,0,10.8-5.4,21.6-5.4c10.8,0,10.8,5.4,21.6,5.4c10.8,0,10.8-5.4,21.6-5.4c10.8,0,10.8,5.4,21.6,5.4
				c10.8,0,10.8-5.4,21.6-5.4c10.8,0,10.8,5.4,21.6,5.4c10.8,0,10.8-5.4,21.6-5.4c10.8,0,10.8,5.4,21.6,5.4
				c10.8,0,10.8-5.4,21.6-5.4c10.8,0,10.8,5.4,21.6,5.4c10.8,0,10.8-5.4,21.6-5.4c10.8,0,10.8,5.4,21.6,5.4
				c10.8,0,10.8-5.4,21.6-5.4c10.8,0,10.8,5.4,21.6,5.4c10.8,0,10.8-5.4,21.6-5.4c10.8,0,10.8,5.4,21.6,5.4
				c10.8,0,10.8-5.4,21.6-5.4c10.8,0,10.8,5.4,21.6,5.4c10.8,0,10.8-5.4,21.6-5.4c10.8,0,10.8,5.4,21.6,5.4
				c10.8,0,10.8-5.4,21.6-5.4c10.8,0,10.8,5.4,21.6,5.4c10.8,0,10.8-5.4,21.6-5.4c10.8,0,10.8,5.4,21.6,5.4
				c10.8,0,10.8-5.4,21.6-5.4c10.8,0,10.8,5.4,21.6,5.4c10.8,0,10.8-5.4,21.6-5.4c10.8,0,10.8,5.4,21.6,5.4
				c10.8,0,10.8-5.4,21.6-5.4c10.8,0,10.8,5.4,21.6,5.4s10.8-5.4,21.6-5.4"/>
			<path class="st1" d="M0,359.7c10.8,0,10.8,5.4,21.6,5.4c10.8,0,10.8-5.4,21.6-5.4c10.8,0,10.8,5.4,21.6,5.4
				c10.8,0,10.8-5.4,21.6-5.4c10.8,0,10.8,5.4,21.6,5.4c10.8,0,10.8-5.4,21.6-5.4c10.8,0,10.8,5.4,21.6,5.4
				c10.8,0,10.8-5.4,21.6-5.4c10.8,0,10.8,5.4,21.6,5.4c10.8,0,10.8-5.4,21.6-5.4c10.8,0,10.8,5.4,21.6,5.4
				c10.8,0,10.8-5.4,21.6-5.4c10.8,0,10.8,5.4,21.6,5.4c10.8,0,10.8-5.4,21.6-5.4c10.8,0,10.8,5.4,21.6,5.4
				c10.8,0,10.8-5.4,21.6-5.4c10.8,0,10.8,5.4,21.6,5.4c10.8,0,10.8-5.4,21.6-5.4c10.8,0,10.8,5.4,21.6,5.4
				c10.8,0,10.8-5.4,21.6-5.4c10.8,0,10.8,5.4,21.6,5.4c10.8,0,10.8-5.4,21.6-5.4c10.8,0,10.8,5.4,21.6,5.4
				c10.8,0,10.8-5.4,21.6-5.4c10.8,0,10.8,5.4,21.6,5.4c10.8,0,10.8-5.4,21.6-5.4c10.8,0,10.8,5.4,21.6,5.4
				c10.8,0,10.8-5.4,21.6-5.4c10.8,0,10.8,5.4,21.6,5.4c10.8,0,10.8-5.4,21.6-5.4c10.8,0,10.8,5.4,21.6,5.4
				c10.8,0,10.8-5.4,21.6-5.4c10.8,0,10.8,5.4,21.6,5.4c10.8,0,10.8-5.4,21.6-5.4c10.8,0,10.8,5.4,21.6,5.4
				c10.8,0,10.8-5.4,21.6-5.4c10.8,0,10.8,5.4,21.6,5.4s10.8-5.4,21.6-5.4"/>
			<path class="st1" d="M0,353c10.8,0,10.8,5.4,21.6,5.4c10.8,0,10.8-5.4,21.6-5.4c10.8,0,10.8,5.4,21.6,5.4
				c10.8,0,10.8-5.4,21.6-5.4c10.8,0,10.8,5.4,21.6,5.4c10.8,0,10.8-5.4,21.6-5.4c10.8,0,10.8,5.4,21.6,5.4
				c10.8,0,10.8-5.4,21.6-5.4c10.8,0,10.8,5.4,21.6,5.4c10.8,0,10.8-5.4,21.6-5.4c10.8,0,10.8,5.4,21.6,5.4
				c10.8,0,10.8-5.4,21.6-5.4c10.8,0,10.8,5.4,21.6,5.4c10.8,0,10.8-5.4,21.6-5.4c10.8,0,10.8,5.4,21.6,5.4
				c10.8,0,10.8-5.4,21.6-5.4c10.8,0,10.8,5.4,21.6,5.4c10.8,0,10.8-5.4,21.6-5.4c10.8,0,10.8,5.4,21.6,5.4
				c10.8,0,10.8-5.4,21.6-5.4c10.8,0,10.8,5.4,21.6,5.4c10.8,0,10.8-5.4,21.6-5.4c10.8,0,10.8,5.4,21.6,5.4
				c10.8,0,10.8-5.4,21.6-5.4c10.8,0,10.8,5.4,21.6,5.4c10.8,0,10.8-5.4,21.6-5.4c10.8,0,10.8,5.4,21.6,5.4
				c10.8,0,10.8-5.4,21.6-5.4c10.8,0,10.8,5.4,21.6,5.4c10.8,0,10.8-5.4,21.6-5.4c10.8,0,10.8,5.4,21.6,5.4
				c10.8,0,10.8-5.4,21.6-5.4c10.8,0,10.8,5.4,21.6,5.4c10.8,0,10.8-5.4,21.6-5.4c10.8,0,10.8,5.4,21.6,5.4
				c10.8,0,10.8-5.4,21.6-5.4c10.8,0,10.8,5.4,21.6,5.4s10.8-5.4,21.6-5.4"/>
			<path class="st1" d="M0,346.3c10.8,0,10.8,5.4,21.6,5.4c10.8,0,10.8-5.4,21.6-5.4c10.8,0,10.8,5.4,21.6,5.4
				c10.8,0,10.8-5.4,21.6-5.4c10.8,0,10.8,5.4,21.6,5.4c10.8,0,10.8-5.4,21.6-5.4c10.8,0,10.8,5.4,21.6,5.4
				c10.8,0,10.8-5.4,21.6-5.4c10.8,0,10.8,5.4,21.6,5.4c10.8,0,10.8-5.4,21.6-5.4c10.8,0,10.8,5.4,21.6,5.4
				c10.8,0,10.8-5.4,21.6-5.4c10.8,0,10.8,5.4,21.6,5.4c10.8,0,10.8-5.4,21.6-5.4c10.8,0,10.8,5.4,21.6,5.4
				c10.8,0,10.8-5.4,21.6-5.4c10.8,0,10.8,5.4,21.6,5.4c10.8,0,10.8-5.4,21.6-5.4c10.8,0,10.8,5.4,21.6,5.4
				c10.8,0,10.8-5.4,21.6-5.4c10.8,0,10.8,5.4,21.6,5.4c10.8,0,10.8-5.4,21.6-5.4c10.8,0,10.8,5.4,21.6,5.4
				c10.8,0,10.8-5.4,21.6-5.4c10.8,0,10.8,5.4,21.6,5.4c10.8,0,10.8-5.4,21.6-5.4c10.8,0,10.8,5.4,21.6,5.4
				c10.8,0,10.8-5.4,21.6-5.4c10.8,0,10.8,5.4,21.6,5.4c10.8,0,10.8-5.4,21.6-5.4c10.8,0,10.8,5.4,21.6,5.4
				c10.8,0,10.8-5.4,21.6-5.4c10.8,0,10.8,5.4,21.6,5.4c10.8,0,10.8-5.4,21.6-5.4c10.8,0,10.8,5.4,21.6,5.4
				c10.8,0,10.8-5.4,21.6-5.4c10.8,0,10.8,5.4,21.6,5.4s10.8-5.4,21.6-5.4"/>
			<path class="st1" d="M0,339.6c10.8,0,10.8,5.4,21.6,5.4c10.8,0,10.8-5.4,21.6-5.4c10.8,0,10.8,5.4,21.6,5.4
				c10.8,0,10.8-5.4,21.6-5.4c10.8,0,10.8,5.4,21.6,5.4c10.8,0,10.8-5.4,21.6-5.4c10.8,0,10.8,5.4,21.6,5.4
				c10.8,0,10.8-5.4,21.6-5.4c10.8,0,10.8,5.4,21.6,5.4c10.8,0,10.8-5.4,21.6-5.4c10.8,0,10.8,5.4,21.6,5.4
				c10.8,0,10.8-5.4,21.6-5.4c10.8,0,10.8,5.4,21.6,5.4c10.8,0,10.8-5.4,21.6-5.4c10.8,0,10.8,5.4,21.6,5.4
				c10.8,0,10.8-5.4,21.6-5.4c10.8,0,10.8,5.4,21.6,5.4c10.8,0,10.8-5.4,21.6-5.4c10.8,0,10.8,5.4,21.6,5.4
				c10.8,0,10.8-5.4,21.6-5.4c10.8,0,10.8,5.4,21.6,5.4c10.8,0,10.8-5.4,21.6-5.4c10.8,0,10.8,5.4,21.6,5.4
				c10.8,0,10.8-5.4,21.6-5.4c10.8,0,10.8,5.4,21.6,5.4c10.8,0,10.8-5.4,21.6-5.4c10.8,0,10.8,5.4,21.6,5.4
				c10.8,0,10.8-5.4,21.6-5.4c10.8,0,10.8,5.4,21.6,5.4c10.8,0,10.8-5.4,21.6-5.4c10.8,0,10.8,5.4,21.6,5.4
				c10.8,0,10.8-5.4,21.6-5.4c10.8,0,10.8,5.4,21.6,5.4c10.8,0,10.8-5.4,21.6-5.4c10.8,0,10.8,5.4,21.6,5.4
				c10.8,0,10.8-5.4,21.6-5.4c10.8,0,10.8,5.4,21.6,5.4s10.8-5.4,21.6-5.4"/>
			<path class="st1" d="M0,332.8c10.8,0,10.8,5.4,21.6,5.4c10.8,0,10.8-5.4,21.6-5.4c10.8,0,10.8,5.4,21.6,5.4
				c10.8,0,10.8-5.4,21.6-5.4c10.8,0,10.8,5.4,21.6,5.4c10.8,0,10.8-5.4,21.6-5.4c10.8,0,10.8,5.4,21.6,5.4
				c10.8,0,10.8-5.4,21.6-5.4c10.8,0,10.8,5.4,21.6,5.4c10.8,0,10.8-5.4,21.6-5.4c10.8,0,10.8,5.4,21.6,5.4
				c10.8,0,10.8-5.4,21.6-5.4c10.8,0,10.8,5.4,21.6,5.4c10.8,0,10.8-5.4,21.6-5.4c10.8,0,10.8,5.4,21.6,5.4
				c10.8,0,10.8-5.4,21.6-5.4c10.8,0,10.8,5.4,21.6,5.4c10.8,0,10.8-5.4,21.6-5.4c10.8,0,10.8,5.4,21.6,5.4
				c10.8,0,10.8-5.4,21.6-5.4c10.8,0,10.8,5.4,21.6,5.4c10.8,0,10.8-5.4,21.6-5.4c10.8,0,10.8,5.4,21.6,5.4
				c10.8,0,10.8-5.4,21.6-5.4c10.8,0,10.8,5.4,21.6,5.4c10.8,0,10.8-5.4,21.6-5.4c10.8,0,10.8,5.4,21.6,5.4
				c10.8,0,10.8-5.4,21.6-5.4c10.8,0,10.8,5.4,21.6,5.4c10.8,0,10.8-5.4,21.6-5.4c10.8,0,10.8,5.4,21.6,5.4
				c10.8,0,10.8-5.4,21.6-5.4c10.8,0,10.8,5.4,21.6,5.4c10.8,0,10.8-5.4,21.6-5.4c10.8,0,10.8,5.4,21.6,5.4
				c10.8,0,10.8-5.4,21.6-5.4c10.8,0,10.8,5.4,21.6,5.4s10.8-5.4,21.6-5.4"/>
			<path class="st1" d="M0,326.1c10.8,0,10.8,5.4,21.6,5.4c10.8,0,10.8-5.4,21.6-5.4c10.8,0,10.8,5.4,21.6,5.4
				c10.8,0,10.8-5.4,21.6-5.4c10.8,0,10.8,5.4,21.6,5.4c10.8,0,10.8-5.4,21.6-5.4c10.8,0,10.8,5.4,21.6,5.4
				c10.8,0,10.8-5.4,21.6-5.4c10.8,0,10.8,5.4,21.6,5.4c10.8,0,10.8-5.4,21.6-5.4c10.8,0,10.8,5.4,21.6,5.4
				c10.8,0,10.8-5.4,21.6-5.4c10.8,0,10.8,5.4,21.6,5.4c10.8,0,10.8-5.4,21.6-5.4c10.8,0,10.8,5.4,21.6,5.4
				c10.8,0,10.8-5.4,21.6-5.4c10.8,0,10.8,5.4,21.6,5.4c10.8,0,10.8-5.4,21.6-5.4c10.8,0,10.8,5.4,21.6,5.4
				c10.8,0,10.8-5.4,21.6-5.4c10.8,0,10.8,5.4,21.6,5.4c10.8,0,10.8-5.4,21.6-5.4c10.8,0,10.8,5.4,21.6,5.4
				c10.8,0,10.8-5.4,21.6-5.4c10.8,0,10.8,5.4,21.6,5.4c10.8,0,10.8-5.4,21.6-5.4c10.8,0,10.8,5.4,21.6,5.4
				c10.8,0,10.8-5.4,21.6-5.4c10.8,0,10.8,5.4,21.6,5.4c10.8,0,10.8-5.4,21.6-5.4c10.8,0,10.8,5.4,21.6,5.4
				c10.8,0,10.8-5.4,21.6-5.4c10.8,0,10.8,5.4,21.6,5.4c10.8,0,10.8-5.4,21.6-5.4c10.8,0,10.8,5.4,21.6,5.4
				c10.8,0,10.8-5.4,21.6-5.4c10.8,0,10.8,5.4,21.6,5.4s10.8-5.4,21.6-5.4"/>
			<path class="st1" d="M0,319.4c10.8,0,10.8,5.4,21.6,5.4c10.8,0,10.8-5.4,21.6-5.4c10.8,0,10.8,5.4,21.6,5.4
				c10.8,0,10.8-5.4,21.6-5.4c10.8,0,10.8,5.4,21.6,5.4c10.8,0,10.8-5.4,21.6-5.4c10.8,0,10.8,5.4,21.6,5.4
				c10.8,0,10.8-5.4,21.6-5.4c10.8,0,10.8,5.4,21.6,5.4c10.8,0,10.8-5.4,21.6-5.4c10.8,0,10.8,5.4,21.6,5.4
				c10.8,0,10.8-5.4,21.6-5.4c10.8,0,10.8,5.4,21.6,5.4c10.8,0,10.8-5.4,21.6-5.4c10.8,0,10.8,5.4,21.6,5.4
				c10.8,0,10.8-5.4,21.6-5.4c10.8,0,10.8,5.4,21.6,5.4c10.8,0,10.8-5.4,21.6-5.4c10.8,0,10.8,5.4,21.6,5.4
				c10.8,0,10.8-5.4,21.6-5.4c10.8,0,10.8,5.4,21.6,5.4c10.8,0,10.8-5.4,21.6-5.4c10.8,0,10.8,5.4,21.6,5.4
				c10.8,0,10.8-5.4,21.6-5.4c10.8,0,10.8,5.4,21.6,5.4c10.8,0,10.8-5.4,21.6-5.4c10.8,0,10.8,5.4,21.6,5.4
				c10.8,0,10.8-5.4,21.6-5.4c10.8,0,10.8,5.4,21.6,5.4c10.8,0,10.8-5.4,21.6-5.4c10.8,0,10.8,5.4,21.6,5.4
				c10.8,0,10.8-5.4,21.6-5.4c10.8,0,10.8,5.4,21.6,5.4c10.8,0,10.8-5.4,21.6-5.4c10.8,0,10.8,5.4,21.6,5.4
				c10.8,0,10.8-5.4,21.6-5.4c10.8,0,10.8,5.4,21.6,5.4s10.8-5.4,21.6-5.4"/>
			<path class="st1" d="M0,312.7c10.8,0,10.8,5.4,21.6,5.4c10.8,0,10.8-5.4,21.6-5.4c10.8,0,10.8,5.4,21.6,5.4
				c10.8,0,10.8-5.4,21.6-5.4c10.8,0,10.8,5.4,21.6,5.4c10.8,0,10.8-5.4,21.6-5.4c10.8,0,10.8,5.4,21.6,5.4
				c10.8,0,10.8-5.4,21.6-5.4c10.8,0,10.8,5.4,21.6,5.4c10.8,0,10.8-5.4,21.6-5.4c10.8,0,10.8,5.4,21.6,5.4
				c10.8,0,10.8-5.4,21.6-5.4c10.8,0,10.8,5.4,21.6,5.4c10.8,0,10.8-5.4,21.6-5.4c10.8,0,10.8,5.4,21.6,5.4
				c10.8,0,10.8-5.4,21.6-5.4c10.8,0,10.8,5.4,21.6,5.4c10.8,0,10.8-5.4,21.6-5.4c10.8,0,10.8,5.4,21.6,5.4
				c10.8,0,10.8-5.4,21.6-5.4c10.8,0,10.8,5.4,21.6,5.4c10.8,0,10.8-5.4,21.6-5.4c10.8,0,10.8,5.4,21.6,5.4
				c10.8,0,10.8-5.4,21.6-5.4c10.8,0,10.8,5.4,21.6,5.4c10.8,0,10.8-5.4,21.6-5.4c10.8,0,10.8,5.4,21.6,5.4
				c10.8,0,10.8-5.4,21.6-5.4c10.8,0,10.8,5.4,21.6,5.4c10.8,0,10.8-5.4,21.6-5.4c10.8,0,10.8,5.4,21.6,5.4
				c10.8,0,10.8-5.4,21.6-5.4c10.8,0,10.8,5.4,21.6,5.4c10.8,0,10.8-5.4,21.6-5.4c10.8,0,10.8,5.4,21.6,5.4
				c10.8,0,10.8-5.4,21.6-5.4c10.8,0,10.8,5.4,21.6,5.4s10.8-5.4,21.6-5.4"/>
			<path class="st1" d="M0,306c10.8,0,10.8,5.4,21.6,5.4c10.8,0,10.8-5.4,21.6-5.4c10.8,0,10.8,5.4,21.6,5.4
				c10.8,0,10.8-5.4,21.6-5.4c10.8,0,10.8,5.4,21.6,5.4c10.8,0,10.8-5.4,21.6-5.4c10.8,0,10.8,5.4,21.6,5.4
				c10.8,0,10.8-5.4,21.6-5.4c10.8,0,10.8,5.4,21.6,5.4c10.8,0,10.8-5.4,21.6-5.4c10.8,0,10.8,5.4,21.6,5.4
				c10.8,0,10.8-5.4,21.6-5.4c10.8,0,10.8,5.4,21.6,5.4c10.8,0,10.8-5.4,21.6-5.4c10.8,0,10.8,5.4,21.6,5.4
				c10.8,0,10.8-5.4,21.6-5.4c10.8,0,10.8,5.4,21.6,5.4c10.8,0,10.8-5.4,21.6-5.4c10.8,0,10.8,5.4,21.6,5.4
				c10.8,0,10.8-5.4,21.6-5.4c10.8,0,10.8,5.4,21.6,5.4c10.8,0,10.8-5.4,21.6-5.4c10.8,0,10.8,5.4,21.6,5.4
				c10.8,0,10.8-5.4,21.6-5.4c10.8,0,10.8,5.4,21.6,5.4c10.8,0,10.8-5.4,21.6-5.4c10.8,0,10.8,5.4,21.6,5.4
				c10.8,0,10.8-5.4,21.6-5.4c10.8,0,10.8,5.4,21.6,5.4c10.8,0,10.8-5.4,21.6-5.4c10.8,0,10.8,5.4,21.6,5.4
				c10.8,0,10.8-5.4,21.6-5.4c10.8,0,10.8,5.4,21.6,5.4c10.8,0,10.8-5.4,21.6-5.4c10.8,0,10.8,5.4,21.6,5.4
				c10.8,0,10.8-5.4,21.6-5.4c10.8,0,10.8,5.4,21.6,5.4s10.8-5.4,21.6-5.4"/>
			<path class="st1" d="M0,299.3c10.8,0,10.8,5.4,21.6,5.4c10.8,0,10.8-5.4,21.6-5.4c10.8,0,10.8,5.4,21.6,5.4
				c10.8,0,10.8-5.4,21.6-5.4c10.8,0,10.8,5.4,21.6,5.4c10.8,0,10.8-5.4,21.6-5.4c10.8,0,10.8,5.4,21.6,5.4
				c10.8,0,10.8-5.4,21.6-5.4c10.8,0,10.8,5.4,21.6,5.4c10.8,0,10.8-5.4,21.6-5.4c10.8,0,10.8,5.4,21.6,5.4
				c10.8,0,10.8-5.4,21.6-5.4c10.8,0,10.8,5.4,21.6,5.4c10.8,0,10.8-5.4,21.6-5.4c10.8,0,10.8,5.4,21.6,5.4
				c10.8,0,10.8-5.4,21.6-5.4c10.8,0,10.8,5.4,21.6,5.4c10.8,0,10.8-5.4,21.6-5.4c10.8,0,10.8,5.4,21.6,5.4
				c10.8,0,10.8-5.4,21.6-5.4c10.8,0,10.8,5.4,21.6,5.4c10.8,0,10.8-5.4,21.6-5.4c10.8,0,10.8,5.4,21.6,5.4
				c10.8,0,10.8-5.4,21.6-5.4c10.8,0,10.8,5.4,21.6,5.4c10.8,0,10.8-5.4,21.6-5.4c10.8,0,10.8,5.4,21.6,5.4
				c10.8,0,10.8-5.4,21.6-5.4c10.8,0,10.8,5.4,21.6,5.4c10.8,0,10.8-5.4,21.6-5.4c10.8,0,10.8,5.4,21.6,5.4
				c10.8,0,10.8-5.4,21.6-5.4c10.8,0,10.8,5.4,21.6,5.4c10.8,0,10.8-5.4,21.6-5.4c10.8,0,10.8,5.4,21.6,5.4
				c10.8,0,10.8-5.4,21.6-5.4c10.8,0,10.8,5.4,21.6,5.4s10.8-5.4,21.6-5.4"/>
			<path class="st1" d="M0,292.6c10.8,0,10.8,5.4,21.6,5.4c10.8,0,10.8-5.4,21.6-5.4c10.8,0,10.8,5.4,21.6,5.4
				c10.8,0,10.8-5.4,21.6-5.4c10.8,0,10.8,5.4,21.6,5.4c10.8,0,10.8-5.4,21.6-5.4c10.8,0,10.8,5.4,21.6,5.4
				c10.8,0,10.8-5.4,21.6-5.4c10.8,0,10.8,5.4,21.6,5.4c10.8,0,10.8-5.4,21.6-5.4c10.8,0,10.8,5.4,21.6,5.4
				c10.8,0,10.8-5.4,21.6-5.4c10.8,0,10.8,5.4,21.6,5.4c10.8,0,10.8-5.4,21.6-5.4c10.8,0,10.8,5.4,21.6,5.4
				c10.8,0,10.8-5.4,21.6-5.4c10.8,0,10.8,5.4,21.6,5.4c10.8,0,10.8-5.4,21.6-5.4c10.8,0,10.8,5.4,21.6,5.4
				c10.8,0,10.8-5.4,21.6-5.4c10.8,0,10.8,5.4,21.6,5.4c10.8,0,10.8-5.4,21.6-5.4c10.8,0,10.8,5.4,21.6,5.4
				c10.8,0,10.8-5.4,21.6-5.4c10.8,0,10.8,5.4,21.6,5.4c10.8,0,10.8-5.4,21.6-5.4c10.8,0,10.8,5.4,21.6,5.4
				c10.8,0,10.8-5.4,21.6-5.4c10.8,0,10.8,5.4,21.6,5.4c10.8,0,10.8-5.4,21.6-5.4c10.8,0,10.8,5.4,21.6,5.4
				c10.8,0,10.8-5.4,21.6-5.4c10.8,0,10.8,5.4,21.6,5.4c10.8,0,10.8-5.4,21.6-5.4c10.8,0,10.8,5.4,21.6,5.4
				c10.8,0,10.8-5.4,21.6-5.4c10.8,0,10.8,5.4,21.6,5.4s10.8-5.4,21.6-5.4"/>
			<path class="st1" d="M0,285.8c10.8,0,10.8,5.4,21.6,5.4c10.8,0,10.8-5.4,21.6-5.4c10.8,0,10.8,5.4,21.6,5.4
				c10.8,0,10.8-5.4,21.6-5.4c10.8,0,10.8,5.4,21.6,5.4c10.8,0,10.8-5.4,21.6-5.4c10.8,0,10.8,5.4,21.6,5.4
				c10.8,0,10.8-5.4,21.6-5.4c10.8,0,10.8,5.4,21.6,5.4c10.8,0,10.8-5.4,21.6-5.4c10.8,0,10.8,5.4,21.6,5.4
				c10.8,0,10.8-5.4,21.6-5.4c10.8,0,10.8,5.4,21.6,5.4c10.8,0,10.8-5.4,21.6-5.4c10.8,0,10.8,5.4,21.6,5.4
				c10.8,0,10.8-5.4,21.6-5.4c10.8,0,10.8,5.4,21.6,5.4c10.8,0,10.8-5.4,21.6-5.4c10.8,0,10.8,5.4,21.6,5.4
				c10.8,0,10.8-5.4,21.6-5.4c10.8,0,10.8,5.4,21.6,5.4c10.8,0,10.8-5.4,21.6-5.4c10.8,0,10.8,5.4,21.6,5.4
				c10.8,0,10.8-5.4,21.6-5.4c10.8,0,10.8,5.4,21.6,5.4c10.8,0,10.8-5.4,21.6-5.4c10.8,0,10.8,5.4,21.6,5.4
				c10.8,0,10.8-5.4,21.6-5.4c10.8,0,10.8,5.4,21.6,5.4c10.8,0,10.8-5.4,21.6-5.4c10.8,0,10.8,5.4,21.6,5.4
				c10.8,0,10.8-5.4,21.6-5.4c10.8,0,10.8,5.4,21.6,5.4c10.8,0,10.8-5.4,21.6-5.4c10.8,0,10.8,5.4,21.6,5.4
				c10.8,0,10.8-5.4,21.6-5.4c10.8,0,10.8,5.4,21.6,5.4s10.8-5.4,21.6-5.4"/>
			<path class="st1" d="M0,279.1c10.8,0,10.8,5.4,21.6,5.4c10.8,0,10.8-5.4,21.6-5.4c10.8,0,10.8,5.4,21.6,5.4
				c10.8,0,10.8-5.4,21.6-5.4c10.8,0,10.8,5.4,21.6,5.4c10.8,0,10.8-5.4,21.6-5.4c10.8,0,10.8,5.4,21.6,5.4
				c10.8,0,10.8-5.4,21.6-5.4c10.8,0,10.8,5.4,21.6,5.4c10.8,0,10.8-5.4,21.6-5.4c10.8,0,10.8,5.4,21.6,5.4
				c10.8,0,10.8-5.4,21.6-5.4c10.8,0,10.8,5.4,21.6,5.4c10.8,0,10.8-5.4,21.6-5.4c10.8,0,10.8,5.4,21.6,5.4
				c10.8,0,10.8-5.4,21.6-5.4c10.8,0,10.8,5.4,21.6,5.4c10.8,0,10.8-5.4,21.6-5.4c10.8,0,10.8,5.4,21.6,5.4
				c10.8,0,10.8-5.4,21.6-5.4c10.8,0,10.8,5.4,21.6,5.4c10.8,0,10.8-5.4,21.6-5.4c10.8,0,10.8,5.4,21.6,5.4
				c10.8,0,10.8-5.4,21.6-5.4c10.8,0,10.8,5.4,21.6,5.4c10.8,0,10.8-5.4,21.6-5.4c10.8,0,10.8,5.4,21.6,5.4
				c10.8,0,10.8-5.4,21.6-5.4c10.8,0,10.8,5.4,21.6,5.4c10.8,0,10.8-5.4,21.6-5.4c10.8,0,10.8,5.4,21.6,5.4
				c10.8,0,10.8-5.4,21.6-5.4c10.8,0,10.8,5.4,21.6,5.4c10.8,0,10.8-5.4,21.6-5.4c10.8,0,10.8,5.4,21.6,5.4
				c10.8,0,10.8-5.4,21.6-5.4c10.8,0,10.8,5.4,21.6,5.4s10.8-5.4,21.6-5.4"/>
			<path class="st1" d="M0,272.4c10.8,0,10.8,5.4,21.6,5.4c10.8,0,10.8-5.4,21.6-5.4c10.8,0,10.8,5.4,21.6,5.4
				c10.8,0,10.8-5.4,21.6-5.4c10.8,0,10.8,5.4,21.6,5.4c10.8,0,10.8-5.4,21.6-5.4c10.8,0,10.8,5.4,21.6,5.4
				c10.8,0,10.8-5.4,21.6-5.4c10.8,0,10.8,5.4,21.6,5.4c10.8,0,10.8-5.4,21.6-5.4c10.8,0,10.8,5.4,21.6,5.4
				c10.8,0,10.8-5.4,21.6-5.4c10.8,0,10.8,5.4,21.6,5.4c10.8,0,10.8-5.4,21.6-5.4c10.8,0,10.8,5.4,21.6,5.4
				c10.8,0,10.8-5.4,21.6-5.4c10.8,0,10.8,5.4,21.6,5.4c10.8,0,10.8-5.4,21.6-5.4c10.8,0,10.8,5.4,21.6,5.4
				c10.8,0,10.8-5.4,21.6-5.4c10.8,0,10.8,5.4,21.6,5.4c10.8,0,10.8-5.4,21.6-5.4c10.8,0,10.8,5.4,21.6,5.4
				c10.8,0,10.8-5.4,21.6-5.4c10.8,0,10.8,5.4,21.6,5.4c10.8,0,10.8-5.4,21.6-5.4c10.8,0,10.8,5.4,21.6,5.4
				c10.8,0,10.8-5.4,21.6-5.4c10.8,0,10.8,5.4,21.6,5.4c10.8,0,10.8-5.4,21.6-5.4c10.8,0,10.8,5.4,21.6,5.4
				c10.8,0,10.8-5.4,21.6-5.4c10.8,0,10.8,5.4,21.6,5.4c10.8,0,10.8-5.4,21.6-5.4c10.8,0,10.8,5.4,21.6,5.4
				c10.8,0,10.8-5.4,21.6-5.4c10.8,0,10.8,5.4,21.6,5.4s10.8-5.4,21.6-5.4"/>
			<path class="st1" d="M0,265.7c10.8,0,10.8,5.4,21.6,5.4c10.8,0,10.8-5.4,21.6-5.4c10.8,0,10.8,5.4,21.6,5.4
				c10.8,0,10.8-5.4,21.6-5.4c10.8,0,10.8,5.4,21.6,5.4c10.8,0,10.8-5.4,21.6-5.4c10.8,0,10.8,5.4,21.6,5.4
				c10.8,0,10.8-5.4,21.6-5.4c10.8,0,10.8,5.4,21.6,5.4c10.8,0,10.8-5.4,21.6-5.4c10.8,0,10.8,5.4,21.6,5.4
				c10.8,0,10.8-5.4,21.6-5.4c10.8,0,10.8,5.4,21.6,5.4c10.8,0,10.8-5.4,21.6-5.4c10.8,0,10.8,5.4,21.6,5.4
				c10.8,0,10.8-5.4,21.6-5.4c10.8,0,10.8,5.4,21.6,5.4c10.8,0,10.8-5.4,21.6-5.4c10.8,0,10.8,5.4,21.6,5.4
				c10.8,0,10.8-5.4,21.6-5.4c10.8,0,10.8,5.4,21.6,5.4c10.8,0,10.8-5.4,21.6-5.4c10.8,0,10.8,5.4,21.6,5.4
				c10.8,0,10.8-5.4,21.6-5.4c10.8,0,10.8,5.4,21.6,5.4c10.8,0,10.8-5.4,21.6-5.4c10.8,0,10.8,5.4,21.6,5.4
				c10.8,0,10.8-5.4,21.6-5.4c10.8,0,10.8,5.4,21.6,5.4c10.8,0,10.8-5.4,21.6-5.4c10.8,0,10.8,5.4,21.6,5.4
				c10.8,0,10.8-5.4,21.6-5.4c10.8,0,10.8,5.4,21.6,5.4c10.8,0,10.8-5.4,21.6-5.4c10.8,0,10.8,5.4,21.6,5.4
				c10.8,0,10.8-5.4,21.6-5.4c10.8,0,10.8,5.4,21.6,5.4s10.8-5.4,21.6-5.4"/>
			<path class="st1" d="M0,259c10.8,0,10.8,5.4,21.6,5.4c10.8,0,10.8-5.4,21.6-5.4c10.8,0,10.8,5.4,21.6,5.4
				c10.8,0,10.8-5.4,21.6-5.4c10.8,0,10.8,5.4,21.6,5.4c10.8,0,10.8-5.4,21.6-5.4c10.8,0,10.8,5.4,21.6,5.4
				c10.8,0,10.8-5.4,21.6-5.4c10.8,0,10.8,5.4,21.6,5.4c10.8,0,10.8-5.4,21.6-5.4c10.8,0,10.8,5.4,21.6,5.4
				c10.8,0,10.8-5.4,21.6-5.4c10.8,0,10.8,5.4,21.6,5.4c10.8,0,10.8-5.4,21.6-5.4c10.8,0,10.8,5.4,21.6,5.4
				c10.8,0,10.8-5.4,21.6-5.4c10.8,0,10.8,5.4,21.6,5.4c10.8,0,10.8-5.4,21.6-5.4c10.8,0,10.8,5.4,21.6,5.4
				c10.8,0,10.8-5.4,21.6-5.4c10.8,0,10.8,5.4,21.6,5.4c10.8,0,10.8-5.4,21.6-5.4c10.8,0,10.8,5.4,21.6,5.4
				c10.8,0,10.8-5.4,21.6-5.4c10.8,0,10.8,5.4,21.6,5.4c10.8,0,10.8-5.4,21.6-5.4c10.8,0,10.8,5.4,21.6,5.4
				c10.8,0,10.8-5.4,21.6-5.4c10.8,0,10.8,5.4,21.6,5.4c10.8,0,10.8-5.4,21.6-5.4c10.8,0,10.8,5.4,21.6,5.4
				c10.8,0,10.8-5.4,21.6-5.4c10.8,0,10.8,5.4,21.6,5.4c10.8,0,10.8-5.4,21.6-5.4c10.8,0,10.8,5.4,21.6,5.4
				c10.8,0,10.8-5.4,21.6-5.4c10.8,0,10.8,5.4,21.6,5.4s10.8-5.4,21.6-5.4"/>
			<path class="st1" d="M0,252.3c10.8,0,10.8,5.4,21.6,5.4c10.8,0,10.8-5.4,21.6-5.4c10.8,0,10.8,5.4,21.6,5.4
				c10.8,0,10.8-5.4,21.6-5.4c10.8,0,10.8,5.4,21.6,5.4c10.8,0,10.8-5.4,21.6-5.4c10.8,0,10.8,5.4,21.6,5.4
				c10.8,0,10.8-5.4,21.6-5.4c10.8,0,10.8,5.4,21.6,5.4c10.8,0,10.8-5.4,21.6-5.4c10.8,0,10.8,5.4,21.6,5.4
				c10.8,0,10.8-5.4,21.6-5.4c10.8,0,10.8,5.4,21.6,5.4c10.8,0,10.8-5.4,21.6-5.4c10.8,0,10.8,5.4,21.6,5.4
				c10.8,0,10.8-5.4,21.6-5.4c10.8,0,10.8,5.4,21.6,5.4c10.8,0,10.8-5.4,21.6-5.4c10.8,0,10.8,5.4,21.6,5.4
				c10.8,0,10.8-5.4,21.6-5.4c10.8,0,10.8,5.4,21.6,5.4c10.8,0,10.8-5.4,21.6-5.4c10.8,0,10.8,5.4,21.6,5.4
				c10.8,0,10.8-5.4,21.6-5.4c10.8,0,10.8,5.4,21.6,5.4c10.8,0,10.8-5.4,21.6-5.4c10.8,0,10.8,5.4,21.6,5.4
				c10.8,0,10.8-5.4,21.6-5.4c10.8,0,10.8,5.4,21.6,5.4c10.8,0,10.8-5.4,21.6-5.4c10.8,0,10.8,5.4,21.6,5.4
				c10.8,0,10.8-5.4,21.6-5.4c10.8,0,10.8,5.4,21.6,5.4c10.8,0,10.8-5.4,21.6-5.4c10.8,0,10.8,5.4,21.6,5.4
				c10.8,0,10.8-5.4,21.6-5.4c10.8,0,10.8,5.4,21.6,5.4s10.8-5.4,21.6-5.4"/>
			<path class="st1" d="M0,245.5c10.8,0,10.8,5.4,21.6,5.4c10.8,0,10.8-5.4,21.6-5.4c10.8,0,10.8,5.4,21.6,5.4
				c10.8,0,10.8-5.4,21.6-5.4c10.8,0,10.8,5.4,21.6,5.4c10.8,0,10.8-5.4,21.6-5.4c10.8,0,10.8,5.4,21.6,5.4
				c10.8,0,10.8-5.4,21.6-5.4c10.8,0,10.8,5.4,21.6,5.4c10.8,0,10.8-5.4,21.6-5.4c10.8,0,10.8,5.4,21.6,5.4
				c10.8,0,10.8-5.4,21.6-5.4c10.8,0,10.8,5.4,21.6,5.4c10.8,0,10.8-5.4,21.6-5.4c10.8,0,10.8,5.4,21.6,5.4
				c10.8,0,10.8-5.4,21.6-5.4c10.8,0,10.8,5.4,21.6,5.4c10.8,0,10.8-5.4,21.6-5.4c10.8,0,10.8,5.4,21.6,5.4
				c10.8,0,10.8-5.4,21.6-5.4c10.8,0,10.8,5.4,21.6,5.4c10.8,0,10.8-5.4,21.6-5.4c10.8,0,10.8,5.4,21.6,5.4
				c10.8,0,10.8-5.4,21.6-5.4c10.8,0,10.8,5.4,21.6,5.4c10.8,0,10.8-5.4,21.6-5.4c10.8,0,10.8,5.4,21.6,5.4
				c10.8,0,10.8-5.4,21.6-5.4c10.8,0,10.8,5.4,21.6,5.4c10.8,0,10.8-5.4,21.6-5.4c10.8,0,10.8,5.4,21.6,5.4
				c10.8,0,10.8-5.4,21.6-5.4c10.8,0,10.8,5.4,21.6,5.4c10.8,0,10.8-5.4,21.6-5.4c10.8,0,10.8,5.4,21.6,5.4
				c10.8,0,10.8-5.4,21.6-5.4c10.8,0,10.8,5.4,21.6,5.4s10.8-5.4,21.6-5.4"/>
			<path class="st1" d="M0,238.8c10.8,0,10.8,5.4,21.6,5.4c10.8,0,10.8-5.4,21.6-5.4c10.8,0,10.8,5.4,21.6,5.4
				c10.8,0,10.8-5.4,21.6-5.4c10.8,0,10.8,5.4,21.6,5.4c10.8,0,10.8-5.4,21.6-5.4c10.8,0,10.8,5.4,21.6,5.4
				c10.8,0,10.8-5.4,21.6-5.4c10.8,0,10.8,5.4,21.6,5.4c10.8,0,10.8-5.4,21.6-5.4c10.8,0,10.8,5.4,21.6,5.4
				c10.8,0,10.8-5.4,21.6-5.4c10.8,0,10.8,5.4,21.6,5.4c10.8,0,10.8-5.4,21.6-5.4c10.8,0,10.8,5.4,21.6,5.4
				c10.8,0,10.8-5.4,21.6-5.4c10.8,0,10.8,5.4,21.6,5.4c10.8,0,10.8-5.4,21.6-5.4c10.8,0,10.8,5.4,21.6,5.4
				c10.8,0,10.8-5.4,21.6-5.4c10.8,0,10.8,5.4,21.6,5.4c10.8,0,10.8-5.4,21.6-5.4c10.8,0,10.8,5.4,21.6,5.4
				c10.8,0,10.8-5.4,21.6-5.4c10.8,0,10.8,5.4,21.6,5.4c10.8,0,10.8-5.4,21.6-5.4c10.8,0,10.8,5.4,21.6,5.4
				c10.8,0,10.8-5.4,21.6-5.4c10.8,0,10.8,5.4,21.6,5.4c10.8,0,10.8-5.4,21.6-5.4c10.8,0,10.8,5.4,21.6,5.4
				c10.8,0,10.8-5.4,21.6-5.4c10.8,0,10.8,5.4,21.6,5.4c10.8,0,10.8-5.4,21.6-5.4c10.8,0,10.8,5.4,21.6,5.4
				c10.8,0,10.8-5.4,21.6-5.4c10.8,0,10.8,5.4,21.6,5.4s10.8-5.4,21.6-5.4"/>
			<path class="st1" d="M0,232.1c10.8,0,10.8,5.4,21.6,5.4c10.8,0,10.8-5.4,21.6-5.4c10.8,0,10.8,5.4,21.6,5.4
				c10.8,0,10.8-5.4,21.6-5.4c10.8,0,10.8,5.4,21.6,5.4c10.8,0,10.8-5.4,21.6-5.4c10.8,0,10.8,5.4,21.6,5.4
				c10.8,0,10.8-5.4,21.6-5.4c10.8,0,10.8,5.4,21.6,5.4c10.8,0,10.8-5.4,21.6-5.4c10.8,0,10.8,5.4,21.6,5.4
				c10.8,0,10.8-5.4,21.6-5.4c10.8,0,10.8,5.4,21.6,5.4c10.8,0,10.8-5.4,21.6-5.4c10.8,0,10.8,5.4,21.6,5.4
				c10.8,0,10.8-5.4,21.6-5.4c10.8,0,10.8,5.4,21.6,5.4c10.8,0,10.8-5.4,21.6-5.4c10.8,0,10.8,5.4,21.6,5.4
				c10.8,0,10.8-5.4,21.6-5.4c10.8,0,10.8,5.4,21.6,5.4c10.8,0,10.8-5.4,21.6-5.4c10.8,0,10.8,5.4,21.6,5.4
				c10.8,0,10.8-5.4,21.6-5.4c10.8,0,10.8,5.4,21.6,5.4c10.8,0,10.8-5.4,21.6-5.4c10.8,0,10.8,5.4,21.6,5.4
				c10.8,0,10.8-5.4,21.6-5.4c10.8,0,10.8,5.4,21.6,5.4c10.8,0,10.8-5.4,21.6-5.4c10.8,0,10.8,5.4,21.6,5.4
				c10.8,0,10.8-5.4,21.6-5.4c10.8,0,10.8,5.4,21.6,5.4c10.8,0,10.8-5.4,21.6-5.4c10.8,0,10.8,5.4,21.6,5.4
				c10.8,0,10.8-5.4,21.6-5.4c10.8,0,10.8,5.4,21.6,5.4s10.8-5.4,21.6-5.4"/>
			<path class="st1" d="M0,225.4c10.8,0,10.8,5.4,21.6,5.4c10.8,0,10.8-5.4,21.6-5.4c10.8,0,10.8,5.4,21.6,5.4
				c10.8,0,10.8-5.4,21.6-5.4c10.8,0,10.8,5.4,21.6,5.4c10.8,0,10.8-5.4,21.6-5.4c10.8,0,10.8,5.4,21.6,5.4
				c10.8,0,10.8-5.4,21.6-5.4c10.8,0,10.8,5.4,21.6,5.4c10.8,0,10.8-5.4,21.6-5.4c10.8,0,10.8,5.4,21.6,5.4
				c10.8,0,10.8-5.4,21.6-5.4c10.8,0,10.8,5.4,21.6,5.4c10.8,0,10.8-5.4,21.6-5.4c10.8,0,10.8,5.4,21.6,5.4
				c10.8,0,10.8-5.4,21.6-5.4c10.8,0,10.8,5.4,21.6,5.4c10.8,0,10.8-5.4,21.6-5.4c10.8,0,10.8,5.4,21.6,5.4
				c10.8,0,10.8-5.4,21.6-5.4c10.8,0,10.8,5.4,21.6,5.4c10.8,0,10.8-5.4,21.6-5.4c10.8,0,10.8,5.4,21.6,5.4
				c10.8,0,10.8-5.4,21.6-5.4c10.8,0,10.8,5.4,21.6,5.4c10.8,0,10.8-5.4,21.6-5.4c10.8,0,10.8,5.4,21.6,5.4
				c10.8,0,10.8-5.4,21.6-5.4c10.8,0,10.8,5.4,21.6,5.4c10.8,0,10.8-5.4,21.6-5.4c10.8,0,10.8,5.4,21.6,5.4
				c10.8,0,10.8-5.4,21.6-5.4c10.8,0,10.8,5.4,21.6,5.4c10.8,0,10.8-5.4,21.6-5.4c10.8,0,10.8,5.4,21.6,5.4
				c10.8,0,10.8-5.4,21.6-5.4c10.8,0,10.8,5.4,21.6,5.4s10.8-5.4,21.6-5.4"/>
			<path class="st1" d="M0,218.7c10.8,0,10.8,5.4,21.6,5.4c10.8,0,10.8-5.4,21.6-5.4c10.8,0,10.8,5.4,21.6,5.4
				c10.8,0,10.8-5.4,21.6-5.4c10.8,0,10.8,5.4,21.6,5.4c10.8,0,10.8-5.4,21.6-5.4c10.8,0,10.8,5.4,21.6,5.4
				c10.8,0,10.8-5.4,21.6-5.4c10.8,0,10.8,5.4,21.6,5.4c10.8,0,10.8-5.4,21.6-5.4c10.8,0,10.8,5.4,21.6,5.4
				c10.8,0,10.8-5.4,21.6-5.4c10.8,0,10.8,5.4,21.6,5.4c10.8,0,10.8-5.4,21.6-5.4c10.8,0,10.8,5.4,21.6,5.4
				c10.8,0,10.8-5.4,21.6-5.4c10.8,0,10.8,5.4,21.6,5.4c10.8,0,10.8-5.4,21.6-5.4c10.8,0,10.8,5.4,21.6,5.4
				c10.8,0,10.8-5.4,21.6-5.4c10.8,0,10.8,5.4,21.6,5.4c10.8,0,10.8-5.4,21.6-5.4c10.8,0,10.8,5.4,21.6,5.4
				c10.8,0,10.8-5.4,21.6-5.4c10.8,0,10.8,5.4,21.6,5.4c10.8,0,10.8-5.4,21.6-5.4c10.8,0,10.8,5.4,21.6,5.4
				c10.8,0,10.8-5.4,21.6-5.4c10.8,0,10.8,5.4,21.6,5.4c10.8,0,10.8-5.4,21.6-5.4c10.8,0,10.8,5.4,21.6,5.4
				c10.8,0,10.8-5.4,21.6-5.4c10.8,0,10.8,5.4,21.6,5.4c10.8,0,10.8-5.4,21.6-5.4c10.8,0,10.8,5.4,21.6,5.4
				c10.8,0,10.8-5.4,21.6-5.4c10.8,0,10.8,5.4,21.6,5.4s10.8-5.4,21.6-5.4"/>
			<path class="st1" d="M0,212c10.8,0,10.8,5.4,21.6,5.4c10.8,0,10.8-5.4,21.6-5.4c10.8,0,10.8,5.4,21.6,5.4
				c10.8,0,10.8-5.4,21.6-5.4c10.8,0,10.8,5.4,21.6,5.4c10.8,0,10.8-5.4,21.6-5.4c10.8,0,10.8,5.4,21.6,5.4
				c10.8,0,10.8-5.4,21.6-5.4c10.8,0,10.8,5.4,21.6,5.4c10.8,0,10.8-5.4,21.6-5.4c10.8,0,10.8,5.4,21.6,5.4
				c10.8,0,10.8-5.4,21.6-5.4c10.8,0,10.8,5.4,21.6,5.4c10.8,0,10.8-5.4,21.6-5.4c10.8,0,10.8,5.4,21.6,5.4
				c10.8,0,10.8-5.4,21.6-5.4c10.8,0,10.8,5.4,21.6,5.4c10.8,0,10.8-5.4,21.6-5.4c10.8,0,10.8,5.4,21.6,5.4
				c10.8,0,10.8-5.4,21.6-5.4c10.8,0,10.8,5.4,21.6,5.4c10.8,0,10.8-5.4,21.6-5.4c10.8,0,10.8,5.4,21.6,5.4
				c10.8,0,10.8-5.4,21.6-5.4c10.8,0,10.8,5.4,21.6,5.4c10.8,0,10.8-5.4,21.6-5.4c10.8,0,10.8,5.4,21.6,5.4
				c10.8,0,10.8-5.4,21.6-5.4c10.8,0,10.8,5.4,21.6,5.4c10.8,0,10.8-5.4,21.6-5.4c10.8,0,10.8,5.4,21.6,5.4
				c10.8,0,10.8-5.4,21.6-5.4c10.8,0,10.8,5.4,21.6,5.4c10.8,0,10.8-5.4,21.6-5.4c10.8,0,10.8,5.4,21.6,5.4
				c10.8,0,10.8-5.4,21.6-5.4c10.8,0,10.8,5.4,21.6,5.4s10.8-5.4,21.6-5.4"/>
			<path class="st1" d="M0,205.3c10.8,0,10.8,5.4,21.6,5.4c10.8,0,10.8-5.4,21.6-5.4c10.8,0,10.8,5.4,21.6,5.4
				c10.8,0,10.8-5.4,21.6-5.4c10.8,0,10.8,5.4,21.6,5.4c10.8,0,10.8-5.4,21.6-5.4c10.8,0,10.8,5.4,21.6,5.4
				c10.8,0,10.8-5.4,21.6-5.4c10.8,0,10.8,5.4,21.6,5.4c10.8,0,10.8-5.4,21.6-5.4c10.8,0,10.8,5.4,21.6,5.4
				c10.8,0,10.8-5.4,21.6-5.4c10.8,0,10.8,5.4,21.6,5.4c10.8,0,10.8-5.4,21.6-5.4c10.8,0,10.8,5.4,21.6,5.4
				c10.8,0,10.8-5.4,21.6-5.4c10.8,0,10.8,5.4,21.6,5.4c10.8,0,10.8-5.4,21.6-5.4c10.8,0,10.8,5.4,21.6,5.4
				c10.8,0,10.8-5.4,21.6-5.4c10.8,0,10.8,5.4,21.6,5.4c10.8,0,10.8-5.4,21.6-5.4c10.8,0,10.8,5.4,21.6,5.4
				c10.8,0,10.8-5.4,21.6-5.4c10.8,0,10.8,5.4,21.6,5.4c10.8,0,10.8-5.4,21.6-5.4c10.8,0,10.8,5.4,21.6,5.4
				c10.8,0,10.8-5.4,21.6-5.4c10.8,0,10.8,5.4,21.6,5.4c10.8,0,10.8-5.4,21.6-5.4c10.8,0,10.8,5.4,21.6,5.4
				c10.8,0,10.8-5.4,21.6-5.4c10.8,0,10.8,5.4,21.6,5.4c10.8,0,10.8-5.4,21.6-5.4c10.8,0,10.8,5.4,21.6,5.4
				c10.8,0,10.8-5.4,21.6-5.4c10.8,0,10.8,5.4,21.6,5.4s10.8-5.4,21.6-5.4"/>
			<path class="st1" d="M0,198.5c10.8,0,10.8,5.4,21.6,5.4c10.8,0,10.8-5.4,21.6-5.4c10.8,0,10.8,5.4,21.6,5.4
				c10.8,0,10.8-5.4,21.6-5.4c10.8,0,10.8,5.4,21.6,5.4c10.8,0,10.8-5.4,21.6-5.4c10.8,0,10.8,5.4,21.6,5.4
				c10.8,0,10.8-5.4,21.6-5.4c10.8,0,10.8,5.4,21.6,5.4c10.8,0,10.8-5.4,21.6-5.4c10.8,0,10.8,5.4,21.6,5.4
				c10.8,0,10.8-5.4,21.6-5.4c10.8,0,10.8,5.4,21.6,5.4c10.8,0,10.8-5.4,21.6-5.4c10.8,0,10.8,5.4,21.6,5.4
				c10.8,0,10.8-5.4,21.6-5.4c10.8,0,10.8,5.4,21.6,5.4c10.8,0,10.8-5.4,21.6-5.4c10.8,0,10.8,5.4,21.6,5.4
				c10.8,0,10.8-5.4,21.6-5.4c10.8,0,10.8,5.4,21.6,5.4c10.8,0,10.8-5.4,21.6-5.4c10.8,0,10.8,5.4,21.6,5.4
				c10.8,0,10.8-5.4,21.6-5.4c10.8,0,10.8,5.4,21.6,5.4c10.8,0,10.8-5.4,21.6-5.4c10.8,0,10.8,5.4,21.6,5.4
				c10.8,0,10.8-5.4,21.6-5.4c10.8,0,10.8,5.4,21.6,5.4c10.8,0,10.8-5.4,21.6-5.4c10.8,0,10.8,5.4,21.6,5.4
				c10.8,0,10.8-5.4,21.6-5.4c10.8,0,10.8,5.4,21.6,5.4c10.8,0,10.8-5.4,21.6-5.4c10.8,0,10.8,5.4,21.6,5.4
				c10.8,0,10.8-5.4,21.6-5.4c10.8,0,10.8,5.4,21.6,5.4s10.8-5.4,21.6-5.4"/>
			<path class="st1" d="M0,191.8c10.8,0,10.8,5.4,21.6,5.4c10.8,0,10.8-5.4,21.6-5.4c10.8,0,10.8,5.4,21.6,5.4
				c10.8,0,10.8-5.4,21.6-5.4c10.8,0,10.8,5.4,21.6,5.4c10.8,0,10.8-5.4,21.6-5.4c10.8,0,10.8,5.4,21.6,5.4
				c10.8,0,10.8-5.4,21.6-5.4c10.8,0,10.8,5.4,21.6,5.4c10.8,0,10.8-5.4,21.6-5.4c10.8,0,10.8,5.4,21.6,5.4
				c10.8,0,10.8-5.4,21.6-5.4c10.8,0,10.8,5.4,21.6,5.4c10.8,0,10.8-5.4,21.6-5.4c10.8,0,10.8,5.4,21.6,5.4
				c10.8,0,10.8-5.4,21.6-5.4c10.8,0,10.8,5.4,21.6,5.4c10.8,0,10.8-5.4,21.6-5.4c10.8,0,10.8,5.4,21.6,5.4
				c10.8,0,10.8-5.4,21.6-5.4c10.8,0,10.8,5.4,21.6,5.4c10.8,0,10.8-5.4,21.6-5.4c10.8,0,10.8,5.4,21.6,5.4
				c10.8,0,10.8-5.4,21.6-5.4c10.8,0,10.8,5.4,21.6,5.4c10.8,0,10.8-5.4,21.6-5.4c10.8,0,10.8,5.4,21.6,5.4
				c10.8,0,10.8-5.4,21.6-5.4c10.8,0,10.8,5.4,21.6,5.4c10.8,0,10.8-5.4,21.6-5.4c10.8,0,10.8,5.4,21.6,5.4
				c10.8,0,10.8-5.4,21.6-5.4c10.8,0,10.8,5.4,21.6,5.4c10.8,0,10.8-5.4,21.6-5.4c10.8,0,10.8,5.4,21.6,5.4
				c10.8,0,10.8-5.4,21.6-5.4c10.8,0,10.8,5.4,21.6,5.4s10.8-5.4,21.6-5.4"/>
			<path class="st1" d="M0,185.1c10.8,0,10.8,5.4,21.6,5.4c10.8,0,10.8-5.4,21.6-5.4c10.8,0,10.8,5.4,21.6,5.4
				c10.8,0,10.8-5.4,21.6-5.4c10.8,0,10.8,5.4,21.6,5.4c10.8,0,10.8-5.4,21.6-5.4c10.8,0,10.8,5.4,21.6,5.4
				c10.8,0,10.8-5.4,21.6-5.4c10.8,0,10.8,5.4,21.6,5.4c10.8,0,10.8-5.4,21.6-5.4c10.8,0,10.8,5.4,21.6,5.4
				c10.8,0,10.8-5.4,21.6-5.4c10.8,0,10.8,5.4,21.6,5.4c10.8,0,10.8-5.4,21.6-5.4c10.8,0,10.8,5.4,21.6,5.4
				c10.8,0,10.8-5.4,21.6-5.4c10.8,0,10.8,5.4,21.6,5.4c10.8,0,10.8-5.4,21.6-5.4c10.8,0,10.8,5.4,21.6,5.4
				c10.8,0,10.8-5.4,21.6-5.4c10.8,0,10.8,5.4,21.6,5.4c10.8,0,10.8-5.4,21.6-5.4c10.8,0,10.8,5.4,21.6,5.4
				c10.8,0,10.8-5.4,21.6-5.4c10.8,0,10.8,5.4,21.6,5.4c10.8,0,10.8-5.4,21.6-5.4c10.8,0,10.8,5.4,21.6,5.4
				c10.8,0,10.8-5.4,21.6-5.4c10.8,0,10.8,5.4,21.6,5.4c10.8,0,10.8-5.4,21.6-5.4c10.8,0,10.8,5.4,21.6,5.4
				c10.8,0,10.8-5.4,21.6-5.4c10.8,0,10.8,5.4,21.6,5.4c10.8,0,10.8-5.4,21.6-5.4c10.8,0,10.8,5.4,21.6,5.4
				c10.8,0,10.8-5.4,21.6-5.4c10.8,0,10.8,5.4,21.6,5.4s10.8-5.4,21.6-5.4"/>
			<path class="st1" d="M0,178.4c10.8,0,10.8,5.4,21.6,5.4c10.8,0,10.8-5.4,21.6-5.4c10.8,0,10.8,5.4,21.6,5.4
				c10.8,0,10.8-5.4,21.6-5.4c10.8,0,10.8,5.4,21.6,5.4c10.8,0,10.8-5.4,21.6-5.4c10.8,0,10.8,5.4,21.6,5.4
				c10.8,0,10.8-5.4,21.6-5.4c10.8,0,10.8,5.4,21.6,5.4c10.8,0,10.8-5.4,21.6-5.4c10.8,0,10.8,5.4,21.6,5.4
				c10.8,0,10.8-5.4,21.6-5.4c10.8,0,10.8,5.4,21.6,5.4c10.8,0,10.8-5.4,21.6-5.4c10.8,0,10.8,5.4,21.6,5.4
				c10.8,0,10.8-5.4,21.6-5.4c10.8,0,10.8,5.4,21.6,5.4c10.8,0,10.8-5.4,21.6-5.4c10.8,0,10.8,5.4,21.6,5.4
				c10.8,0,10.8-5.4,21.6-5.4c10.8,0,10.8,5.4,21.6,5.4c10.8,0,10.8-5.4,21.6-5.4c10.8,0,10.8,5.4,21.6,5.4
				c10.8,0,10.8-5.4,21.6-5.4c10.8,0,10.8,5.4,21.6,5.4c10.8,0,10.8-5.4,21.6-5.4c10.8,0,10.8,5.4,21.6,5.4
				c10.8,0,10.8-5.4,21.6-5.4c10.8,0,10.8,5.4,21.6,5.4c10.8,0,10.8-5.4,21.6-5.4c10.8,0,10.8,5.4,21.6,5.4
				c10.8,0,10.8-5.4,21.6-5.4c10.8,0,10.8,5.4,21.6,5.4c10.8,0,10.8-5.4,21.6-5.4c10.8,0,10.8,5.4,21.6,5.4
				c10.8,0,10.8-5.4,21.6-5.4c10.8,0,10.8,5.4,21.6,5.4s10.8-5.4,21.6-5.4"/>
			<path class="st1" d="M0,171.7c10.8,0,10.8,5.4,21.6,5.4c10.8,0,10.8-5.4,21.6-5.4c10.8,0,10.8,5.4,21.6,5.4
				c10.8,0,10.8-5.4,21.6-5.4c10.8,0,10.8,5.4,21.6,5.4c10.8,0,10.8-5.4,21.6-5.4c10.8,0,10.8,5.4,21.6,5.4
				c10.8,0,10.8-5.4,21.6-5.4c10.8,0,10.8,5.4,21.6,5.4c10.8,0,10.8-5.4,21.6-5.4c10.8,0,10.8,5.4,21.6,5.4
				c10.8,0,10.8-5.4,21.6-5.4c10.8,0,10.8,5.4,21.6,5.4c10.8,0,10.8-5.4,21.6-5.4c10.8,0,10.8,5.4,21.6,5.4
				c10.8,0,10.8-5.4,21.6-5.4c10.8,0,10.8,5.4,21.6,5.4c10.8,0,10.8-5.4,21.6-5.4c10.8,0,10.8,5.4,21.6,5.4
				c10.8,0,10.8-5.4,21.6-5.4c10.8,0,10.8,5.4,21.6,5.4c10.8,0,10.8-5.4,21.6-5.4c10.8,0,10.8,5.4,21.6,5.4
				c10.8,0,10.8-5.4,21.6-5.4c10.8,0,10.8,5.4,21.6,5.4c10.8,0,10.8-5.4,21.6-5.4c10.8,0,10.8,5.4,21.6,5.4
				c10.8,0,10.8-5.4,21.6-5.4c10.8,0,10.8,5.4,21.6,5.4c10.8,0,10.8-5.4,21.6-5.4c10.8,0,10.8,5.4,21.6,5.4
				c10.8,0,10.8-5.4,21.6-5.4c10.8,0,10.8,5.4,21.6,5.4c10.8,0,10.8-5.4,21.6-5.4c10.8,0,10.8,5.4,21.6,5.4
				c10.8,0,10.8-5.4,21.6-5.4c10.8,0,10.8,5.4,21.6,5.4s10.8-5.4,21.6-5.4"/>
			<path class="st1" d="M0,165c10.8,0,10.8,5.4,21.6,5.4c10.8,0,10.8-5.4,21.6-5.4c10.8,0,10.8,5.4,21.6,5.4
				c10.8,0,10.8-5.4,21.6-5.4c10.8,0,10.8,5.4,21.6,5.4c10.8,0,10.8-5.4,21.6-5.4c10.8,0,10.8,5.4,21.6,5.4
				c10.8,0,10.8-5.4,21.6-5.4c10.8,0,10.8,5.4,21.6,5.4c10.8,0,10.8-5.4,21.6-5.4c10.8,0,10.8,5.4,21.6,5.4
				c10.8,0,10.8-5.4,21.6-5.4c10.8,0,10.8,5.4,21.6,5.4c10.8,0,10.8-5.4,21.6-5.4c10.8,0,10.8,5.4,21.6,5.4
				c10.8,0,10.8-5.4,21.6-5.4c10.8,0,10.8,5.4,21.6,5.4c10.8,0,10.8-5.4,21.6-5.4c10.8,0,10.8,5.4,21.6,5.4
				c10.8,0,10.8-5.4,21.6-5.4c10.8,0,10.8,5.4,21.6,5.4c10.8,0,10.8-5.4,21.6-5.4c10.8,0,10.8,5.4,21.6,5.4
				c10.8,0,10.8-5.4,21.6-5.4c10.8,0,10.8,5.4,21.6,5.4c10.8,0,10.8-5.4,21.6-5.4c10.8,0,10.8,5.4,21.6,5.4
				c10.8,0,10.8-5.4,21.6-5.4c10.8,0,10.8,5.4,21.6,5.4c10.8,0,10.8-5.4,21.6-5.4c10.8,0,10.8,5.4,21.6,5.4
				c10.8,0,10.8-5.4,21.6-5.4c10.8,0,10.8,5.4,21.6,5.4c10.8,0,10.8-5.4,21.6-5.4c10.8,0,10.8,5.4,21.6,5.4
				c10.8,0,10.8-5.4,21.6-5.4c10.8,0,10.8,5.4,21.6,5.4s10.8-5.4,21.6-5.4"/>
			<path class="st1" d="M0,158.2c10.8,0,10.8,5.4,21.6,5.4c10.8,0,10.8-5.4,21.6-5.4c10.8,0,10.8,5.4,21.6,5.4
				c10.8,0,10.8-5.4,21.6-5.4c10.8,0,10.8,5.4,21.6,5.4c10.8,0,10.8-5.4,21.6-5.4c10.8,0,10.8,5.4,21.6,5.4
				c10.8,0,10.8-5.4,21.6-5.4c10.8,0,10.8,5.4,21.6,5.4c10.8,0,10.8-5.4,21.6-5.4c10.8,0,10.8,5.4,21.6,5.4
				c10.8,0,10.8-5.4,21.6-5.4c10.8,0,10.8,5.4,21.6,5.4c10.8,0,10.8-5.4,21.6-5.4c10.8,0,10.8,5.4,21.6,5.4
				c10.8,0,10.8-5.4,21.6-5.4c10.8,0,10.8,5.4,21.6,5.4c10.8,0,10.8-5.4,21.6-5.4c10.8,0,10.8,5.4,21.6,5.4
				c10.8,0,10.8-5.4,21.6-5.4c10.8,0,10.8,5.4,21.6,5.4c10.8,0,10.8-5.4,21.6-5.4c10.8,0,10.8,5.4,21.6,5.4
				c10.8,0,10.8-5.4,21.6-5.4c10.8,0,10.8,5.4,21.6,5.4c10.8,0,10.8-5.4,21.6-5.4c10.8,0,10.8,5.4,21.6,5.4
				c10.8,0,10.8-5.4,21.6-5.4c10.8,0,10.8,5.4,21.6,5.4c10.8,0,10.8-5.4,21.6-5.4c10.8,0,10.8,5.4,21.6,5.4
				c10.8,0,10.8-5.4,21.6-5.4c10.8,0,10.8,5.4,21.6,5.4c10.8,0,10.8-5.4,21.6-5.4c10.8,0,10.8,5.4,21.6,5.4
				c10.8,0,10.8-5.4,21.6-5.4c10.8,0,10.8,5.4,21.6,5.4s10.8-5.4,21.6-5.4"/>
			<path class="st1" d="M0,151.5c10.8,0,10.8,5.4,21.6,5.4c10.8,0,10.8-5.4,21.6-5.4c10.8,0,10.8,5.4,21.6,5.4
				c10.8,0,10.8-5.4,21.6-5.4c10.8,0,10.8,5.4,21.6,5.4c10.8,0,10.8-5.4,21.6-5.4c10.8,0,10.8,5.4,21.6,5.4
				c10.8,0,10.8-5.4,21.6-5.4c10.8,0,10.8,5.4,21.6,5.4c10.8,0,10.8-5.4,21.6-5.4c10.8,0,10.8,5.4,21.6,5.4
				c10.8,0,10.8-5.4,21.6-5.4c10.8,0,10.8,5.4,21.6,5.4c10.8,0,10.8-5.4,21.6-5.4c10.8,0,10.8,5.4,21.6,5.4
				c10.8,0,10.8-5.4,21.6-5.4c10.8,0,10.8,5.4,21.6,5.4c10.8,0,10.8-5.4,21.6-5.4c10.8,0,10.8,5.4,21.6,5.4
				c10.8,0,10.8-5.4,21.6-5.4c10.8,0,10.8,5.4,21.6,5.4c10.8,0,10.8-5.4,21.6-5.4c10.8,0,10.8,5.4,21.6,5.4
				c10.8,0,10.8-5.4,21.6-5.4c10.8,0,10.8,5.4,21.6,5.4c10.8,0,10.8-5.4,21.6-5.4c10.8,0,10.8,5.4,21.6,5.4
				c10.8,0,10.8-5.4,21.6-5.4c10.8,0,10.8,5.4,21.6,5.4c10.8,0,10.8-5.4,21.6-5.4c10.8,0,10.8,5.4,21.6,5.4
				c10.8,0,10.8-5.4,21.6-5.4c10.8,0,10.8,5.4,21.6,5.4c10.8,0,10.8-5.4,21.6-5.4c10.8,0,10.8,5.4,21.6,5.4
				c10.8,0,10.8-5.4,21.6-5.4c10.8,0,10.8,5.4,21.6,5.4s10.8-5.4,21.6-5.4"/>
			<path class="st1" d="M0,144.8c10.8,0,10.8,5.4,21.6,5.4c10.8,0,10.8-5.4,21.6-5.4c10.8,0,10.8,5.4,21.6,5.4
				c10.8,0,10.8-5.4,21.6-5.4c10.8,0,10.8,5.4,21.6,5.4c10.8,0,10.8-5.4,21.6-5.4c10.8,0,10.8,5.4,21.6,5.4
				c10.8,0,10.8-5.4,21.6-5.4c10.8,0,10.8,5.4,21.6,5.4c10.8,0,10.8-5.4,21.6-5.4c10.8,0,10.8,5.4,21.6,5.4
				c10.8,0,10.8-5.4,21.6-5.4c10.8,0,10.8,5.4,21.6,5.4c10.8,0,10.8-5.4,21.6-5.4c10.8,0,10.8,5.4,21.6,5.4
				c10.8,0,10.8-5.4,21.6-5.4c10.8,0,10.8,5.4,21.6,5.4c10.8,0,10.8-5.4,21.6-5.4c10.8,0,10.8,5.4,21.6,5.4
				c10.8,0,10.8-5.4,21.6-5.4c10.8,0,10.8,5.4,21.6,5.4c10.8,0,10.8-5.4,21.6-5.4c10.8,0,10.8,5.4,21.6,5.4
				c10.8,0,10.8-5.4,21.6-5.4c10.8,0,10.8,5.4,21.6,5.4c10.8,0,10.8-5.4,21.6-5.4c10.8,0,10.8,5.4,21.6,5.4
				c10.8,0,10.8-5.4,21.6-5.4c10.8,0,10.8,5.4,21.6,5.4c10.8,0,10.8-5.4,21.6-5.4c10.8,0,10.8,5.4,21.6,5.4
				c10.8,0,10.8-5.4,21.6-5.4c10.8,0,10.8,5.4,21.6,5.4c10.8,0,10.8-5.4,21.6-5.4c10.8,0,10.8,5.4,21.6,5.4
				c10.8,0,10.8-5.4,21.6-5.4c10.8,0,10.8,5.4,21.6,5.4s10.8-5.4,21.6-5.4"/>
			<path class="st1" d="M0,138.1c10.8,0,10.8,5.4,21.6,5.4c10.8,0,10.8-5.4,21.6-5.4c10.8,0,10.8,5.4,21.6,5.4
				c10.8,0,10.8-5.4,21.6-5.4c10.8,0,10.8,5.4,21.6,5.4c10.8,0,10.8-5.4,21.6-5.4c10.8,0,10.8,5.4,21.6,5.4
				c10.8,0,10.8-5.4,21.6-5.4c10.8,0,10.8,5.4,21.6,5.4c10.8,0,10.8-5.4,21.6-5.4c10.8,0,10.8,5.4,21.6,5.4
				c10.8,0,10.8-5.4,21.6-5.4c10.8,0,10.8,5.4,21.6,5.4c10.8,0,10.8-5.4,21.6-5.4c10.8,0,10.8,5.4,21.6,5.4
				c10.8,0,10.8-5.4,21.6-5.4c10.8,0,10.8,5.4,21.6,5.4c10.8,0,10.8-5.4,21.6-5.4c10.8,0,10.8,5.4,21.6,5.4
				c10.8,0,10.8-5.4,21.6-5.4c10.8,0,10.8,5.4,21.6,5.4c10.8,0,10.8-5.4,21.6-5.4c10.8,0,10.8,5.4,21.6,5.4
				c10.8,0,10.8-5.4,21.6-5.4c10.8,0,10.8,5.4,21.6,5.4c10.8,0,10.8-5.4,21.6-5.4c10.8,0,10.8,5.4,21.6,5.4
				c10.8,0,10.8-5.4,21.6-5.4c10.8,0,10.8,5.4,21.6,5.4c10.8,0,10.8-5.4,21.6-5.4c10.8,0,10.8,5.4,21.6,5.4
				c10.8,0,10.8-5.4,21.6-5.4c10.8,0,10.8,5.4,21.6,5.4c10.8,0,10.8-5.4,21.6-5.4c10.8,0,10.8,5.4,21.6,5.4
				c10.8,0,10.8-5.4,21.6-5.4c10.8,0,10.8,5.4,21.6,5.4s10.8-5.4,21.6-5.4"/>
			<path class="st1" d="M0,131.4c10.8,0,10.8,5.4,21.6,5.4c10.8,0,10.8-5.4,21.6-5.4c10.8,0,10.8,5.4,21.6,5.4
				c10.8,0,10.8-5.4,21.6-5.4c10.8,0,10.8,5.4,21.6,5.4c10.8,0,10.8-5.4,21.6-5.4c10.8,0,10.8,5.4,21.6,5.4
				c10.8,0,10.8-5.4,21.6-5.4c10.8,0,10.8,5.4,21.6,5.4c10.8,0,10.8-5.4,21.6-5.4c10.8,0,10.8,5.4,21.6,5.4
				c10.8,0,10.8-5.4,21.6-5.4c10.8,0,10.8,5.4,21.6,5.4c10.8,0,10.8-5.4,21.6-5.4c10.8,0,10.8,5.4,21.6,5.4
				c10.8,0,10.8-5.4,21.6-5.4c10.8,0,10.8,5.4,21.6,5.4c10.8,0,10.8-5.4,21.6-5.4c10.8,0,10.8,5.4,21.6,5.4
				c10.8,0,10.8-5.4,21.6-5.4c10.8,0,10.8,5.4,21.6,5.4c10.8,0,10.8-5.4,21.6-5.4c10.8,0,10.8,5.4,21.6,5.4
				c10.8,0,10.8-5.4,21.6-5.4c10.8,0,10.8,5.4,21.6,5.4c10.8,0,10.8-5.4,21.6-5.4c10.8,0,10.8,5.4,21.6,5.4
				c10.8,0,10.8-5.4,21.6-5.4c10.8,0,10.8,5.4,21.6,5.4c10.8,0,10.8-5.4,21.6-5.4c10.8,0,10.8,5.4,21.6,5.4
				c10.8,0,10.8-5.4,21.6-5.4c10.8,0,10.8,5.4,21.6,5.4c10.8,0,10.8-5.4,21.6-5.4c10.8,0,10.8,5.4,21.6,5.4
				c10.8,0,10.8-5.4,21.6-5.4c10.8,0,10.8,5.4,21.6,5.4s10.8-5.4,21.6-5.4"/>
			<path class="st1" d="M0,124.7c10.8,0,10.8,5.4,21.6,5.4c10.8,0,10.8-5.4,21.6-5.4c10.8,0,10.8,5.4,21.6,5.4
				c10.8,0,10.8-5.4,21.6-5.4c10.8,0,10.8,5.4,21.6,5.4c10.8,0,10.8-5.4,21.6-5.4c10.8,0,10.8,5.4,21.6,5.4
				c10.8,0,10.8-5.4,21.6-5.4c10.8,0,10.8,5.4,21.6,5.4c10.8,0,10.8-5.4,21.6-5.4c10.8,0,10.8,5.4,21.6,5.4
				c10.8,0,10.8-5.4,21.6-5.4c10.8,0,10.8,5.4,21.6,5.4c10.8,0,10.8-5.4,21.6-5.4c10.8,0,10.8,5.4,21.6,5.4
				c10.8,0,10.8-5.4,21.6-5.4c10.8,0,10.8,5.4,21.6,5.4c10.8,0,10.8-5.4,21.6-5.4c10.8,0,10.8,5.4,21.6,5.4
				c10.8,0,10.8-5.4,21.6-5.4c10.8,0,10.8,5.4,21.6,5.4c10.8,0,10.8-5.4,21.6-5.4c10.8,0,10.8,5.4,21.6,5.4
				c10.8,0,10.8-5.4,21.6-5.4c10.8,0,10.8,5.4,21.6,5.4c10.8,0,10.8-5.4,21.6-5.4c10.8,0,10.8,5.4,21.6,5.4
				c10.8,0,10.8-5.4,21.6-5.4c10.8,0,10.8,5.4,21.6,5.4c10.8,0,10.8-5.4,21.6-5.4c10.8,0,10.8,5.4,21.6,5.4
				c10.8,0,10.8-5.4,21.6-5.4c10.8,0,10.8,5.4,21.6,5.4c10.8,0,10.8-5.4,21.6-5.4c10.8,0,10.8,5.4,21.6,5.4
				c10.8,0,10.8-5.4,21.6-5.4c10.8,0,10.8,5.4,21.6,5.4s10.8-5.4,21.6-5.4"/>
			<path class="st1" d="M0,118c10.8,0,10.8,5.4,21.6,5.4c10.8,0,10.8-5.4,21.6-5.4c10.8,0,10.8,5.4,21.6,5.4
				c10.8,0,10.8-5.4,21.6-5.4c10.8,0,10.8,5.4,21.6,5.4c10.8,0,10.8-5.4,21.6-5.4c10.8,0,10.8,5.4,21.6,5.4
				c10.8,0,10.8-5.4,21.6-5.4c10.8,0,10.8,5.4,21.6,5.4c10.8,0,10.8-5.4,21.6-5.4c10.8,0,10.8,5.4,21.6,5.4
				c10.8,0,10.8-5.4,21.6-5.4c10.8,0,10.8,5.4,21.6,5.4c10.8,0,10.8-5.4,21.6-5.4c10.8,0,10.8,5.4,21.6,5.4
				c10.8,0,10.8-5.4,21.6-5.4c10.8,0,10.8,5.4,21.6,5.4c10.8,0,10.8-5.4,21.6-5.4c10.8,0,10.8,5.4,21.6,5.4
				c10.8,0,10.8-5.4,21.6-5.4c10.8,0,10.8,5.4,21.6,5.4c10.8,0,10.8-5.4,21.6-5.4c10.8,0,10.8,5.4,21.6,5.4
				c10.8,0,10.8-5.4,21.6-5.4c10.8,0,10.8,5.4,21.6,5.4c10.8,0,10.8-5.4,21.6-5.4c10.8,0,10.8,5.4,21.6,5.4
				c10.8,0,10.8-5.4,21.6-5.4c10.8,0,10.8,5.4,21.6,5.4c10.8,0,10.8-5.4,21.6-5.4c10.8,0,10.8,5.4,21.6,5.4
				c10.8,0,10.8-5.4,21.6-5.4c10.8,0,10.8,5.4,21.6,5.4c10.8,0,10.8-5.4,21.6-5.4c10.8,0,10.8,5.4,21.6,5.4
				c10.8,0,10.8-5.4,21.6-5.4c10.8,0,10.8,5.4,21.6,5.4s10.8-5.4,21.6-5.4"/>
			<path class="st1" d="M0,111.2c10.8,0,10.8,5.4,21.6,5.4c10.8,0,10.8-5.4,21.6-5.4c10.8,0,10.8,5.4,21.6,5.4
				c10.8,0,10.8-5.4,21.6-5.4c10.8,0,10.8,5.4,21.6,5.4c10.8,0,10.8-5.4,21.6-5.4c10.8,0,10.8,5.4,21.6,5.4
				c10.8,0,10.8-5.4,21.6-5.4c10.8,0,10.8,5.4,21.6,5.4c10.8,0,10.8-5.4,21.6-5.4c10.8,0,10.8,5.4,21.6,5.4
				c10.8,0,10.8-5.4,21.6-5.4c10.8,0,10.8,5.4,21.6,5.4c10.8,0,10.8-5.4,21.6-5.4c10.8,0,10.8,5.4,21.6,5.4
				c10.8,0,10.8-5.4,21.6-5.4c10.8,0,10.8,5.4,21.6,5.4c10.8,0,10.8-5.4,21.6-5.4c10.8,0,10.8,5.4,21.6,5.4
				c10.8,0,10.8-5.4,21.6-5.4c10.8,0,10.8,5.4,21.6,5.4c10.8,0,10.8-5.4,21.6-5.4c10.8,0,10.8,5.4,21.6,5.4
				c10.8,0,10.8-5.4,21.6-5.4c10.8,0,10.8,5.4,21.6,5.4c10.8,0,10.8-5.4,21.6-5.4c10.8,0,10.8,5.4,21.6,5.4
				c10.8,0,10.8-5.4,21.6-5.4c10.8,0,10.8,5.4,21.6,5.4c10.8,0,10.8-5.4,21.6-5.4c10.8,0,10.8,5.4,21.6,5.4
				c10.8,0,10.8-5.4,21.6-5.4c10.8,0,10.8,5.4,21.6,5.4c10.8,0,10.8-5.4,21.6-5.4c10.8,0,10.8,5.4,21.6,5.4
				c10.8,0,10.8-5.4,21.6-5.4c10.8,0,10.8,5.4,21.6,5.4s10.8-5.4,21.6-5.4"/>
			<path class="st1" d="M0,104.5c10.8,0,10.8,5.4,21.6,5.4c10.8,0,10.8-5.4,21.6-5.4c10.8,0,10.8,5.4,21.6,5.4
				c10.8,0,10.8-5.4,21.6-5.4c10.8,0,10.8,5.4,21.6,5.4c10.8,0,10.8-5.4,21.6-5.4c10.8,0,10.8,5.4,21.6,5.4
				c10.8,0,10.8-5.4,21.6-5.4c10.8,0,10.8,5.4,21.6,5.4c10.8,0,10.8-5.4,21.6-5.4c10.8,0,10.8,5.4,21.6,5.4
				c10.8,0,10.8-5.4,21.6-5.4c10.8,0,10.8,5.4,21.6,5.4c10.8,0,10.8-5.4,21.6-5.4c10.8,0,10.8,5.4,21.6,5.4
				c10.8,0,10.8-5.4,21.6-5.4c10.8,0,10.8,5.4,21.6,5.4c10.8,0,10.8-5.4,21.6-5.4c10.8,0,10.8,5.4,21.6,5.4
				c10.8,0,10.8-5.4,21.6-5.4c10.8,0,10.8,5.4,21.6,5.4c10.8,0,10.8-5.4,21.6-5.4c10.8,0,10.8,5.4,21.6,5.4
				c10.8,0,10.8-5.4,21.6-5.4c10.8,0,10.8,5.4,21.6,5.4c10.8,0,10.8-5.4,21.6-5.4c10.8,0,10.8,5.4,21.6,5.4
				c10.8,0,10.8-5.4,21.6-5.4c10.8,0,10.8,5.4,21.6,5.4c10.8,0,10.8-5.4,21.6-5.4c10.8,0,10.8,5.4,21.6,5.4
				c10.8,0,10.8-5.4,21.6-5.4c10.8,0,10.8,5.4,21.6,5.4c10.8,0,10.8-5.4,21.6-5.4c10.8,0,10.8,5.4,21.6,5.4
				c10.8,0,10.8-5.4,21.6-5.4c10.8,0,10.8,5.4,21.6,5.4s10.8-5.4,21.6-5.4"/>
			<path class="st1" d="M0,97.8c10.8,0,10.8,5.4,21.6,5.4c10.8,0,10.8-5.4,21.6-5.4c10.8,0,10.8,5.4,21.6,5.4
				c10.8,0,10.8-5.4,21.6-5.4c10.8,0,10.8,5.4,21.6,5.4c10.8,0,10.8-5.4,21.6-5.4c10.8,0,10.8,5.4,21.6,5.4
				c10.8,0,10.8-5.4,21.6-5.4c10.8,0,10.8,5.4,21.6,5.4c10.8,0,10.8-5.4,21.6-5.4c10.8,0,10.8,5.4,21.6,5.4
				c10.8,0,10.8-5.4,21.6-5.4c10.8,0,10.8,5.4,21.6,5.4c10.8,0,10.8-5.4,21.6-5.4c10.8,0,10.8,5.4,21.6,5.4
				c10.8,0,10.8-5.4,21.6-5.4c10.8,0,10.8,5.4,21.6,5.4c10.8,0,10.8-5.4,21.6-5.4c10.8,0,10.8,5.4,21.6,5.4
				c10.8,0,10.8-5.4,21.6-5.4c10.8,0,10.8,5.4,21.6,5.4c10.8,0,10.8-5.4,21.6-5.4c10.8,0,10.8,5.4,21.6,5.4
				c10.8,0,10.8-5.4,21.6-5.4c10.8,0,10.8,5.4,21.6,5.4c10.8,0,10.8-5.4,21.6-5.4c10.8,0,10.8,5.4,21.6,5.4
				c10.8,0,10.8-5.4,21.6-5.4c10.8,0,10.8,5.4,21.6,5.4c10.8,0,10.8-5.4,21.6-5.4c10.8,0,10.8,5.4,21.6,5.4
				c10.8,0,10.8-5.4,21.6-5.4c10.8,0,10.8,5.4,21.6,5.4c10.8,0,10.8-5.4,21.6-5.4c10.8,0,10.8,5.4,21.6,5.4
				c10.8,0,10.8-5.4,21.6-5.4c10.8,0,10.8,5.4,21.6,5.4s10.8-5.4,21.6-5.4"/>
			<path class="st1" d="M0,91.1c10.8,0,10.8,5.4,21.6,5.4c10.8,0,10.8-5.4,21.6-5.4c10.8,0,10.8,5.4,21.6,5.4
				c10.8,0,10.8-5.4,21.6-5.4c10.8,0,10.8,5.4,21.6,5.4c10.8,0,10.8-5.4,21.6-5.4c10.8,0,10.8,5.4,21.6,5.4
				c10.8,0,10.8-5.4,21.6-5.4c10.8,0,10.8,5.4,21.6,5.4c10.8,0,10.8-5.4,21.6-5.4c10.8,0,10.8,5.4,21.6,5.4
				c10.8,0,10.8-5.4,21.6-5.4c10.8,0,10.8,5.4,21.6,5.4c10.8,0,10.8-5.4,21.6-5.4c10.8,0,10.8,5.4,21.6,5.4
				c10.8,0,10.8-5.4,21.6-5.4c10.8,0,10.8,5.4,21.6,5.4c10.8,0,10.8-5.4,21.6-5.4c10.8,0,10.8,5.4,21.6,5.4
				c10.8,0,10.8-5.4,21.6-5.4c10.8,0,10.8,5.4,21.6,5.4c10.8,0,10.8-5.4,21.6-5.4c10.8,0,10.8,5.4,21.6,5.4
				c10.8,0,10.8-5.4,21.6-5.4c10.8,0,10.8,5.4,21.6,5.4c10.8,0,10.8-5.4,21.6-5.4c10.8,0,10.8,5.4,21.6,5.4
				c10.8,0,10.8-5.4,21.6-5.4c10.8,0,10.8,5.4,21.6,5.4c10.8,0,10.8-5.4,21.6-5.4c10.8,0,10.8,5.4,21.6,5.4
				c10.8,0,10.8-5.4,21.6-5.4c10.8,0,10.8,5.4,21.6,5.4c10.8,0,10.8-5.4,21.6-5.4c10.8,0,10.8,5.4,21.6,5.4
				c10.8,0,10.8-5.4,21.6-5.4c10.8,0,10.8,5.4,21.6,5.4s10.8-5.4,21.6-5.4"/>
			<path class="st1" d="M0,84.4c10.8,0,10.8,5.4,21.6,5.4c10.8,0,10.8-5.4,21.6-5.4c10.8,0,10.8,5.4,21.6,5.4
				c10.8,0,10.8-5.4,21.6-5.4c10.8,0,10.8,5.4,21.6,5.4c10.8,0,10.8-5.4,21.6-5.4c10.8,0,10.8,5.4,21.6,5.4
				c10.8,0,10.8-5.4,21.6-5.4c10.8,0,10.8,5.4,21.6,5.4c10.8,0,10.8-5.4,21.6-5.4c10.8,0,10.8,5.4,21.6,5.4
				c10.8,0,10.8-5.4,21.6-5.4c10.8,0,10.8,5.4,21.6,5.4c10.8,0,10.8-5.4,21.6-5.4c10.8,0,10.8,5.4,21.6,5.4
				c10.8,0,10.8-5.4,21.6-5.4c10.8,0,10.8,5.4,21.6,5.4c10.8,0,10.8-5.4,21.6-5.4c10.8,0,10.8,5.4,21.6,5.4
				c10.8,0,10.8-5.4,21.6-5.4c10.8,0,10.8,5.4,21.6,5.4c10.8,0,10.8-5.4,21.6-5.4c10.8,0,10.8,5.4,21.6,5.4
				c10.8,0,10.8-5.4,21.6-5.4c10.8,0,10.8,5.4,21.6,5.4c10.8,0,10.8-5.4,21.6-5.4c10.8,0,10.8,5.4,21.6,5.4
				c10.8,0,10.8-5.4,21.6-5.4c10.8,0,10.8,5.4,21.6,5.4c10.8,0,10.8-5.4,21.6-5.4c10.8,0,10.8,5.4,21.6,5.4
				c10.8,0,10.8-5.4,21.6-5.4c10.8,0,10.8,5.4,21.6,5.4c10.8,0,10.8-5.4,21.6-5.4c10.8,0,10.8,5.4,21.6,5.4
				c10.8,0,10.8-5.4,21.6-5.4c10.8,0,10.8,5.4,21.6,5.4s10.8-5.4,21.6-5.4"/>
			<path class="st1" d="M0,77.7c10.8,0,10.8,5.4,21.6,5.4c10.8,0,10.8-5.4,21.6-5.4c10.8,0,10.8,5.4,21.6,5.4
				c10.8,0,10.8-5.4,21.6-5.4c10.8,0,10.8,5.4,21.6,5.4c10.8,0,10.8-5.4,21.6-5.4c10.8,0,10.8,5.4,21.6,5.4
				c10.8,0,10.8-5.4,21.6-5.4c10.8,0,10.8,5.4,21.6,5.4c10.8,0,10.8-5.4,21.6-5.4c10.8,0,10.8,5.4,21.6,5.4
				c10.8,0,10.8-5.4,21.6-5.4c10.8,0,10.8,5.4,21.6,5.4c10.8,0,10.8-5.4,21.6-5.4c10.8,0,10.8,5.4,21.6,5.4
				c10.8,0,10.8-5.4,21.6-5.4c10.8,0,10.8,5.4,21.6,5.4c10.8,0,10.8-5.4,21.6-5.4c10.8,0,10.8,5.4,21.6,5.4
				c10.8,0,10.8-5.4,21.6-5.4c10.8,0,10.8,5.4,21.6,5.4c10.8,0,10.8-5.4,21.6-5.4c10.8,0,10.8,5.4,21.6,5.4
				c10.8,0,10.8-5.4,21.6-5.4c10.8,0,10.8,5.4,21.6,5.4c10.8,0,10.8-5.4,21.6-5.4c10.8,0,10.8,5.4,21.6,5.4
				c10.8,0,10.8-5.4,21.6-5.4c10.8,0,10.8,5.4,21.6,5.4c10.8,0,10.8-5.4,21.6-5.4c10.8,0,10.8,5.4,21.6,5.4
				c10.8,0,10.8-5.4,21.6-5.4c10.8,0,10.8,5.4,21.6,5.4c10.8,0,10.8-5.4,21.6-5.4c10.8,0,10.8,5.4,21.6,5.4
				c10.8,0,10.8-5.4,21.6-5.4c10.8,0,10.8,5.4,21.6,5.4s10.8-5.4,21.6-5.4"/>
			<path class="st1" d="M0,71c10.8,0,10.8,5.4,21.6,5.4c10.8,0,10.8-5.4,21.6-5.4C54,71,54,76.4,64.8,76.4c10.8,0,10.8-5.4,21.6-5.4
				c10.8,0,10.8,5.4,21.6,5.4c10.8,0,10.8-5.4,21.6-5.4c10.8,0,10.8,5.4,21.6,5.4c10.8,0,10.8-5.4,21.6-5.4
				c10.8,0,10.8,5.4,21.6,5.4c10.8,0,10.8-5.4,21.6-5.4c10.8,0,10.8,5.4,21.6,5.4c10.8,0,10.8-5.4,21.6-5.4
				c10.8,0,10.8,5.4,21.6,5.4c10.8,0,10.8-5.4,21.6-5.4c10.8,0,10.8,5.4,21.6,5.4c10.8,0,10.8-5.4,21.6-5.4
				c10.8,0,10.8,5.4,21.6,5.4c10.8,0,10.8-5.4,21.6-5.4c10.8,0,10.8,5.4,21.6,5.4c10.8,0,10.8-5.4,21.6-5.4
				c10.8,0,10.8,5.4,21.6,5.4c10.8,0,10.8-5.4,21.6-5.4c10.8,0,10.8,5.4,21.6,5.4c10.8,0,10.8-5.4,21.6-5.4
				c10.8,0,10.8,5.4,21.6,5.4c10.8,0,10.8-5.4,21.6-5.4c10.8,0,10.8,5.4,21.6,5.4c10.8,0,10.8-5.4,21.6-5.4
				c10.8,0,10.8,5.4,21.6,5.4c10.8,0,10.8-5.4,21.6-5.4c10.8,0,10.8,5.4,21.6,5.4c10.8,0,10.8-5.4,21.6-5.4
				c10.8,0,10.8,5.4,21.6,5.4c10.8,0,10.8-5.4,21.6-5.4c10.8,0,10.8,5.4,21.6,5.4c10.8,0,10.8-5.4,21.6-5.4
				c10.8,0,10.8,5.4,21.6,5.4S810,71,820.8,71"/>
			<path class="st1" d="M0,64.2c10.8,0,10.8,5.4,21.6,5.4c10.8,0,10.8-5.4,21.6-5.4c10.8,0,10.8,5.4,21.6,5.4
				c10.8,0,10.8-5.4,21.6-5.4c10.8,0,10.8,5.4,21.6,5.4c10.8,0,10.8-5.4,21.6-5.4c10.8,0,10.8,5.4,21.6,5.4
				c10.8,0,10.8-5.4,21.6-5.4c10.8,0,10.8,5.4,21.6,5.4c10.8,0,10.8-5.4,21.6-5.4c10.8,0,10.8,5.4,21.6,5.4
				c10.8,0,10.8-5.4,21.6-5.4c10.8,0,10.8,5.4,21.6,5.4c10.8,0,10.8-5.4,21.6-5.4c10.8,0,10.8,5.4,21.6,5.4
				c10.8,0,10.8-5.4,21.6-5.4c10.8,0,10.8,5.4,21.6,5.4c10.8,0,10.8-5.4,21.6-5.4c10.8,0,10.8,5.4,21.6,5.4
				c10.8,0,10.8-5.4,21.6-5.4c10.8,0,10.8,5.4,21.6,5.4c10.8,0,10.8-5.4,21.6-5.4c10.8,0,10.8,5.4,21.6,5.4
				c10.8,0,10.8-5.4,21.6-5.4c10.8,0,10.8,5.4,21.6,5.4c10.8,0,10.8-5.4,21.6-5.4c10.8,0,10.8,5.4,21.6,5.4
				c10.8,0,10.8-5.4,21.6-5.4c10.8,0,10.8,5.4,21.6,5.4c10.8,0,10.8-5.4,21.6-5.4c10.8,0,10.8,5.4,21.6,5.4
				c10.8,0,10.8-5.4,21.6-5.4c10.8,0,10.8,5.4,21.6,5.4c10.8,0,10.8-5.4,21.6-5.4c10.8,0,10.8,5.4,21.6,5.4
				c10.8,0,10.8-5.4,21.6-5.4c10.8,0,10.8,5.4,21.6,5.4s10.8-5.4,21.6-5.4"/>
			<path class="st1" d="M0,57.5c10.8,0,10.8,5.4,21.6,5.4c10.8,0,10.8-5.4,21.6-5.4c10.8,0,10.8,5.4,21.6,5.4
				c10.8,0,10.8-5.4,21.6-5.4c10.8,0,10.8,5.4,21.6,5.4c10.8,0,10.8-5.4,21.6-5.4c10.8,0,10.8,5.4,21.6,5.4
				c10.8,0,10.8-5.4,21.6-5.4c10.8,0,10.8,5.4,21.6,5.4c10.8,0,10.8-5.4,21.6-5.4c10.8,0,10.8,5.4,21.6,5.4
				c10.8,0,10.8-5.4,21.6-5.4c10.8,0,10.8,5.4,21.6,5.4c10.8,0,10.8-5.4,21.6-5.4c10.8,0,10.8,5.4,21.6,5.4
				c10.8,0,10.8-5.4,21.6-5.4c10.8,0,10.8,5.4,21.6,5.4c10.8,0,10.8-5.4,21.6-5.4c10.8,0,10.8,5.4,21.6,5.4
				c10.8,0,10.8-5.4,21.6-5.4c10.8,0,10.8,5.4,21.6,5.4c10.8,0,10.8-5.4,21.6-5.4c10.8,0,10.8,5.4,21.6,5.4
				c10.8,0,10.8-5.4,21.6-5.4c10.8,0,10.8,5.4,21.6,5.4c10.8,0,10.8-5.4,21.6-5.4c10.8,0,10.8,5.4,21.6,5.4
				c10.8,0,10.8-5.4,21.6-5.4c10.8,0,10.8,5.4,21.6,5.4c10.8,0,10.8-5.4,21.6-5.4c10.8,0,10.8,5.4,21.6,5.4
				c10.8,0,10.8-5.4,21.6-5.4c10.8,0,10.8,5.4,21.6,5.4c10.8,0,10.8-5.4,21.6-5.4c10.8,0,10.8,5.4,21.6,5.4
				c10.8,0,10.8-5.4,21.6-5.4c10.8,0,10.8,5.4,21.6,5.4s10.8-5.4,21.6-5.4"/>
			<path class="st1" d="M0,50.8c10.8,0,10.8,5.4,21.6,5.4c10.8,0,10.8-5.4,21.6-5.4c10.8,0,10.8,5.4,21.6,5.4
				c10.8,0,10.8-5.4,21.6-5.4c10.8,0,10.8,5.4,21.6,5.4c10.8,0,10.8-5.4,21.6-5.4c10.8,0,10.8,5.4,21.6,5.4
				c10.8,0,10.8-5.4,21.6-5.4c10.8,0,10.8,5.4,21.6,5.4c10.8,0,10.8-5.4,21.6-5.4c10.8,0,10.8,5.4,21.6,5.4
				c10.8,0,10.8-5.4,21.6-5.4c10.8,0,10.8,5.4,21.6,5.4c10.8,0,10.8-5.4,21.6-5.4c10.8,0,10.8,5.4,21.6,5.4
				c10.8,0,10.8-5.4,21.6-5.4c10.8,0,10.8,5.4,21.6,5.4c10.8,0,10.8-5.4,21.6-5.4c10.8,0,10.8,5.4,21.6,5.4
				c10.8,0,10.8-5.4,21.6-5.4c10.8,0,10.8,5.4,21.6,5.4c10.8,0,10.8-5.4,21.6-5.4c10.8,0,10.8,5.4,21.6,5.4
				c10.8,0,10.8-5.4,21.6-5.4c10.8,0,10.8,5.4,21.6,5.4c10.8,0,10.8-5.4,21.6-5.4c10.8,0,10.8,5.4,21.6,5.4
				c10.8,0,10.8-5.4,21.6-5.4c10.8,0,10.8,5.4,21.6,5.4c10.8,0,10.8-5.4,21.6-5.4c10.8,0,10.8,5.4,21.6,5.4
				c10.8,0,10.8-5.4,21.6-5.4c10.8,0,10.8,5.4,21.6,5.4c10.8,0,10.8-5.4,21.6-5.4c10.8,0,10.8,5.4,21.6,5.4
				c10.8,0,10.8-5.4,21.6-5.4c10.8,0,10.8,5.4,21.6,5.4s10.8-5.4,21.6-5.4"/>
			<path class="st1" d="M0,44.1c10.8,0,10.8,5.4,21.6,5.4c10.8,0,10.8-5.4,21.6-5.4c10.8,0,10.8,5.4,21.6,5.4
				c10.8,0,10.8-5.4,21.6-5.4c10.8,0,10.8,5.4,21.6,5.4c10.8,0,10.8-5.4,21.6-5.4c10.8,0,10.8,5.4,21.6,5.4
				c10.8,0,10.8-5.4,21.6-5.4c10.8,0,10.8,5.4,21.6,5.4c10.8,0,10.8-5.4,21.6-5.4c10.8,0,10.8,5.4,21.6,5.4
				c10.8,0,10.8-5.4,21.6-5.4c10.8,0,10.8,5.4,21.6,5.4c10.8,0,10.8-5.4,21.6-5.4c10.8,0,10.8,5.4,21.6,5.4
				c10.8,0,10.8-5.4,21.6-5.4c10.8,0,10.8,5.4,21.6,5.4c10.8,0,10.8-5.4,21.6-5.4c10.8,0,10.8,5.4,21.6,5.4
				c10.8,0,10.8-5.4,21.6-5.4c10.8,0,10.8,5.4,21.6,5.4c10.8,0,10.8-5.4,21.6-5.4c10.8,0,10.8,5.4,21.6,5.4
				c10.8,0,10.8-5.4,21.6-5.4c10.8,0,10.8,5.4,21.6,5.4c10.8,0,10.8-5.4,21.6-5.4c10.8,0,10.8,5.4,21.6,5.4
				c10.8,0,10.8-5.4,21.6-5.4c10.8,0,10.8,5.4,21.6,5.4c10.8,0,10.8-5.4,21.6-5.4c10.8,0,10.8,5.4,21.6,5.4
				c10.8,0,10.8-5.4,21.6-5.4c10.8,0,10.8,5.4,21.6,5.4c10.8,0,10.8-5.4,21.6-5.4c10.8,0,10.8,5.4,21.6,5.4
				c10.8,0,10.8-5.4,21.6-5.4c10.8,0,10.8,5.4,21.6,5.4s10.8-5.4,21.6-5.4"/>
			<path class="st1" d="M0,37.4c10.8,0,10.8,5.4,21.6,5.4c10.8,0,10.8-5.4,21.6-5.4c10.8,0,10.8,5.4,21.6,5.4
				c10.8,0,10.8-5.4,21.6-5.4c10.8,0,10.8,5.4,21.6,5.4c10.8,0,10.8-5.4,21.6-5.4c10.8,0,10.8,5.4,21.6,5.4
				c10.8,0,10.8-5.4,21.6-5.4c10.8,0,10.8,5.4,21.6,5.4c10.8,0,10.8-5.4,21.6-5.4c10.8,0,10.8,5.4,21.6,5.4
				c10.8,0,10.8-5.4,21.6-5.4c10.8,0,10.8,5.4,21.6,5.4c10.8,0,10.8-5.4,21.6-5.4c10.8,0,10.8,5.4,21.6,5.4
				c10.8,0,10.8-5.4,21.6-5.4c10.8,0,10.8,5.4,21.6,5.4c10.8,0,10.8-5.4,21.6-5.4c10.8,0,10.8,5.4,21.6,5.4
				c10.8,0,10.8-5.4,21.6-5.4c10.8,0,10.8,5.4,21.6,5.4c10.8,0,10.8-5.4,21.6-5.4c10.8,0,10.8,5.4,21.6,5.4
				c10.8,0,10.8-5.4,21.6-5.4c10.8,0,10.8,5.4,21.6,5.4c10.8,0,10.8-5.4,21.6-5.4c10.8,0,10.8,5.4,21.6,5.4
				c10.8,0,10.8-5.4,21.6-5.4c10.8,0,10.8,5.4,21.6,5.4c10.8,0,10.8-5.4,21.6-5.4c10.8,0,10.8,5.4,21.6,5.4
				c10.8,0,10.8-5.4,21.6-5.4c10.8,0,10.8,5.4,21.6,5.4c10.8,0,10.8-5.4,21.6-5.4c10.8,0,10.8,5.4,21.6,5.4
				c10.8,0,10.8-5.4,21.6-5.4c10.8,0,10.8,5.4,21.6,5.4s10.8-5.4,21.6-5.4"/>
			<path class="st1" d="M0,30.7c10.8,0,10.8,5.4,21.6,5.4c10.8,0,10.8-5.4,21.6-5.4c10.8,0,10.8,5.4,21.6,5.4
				c10.8,0,10.8-5.4,21.6-5.4c10.8,0,10.8,5.4,21.6,5.4c10.8,0,10.8-5.4,21.6-5.4c10.8,0,10.8,5.4,21.6,5.4
				c10.8,0,10.8-5.4,21.6-5.4c10.8,0,10.8,5.4,21.6,5.4c10.8,0,10.8-5.4,21.6-5.4c10.8,0,10.8,5.4,21.6,5.4
				c10.8,0,10.8-5.4,21.6-5.4c10.8,0,10.8,5.4,21.6,5.4c10.8,0,10.8-5.4,21.6-5.4c10.8,0,10.8,5.4,21.6,5.4
				c10.8,0,10.8-5.4,21.6-5.4c10.8,0,10.8,5.4,21.6,5.4c10.8,0,10.8-5.4,21.6-5.4c10.8,0,10.8,5.4,21.6,5.4
				c10.8,0,10.8-5.4,21.6-5.4c10.8,0,10.8,5.4,21.6,5.4c10.8,0,10.8-5.4,21.6-5.4c10.8,0,10.8,5.4,21.6,5.4
				c10.8,0,10.8-5.4,21.6-5.4c10.8,0,10.8,5.4,21.6,5.4c10.8,0,10.8-5.4,21.6-5.4c10.8,0,10.8,5.4,21.6,5.4
				c10.8,0,10.8-5.4,21.6-5.4c10.8,0,10.8,5.4,21.6,5.4c10.8,0,10.8-5.4,21.6-5.4c10.8,0,10.8,5.4,21.6,5.4
				c10.8,0,10.8-5.4,21.6-5.4c10.8,0,10.8,5.4,21.6,5.4c10.8,0,10.8-5.4,21.6-5.4c10.8,0,10.8,5.4,21.6,5.4
				c10.8,0,10.8-5.4,21.6-5.4c10.8,0,10.8,5.4,21.6,5.4s10.8-5.4,21.6-5.4"/>
			<path class="st1" d="M0,23.9c10.8,0,10.8,5.4,21.6,5.4c10.8,0,10.8-5.4,21.6-5.4c10.8,0,10.8,5.4,21.6,5.4
				c10.8,0,10.8-5.4,21.6-5.4c10.8,0,10.8,5.4,21.6,5.4c10.8,0,10.8-5.4,21.6-5.4c10.8,0,10.8,5.4,21.6,5.4
				c10.8,0,10.8-5.4,21.6-5.4c10.8,0,10.8,5.4,21.6,5.4c10.8,0,10.8-5.4,21.6-5.4c10.8,0,10.8,5.4,21.6,5.4
				c10.8,0,10.8-5.4,21.6-5.4c10.8,0,10.8,5.4,21.6,5.4c10.8,0,10.8-5.4,21.6-5.4c10.8,0,10.8,5.4,21.6,5.4
				c10.8,0,10.8-5.4,21.6-5.4c10.8,0,10.8,5.4,21.6,5.4c10.8,0,10.8-5.4,21.6-5.4c10.8,0,10.8,5.4,21.6,5.4
				c10.8,0,10.8-5.4,21.6-5.4c10.8,0,10.8,5.4,21.6,5.4c10.8,0,10.8-5.4,21.6-5.4c10.8,0,10.8,5.4,21.6,5.4
				c10.8,0,10.8-5.4,21.6-5.4c10.8,0,10.8,5.4,21.6,5.4c10.8,0,10.8-5.4,21.6-5.4c10.8,0,10.8,5.4,21.6,5.4
				c10.8,0,10.8-5.4,21.6-5.4c10.8,0,10.8,5.4,21.6,5.4c10.8,0,10.8-5.4,21.6-5.4c10.8,0,10.8,5.4,21.6,5.4
				c10.8,0,10.8-5.4,21.6-5.4c10.8,0,10.8,5.4,21.6,5.4c10.8,0,10.8-5.4,21.6-5.4c10.8,0,10.8,5.4,21.6,5.4
				c10.8,0,10.8-5.4,21.6-5.4c10.8,0,10.8,5.4,21.6,5.4s10.8-5.4,21.6-5.4"/>
			<path class="st1" d="M0,17.2c10.8,0,10.8,5.4,21.6,5.4c10.8,0,10.8-5.4,21.6-5.4c10.8,0,10.8,5.4,21.6,5.4
				c10.8,0,10.8-5.4,21.6-5.4c10.8,0,10.8,5.4,21.6,5.4c10.8,0,10.8-5.4,21.6-5.4c10.8,0,10.8,5.4,21.6,5.4
				c10.8,0,10.8-5.4,21.6-5.4c10.8,0,10.8,5.4,21.6,5.4c10.8,0,10.8-5.4,21.6-5.4c10.8,0,10.8,5.4,21.6,5.4
				c10.8,0,10.8-5.4,21.6-5.4c10.8,0,10.8,5.4,21.6,5.4c10.8,0,10.8-5.4,21.6-5.4c10.8,0,10.8,5.4,21.6,5.4
				c10.8,0,10.8-5.4,21.6-5.4c10.8,0,10.8,5.4,21.6,5.4c10.8,0,10.8-5.4,21.6-5.4c10.8,0,10.8,5.4,21.6,5.4
				c10.8,0,10.8-5.4,21.6-5.4c10.8,0,10.8,5.4,21.6,5.4c10.8,0,10.8-5.4,21.6-5.4c10.8,0,10.8,5.4,21.6,5.4
				c10.8,0,10.8-5.4,21.6-5.4c10.8,0,10.8,5.4,21.6,5.4c10.8,0,10.8-5.4,21.6-5.4c10.8,0,10.8,5.4,21.6,5.4
				c10.8,0,10.8-5.4,21.6-5.4c10.8,0,10.8,5.4,21.6,5.4c10.8,0,10.8-5.4,21.6-5.4c10.8,0,10.8,5.4,21.6,5.4
				c10.8,0,10.8-5.4,21.6-5.4c10.8,0,10.8,5.4,21.6,5.4c10.8,0,10.8-5.4,21.6-5.4c10.8,0,10.8,5.4,21.6,5.4
				c10.8,0,10.8-5.4,21.6-5.4c10.8,0,10.8,5.4,21.6,5.4s10.8-5.4,21.6-5.4"/>
			<path class="st1" d="M0,10.5c10.8,0,10.8,5.4,21.6,5.4c10.8,0,10.8-5.4,21.6-5.4c10.8,0,10.8,5.4,21.6,5.4
				c10.8,0,10.8-5.4,21.6-5.4c10.8,0,10.8,5.4,21.6,5.4c10.8,0,10.8-5.4,21.6-5.4c10.8,0,10.8,5.4,21.6,5.4
				c10.8,0,10.8-5.4,21.6-5.4c10.8,0,10.8,5.4,21.6,5.4c10.8,0,10.8-5.4,21.6-5.4c10.8,0,10.8,5.4,21.6,5.4
				c10.8,0,10.8-5.4,21.6-5.4c10.8,0,10.8,5.4,21.6,5.4c10.8,0,10.8-5.4,21.6-5.4c10.8,0,10.8,5.4,21.6,5.4
				c10.8,0,10.8-5.4,21.6-5.4c10.8,0,10.8,5.4,21.6,5.4c10.8,0,10.8-5.4,21.6-5.4c10.8,0,10.8,5.4,21.6,5.4
				c10.8,0,10.8-5.4,21.6-5.4c10.8,0,10.8,5.4,21.6,5.4c10.8,0,10.8-5.4,21.6-5.4c10.8,0,10.8,5.4,21.6,5.4
				c10.8,0,10.8-5.4,21.6-5.4c10.8,0,10.8,5.4,21.6,5.4c10.8,0,10.8-5.4,21.6-5.4c10.8,0,10.8,5.4,21.6,5.4
				c10.8,0,10.8-5.4,21.6-5.4c10.8,0,10.8,5.4,21.6,5.4c10.8,0,10.8-5.4,21.6-5.4c10.8,0,10.8,5.4,21.6,5.4
				c10.8,0,10.8-5.4,21.6-5.4c10.8,0,10.8,5.4,21.6,5.4c10.8,0,10.8-5.4,21.6-5.4c10.8,0,10.8,5.4,21.6,5.4
				c10.8,0,10.8-5.4,21.6-5.4c10.8,0,10.8,5.4,21.6,5.4s10.8-5.4,21.6-5.4"/>
			<path class="st1" d="M0,3.8c10.8,0,10.8,5.4,21.6,5.4c10.8,0,10.8-5.4,21.6-5.4C54,3.8,54,9.2,64.8,9.2c10.8,0,10.8-5.4,21.6-5.4
				c10.8,0,10.8,5.4,21.6,5.4c10.8,0,10.8-5.4,21.6-5.4c10.8,0,10.8,5.4,21.6,5.4c10.8,0,10.8-5.4,21.6-5.4
				c10.8,0,10.8,5.4,21.6,5.4c10.8,0,10.8-5.4,21.6-5.4c10.8,0,10.8,5.4,21.6,5.4c10.8,0,10.8-5.4,21.6-5.4
				c10.8,0,10.8,5.4,21.6,5.4c10.8,0,10.8-5.4,21.6-5.4c10.8,0,10.8,5.4,21.6,5.4c10.8,0,10.8-5.4,21.6-5.4
				c10.8,0,10.8,5.4,21.6,5.4c10.8,0,10.8-5.4,21.6-5.4c10.8,0,10.8,5.4,21.6,5.4c10.8,0,10.8-5.4,21.6-5.4
				c10.8,0,10.8,5.4,21.6,5.4c10.8,0,10.8-5.4,21.6-5.4c10.8,0,10.8,5.4,21.6,5.4c10.8,0,10.8-5.4,21.6-5.4
				c10.8,0,10.8,5.4,21.6,5.4c10.8,0,10.8-5.4,21.6-5.4c10.8,0,10.8,5.4,21.6,5.4c10.8,0,10.8-5.4,21.6-5.4
				c10.8,0,10.8,5.4,21.6,5.4c10.8,0,10.8-5.4,21.6-5.4c10.8,0,10.8,5.4,21.6,5.4c10.8,0,10.8-5.4,21.6-5.4
				c10.8,0,10.8,5.4,21.6,5.4c10.8,0,10.8-5.4,21.6-5.4c10.8,0,10.8,5.4,21.6,5.4c10.8,0,10.8-5.4,21.6-5.4
				c10.8,0,10.8,5.4,21.6,5.4s10.8-5.4,21.6-5.4"/>
			<path class="st1" d="M0-2.9c10.8,0,10.8,5.4,21.6,5.4c10.8,0,10.8-5.4,21.6-5.4C54-2.9,54,2.5,64.8,2.5c10.8,0,10.8-5.4,21.6-5.4
				c10.8,0,10.8,5.4,21.6,5.4c10.8,0,10.8-5.4,21.6-5.4c10.8,0,10.8,5.4,21.6,5.4c10.8,0,10.8-5.4,21.6-5.4
				c10.8,0,10.8,5.4,21.6,5.4c10.8,0,10.8-5.4,21.6-5.4c10.8,0,10.8,5.4,21.6,5.4c10.8,0,10.8-5.4,21.6-5.4
				c10.8,0,10.8,5.4,21.6,5.4c10.8,0,10.8-5.4,21.6-5.4c10.8,0,10.8,5.4,21.6,5.4c10.8,0,10.8-5.4,21.6-5.4
				c10.8,0,10.8,5.4,21.6,5.4c10.8,0,10.8-5.4,21.6-5.4c10.8,0,10.8,5.4,21.6,5.4c10.8,0,10.8-5.4,21.6-5.4
				c10.8,0,10.8,5.4,21.6,5.4c10.8,0,10.8-5.4,21.6-5.4c10.8,0,10.8,5.4,21.6,5.4c10.8,0,10.8-5.4,21.6-5.4
				c10.8,0,10.8,5.4,21.6,5.4c10.8,0,10.8-5.4,21.6-5.4c10.8,0,10.8,5.4,21.6,5.4c10.8,0,10.8-5.4,21.6-5.4
				c10.8,0,10.8,5.4,21.6,5.4c10.8,0,10.8-5.4,21.6-5.4c10.8,0,10.8,5.4,21.6,5.4c10.8,0,10.8-5.4,21.6-5.4
				c10.8,0,10.8,5.4,21.6,5.4c10.8,0,10.8-5.4,21.6-5.4c10.8,0,10.8,5.4,21.6,5.4c10.8,0,10.8-5.4,21.6-5.4
				c10.8,0,10.8,5.4,21.6,5.4s10.8-5.4,21.6-5.4"/>
			<path class="st1" d="M0-9.6c10.8,0,10.8,5.4,21.6,5.4c10.8,0,10.8-5.4,21.6-5.4C54-9.6,54-4.2,64.8-4.2c10.8,0,10.8-5.4,21.6-5.4
				c10.8,0,10.8,5.4,21.6,5.4c10.8,0,10.8-5.4,21.6-5.4c10.8,0,10.8,5.4,21.6,5.4c10.8,0,10.8-5.4,21.6-5.4
				c10.8,0,10.8,5.4,21.6,5.4c10.8,0,10.8-5.4,21.6-5.4c10.8,0,10.8,5.4,21.6,5.4c10.8,0,10.8-5.4,21.6-5.4
				c10.8,0,10.8,5.4,21.6,5.4c10.8,0,10.8-5.4,21.6-5.4c10.8,0,10.8,5.4,21.6,5.4c10.8,0,10.8-5.4,21.6-5.4
				c10.8,0,10.8,5.4,21.6,5.4c10.8,0,10.8-5.4,21.6-5.4c10.8,0,10.8,5.4,21.6,5.4c10.8,0,10.8-5.4,21.6-5.4
				c10.8,0,10.8,5.4,21.6,5.4c10.8,0,10.8-5.4,21.6-5.4c10.8,0,10.8,5.4,21.6,5.4c10.8,0,10.8-5.4,21.6-5.4
				c10.8,0,10.8,5.4,21.6,5.4c10.8,0,10.8-5.4,21.6-5.4c10.8,0,10.8,5.4,21.6,5.4c10.8,0,10.8-5.4,21.6-5.4
				c10.8,0,10.8,5.4,21.6,5.4c10.8,0,10.8-5.4,21.6-5.4c10.8,0,10.8,5.4,21.6,5.4c10.8,0,10.8-5.4,21.6-5.4
				c10.8,0,10.8,5.4,21.6,5.4c10.8,0,10.8-5.4,21.6-5.4c10.8,0,10.8,5.4,21.6,5.4c10.8,0,10.8-5.4,21.6-5.4
				c10.8,0,10.8,5.4,21.6,5.4s10.8-5.4,21.6-5.4"/>
			<path class="st1" d="M0-16.3c10.8,0,10.8,5.4,21.6,5.4c10.8,0,10.8-5.4,21.6-5.4c10.8,0,10.8,5.4,21.6,5.4
				c10.8,0,10.8-5.4,21.6-5.4c10.8,0,10.8,5.4,21.6,5.4c10.8,0,10.8-5.4,21.6-5.4c10.8,0,10.8,5.4,21.6,5.4
				c10.8,0,10.8-5.4,21.6-5.4c10.8,0,10.8,5.4,21.6,5.4c10.8,0,10.8-5.4,21.6-5.4c10.8,0,10.8,5.4,21.6,5.4
				c10.8,0,10.8-5.4,21.6-5.4c10.8,0,10.8,5.4,21.6,5.4c10.8,0,10.8-5.4,21.6-5.4c10.8,0,10.8,5.4,21.6,5.4
				c10.8,0,10.8-5.4,21.6-5.4c10.8,0,10.8,5.4,21.6,5.4c10.8,0,10.8-5.4,21.6-5.4c10.8,0,10.8,5.4,21.6,5.4
				c10.8,0,10.8-5.4,21.6-5.4c10.8,0,10.8,5.4,21.6,5.4c10.8,0,10.8-5.4,21.6-5.4c10.8,0,10.8,5.4,21.6,5.4
				c10.8,0,10.8-5.4,21.6-5.4c10.8,0,10.8,5.4,21.6,5.4c10.8,0,10.8-5.4,21.6-5.4c10.8,0,10.8,5.4,21.6,5.4
				c10.8,0,10.8-5.4,21.6-5.4c10.8,0,10.8,5.4,21.6,5.4c10.8,0,10.8-5.4,21.6-5.4c10.8,0,10.8,5.4,21.6,5.4
				c10.8,0,10.8-5.4,21.6-5.4c10.8,0,10.8,5.4,21.6,5.4c10.8,0,10.8-5.4,21.6-5.4c10.8,0,10.8,5.4,21.6,5.4
				c10.8,0,10.8-5.4,21.6-5.4c10.8,0,10.8,5.4,21.6,5.4s10.8-5.4,21.6-5.4"/>
		</g>
	</g>
</g>
</svg>
