<svg xmlns="http://www.w3.org/2000/svg" xmlns:xlink="http://www.w3.org/1999/xlink" viewBox="0 0 120 120"><defs><style>.cls-1{isolation:isolate;}.cls-2{fill:url(#linear-gradient);}.cls-3{opacity:0.3;mix-blend-mode:multiply;}.cls-4{fill:#fff;}.cls-5{fill:#f7f7f7;}.cls-6{fill:#efefef;}.cls-7{fill:#e6e6e6;}.cls-8{fill:#dedede;}.cls-9{fill:#d6d6d6;}.cls-10{fill:#cecece;}.cls-11{fill:#c5c5c5;}.cls-12{fill:#bdbdbd;}.cls-13{fill:#b5b5b5;}.cls-14{fill:#adadad;}.cls-15{fill:#a5a5a5;}.cls-16{fill:#9c9c9c;}.cls-17{fill:#949494;}.cls-18{fill:#8c8c8c;}.cls-19{fill:#848484;}.cls-20{fill:#7b7b7b;}.cls-21{fill:#737373;}.cls-22{fill:#6b6b6b;}.cls-23{fill:#636363;}.cls-24{fill:#5a5a5a;}.cls-25{fill:#525252;}.cls-26{fill:#4a4a4a;}.cls-27{fill:#424242;}.cls-28{fill:#3a3a3a;}.cls-29{fill:#313131;}.cls-30{fill:#292929;}.cls-31{fill:#212121;}.cls-32{fill:#191919;}.cls-33{fill:#101010;}.cls-34{fill:#080808;}.cls-35{fill:url(#linear-gradient-2);}.cls-36{fill:url(#linear-gradient-3);}.cls-37{fill:#1b5270;}.cls-38{fill:#e0a319;}</style><linearGradient id="linear-gradient" x1="-0.84" y1="120.34" x2="120.84" y2="-1.34" gradientUnits="userSpaceOnUse"><stop offset="0" stop-color="#366994"/><stop offset="1" stop-color="#3b73a2"/></linearGradient><linearGradient id="linear-gradient-2" x1="-3875.56" y1="189.31" x2="-3875.53" y2="189.29" gradientTransform="matrix(1849.27, 0, 0, -1853.39, 7166966.37, 350893.67)" gradientUnits="userSpaceOnUse"><stop offset="0" stop-color="#387eb8"/><stop offset="1" stop-color="#366994"/></linearGradient><linearGradient id="linear-gradient-3" x1="-3875.89" y1="189.64" x2="-3875.86" y2="189.61" gradientTransform="matrix(1849.27, 0, 0, -1853.39, 7167609.68, 351520.99)" gradientUnits="userSpaceOnUse"><stop offset="0" stop-color="#ffe052"/><stop offset="1" stop-color="#ffc331"/></linearGradient></defs><title>S</title><g class="cls-1"><g id="Layer_1" data-name="Layer 1"><rect class="cls-2" x="-1.19" y="-1" width="122.38" height="121"/><g class="cls-3"><path class="cls-4" d="M45.69,25.16a4.14,4.14,0,0,1-4.14,4.15h0a4.14,4.14,0,0,1-4.15-4.14h0A4.14,4.14,0,0,1,41.53,21h0a4.14,4.14,0,0,1,4.15,4.14ZM41.84,59.67H64.73s12.86.21,12.86-12.43V26.35s2-12.65-23.33-12.65c-24.18,0-22.67,10.49-22.67,10.49l0,10.87H54.7v3.26H22.45S7,36.56,7,61,20.48,84.5,20.48,84.5h8.06V73.18S28.11,59.67,41.84,59.67Z"/><path class="cls-4" d="M63.52,97a4.15,4.15,0,0,1,4.15-4.15h0A4.15,4.15,0,0,1,71.83,97h0a4.15,4.15,0,0,1-4.15,4.15h0A4.17,4.17,0,0,1,63.52,97ZM88.73,37.67H80.67V49s.44,13.5-13.29,13.5H44.49s-12.86-.2-12.86,12.43v20.9S29.68,108.47,55,108.47h0C79.14,108.47,77.63,98,77.63,98l0-10.86H54.52V83.86H86.76s15.48,1.75,15.48-22.65S88.73,37.67,88.73,37.67Z"/><path class="cls-5" d="M45.86,25.1a4.15,4.15,0,0,1-4.15,4.15h0a4.15,4.15,0,0,1-4.16-4.14h0A4.15,4.15,0,0,1,41.7,21h0a4.15,4.15,0,0,1,4.15,4.14ZM42,59.61H64.89s12.86.21,12.86-12.43V26.29s2-12.65-23.32-12.65c-24.18,0-22.67,10.49-22.67,10.49l0,10.87H54.86v3.26H22.62S7.14,36.5,7.14,60.91,20.65,84.44,20.65,84.44h8.06V73.12S28.28,59.61,42,59.61Z"/><path class="cls-5" d="M63.69,97a4.14,4.14,0,0,1,4.14-4.15h0A4.15,4.15,0,0,1,72,97h0a4.15,4.15,0,0,1-4.14,4.16h0A4.15,4.15,0,0,1,63.69,97ZM88.9,37.61H80.84V48.94s.43,13.5-13.29,13.5H44.66S31.8,62.24,31.8,74.87v20.9s-2,12.64,23.32,12.64h0c24.18,0,22.67-10.49,22.67-10.49l0-10.86H54.69V83.8H86.93s15.48,1.75,15.48-22.65S88.9,37.61,88.9,37.61Z"/><path class="cls-6" d="M46,25a4.15,4.15,0,0,1-4.14,4.16h0a4.15,4.15,0,0,1-4.15-4.15h0a4.14,4.14,0,0,1,4.14-4.15h0A4.15,4.15,0,0,1,46,25ZM42.17,59.55H65.06s12.86.21,12.86-12.43V26.23s2-12.65-23.32-12.65c-24.19,0-22.68,10.49-22.68,10.49l0,10.87H55V38.2H22.78S7.31,36.44,7.31,60.85,20.82,84.38,20.82,84.38h8.06V73.06S28.44,59.55,42.17,59.55Z"/><path class="cls-6" d="M63.86,96.9A4.15,4.15,0,0,1,68,92.74h0a4.15,4.15,0,0,1,4.15,4.15h0A4.14,4.14,0,0,1,68,101.05h0a4.15,4.15,0,0,1-4.15-4.15Zm25.2-59.34H81V48.88s.44,13.51-13.29,13.51H44.82S32,62.18,32,74.81v20.9S30,108.35,55.28,108.35h0C79.47,108.35,78,97.87,78,97.87l0-10.87H54.85V83.74H87.1s15.47,1.75,15.47-22.65S89.06,37.56,89.06,37.56Z"/><path class="cls-7" d="M46.19,25A4.15,4.15,0,0,1,42,29.14h0A4.15,4.15,0,0,1,37.89,25h0A4.14,4.14,0,0,1,42,20.83h0A4.15,4.15,0,0,1,46.19,25ZM42.33,59.49H65.22s12.86.21,12.86-12.43V26.17s2-12.64-23.32-12.64C30.58,13.53,32.09,24,32.09,24l0,10.87H55.19v3.26H23S7.47,36.39,7.47,60.79,21,84.32,21,84.32H29V73S28.61,59.49,42.33,59.49Z"/><path class="cls-7" d="M64,96.84a4.17,4.17,0,0,1,4.15-4.16h0a4.16,4.16,0,0,1,4.15,4.15h0A4.15,4.15,0,0,1,68.18,101h0A4.15,4.15,0,0,1,64,96.84ZM89.23,37.5H81.17V48.82s.43,13.51-13.29,13.51H45s-12.86-.21-12.86,12.43V95.65s-2,12.64,23.32,12.64h0c24.18,0,22.67-10.48,22.67-10.48l0-10.87H55V83.68H87.26S102.74,85.44,102.74,61,89.23,37.5,89.23,37.5Z"/><path class="cls-8" d="M46.36,24.93a4.15,4.15,0,0,1-4.15,4.15h0a4.15,4.15,0,0,1-4.15-4.15h0a4.17,4.17,0,0,1,4.15-4.16h0a4.17,4.17,0,0,1,4.16,4.15ZM42.5,59.43H65.39S78.25,59.64,78.25,47V26.11s2-12.64-23.32-12.64C30.75,13.47,32.26,24,32.26,24l0,10.87H55.36v3.26H23.12S7.64,36.33,7.64,60.73,21.15,84.27,21.15,84.27h8.06V72.94S28.77,59.43,42.5,59.43Z"/><path class="cls-8" d="M64.19,96.78a4.14,4.14,0,0,1,4.14-4.15h0a4.14,4.14,0,0,1,4.15,4.14h0a4.14,4.14,0,0,1-4.14,4.15h0a4.14,4.14,0,0,1-4.15-4.14ZM89.4,37.44H81.34V48.76S81.77,62.27,68,62.27H45.15S32.29,62.06,32.29,74.7V95.59s-1.95,12.65,23.33,12.65h0c24.18,0,22.67-10.49,22.67-10.49l0-10.87H55.18V83.62H87.43S102.9,85.38,102.9,61,89.4,37.44,89.4,37.44Z"/><path class="cls-9" d="M46.52,24.87A4.14,4.14,0,0,1,42.38,29h0a4.15,4.15,0,0,1-4.15-4.15h0a4.14,4.14,0,0,1,4.14-4.15h0a4.14,4.14,0,0,1,4.15,4.14ZM42.67,59.38H65.56s12.86.2,12.86-12.43V26.05s2-12.64-23.32-12.64c-24.19,0-22.68,10.49-22.68,10.49l0,10.86H55.53V38H23.28S7.81,36.27,7.81,60.67s13.5,23.54,13.5,23.54h8.06V72.88S28.94,59.38,42.67,59.38Z"/><path class="cls-9" d="M64.36,96.72a4.14,4.14,0,0,1,4.14-4.15h0a4.14,4.14,0,0,1,4.15,4.14h0a4.15,4.15,0,0,1-4.15,4.15h0a4.14,4.14,0,0,1-4.15-4.14Zm25.2-59.34H81.5V48.7s.44,13.51-13.29,13.51H45.32S32.46,62,32.46,74.64V95.53s-1.95,12.65,23.32,12.65h0c24.19,0,22.68-10.49,22.68-10.49l0-10.87H55.35V83.56H87.6s15.47,1.76,15.47-22.64S89.56,37.38,89.56,37.38Z"/><path class="cls-10" d="M46.69,24.81A4.15,4.15,0,0,1,42.54,29h0a4.16,4.16,0,0,1-4.16-4.14h0a4.15,4.15,0,0,1,4.15-4.15h0a4.14,4.14,0,0,1,4.15,4.14ZM42.83,59.32H65.72s12.86.21,12.86-12.43V26s2-12.64-23.32-12.64c-24.18,0-22.67,10.49-22.67,10.49l0,10.86H55.69V38H23.45S8,36.21,8,60.61,21.48,84.15,21.48,84.15h8.06V72.82S29.11,59.32,42.83,59.32Z"/><path class="cls-10" d="M64.52,96.66a4.15,4.15,0,0,1,4.15-4.15h0a4.16,4.16,0,0,1,4.16,4.14h0a4.15,4.15,0,0,1-4.15,4.15h0a4.14,4.14,0,0,1-4.15-4.14ZM89.73,37.32H81.67V48.64s.43,13.51-13.29,13.51H45.49s-12.86-.21-12.86,12.43V95.47s-2,12.65,23.32,12.65h0c24.18,0,22.67-10.49,22.67-10.49l0-10.86H55.52V83.5H87.76s15.48,1.76,15.48-22.64S89.73,37.32,89.73,37.32Z"/><path class="cls-11" d="M46.85,24.75a4.14,4.14,0,0,1-4.14,4.15h0a4.14,4.14,0,0,1-4.15-4.14h0a4.14,4.14,0,0,1,4.14-4.15h0a4.14,4.14,0,0,1,4.15,4.14ZM43,59.26H65.89s12.86.21,12.86-12.43V25.94s2-12.65-23.32-12.65c-24.19,0-22.68,10.49-22.68,10.49l0,10.86H55.86v3.27H23.61S8.14,36.15,8.14,60.55,21.65,84.09,21.65,84.09h8.06V72.77S29.27,59.26,43,59.26Z"/><path class="cls-11" d="M64.69,96.6a4.14,4.14,0,0,1,4.14-4.15h0A4.14,4.14,0,0,1,73,96.59h0a4.14,4.14,0,0,1-4.14,4.15h0a4.14,4.14,0,0,1-4.15-4.14ZM89.9,37.26H81.83V48.58s.44,13.51-13.29,13.51H45.65s-12.86-.21-12.86,12.43v20.9s-1.95,12.64,23.32,12.64h0c24.19,0,22.68-10.49,22.68-10.49l0-10.86H55.68V83.45H87.93S103.4,85.2,103.4,60.8,89.9,37.26,89.9,37.26Z"/><path class="cls-12" d="M47,24.69a4.14,4.14,0,0,1-4.14,4.15h0a4.14,4.14,0,0,1-4.15-4.14h0a4.14,4.14,0,0,1,4.14-4.15h0A4.14,4.14,0,0,1,47,24.68ZM43.16,59.2H66.05s12.86.21,12.86-12.43V25.88s2-12.65-23.32-12.65c-24.18,0-22.67,10.49-22.67,10.49l0,10.87H56v3.26H23.78S8.3,36.09,8.3,60.49,21.81,84,21.81,84h8.06V72.71S29.44,59.2,43.16,59.2Z"/><path class="cls-12" d="M64.85,96.54A4.15,4.15,0,0,1,69,92.39h0a4.15,4.15,0,0,1,4.15,4.15h0A4.15,4.15,0,0,1,69,100.69h0a4.17,4.17,0,0,1-4.16-4.15ZM90.06,37.2H82V48.53S82.44,62,68.71,62H45.82S33,61.83,33,74.46v20.9S31,108,56.28,108h0C80.46,108,79,97.51,79,97.51l0-10.86H55.85V83.39H88.09s15.48,1.75,15.48-22.65S90.06,37.2,90.06,37.2Z"/><path class="cls-13" d="M47.19,24.63A4.15,4.15,0,0,1,43,28.78h0a4.14,4.14,0,0,1-4.15-4.14h0A4.15,4.15,0,0,1,43,20.48h0a4.15,4.15,0,0,1,4.16,4.14ZM43.33,59.14H66.22s12.86.21,12.86-12.43V25.82s2-12.65-23.32-12.65c-24.18,0-22.67,10.49-22.67,10.49l0,10.87H56.19v3.26H24S8.47,36,8.47,60.44,22,84,22,84H30V72.65S29.6,59.14,43.33,59.14Z"/><path class="cls-13" d="M65,96.48a4.14,4.14,0,0,1,4.14-4.15h0a4.15,4.15,0,0,1,4.15,4.15h0a4.15,4.15,0,0,1-4.14,4.16h0A4.15,4.15,0,0,1,65,96.49ZM90.23,37.14H82.17V48.47S82.6,62,68.88,62H46s-12.86-.2-12.86,12.43V95.3s-2,12.64,23.32,12.64h0c24.18,0,22.67-10.49,22.67-10.49l0-10.86H56V83.33H88.26s15.48,1.75,15.48-22.65S90.23,37.14,90.23,37.14Z"/><path class="cls-14" d="M47.35,24.57a4.16,4.16,0,0,1-4.14,4.16h0a4.15,4.15,0,0,1-4.15-4.15h0a4.14,4.14,0,0,1,4.14-4.15h0a4.15,4.15,0,0,1,4.15,4.15ZM43.5,59.08H66.39s12.86.21,12.86-12.43V25.76s2-12.65-23.32-12.65c-24.19,0-22.68,10.49-22.68,10.49l0,10.87H56.36v3.26H24.11S8.64,36,8.64,60.38s13.5,23.53,13.5,23.53h8.07V72.59S29.77,59.08,43.5,59.08Z"/><path class="cls-14" d="M65.19,96.43a4.15,4.15,0,0,1,4.14-4.16h0a4.15,4.15,0,0,1,4.15,4.15h0a4.14,4.14,0,0,1-4.14,4.15h0a4.15,4.15,0,0,1-4.15-4.15Zm25.2-59.34H82.33V48.41S82.77,61.92,69,61.92H46.15s-12.86-.21-12.86,12.42v20.9s-1.95,12.64,23.32,12.64h0c24.19,0,22.68-10.48,22.68-10.48l0-10.87H56.18V83.27H88.43S103.9,85,103.9,60.62,90.39,37.09,90.39,37.09Z"/><path class="cls-15" d="M47.52,24.51a4.15,4.15,0,0,1-4.15,4.16h0a4.15,4.15,0,0,1-4.15-4.15h0a4.14,4.14,0,0,1,4.14-4.15h0a4.15,4.15,0,0,1,4.15,4.15ZM43.66,59H66.55s12.86.21,12.86-12.43V25.7s2-12.64-23.32-12.64c-24.18,0-22.67,10.48-22.67,10.48l0,10.87H56.52v3.26H24.28S8.8,35.92,8.8,60.32,22.31,83.85,22.31,83.85h8.06V72.53S29.94,59,43.66,59Z"/><path class="cls-15" d="M65.35,96.37a4.17,4.17,0,0,1,4.15-4.16h0a4.16,4.16,0,0,1,4.16,4.15h0a4.15,4.15,0,0,1-4.15,4.15h0a4.15,4.15,0,0,1-4.15-4.15ZM90.56,37H82.5V48.35s.43,13.51-13.29,13.51H46.32s-12.86-.21-12.86,12.43V95.18s-2,12.65,23.32,12.65h0c24.18,0,22.67-10.49,22.67-10.49l0-10.87H56.35V83.21H88.59S104.07,85,104.07,60.56,90.56,37,90.56,37Z"/><path class="cls-16" d="M47.68,24.46a4.14,4.14,0,0,1-4.14,4.15h0a4.15,4.15,0,0,1-4.15-4.15h0a4.16,4.16,0,0,1,4.15-4.16h0a4.15,4.15,0,0,1,4.15,4.15ZM43.83,59H66.72s12.86.2,12.86-12.43V25.64S81.53,13,56.26,13C32.07,13,33.58,23.49,33.58,23.49l0,10.86H56.69v3.26H24.44S9,35.86,9,60.26,22.48,83.8,22.48,83.8h8.06V72.47S30.1,59,43.83,59Z"/><path class="cls-16" d="M65.52,96.31a4.14,4.14,0,0,1,4.14-4.15h0a4.14,4.14,0,0,1,4.15,4.14h0a4.14,4.14,0,0,1-4.14,4.15h0a4.14,4.14,0,0,1-4.15-4.14ZM90.73,37H82.67V48.29S83.1,61.8,69.37,61.8H46.48s-12.86-.21-12.86,12.43V95.12s-1.95,12.65,23.32,12.65h0c24.18,0,22.67-10.49,22.67-10.49l0-10.87H56.51V83.15H88.76s15.47,1.76,15.47-22.65S90.73,37,90.73,37Z"/><path class="cls-17" d="M47.85,24.4a4.14,4.14,0,0,1-4.14,4.15h0a4.15,4.15,0,0,1-4.15-4.15h0a4.14,4.14,0,0,1,4.14-4.15h0a4.14,4.14,0,0,1,4.15,4.14ZM44,58.91H66.89s12.86.2,12.86-12.43V25.58s2-12.64-23.33-12.64c-24.18,0-22.67,10.49-22.67,10.49l0,10.86H56.86v3.26H24.61S9.14,35.8,9.14,60.2s13.5,23.54,13.5,23.54H30.7V72.41S30.27,58.91,44,58.91Z"/><path class="cls-17" d="M65.69,96.25a4.14,4.14,0,0,1,4.14-4.15h0A4.14,4.14,0,0,1,74,96.24h0a4.15,4.15,0,0,1-4.15,4.15h0a4.14,4.14,0,0,1-4.15-4.14Zm25.2-59.34H82.83V48.23s.44,13.51-13.29,13.51H46.65s-12.86-.21-12.86,12.43V95.06s-1.95,12.65,23.32,12.65h0c24.19,0,22.68-10.49,22.68-10.49l0-10.87H56.68V83.09H88.92s15.48,1.76,15.48-22.64S90.89,36.91,90.89,36.91Z"/><path class="cls-18" d="M48,24.34a4.15,4.15,0,0,1-4.15,4.15h0a4.15,4.15,0,0,1-4.16-4.14h0a4.15,4.15,0,0,1,4.15-4.15h0A4.14,4.14,0,0,1,48,24.33ZM44.16,58.85H67.05s12.86.21,12.86-12.43V25.52s2-12.64-23.32-12.64c-24.18,0-22.67,10.49-22.67,10.49l0,10.86H57V37.5H24.78S9.3,35.74,9.3,60.14,22.81,83.68,22.81,83.68h8.06V72.35S30.44,58.85,44.16,58.85Z"/><path class="cls-18" d="M65.85,96.19A4.15,4.15,0,0,1,70,92h0a4.14,4.14,0,0,1,4.15,4.14h0A4.14,4.14,0,0,1,70,100.34h0a4.14,4.14,0,0,1-4.15-4.14ZM91.06,36.85H83V48.17s.43,13.51-13.29,13.51H46.82S34,61.47,34,74.11V95s-2,12.65,23.32,12.65h0C81.46,107.65,80,97.16,80,97.16l0-10.86H56.85V83H89.09s15.48,1.76,15.48-22.64S91.06,36.85,91.06,36.85Z"/><path class="cls-19" d="M48.18,24.28A4.14,4.14,0,0,1,44,28.43h0a4.14,4.14,0,0,1-4.15-4.14h0A4.14,4.14,0,0,1,44,20.13h0a4.14,4.14,0,0,1,4.15,4.14ZM44.33,58.79H67.22S80.08,59,80.08,46.36V25.47s2-12.65-23.32-12.65c-24.19,0-22.68,10.49-22.68,10.49l0,10.86H57.19v3.27H24.94S9.47,35.68,9.47,60.08,23,83.62,23,83.62H31V72.3S30.6,58.79,44.33,58.79Z"/><path class="cls-19" d="M66,96.13A4.14,4.14,0,0,1,70.16,92h0a4.14,4.14,0,0,1,4.15,4.14h0a4.14,4.14,0,0,1-4.14,4.15h0A4.14,4.14,0,0,1,66,96.14Zm25.2-59.34H83.16V48.11s.44,13.51-13.29,13.51H47s-12.86-.21-12.86,12.43V95s-1.95,12.64,23.32,12.64h0c24.19,0,22.68-10.49,22.68-10.49l0-10.86H57V83H89.26s15.47,1.75,15.47-22.65S91.22,36.79,91.22,36.79Z"/><path class="cls-20" d="M48.35,24.22a4.14,4.14,0,0,1-4.14,4.15h0a4.14,4.14,0,0,1-4.15-4.14h0a4.14,4.14,0,0,1,4.14-4.15h0a4.14,4.14,0,0,1,4.15,4.14ZM44.49,58.73H67.38s12.86.21,12.86-12.43V25.41s2-12.65-23.32-12.65c-24.18,0-22.67,10.49-22.67,10.49l0,10.87H57.35v3.26H25.11S9.63,35.62,9.63,60,23.14,83.56,23.14,83.56H31.2V72.24S30.77,58.73,44.49,58.73Z"/><path class="cls-20" d="M66.18,96.07a4.15,4.15,0,0,1,4.15-4.15h0a4.15,4.15,0,0,1,4.15,4.15h0a4.15,4.15,0,0,1-4.15,4.15h0a4.16,4.16,0,0,1-4.16-4.15ZM91.39,36.73H83.33V48.06s.43,13.5-13.29,13.5H47.15S34.29,61.36,34.29,74v20.9s-1.95,12.64,23.32,12.64h0C81.79,107.53,80.28,97,80.28,97l0-10.86H57.18V82.92H89.42s15.48,1.75,15.48-22.65S91.39,36.73,91.39,36.73Z"/><path class="cls-21" d="M48.52,24.16a4.15,4.15,0,0,1-4.15,4.15h0a4.14,4.14,0,0,1-4.15-4.14h0A4.15,4.15,0,0,1,44.36,20h0a4.16,4.16,0,0,1,4.16,4.14ZM44.66,58.67H67.55s12.86.21,12.86-12.43V25.35s2-12.65-23.32-12.65c-24.18,0-22.67,10.49-22.67,10.49l0,10.87H57.52v3.26H25.28S9.8,35.56,9.8,60,23.31,83.5,23.31,83.5h8.06V72.18S30.93,58.67,44.66,58.67Z"/><path class="cls-21" d="M66.35,96a4.14,4.14,0,0,1,4.14-4.15h0A4.15,4.15,0,0,1,74.65,96h0a4.15,4.15,0,0,1-4.14,4.16h0A4.15,4.15,0,0,1,66.35,96ZM91.56,36.67H83.5V48s.43,13.5-13.3,13.5H47.31s-12.86-.2-12.86,12.43v20.9s-2,12.64,23.33,12.64h0C82,107.47,80.45,97,80.45,97l0-10.86H57.34V82.86H89.59s15.47,1.75,15.47-22.65S91.56,36.67,91.56,36.67Z"/><path class="cls-22" d="M48.68,24.1a4.16,4.16,0,0,1-4.14,4.16h0a4.15,4.15,0,0,1-4.15-4.15h0A4.14,4.14,0,0,1,44.52,20h0a4.15,4.15,0,0,1,4.15,4.15ZM44.83,58.61H67.72s12.86.21,12.86-12.43V25.29s2-12.65-23.32-12.65c-24.19,0-22.68,10.49-22.68,10.49l0,10.87H57.69v3.26H25.44S10,35.51,10,59.91s13.5,23.53,13.5,23.53h8.06V72.12S31.1,58.61,44.83,58.61Z"/><path class="cls-22" d="M66.52,96a4.15,4.15,0,0,1,4.14-4.16h0A4.15,4.15,0,0,1,74.82,96h0a4.14,4.14,0,0,1-4.14,4.15h0A4.15,4.15,0,0,1,66.52,96Zm25.2-59.34H83.66V47.94s.44,13.51-13.29,13.51H47.48s-12.86-.21-12.86,12.43V94.77s-1.95,12.64,23.32,12.64h0c24.19,0,22.68-10.48,22.68-10.48l0-10.87H57.51V82.8H89.76s15.47,1.75,15.47-22.65S91.72,36.62,91.72,36.62Z"/><path class="cls-23" d="M48.85,24A4.16,4.16,0,0,1,44.7,28.2h0a4.17,4.17,0,0,1-4.16-4.15h0a4.16,4.16,0,0,1,4.15-4.15h0A4.15,4.15,0,0,1,48.85,24ZM45,58.55H67.88s12.86.21,12.86-12.42V25.23s2-12.64-23.32-12.64c-24.18,0-22.67,10.48-22.67,10.48l0,10.87H57.85V37.2H25.61S10.13,35.45,10.13,59.85,23.64,83.38,23.64,83.38H31.7V72.06S31.27,58.55,45,58.55Z"/><path class="cls-23" d="M66.68,95.9a4.15,4.15,0,0,1,4.15-4.15h0A4.15,4.15,0,0,1,75,95.89h0a4.15,4.15,0,0,1-4.15,4.15h0a4.15,4.15,0,0,1-4.15-4.15ZM91.89,36.56H83.83V47.88s.43,13.51-13.29,13.51H47.65s-12.86-.21-12.86,12.43V94.71s-2,12.65,23.32,12.65h0c24.18,0,22.67-10.49,22.67-10.49l0-10.87H57.68V82.74H89.92S105.4,84.5,105.4,60.09,91.89,36.56,91.89,36.56Z"/><path class="cls-24" d="M49,24a4.14,4.14,0,0,1-4.14,4.15h0A4.15,4.15,0,0,1,40.71,24h0a4.16,4.16,0,0,1,4.14-4.16h0A4.15,4.15,0,0,1,49,24ZM45.16,58.5H68.05s12.86.2,12.86-12.43V25.17s2-12.64-23.32-12.64C33.4,12.53,34.91,23,34.91,23l0,10.86H58v3.26H25.77S10.3,35.39,10.3,59.79,23.81,83.33,23.81,83.33h8.06V72S31.43,58.5,45.16,58.5Z"/><path class="cls-24" d="M66.85,95.84A4.14,4.14,0,0,1,71,91.69h0a4.14,4.14,0,0,1,4.15,4.14h0A4.14,4.14,0,0,1,71,100h0a4.14,4.14,0,0,1-4.15-4.14ZM92.06,36.5H84V47.82s.44,13.51-13.29,13.51H47.81S35,61.12,35,73.76V94.65S33,107.3,58.27,107.3h0C82.46,107.3,81,96.81,81,96.81l0-10.87H57.84V82.68H90.09S105.56,84.44,105.56,60,92.06,36.5,92.06,36.5Z"/><path class="cls-25" d="M49.18,23.93A4.14,4.14,0,0,1,45,28.08h0a4.15,4.15,0,0,1-4.15-4.15h0A4.14,4.14,0,0,1,45,19.78h0a4.14,4.14,0,0,1,4.15,4.14ZM45.33,58.44H68.21s12.86.2,12.86-12.43V25.11s2-12.64-23.32-12.64C33.57,12.47,35.08,23,35.08,23l0,10.86H58.19v3.26H25.94S10.46,35.33,10.46,59.73,24,83.27,24,83.27H32V71.94S31.6,58.44,45.33,58.44Z"/><path class="cls-25" d="M67,95.78a4.15,4.15,0,0,1,4.15-4.15h0a4.14,4.14,0,0,1,4.15,4.14h0a4.15,4.15,0,0,1-4.15,4.15h0A4.16,4.16,0,0,1,67,95.79ZM92.22,36.44H84.16V47.76s.44,13.51-13.29,13.51H48S35.12,61.06,35.12,73.7V94.59s-1.95,12.65,23.32,12.65h0c24.18,0,22.67-10.49,22.67-10.49l0-10.87H58V82.62H90.25S105.73,84.38,105.73,60,92.22,36.44,92.22,36.44Z"/><path class="cls-26" d="M49.35,23.87A4.15,4.15,0,0,1,45.2,28h0A4.14,4.14,0,0,1,41,23.88h0a4.15,4.15,0,0,1,4.15-4.15h0a4.15,4.15,0,0,1,4.16,4.14ZM45.49,58.38H68.38S81.24,58.59,81.24,46V25.05s2-12.64-23.32-12.64c-24.18,0-22.67,10.49-22.67,10.49l0,10.86H58.35V37H26.11S10.63,35.27,10.63,59.67,24.14,83.21,24.14,83.21H32.2V71.89S31.76,58.38,45.49,58.38Z"/><path class="cls-26" d="M67.18,95.72a4.14,4.14,0,0,1,4.14-4.15h0a4.14,4.14,0,0,1,4.15,4.14h0a4.14,4.14,0,0,1-4.14,4.15h0a4.14,4.14,0,0,1-4.15-4.14ZM92.39,36.38H84.33V47.7S84.76,61.21,71,61.21H48.15S35.29,61,35.29,73.64V94.53s-2,12.65,23.32,12.65h0c24.18,0,22.67-10.49,22.67-10.49l0-10.86H58.18V82.56H90.42s15.48,1.76,15.48-22.64S92.39,36.38,92.39,36.38Z"/><path class="cls-27" d="M49.51,23.81A4.14,4.14,0,0,1,45.37,28h0a4.14,4.14,0,0,1-4.15-4.14h0a4.14,4.14,0,0,1,4.14-4.15h0a4.14,4.14,0,0,1,4.15,4.14ZM45.66,58.32H68.55s12.86.21,12.86-12.43V25s2-12.65-23.32-12.65c-24.19,0-22.68,10.49-22.68,10.49l0,10.86H58.52V37H26.27S10.8,35.21,10.8,59.61,24.3,83.15,24.3,83.15h8.07V71.83S31.93,58.32,45.66,58.32Z"/><path class="cls-27" d="M67.35,95.66a4.14,4.14,0,0,1,4.14-4.15h0a4.14,4.14,0,0,1,4.15,4.14h0a4.14,4.14,0,0,1-4.14,4.15h0a4.14,4.14,0,0,1-4.15-4.14Zm25.2-59.34H84.49V47.64s.44,13.51-13.29,13.51H48.31s-12.86-.21-12.86,12.43v20.9s-2,12.64,23.32,12.64h0c24.19,0,22.68-10.49,22.68-10.49l0-10.86H58.34V82.51H90.59s15.47,1.75,15.47-22.65S92.55,36.32,92.55,36.32Z"/><path class="cls-28" d="M49.68,23.75a4.15,4.15,0,0,1-4.15,4.15h0a4.14,4.14,0,0,1-4.15-4.14h0a4.14,4.14,0,0,1,4.14-4.15h0a4.14,4.14,0,0,1,4.15,4.14ZM45.82,58.26H68.71s12.86.21,12.86-12.43V24.94s2-12.65-23.32-12.65c-24.18,0-22.67,10.49-22.67,10.49l0,10.87H58.68v3.26H26.44S11,35.15,11,59.55,24.47,83.09,24.47,83.09h8.06V71.77S32.1,58.26,45.82,58.26Z"/><path class="cls-28" d="M67.51,95.6a4.15,4.15,0,0,1,4.15-4.15h0a4.15,4.15,0,0,1,4.16,4.15h0a4.15,4.15,0,0,1-4.15,4.15h0a4.15,4.15,0,0,1-4.15-4.15ZM92.72,36.26H84.66V47.59s.43,13.5-13.29,13.5H48.48s-12.86-.2-12.86,12.43v20.9s-1.95,12.64,23.32,12.64h0c24.18,0,22.67-10.49,22.67-10.49l0-10.86H58.51V82.45H90.75s15.48,1.75,15.48-22.65S92.72,36.26,92.72,36.26Z"/><path class="cls-29" d="M49.84,23.69a4.14,4.14,0,0,1-4.14,4.15h0a4.14,4.14,0,0,1-4.15-4.14h0a4.15,4.15,0,0,1,4.15-4.15h0a4.15,4.15,0,0,1,4.15,4.15ZM46,58.2H68.88s12.86.21,12.86-12.43V24.88s2-12.65-23.32-12.65c-24.19,0-22.68,10.49-22.68,10.49l0,10.87H58.85v3.26H26.61S11.13,35.09,11.13,59.5,24.64,83,24.64,83H32.7V71.71S32.26,58.2,46,58.2Z"/><path class="cls-29" d="M67.68,95.54a4.14,4.14,0,0,1,4.14-4.15h0A4.15,4.15,0,0,1,76,95.54h0a4.15,4.15,0,0,1-4.14,4.16h0a4.15,4.15,0,0,1-4.15-4.15ZM92.89,36.2H84.83V47.53S85.26,61,71.53,61H48.64s-12.86-.2-12.86,12.43v20.9S33.83,107,59.11,107h0c24.18,0,22.67-10.48,22.67-10.48l0-10.87H58.67V82.39H90.92s15.47,1.75,15.47-22.65S92.89,36.2,92.89,36.2Z"/><path class="cls-30" d="M50,23.63a4.16,4.16,0,0,1-4.14,4.16h0a4.15,4.15,0,0,1-4.15-4.15h0a4.14,4.14,0,0,1,4.14-4.15h0A4.15,4.15,0,0,1,50,23.63ZM46.16,58.14H69.05s12.86.21,12.86-12.43V24.82s2-12.64-23.33-12.64c-24.18,0-22.67,10.48-22.67,10.48l0,10.87H59v3.26H26.77S11.3,35,11.3,59.44,24.8,83,24.8,83h8.06V71.65S32.43,58.14,46.16,58.14Z"/><path class="cls-30" d="M67.85,95.49A4.15,4.15,0,0,1,72,91.33h0a4.15,4.15,0,0,1,4.15,4.15h0A4.15,4.15,0,0,1,72,99.64h0a4.15,4.15,0,0,1-4.15-4.15Zm25.2-59.34H85V47.47S85.43,61,71.7,61H48.81S36,60.77,36,73.41V94.3s-2,12.64,23.32,12.64h0C83.46,106.94,82,96.46,82,96.46l0-10.87H58.84V82.33H91.08s15.48,1.75,15.48-22.65S93.05,36.15,93.05,36.15Z"/><path class="cls-31" d="M50.18,23.57A4.16,4.16,0,0,1,46,27.73h0a4.16,4.16,0,0,1-4.16-4.15h0A4.16,4.16,0,0,1,46,19.42h0a4.15,4.15,0,0,1,4.15,4.15ZM46.32,58.08H69.21s12.86.21,12.86-12.42V24.76s2-12.64-23.32-12.64c-24.18,0-22.67,10.48-22.67,10.48l0,10.87H59.18v3.26H26.94S11.46,35,11.46,59.38,25,82.91,25,82.91H33V71.59S32.6,58.08,46.32,58.08Z"/><path class="cls-31" d="M68,95.43a4.15,4.15,0,0,1,4.15-4.15h0a4.14,4.14,0,0,1,4.15,4.14h0a4.14,4.14,0,0,1-4.14,4.15h0A4.15,4.15,0,0,1,68,95.43ZM93.22,36.09H85.16V47.41s.43,13.51-13.29,13.51H49s-12.86-.21-12.86,12.43V94.24s-2,12.65,23.32,12.65h0c24.18,0,22.67-10.49,22.67-10.49l0-10.87H59V82.27H91.25S106.73,84,106.73,59.62,93.22,36.09,93.22,36.09Z"/><path class="cls-32" d="M50.34,23.52a4.14,4.14,0,0,1-4.14,4.15h0A4.15,4.15,0,0,1,42,23.52h0a4.16,4.16,0,0,1,4.14-4.16h0a4.15,4.15,0,0,1,4.15,4.15ZM46.49,58H69.38s12.86.2,12.86-12.43V24.7s2-12.64-23.32-12.64c-24.19,0-22.68,10.49-22.68,10.49l0,10.86H59.35v3.26H27.1S11.63,34.92,11.63,59.32,25.14,82.86,25.14,82.86H33.2V71.53S32.76,58,46.49,58Z"/><path class="cls-32" d="M68.18,95.37a4.14,4.14,0,0,1,4.14-4.15h0a4.14,4.14,0,0,1,4.15,4.14h0a4.14,4.14,0,0,1-4.14,4.15h0a4.14,4.14,0,0,1-4.15-4.14ZM93.39,36H85.32V47.35S85.76,60.86,72,60.86H49.14s-12.86-.21-12.86,12.43V94.18s-2,12.65,23.32,12.65h0c24.19,0,22.68-10.49,22.68-10.49l0-10.87H59.17V82.21H91.42S106.89,84,106.89,59.56,93.39,36,93.39,36Z"/><path class="cls-33" d="M50.51,23.46a4.14,4.14,0,0,1-4.14,4.15h0a4.15,4.15,0,0,1-4.15-4.15h0a4.14,4.14,0,0,1,4.14-4.15h0a4.14,4.14,0,0,1,4.15,4.14ZM46.65,58H69.54s12.86.2,12.86-12.43V24.64S84.36,12,59.08,12C34.9,12,36.41,22.49,36.41,22.49l0,10.86H59.51v3.26H27.27S11.79,34.86,11.79,59.26,25.3,82.8,25.3,82.8h8.06V71.47S32.93,58,46.65,58Z"/><path class="cls-33" d="M68.34,95.31a4.15,4.15,0,0,1,4.15-4.15h0a4.14,4.14,0,0,1,4.15,4.14h0a4.15,4.15,0,0,1-4.15,4.15h0a4.15,4.15,0,0,1-4.16-4.14ZM93.55,36H85.49V47.29S85.92,60.8,72.2,60.8H49.31s-12.86-.21-12.86,12.43V94.12s-2,12.65,23.32,12.65h0c24.18,0,22.67-10.49,22.67-10.49l0-10.86H59.34V82.15H91.58s15.48,1.76,15.48-22.64S93.55,36,93.55,36Z"/><path class="cls-34" d="M50.68,23.4a4.15,4.15,0,0,1-4.15,4.15h0a4.14,4.14,0,0,1-4.15-4.14h0a4.15,4.15,0,0,1,4.15-4.15h0a4.15,4.15,0,0,1,4.16,4.14ZM46.82,57.91H69.71s12.86.21,12.86-12.43V24.59s2-12.65-23.32-12.65c-24.18,0-22.67,10.49-22.67,10.49l0,10.86H59.68v3.27H27.44S12,34.8,12,59.2,25.47,82.74,25.47,82.74h8.06V71.42S33.09,57.91,46.82,57.91Z"/><path class="cls-34" d="M68.51,95.25a4.14,4.14,0,0,1,4.14-4.15h0a4.14,4.14,0,0,1,4.15,4.14h0a4.14,4.14,0,0,1-4.14,4.15h0a4.14,4.14,0,0,1-4.15-4.14ZM93.72,35.91H85.66V47.23s.43,13.51-13.3,13.51H49.48s-12.87-.21-12.87,12.43V94.06s-2,12.65,23.33,12.65h0c24.18,0,22.67-10.49,22.67-10.49l0-10.86H59.5V82.09H91.75s15.47,1.76,15.47-22.64S93.72,35.91,93.72,35.91Z"/><path d="M50.84,23.34a4.14,4.14,0,0,1-4.14,4.15h0a4.14,4.14,0,0,1-4.15-4.14h0a4.14,4.14,0,0,1,4.14-4.15h0a4.14,4.14,0,0,1,4.15,4.14ZM47,57.85H69.88s12.86.21,12.86-12.43V24.53s2-12.65-23.32-12.65c-24.19,0-22.68,10.49-22.68,10.49l0,10.86H59.85V36.5H27.6S12.13,34.74,12.13,59.14s13.5,23.54,13.5,23.54h8.06V71.36S33.26,57.85,47,57.85Z"/><path d="M68.68,95.19A4.14,4.14,0,0,1,72.82,91h0A4.14,4.14,0,0,1,77,95.18h0a4.14,4.14,0,0,1-4.14,4.15h0a4.14,4.14,0,0,1-4.15-4.14Zm25.2-59.34H85.82V47.17s.44,13.51-13.29,13.51H49.64s-12.86-.21-12.86,12.43V94s-2,12.64,23.32,12.64h0c24.19,0,22.68-10.49,22.68-10.49l0-10.86H59.67V82H91.92s15.47,1.75,15.47-22.65S93.88,35.85,93.88,35.85Z"/></g><path class="cls-35" d="M59.75,12C35.56,12,37.07,22.5,37.07,22.5l0,10.86H60.18v3.27H27.93S12.46,34.87,12.46,59.27,26,82.81,26,82.81H34V71.49S33.59,58,47.32,58H70.21s12.86.21,12.86-12.43V24.66S85,12,59.75,12ZM47,19.32a4.14,4.14,0,0,1,4.15,4.14h0A4.14,4.14,0,0,1,47,27.62h0a4.14,4.14,0,0,1-4.15-4.14h0A4.14,4.14,0,0,1,47,19.32Z"/><path class="cls-4" d="M25.76,83.3a11.18,11.18,0,0,1-7.4-3.22c-4.24-4-6.39-11-6.39-20.81,0-9.25,2.19-15.89,6.5-19.74A13.14,13.14,0,0,1,28,36.14H59.69V33.85H36.62l0-11.32a6.87,6.87,0,0,1,1.9-5.07c2.34-2.71,7.93-5.93,21.26-5.93,10.57,0,17.79,2.16,21.45,6.43a9,9,0,0,1,2.35,6.73V45.55a12.29,12.29,0,0,1-3.41,9.12c-3.91,3.84-9.69,3.79-9.94,3.79H47.32c-4,0-7.06,1.15-9.26,3.41-3.69,3.81-3.55,9.54-3.55,9.6V83.29H25.76Zm1.53-46.22a12.47,12.47,0,0,0-8.19,3.19c-4.09,3.66-6.16,10-6.16,19,0,9.54,2,16.3,6,20.08a10.23,10.23,0,0,0,6.94,3h7.61V71.49c0-.24-.15-6.18,3.82-10.28,2.39-2.46,5.74-3.71,10-3.71H70.21c.05,0,5.64,0,9.26-3.53,2.07-2,3.11-4.87,3.11-8.42v-21a8.19,8.19,0,0,0-2.14-6c-2.39-2.77-7.92-6.07-20.7-6.07s-18.28,3-20.5,5.57a5.91,5.91,0,0,0-1.7,4.37v.07l0,10.38H60.66v4.23H27.88A3.27,3.27,0,0,0,27.29,37.08ZM47,28.1a4.63,4.63,0,0,1-4.63-4.62A4.61,4.61,0,0,1,47,18.84v0h0a4.63,4.63,0,0,1,0,9.26Zm0-8.3a3.67,3.67,0,0,0,0,7.34h0a3.67,3.67,0,0,0,3.67-3.67A3.67,3.67,0,0,0,47,19.8h0Z"/><path class="cls-36" d="M60.26,106.69c24.18,0,22.67-10.48,22.67-10.48l0-10.87H59.83V82.08H92.07s15.48,1.75,15.48-22.65S94,35.9,94,35.9H86V47.22s.44,13.51-13.29,13.51H49.8s-12.86-.21-12.86,12.43V94.05S35,106.69,60.26,106.69ZM73,99.39a4.17,4.17,0,0,1-4.16-4.15h0A4.17,4.17,0,0,1,73,91.08h0a4.15,4.15,0,0,1,4.15,4.15h0A4.15,4.15,0,0,1,73,99.39Z"/><path class="cls-4" d="M60.26,107.18c-10.58,0-17.79-2.17-21.45-6.44A9,9,0,0,1,36.46,94V73.16A12.27,12.27,0,0,1,39.87,64c3.91-3.85,9.68-3.79,9.94-3.8H72.69c4,0,7.06-1.14,9.26-3.41,3.68-3.8,3.55-9.54,3.55-9.6V35.41H94a11,11,0,0,1,7.61,3.22c4.23,4,6.38,11,6.38,20.8,0,9.25-2.18,15.89-6.49,19.74a13.05,13.05,0,0,1-9.49,3.39H60.31v2.3H83.39l0,11.32a7,7,0,0,1-1.9,5.07C79.17,104,73.58,107.18,60.26,107.18Zm-10.48-46c-.37,0-5.73.06-9.24,3.52a11.34,11.34,0,0,0-3.12,8.43v21a8.13,8.13,0,0,0,2.14,6c2.39,2.77,7.92,6.07,20.7,6.07h0c13,0,18.32-3,20.53-5.59a6,6,0,0,0,1.67-4.34v-.07l0-10.39H59.35V81.6H92.13a12.3,12.3,0,0,0,8.78-3.16c4.08-3.66,6.16-10.06,6.16-19,0-9.54-2-16.29-6.06-20.08a10.12,10.12,0,0,0-6.94-3H86.46V47.22c0,.23.15,6.18-3.82,10.28-2.38,2.46-5.73,3.71-10,3.71H49.78ZM73,99.87a4.64,4.64,0,0,1,0-9.27h0a4.64,4.64,0,0,1,4.64,4.63A4.63,4.63,0,0,1,73,99.87h0Zm0-8.3h0a3.67,3.67,0,0,0,0,7.34h0a3.67,3.67,0,0,0,0-7.34Z"/><path class="cls-37" d="M52.59,42.76a.55.55,0,0,1-.47.6H24.38a.55.55,0,0,1-.47-.6h0a.54.54,0,0,1,.47-.59H52.12a.54.54,0,0,1,.47.59Z"/><path class="cls-37" d="M40.94,47.75a.54.54,0,0,1-.47.59H24.38a.54.54,0,0,1-.47-.59h0a.55.55,0,0,1,.47-.6H40.47a.55.55,0,0,1,.47.6Z"/><path class="cls-37" d="M60,47.75a.54.54,0,0,1-.48.59H43.47a.54.54,0,0,1-.48-.59h0a.55.55,0,0,1,.48-.6H59.55a.55.55,0,0,1,.48.6Z"/><path class="cls-37" d="M74.6,52.72a.55.55,0,0,1-.47.6H24.38a.55.55,0,0,1-.47-.6h0a.54.54,0,0,1,.47-.59H74.13a.54.54,0,0,1,.47.59Z"/><path class="cls-38" d="M69.13,65.65a.54.54,0,0,0,.48.59H97.35a.54.54,0,0,0,.47-.59h0a.54.54,0,0,0-.47-.59H69.61a.54.54,0,0,0-.48.59Z"/><path class="cls-38" d="M80.79,70.63a.54.54,0,0,0,.46.59h16.1a.54.54,0,0,0,.47-.59h0a.55.55,0,0,0-.47-.6H81.25a.55.55,0,0,0-.46.6Z"/><path class="cls-38" d="M61.7,70.63a.54.54,0,0,0,.47.59H78.26a.54.54,0,0,0,.48-.59h0a.55.55,0,0,0-.48-.6H62.17a.55.55,0,0,0-.47.6Z"/><path class="cls-38" d="M47.13,75.61a.54.54,0,0,0,.47.59H97.35a.54.54,0,0,0,.47-.59h0a.55.55,0,0,0-.47-.6H47.6a.55.55,0,0,0-.47.6Z"/></g></g></svg>