<svg xmlns="http://www.w3.org/2000/svg" xmlns:xlink="http://www.w3.org/1999/xlink" viewBox="0 0 120 120"><defs><style>.cls-1{isolation:isolate;}.cls-2{fill:#80a895;}.cls-3{opacity:0.4;}.cls-15,.cls-18,.cls-20,.cls-22,.cls-3{mix-blend-mode:multiply;}.cls-4{fill:#fff;}.cls-5{fill:#e8e8e8;}.cls-6{fill:#d1d1d1;}.cls-7{fill:#b9b9b9;}.cls-8{fill:#a2a2a2;}.cls-9{fill:#8b8b8b;}.cls-10{fill:#747474;}.cls-11{fill:#5d5d5d;}.cls-12{fill:#464646;}.cls-13{fill:#2e2e2e;}.cls-14{fill:#171717;}.cls-15{opacity:0.6;}.cls-16{fill:url(#linear-gradient);}.cls-17{fill:url(#linear-gradient-2);}.cls-18,.cls-19,.cls-20{opacity:0.5;}.cls-18{fill:url(#linear-gradient-3);}.cls-20{fill:url(#linear-gradient-5);}.cls-21{fill:#288c5e;}.cls-22{opacity:0.3;}.cls-23{fill:#f7f7f7;}.cls-24{fill:#efefef;}.cls-25{fill:#e6e6e6;}.cls-26{fill:#dedede;}.cls-27{fill:#d6d6d6;}.cls-28{fill:#cecece;}.cls-29{fill:#c5c5c5;}.cls-30{fill:#bdbdbd;}.cls-31{fill:#b5b5b5;}.cls-32{fill:#adadad;}.cls-33{fill:#a5a5a5;}.cls-34{fill:#9c9c9c;}.cls-35{fill:#949494;}.cls-36{fill:#8c8c8c;}.cls-37{fill:#848484;}.cls-38{fill:#7b7b7b;}.cls-39{fill:#737373;}.cls-40{fill:#6b6b6b;}.cls-41{fill:#636363;}.cls-42{fill:#5a5a5a;}.cls-43{fill:#525252;}.cls-44{fill:#4a4a4a;}.cls-45{fill:#424242;}.cls-46{fill:#3a3a3a;}.cls-47{fill:#313131;}.cls-48{fill:#292929;}.cls-49{fill:#212121;}.cls-50{fill:#191919;}.cls-51{fill:#101010;}.cls-52{fill:#080808;}.cls-53{fill:url(#linear-gradient-7);}.cls-54{fill:url(#linear-gradient-8);}</style><linearGradient id="linear-gradient" x1="16.08" y1="58.13" x2="107.09" y2="58.13" gradientUnits="userSpaceOnUse"><stop offset="0" stop-color="#387eb8"/><stop offset="1" stop-color="#366994"/></linearGradient><linearGradient id="linear-gradient-2" x1="-113.4" y1="-118.72" x2="-113.37" y2="-118.75" gradientTransform="matrix(1, -0.01, 0.01, 1, 213.18, 176.99)" gradientUnits="userSpaceOnUse"><stop offset="0.26" stop-color="#fff"/><stop offset="0.57" stop-color="#878787"/><stop offset="0.88" stop-color="#777"/></linearGradient><linearGradient id="linear-gradient-3" x1="62.98" y1="65.73" x2="66.79" y2="67.42" gradientUnits="userSpaceOnUse"><stop offset="0.01"/><stop offset="0.93" stop-color="#fff"/></linearGradient><linearGradient id="linear-gradient-5" x1="-2408.51" y1="-838.8" x2="-2404.7" y2="-837.1" gradientTransform="translate(-2348.3 -788.2) rotate(180)" xlink:href="#linear-gradient-3"/><linearGradient id="linear-gradient-7" x1="-2008.94" y1="203.85" x2="-2008.93" y2="203.84" gradientTransform="matrix(1849.27, 0, 0, -1853.39, 3715093.64, 377860.78)" xlink:href="#linear-gradient"/><linearGradient id="linear-gradient-8" x1="-2009.28" y1="204.18" x2="-2009.27" y2="204.18" gradientTransform="matrix(1849.27, 0, 0, -1853.39, 3715737.5, 378488.09)" gradientUnits="userSpaceOnUse"><stop offset="0" stop-color="#ffe052"/><stop offset="1" stop-color="#ffc331"/></linearGradient></defs><title>S</title><g class="cls-1"><g id="Layer_1" data-name="Layer 1"><rect class="cls-2" y="-1" width="120" height="121"/><g class="cls-3"><circle class="cls-4" cx="37.8" cy="62.17" r="27.44" transform="translate(-26.86 95.54) rotate(-86)"/><circle class="cls-5" cx="38.06" cy="61.8" r="27.44" transform="translate(-26.62 94.73) rotate(-85.35)"/><circle class="cls-6" cx="38.32" cy="61.42" r="27.44" transform="translate(-26.65 93.36) rotate(-84.21)"/><circle class="cls-7" cx="38.59" cy="61.05" r="27.44" transform="translate(-27.4 90.4) rotate(-81.69)"/><circle class="cls-8" cx="38.85" cy="60.67" r="27.44" transform="translate(-30.85 78.88) rotate(-72.01)"/><path class="cls-9" d="M66.55,60.3A27.44,27.44,0,1,1,39.11,32.86,27.44,27.44,0,0,1,66.55,60.3Z"/><path class="cls-10" d="M66.81,59.92A27.44,27.44,0,1,1,39.38,32.48,27.44,27.44,0,0,1,66.81,59.92Z"/><path class="cls-11" d="M67.07,59.54A27.44,27.44,0,1,1,39.64,32.11,27.43,27.43,0,0,1,67.07,59.54Z"/><path class="cls-12" d="M67.34,59.17A27.44,27.44,0,1,1,39.9,31.73,27.44,27.44,0,0,1,67.34,59.17Z"/><path class="cls-13" d="M67.6,58.79A27.44,27.44,0,1,1,40.16,31.36,27.44,27.44,0,0,1,67.6,58.79Z"/><path class="cls-14" d="M67.86,58.42A27.44,27.44,0,1,1,40.43,31,27.43,27.43,0,0,1,67.86,58.42Z"/><path d="M68.12,58A27.44,27.44,0,1,1,40.69,30.6,27.44,27.44,0,0,1,68.12,58Z"/></g><g class="cls-3"><circle class="cls-4" cx="78.83" cy="62.17" r="27.44" transform="translate(-2.51 3.32) rotate(-2.37)"/><circle class="cls-5" cx="79.1" cy="61.8" r="27.44" transform="translate(-2.22 2.96) rotate(-2.11)"/><circle class="cls-6" cx="79.36" cy="61.42" r="27.44" transform="translate(-1.95 2.61) rotate(-1.86)"/><circle class="cls-7" cx="79.62" cy="61.05" r="27.44" transform="translate(-1.7 2.28) rotate(-1.62)"/><circle class="cls-8" cx="79.89" cy="60.67" r="27.44" transform="translate(-1.45 1.96) rotate(-1.39)"/><circle class="cls-9" cx="80.15" cy="60.3" r="27.44" transform="translate(-1.21 1.65) rotate(-1.17)"/><circle class="cls-10" cx="80.41" cy="59.92" r="27.44" transform="translate(-0.99 1.35) rotate(-0.96)"/><circle class="cls-11" cx="80.67" cy="59.54" r="27.44" transform="translate(-0.77 1.06) rotate(-0.75)"/><circle class="cls-12" cx="80.94" cy="59.17" r="27.44" transform="matrix(1, -0.01, 0.01, 1, -0.57, 0.78)"/><circle class="cls-13" cx="81.2" cy="58.79" r="27.44" transform="translate(-0.37 0.51) rotate(-0.36)"/><circle class="cls-14" cx="81.46" cy="58.42" r="27.44" transform="matrix(1, 0, 0, 1, -0.18, 0.25)"/><circle cx="81.72" cy="58.04" r="27.44"/></g><path class="cls-4" d="M81.89,30.39a27.66,27.66,0,0,0-20.51,9.07,27.74,27.74,0,1,0,0,37.35A27.74,27.74,0,1,0,81.89,30.39Z"/><g class="cls-15"><path class="cls-4" d="M61.68,60.81A24.35,24.35,0,1,1,37.33,36.46,24.35,24.35,0,0,1,61.68,60.81Z"/><path class="cls-5" d="M62,60.57A24.36,24.36,0,1,1,37.59,36.21,24.36,24.36,0,0,1,62,60.57Z"/><path class="cls-6" d="M62.21,60.32A24.35,24.35,0,1,1,37.86,36,24.35,24.35,0,0,1,62.21,60.32Z"/><path class="cls-7" d="M62.48,60.07A24.35,24.35,0,1,1,38.13,35.72,24.35,24.35,0,0,1,62.48,60.07Z"/><circle class="cls-8" cx="38.4" cy="59.82" r="24.35" transform="translate(-25.4 91.18) rotate(-83.48)"/><circle class="cls-9" cx="38.66" cy="59.57" r="24.35" transform="translate(-27.55 85.25) rotate(-78.21)"/><path class="cls-10" d="M63.28,59.32A24.35,24.35,0,1,1,38.93,35,24.36,24.36,0,0,1,63.28,59.32Z"/><path class="cls-11" d="M63.55,59.08A24.35,24.35,0,1,1,39.2,34.72,24.35,24.35,0,0,1,63.55,59.08Z"/><path class="cls-12" d="M63.82,58.83A24.36,24.36,0,1,1,39.47,34.48,24.35,24.35,0,0,1,63.82,58.83Z"/><path class="cls-13" d="M64.08,58.58A24.35,24.35,0,1,1,39.73,34.23,24.35,24.35,0,0,1,64.08,58.58Z"/><path class="cls-14" d="M64.35,58.33A24.35,24.35,0,1,1,40,34,24.35,24.35,0,0,1,64.35,58.33Z"/><path d="M64.62,58.08A24.35,24.35,0,1,1,40.27,33.73,24.36,24.36,0,0,1,64.62,58.08Z"/></g><g class="cls-15"><path class="cls-4" d="M103.71,60.81A24.35,24.35,0,1,1,79.36,36.46,24.35,24.35,0,0,1,103.71,60.81Z"/><path class="cls-5" d="M104,60.57A24.35,24.35,0,1,1,79.63,36.21,24.35,24.35,0,0,1,104,60.57Z"/><path class="cls-6" d="M104.25,60.32A24.35,24.35,0,1,1,79.9,36,24.35,24.35,0,0,1,104.25,60.32Z"/><path class="cls-7" d="M104.52,60.07A24.36,24.36,0,1,1,80.16,35.72,24.36,24.36,0,0,1,104.52,60.07Z"/><path class="cls-8" d="M104.78,59.82A24.35,24.35,0,1,1,80.43,35.47,24.35,24.35,0,0,1,104.78,59.82Z"/><path class="cls-9" d="M105.05,59.57A24.35,24.35,0,1,1,80.7,35.22,24.35,24.35,0,0,1,105.05,59.57Z"/><path class="cls-10" d="M105.32,59.32A24.35,24.35,0,1,1,81,35,24.36,24.36,0,0,1,105.32,59.32Z"/><path class="cls-11" d="M105.59,59.08A24.36,24.36,0,1,1,81.23,34.72,24.36,24.36,0,0,1,105.59,59.08Z"/><path class="cls-12" d="M105.85,58.83A24.35,24.35,0,1,1,81.5,34.48,24.35,24.35,0,0,1,105.85,58.83Z"/><path class="cls-13" d="M106.12,58.58A24.35,24.35,0,1,1,81.77,34.23,24.35,24.35,0,0,1,106.12,58.58Z"/><path class="cls-14" d="M106.39,58.33A24.36,24.36,0,1,1,82,34,24.35,24.35,0,0,1,106.39,58.33Z"/><path d="M106.65,58.08A24.35,24.35,0,1,1,82.3,33.73,24.36,24.36,0,0,1,106.65,58.08Z"/></g><path class="cls-4" d="M105.47,57.93A23.78,23.78,0,1,1,81.69,34.15,23.77,23.77,0,0,1,105.47,57.93Z"/><path class="cls-4" d="M64,57.93A23.78,23.78,0,1,1,40.26,34.15,23.78,23.78,0,0,1,64,57.93Z"/><path class="cls-16" d="M107.08,57.38H97.74c0,.25,0,.5,0,.75a15.76,15.76,0,0,1-31.51.28h0A25,25,0,0,1,61.58,72.7a25.09,25.09,0,0,0,45.51-14.57C107.09,57.88,107.08,57.63,107.08,57.38ZM41.16,33.05A25.07,25.07,0,0,0,16.1,57.19c0,.31,0,.63,0,1,0,.12,0,.25,0,.37h9.33c0-.13,0-.25,0-.38a15.76,15.76,0,0,1,31.52,0,25,25,0,0,1,4.66-14.53A25.06,25.06,0,0,0,41.16,33.05Z"/><path class="cls-3" d="M20.75,56.89h0l0,0"/><path class="cls-17" d="M98.89,59l.15.08Z"/><path class="cls-18" d="M61.58,72.7c.45.62.92,1.23,1.42,1.81a26.85,26.85,0,0,0,4.52-10.16,15.91,15.91,0,0,1-1.27-5.94h0A25,25,0,0,1,61.58,72.7"/><g class="cls-19"><path class="cls-18" d="M61.58,72.7c.45.62.92,1.23,1.42,1.81a26.85,26.85,0,0,0,4.52-10.16,15.91,15.91,0,0,1-1.27-5.94h0A25,25,0,0,1,61.58,72.7"/></g><path class="cls-20" d="M61.62,43.61c-.45-.62-.92-1.23-1.42-1.81A27.18,27.18,0,0,0,55.66,52a15.91,15.91,0,0,1,1.27,5.94h0A25,25,0,0,1,61.6,43.64Z"/><g class="cls-19"><path class="cls-20" d="M61.62,43.61c-.45-.62-.92-1.23-1.42-1.81A27.18,27.18,0,0,0,55.66,52a15.91,15.91,0,0,1,1.27,5.94h0A25,25,0,0,1,61.6,43.64Z"/></g><path class="cls-21" d="M82,33.05a25.07,25.07,0,0,0-25.08,25v.09c0,.11,0,.22,0,.33h0a15.75,15.75,0,0,1-31.5,0H16.08a25.08,25.08,0,0,0,50.16-.33v-.09c0-.24,0-.48,0-.71h0a15.76,15.76,0,0,1,31.48,0h9.34A25.1,25.1,0,0,0,82,33.05Z"/><g class="cls-22"><path class="cls-4" d="M37.32,48.2a1.18,1.18,0,0,1-1.18,1.18h0A1.18,1.18,0,0,1,35,48.2h0A1.18,1.18,0,0,1,36.14,47h0a1.18,1.18,0,0,1,1.18,1.18ZM36.22,58h6.53s3.66.06,3.66-3.55v-6s.56-3.61-6.64-3.61c-6.9,0-6.47,3-6.47,3V51h6.58V52H30.7s-4.42-.5-4.42,6.46,3.85,6.71,3.85,6.71h2.3V61.89S32.31,58,36.22,58Z"/><path class="cls-4" d="M42.41,68.68a1.17,1.17,0,0,1,1.18-1.18h0a1.18,1.18,0,0,1,1.18,1.18h0a1.18,1.18,0,0,1-1.18,1.19h0a1.18,1.18,0,0,1-1.18-1.18Zm7.18-16.91h-2.3V55s.13,3.86-3.79,3.86H37s-3.67-.06-3.67,3.54v6S32.76,72,40,72h0c6.9,0,6.47-3,6.47-3v-3.1H39.84v-.93H49s4.41.5,4.41-6.45S49.59,51.77,49.59,51.77Z"/><path class="cls-23" d="M37.37,48.18a1.18,1.18,0,0,1-1.18,1.19h0A1.18,1.18,0,0,1,35,48.19h0A1.18,1.18,0,0,1,36.18,47h0a1.18,1.18,0,0,1,1.19,1.18ZM36.27,58h6.52s3.67.06,3.67-3.54v-6s.56-3.6-6.65-3.6c-6.89,0-6.46,3-6.46,3V51h6.58v.93h-9.2s-4.41-.5-4.41,6.46,3.85,6.71,3.85,6.71h2.3V61.87S32.36,58,36.27,58Z"/><path class="cls-23" d="M42.45,68.67a1.18,1.18,0,0,1,1.18-1.19h0a1.18,1.18,0,0,1,1.18,1.19h0a1.18,1.18,0,0,1-1.18,1.18h0a1.18,1.18,0,0,1-1.19-1.18Zm7.19-16.92h-2.3V55s.12,3.85-3.79,3.85H37s-3.67-.06-3.67,3.54v6s-.56,3.6,6.65,3.6h0c6.89,0,6.46-3,6.46-3V65.85H39.89v-.93h9.19s4.41.5,4.41-6.46S49.64,51.75,49.64,51.75Z"/><path class="cls-24" d="M37.42,48.17a1.18,1.18,0,0,1-1.19,1.18h0a1.18,1.18,0,0,1-1.18-1.18h0A1.18,1.18,0,0,1,36.23,47h0a1.18,1.18,0,0,1,1.19,1.18ZM36.32,58h6.52s3.67.06,3.67-3.54v-6s.56-3.6-6.65-3.6c-6.89,0-6.46,3-6.46,3V51H40v.93H30.79s-4.41-.5-4.41,6.45,3.85,6.71,3.85,6.71h2.3V61.86S32.4,58,36.32,58Z"/><path class="cls-24" d="M42.5,68.65a1.18,1.18,0,0,1,1.18-1.18h0a1.18,1.18,0,0,1,1.19,1.18h0a1.18,1.18,0,0,1-1.18,1.18h0a1.18,1.18,0,0,1-1.18-1.18Zm7.19-16.92h-2.3V55s.12,3.85-3.79,3.85H37.07s-3.66-.06-3.66,3.55v6s-.56,3.61,6.65,3.61h0c6.89,0,6.46-3,6.46-3v-3.1H39.93V64.9h9.2s4.41.5,4.41-6.46S49.69,51.73,49.69,51.73Z"/><path class="cls-25" d="M37.46,48.15a1.18,1.18,0,0,1-1.18,1.18h0a1.18,1.18,0,0,1-1.18-1.18h0A1.18,1.18,0,0,1,36.28,47h0a1.18,1.18,0,0,1,1.18,1.18ZM36.36,58h6.53s3.67.06,3.67-3.55V48.49s.55-3.61-6.65-3.61c-6.9,0-6.47,3-6.47,3V51H40v.93H30.84s-4.41-.5-4.41,6.46,3.85,6.71,3.85,6.71h2.29V61.84S32.45,58,36.36,58Z"/><path class="cls-25" d="M42.55,68.63a1.18,1.18,0,0,1,1.18-1.18h0a1.18,1.18,0,0,1,1.18,1.18h0a1.17,1.17,0,0,1-1.18,1.19h0a1.18,1.18,0,0,1-1.18-1.18Zm7.18-16.91H47.44v3.22s.12,3.86-3.79,3.86H37.12s-3.67-.06-3.67,3.54v6s-.55,3.6,6.65,3.6h0c6.9,0,6.47-3,6.47-3v-3.1H40v-.93h9.19s4.41.5,4.41-6.45S49.73,51.72,49.73,51.72Z"/><path class="cls-26" d="M37.51,48.13a1.18,1.18,0,0,1-1.18,1.19h0a1.19,1.19,0,0,1-1.19-1.19h0A1.18,1.18,0,0,1,36.32,47h0a1.18,1.18,0,0,1,1.18,1.18ZM36.41,58h6.53s3.66.06,3.66-3.54v-6s.56-3.6-6.65-3.6c-6.89,0-6.46,3-6.46,3V51h6.58v.93H30.89s-4.42-.5-4.42,6.46,3.85,6.71,3.85,6.71h2.3V61.82S32.5,58,36.41,58Z"/><path class="cls-26" d="M42.59,68.62a1.19,1.19,0,0,1,1.19-1.19h0A1.18,1.18,0,0,1,45,68.61h0a1.18,1.18,0,0,1-1.18,1.18h0a1.2,1.2,0,0,1-1.19-1.18ZM49.78,51.7h-2.3v3.23a3.65,3.65,0,0,1-3.79,3.85H37.17s-3.67-.06-3.67,3.54v6s-.55,3.6,6.65,3.6h0c6.9,0,6.46-3,6.46-3V65.8H40v-.93h9.19s4.41.5,4.41-6.46S49.78,51.7,49.78,51.7Z"/><path class="cls-27" d="M37.56,48.12a1.18,1.18,0,0,1-1.18,1.18h0a1.18,1.18,0,0,1-1.19-1.18h0a1.18,1.18,0,0,1,1.18-1.19h0a1.18,1.18,0,0,1,1.19,1.18ZM36.46,58H43s3.67.06,3.67-3.54v-6s.56-3.6-6.65-3.6c-6.89,0-6.46,3-6.46,3v3.1h6.58v.93h-9.2s-4.41-.5-4.41,6.45S30.37,65,30.37,65h2.3V61.81S32.55,58,36.46,58Z"/><path class="cls-27" d="M42.64,68.6a1.18,1.18,0,0,1,1.18-1.18h0A1.18,1.18,0,0,1,45,68.6h0a1.18,1.18,0,0,1-1.18,1.18h0a1.18,1.18,0,0,1-1.19-1.18Zm7.19-16.92h-2.3v3.23s.12,3.85-3.79,3.85H37.22s-3.67-.06-3.67,3.55v6S33,71.87,40.2,71.87h0c6.89,0,6.46-3,6.46-3v-3.1H40.07v-.93h9.2s4.41.5,4.41-6.46S49.83,51.68,49.83,51.68Z"/><path class="cls-28" d="M37.61,48.1a1.18,1.18,0,0,1-1.19,1.18h0a1.18,1.18,0,0,1-1.18-1.18h0a1.18,1.18,0,0,1,1.18-1.18h0a1.19,1.19,0,0,1,1.19,1.18Zm-1.1,9.84H43s3.67.06,3.67-3.55v-6s.55-3.61-6.65-3.61c-6.9,0-6.46,3-6.46,3v3.1h6.58v.93H31s-4.41-.5-4.41,6.46S30.42,65,30.42,65h2.3V61.79A3.65,3.65,0,0,1,36.51,57.94Z"/><path class="cls-28" d="M42.69,68.58a1.18,1.18,0,0,1,1.18-1.18h0a1.18,1.18,0,0,1,1.19,1.18h0a1.18,1.18,0,0,1-1.18,1.19h0a1.18,1.18,0,0,1-1.18-1.18Zm7.19-16.91h-2.3v3.22s.12,3.86-3.79,3.86H37.26s-3.66-.06-3.66,3.54v6s-.56,3.6,6.65,3.6h0c6.89,0,6.46-3,6.46-3v-3.1H40.12v-.93h9.2s4.41.5,4.41-6.45S49.88,51.67,49.88,51.67Z"/><path class="cls-29" d="M37.65,48.08a1.18,1.18,0,0,1-1.18,1.19h0a1.18,1.18,0,0,1-1.18-1.19h0a1.17,1.17,0,0,1,1.18-1.18h0a1.18,1.18,0,0,1,1.18,1.18Zm-1.1,9.84h6.53s3.67.06,3.67-3.54v-6s.55-3.6-6.65-3.6c-6.9,0-6.47,3-6.47,3V50.9h6.58v.93H31s-4.41-.5-4.41,6.46S30.47,65,30.47,65h2.29V61.77S32.64,57.92,36.55,57.92Z"/><path class="cls-29" d="M42.74,68.57a1.18,1.18,0,0,1,1.18-1.19h0a1.18,1.18,0,0,1,1.18,1.18h0a1.18,1.18,0,0,1-1.18,1.18h0a1.18,1.18,0,0,1-1.18-1.18Zm7.18-16.92H47.63v3.23s.12,3.85-3.79,3.85H37.31s-3.67-.06-3.67,3.54v6s-.55,3.6,6.65,3.6h0c6.9,0,6.47-3,6.47-3V65.75H40.17v-.93h9.19s4.41.5,4.41-6.46S49.92,51.65,49.92,51.65Z"/><path class="cls-30" d="M37.7,48.07a1.18,1.18,0,0,1-1.18,1.18h0a1.18,1.18,0,0,1-1.19-1.18h0a1.18,1.18,0,0,1,1.18-1.19h0a1.18,1.18,0,0,1,1.18,1.18ZM36.6,57.9h6.53s3.66.06,3.66-3.54v-6s.56-3.6-6.65-3.6c-6.89,0-6.46,3-6.46,3v3.1h6.58v.93h-9.2s-4.41-.5-4.41,6.45S30.51,65,30.51,65h2.3V61.75S32.69,57.9,36.6,57.9Z"/><path class="cls-30" d="M42.78,68.55A1.18,1.18,0,0,1,44,67.37h0a1.18,1.18,0,0,1,1.18,1.18h0A1.18,1.18,0,0,1,44,69.73h0a1.18,1.18,0,0,1-1.19-1.18ZM50,51.63h-2.3v3.23a3.65,3.65,0,0,1-3.79,3.85H37.36s-3.67-.06-3.67,3.55v5.95s-.56,3.61,6.65,3.61h0c6.89,0,6.46-3,6.46-3v-3.1H40.22V64.8h9.19s4.41.5,4.41-6.46S50,51.63,50,51.63Z"/><path class="cls-31" d="M37.75,48.05a1.18,1.18,0,0,1-1.18,1.18h0a1.18,1.18,0,0,1-1.18-1.18h0a1.18,1.18,0,0,1,1.18-1.18h0a1.17,1.17,0,0,1,1.19,1.18Zm-1.1,9.84h6.52s3.67.06,3.67-3.55v-6s.56-3.61-6.65-3.61c-6.89,0-6.46,3-6.46,3v3.1h6.57v.93H31.12s-4.41-.5-4.41,6.46S30.56,65,30.56,65h2.3V61.74S32.74,57.89,36.65,57.89Z"/><path class="cls-31" d="M42.83,68.53A1.18,1.18,0,0,1,44,67.35h0a1.18,1.18,0,0,1,1.18,1.18h0A1.18,1.18,0,0,1,44,69.72h0a1.18,1.18,0,0,1-1.19-1.18ZM50,51.62h-2.3v3.22s.12,3.85-3.79,3.85H37.41s-3.67,0-3.67,3.55v6s-.56,3.6,6.65,3.6h0c6.89,0,6.46-3,6.46-3v-3.1H40.26v-.93h9.2s4.41.5,4.41-6.45S50,51.62,50,51.62Z"/><path class="cls-32" d="M37.79,48a1.17,1.17,0,0,1-1.18,1.19h0A1.18,1.18,0,0,1,35.43,48h0a1.18,1.18,0,0,1,1.18-1.18h0A1.18,1.18,0,0,1,37.79,48ZM36.7,57.87h6.52s3.67.06,3.67-3.54v-6s.55-3.6-6.65-3.6c-6.9,0-6.47,3-6.47,3v3.09h6.58v.93H31.17s-4.41-.5-4.41,6.46S30.61,65,30.61,65h2.3V61.72A3.65,3.65,0,0,1,36.7,57.87Z"/><path class="cls-32" d="M42.88,68.52a1.18,1.18,0,0,1,1.18-1.19h0a1.18,1.18,0,0,1,1.19,1.18h0a1.18,1.18,0,0,1-1.19,1.18h0a1.18,1.18,0,0,1-1.18-1.18ZM50.07,51.6h-2.3v3.23s.12,3.85-3.79,3.85H37.45s-3.66-.06-3.66,3.54v6s-.56,3.6,6.64,3.6h0c6.9,0,6.47-3,6.47-3V65.7H40.31v-.93H49.5s4.42.5,4.42-6.46S50.07,51.6,50.07,51.6Z"/><path class="cls-33" d="M37.84,48a1.18,1.18,0,0,1-1.18,1.18h0A1.2,1.2,0,0,1,35.47,48h0a1.19,1.19,0,0,1,1.19-1.19h0A1.18,1.18,0,0,1,37.84,48Zm-1.1,9.83h6.53s3.67.06,3.67-3.54v-6s.55-3.6-6.65-3.6c-6.9,0-6.47,3-6.47,3v3.1h6.58v.93H31.22s-4.42-.5-4.42,6.45,3.86,6.71,3.86,6.71H33V61.7S32.83,57.85,36.74,57.85Z"/><path class="cls-33" d="M42.93,68.5a1.18,1.18,0,0,1,1.18-1.18h0a1.18,1.18,0,0,1,1.18,1.18h0a1.18,1.18,0,0,1-1.18,1.18h0a1.18,1.18,0,0,1-1.18-1.18Zm7.18-16.92h-2.3v3.23s.13,3.85-3.78,3.85H37.5s-3.67-.06-3.67,3.54v6s-.55,3.61,6.65,3.61h0c6.9,0,6.47-3,6.47-3v-3.1H40.36v-.93h9.19s4.41.5,4.41-6.46S50.11,51.58,50.11,51.58Z"/><path class="cls-34" d="M37.89,48a1.18,1.18,0,0,1-1.18,1.18h0A1.18,1.18,0,0,1,35.52,48h0a1.18,1.18,0,0,1,1.18-1.18h0A1.17,1.17,0,0,1,37.89,48Zm-1.1,9.84h6.53S47,57.9,47,54.29V48.34s.56-3.61-6.65-3.61c-6.89,0-6.46,3-6.46,3v3.1h6.58v.93h-9.2s-4.41-.5-4.41,6.46,3.85,6.71,3.85,6.71H33V61.69S32.88,57.84,36.79,57.84Z"/><path class="cls-34" d="M43,68.48a1.18,1.18,0,0,1,1.19-1.18h0a1.18,1.18,0,0,1,1.18,1.18h0a1.18,1.18,0,0,1-1.18,1.19h0A1.18,1.18,0,0,1,43,68.49Zm7.19-16.91h-2.3v3.22a3.65,3.65,0,0,1-3.79,3.85H37.55s-3.67,0-3.67,3.55v6s-.56,3.61,6.65,3.61h0c6.89,0,6.46-3,6.46-3v-3.1H40.41v-.93H49.6s4.41.5,4.41-6.45S50.16,51.57,50.16,51.57Z"/><path class="cls-35" d="M37.94,48a1.18,1.18,0,0,1-1.18,1.19h0A1.18,1.18,0,0,1,35.57,48h0a1.18,1.18,0,0,1,1.18-1.18h0A1.18,1.18,0,0,1,37.94,48Zm-1.1,9.84h6.52S47,57.88,47,54.28v-6s.56-3.6-6.65-3.6c-6.89,0-6.46,3-6.46,3V50.8H40.5v.93H31.31s-4.41-.5-4.41,6.46,3.85,6.71,3.85,6.71h2.3V61.67A3.65,3.65,0,0,1,36.84,57.82Z"/><path class="cls-35" d="M43,68.47a1.18,1.18,0,0,1,1.18-1.19h0a1.18,1.18,0,0,1,1.19,1.18h0a1.18,1.18,0,0,1-1.18,1.18h0A1.18,1.18,0,0,1,43,68.47Zm7.19-16.92h-2.3v3.23s.12,3.85-3.79,3.85H37.59s-3.66-.06-3.66,3.54v6s-.56,3.6,6.65,3.6h0c6.89,0,6.46-3,6.46-3V65.65H40.45v-.93h9.2s4.41.5,4.41-6.46S50.21,51.55,50.21,51.55Z"/><path class="cls-36" d="M38,48a1.18,1.18,0,0,1-1.18,1.18h0A1.18,1.18,0,0,1,35.62,48h0a1.18,1.18,0,0,1,1.18-1.19h0A1.18,1.18,0,0,1,38,48ZM36.89,57.8h6.52s3.67.06,3.67-3.54v-6s.55-3.6-6.65-3.6c-6.9,0-6.47,3-6.47,3v3.1h6.58v.93H31.36S27,51.22,27,58.17s3.85,6.71,3.85,6.71h2.3V61.65A3.65,3.65,0,0,1,36.89,57.8Z"/><path class="cls-36" d="M43.07,68.45a1.18,1.18,0,0,1,1.18-1.18h0a1.18,1.18,0,0,1,1.19,1.18h0a1.18,1.18,0,0,1-1.19,1.18h0a1.18,1.18,0,0,1-1.18-1.18Zm7.19-16.92H48v3.23s.12,3.85-3.79,3.85H37.64S34,58.55,34,62.15v6s-.56,3.61,6.64,3.61h0c6.9,0,6.47-3,6.47-3v-3.1H40.5V64.7h9.19s4.42.5,4.42-6.46S50.26,51.53,50.26,51.53Z"/><path class="cls-37" d="M38,48a1.18,1.18,0,0,1-1.18,1.18h0A1.19,1.19,0,0,1,35.66,48h0a1.2,1.2,0,0,1,1.19-1.19h0A1.18,1.18,0,0,1,38,48Zm-1.1,9.84h6.53s3.66.06,3.66-3.55v-6s.56-3.61-6.64-3.61c-6.9,0-6.47,3-6.47,3v3.1H40.6v.93H31.41S27,51.2,27,58.16s3.86,6.71,3.86,6.71h2.29V61.64S33,57.79,36.93,57.79Z"/><path class="cls-37" d="M43.12,68.43a1.18,1.18,0,0,1,1.18-1.18h0a1.18,1.18,0,0,1,1.18,1.18h0a1.18,1.18,0,0,1-1.18,1.19h0a1.18,1.18,0,0,1-1.18-1.18ZM50.3,51.52H48v3.22a3.65,3.65,0,0,1-3.79,3.85H37.69S34,58.54,34,62.14v6s-.55,3.61,6.65,3.61h0c6.9,0,6.47-3,6.47-3v-3.1H40.55v-.93h9.19s4.41.5,4.41-6.45S50.3,51.52,50.3,51.52Z"/><path class="cls-38" d="M38.08,47.93a1.2,1.2,0,0,1-1.18,1.19h0a1.19,1.19,0,0,1-1.19-1.19h0a1.18,1.18,0,0,1,1.18-1.18h0a1.18,1.18,0,0,1,1.18,1.18ZM37,57.77h6.53s3.66.06,3.66-3.54v-6s.56-3.6-6.65-3.6c-6.89,0-6.46,3-6.46,3v3.09h6.58v.93h-9.2S27,51.18,27,58.14s3.85,6.71,3.85,6.71h2.3V61.62S33.07,57.77,37,57.77Z"/><path class="cls-38" d="M43.16,68.42a1.18,1.18,0,0,1,1.18-1.19h0a1.18,1.18,0,0,1,1.18,1.18h0a1.18,1.18,0,0,1-1.18,1.18h0a1.18,1.18,0,0,1-1.19-1.18ZM50.35,51.5h-2.3v3.23a3.65,3.65,0,0,1-3.79,3.85H37.74s-3.67-.06-3.67,3.54v6s-.56,3.6,6.65,3.6h0c6.89,0,6.46-3,6.46-3V65.6H40.6v-.93h9.19s4.41.5,4.41-6.46S50.35,51.5,50.35,51.5Z"/><path class="cls-39" d="M38.13,47.92a1.18,1.18,0,0,1-1.19,1.18h0a1.18,1.18,0,0,1-1.18-1.18h0a1.18,1.18,0,0,1,1.18-1.19h0a1.18,1.18,0,0,1,1.19,1.18ZM37,57.75h6.52s3.67.06,3.67-3.54v-6s.56-3.6-6.65-3.6c-6.89,0-6.46,3-6.46,3v3.1h6.58v.93H31.5s-4.41-.5-4.41,6.45,3.85,6.71,3.85,6.71h2.3V61.6A3.65,3.65,0,0,1,37,57.75Z"/><path class="cls-39" d="M43.21,68.4a1.18,1.18,0,0,1,1.18-1.18h0a1.18,1.18,0,0,1,1.19,1.18h0a1.18,1.18,0,0,1-1.18,1.18h0a1.18,1.18,0,0,1-1.18-1.18ZM50.4,51.48H48.1v3.23s.12,3.85-3.79,3.85H37.78s-3.66-.06-3.66,3.54v6s-.56,3.61,6.65,3.61h0c6.89,0,6.46-3,6.46-3v-3.1H40.64v-.93h9.2s4.41.5,4.41-6.46S50.4,51.48,50.4,51.48Z"/><path class="cls-40" d="M38.17,47.9A1.18,1.18,0,0,1,37,49.08h0a1.18,1.18,0,0,1-1.18-1.18h0A1.19,1.19,0,0,1,37,46.71h0a1.18,1.18,0,0,1,1.18,1.19Zm-1.1,9.84H43.6s3.67.06,3.67-3.55V48.24s.55-3.61-6.65-3.61c-6.9,0-6.47,3-6.47,3v3.1h6.58v.93H31.55s-4.41-.5-4.41,6.46S31,64.82,31,64.82h2.3V61.59S33.16,57.74,37.07,57.74Z"/><path class="cls-40" d="M43.26,68.38a1.18,1.18,0,0,1,1.18-1.18h0a1.2,1.2,0,0,1,1.19,1.18h0a1.19,1.19,0,0,1-1.19,1.19h0a1.18,1.18,0,0,1-1.18-1.19Zm7.18-16.91H48.15v3.22s.12,3.85-3.79,3.85H37.83s-3.66,0-3.66,3.55v6s-.56,3.61,6.64,3.61h0c6.9,0,6.47-3,6.47-3v-3.1H40.69v-.93h9.19s4.42.5,4.42-6.45S50.44,51.47,50.44,51.47Z"/><path class="cls-41" d="M38.22,47.88A1.2,1.2,0,0,1,37,49.07h0a1.19,1.19,0,0,1-1.19-1.19h0A1.18,1.18,0,0,1,37,46.7h0a1.18,1.18,0,0,1,1.18,1.18Zm-1.1,9.84h6.53s3.66.06,3.66-3.54v-6s.56-3.61-6.64-3.61c-6.9,0-6.47,3-6.47,3v3.1h6.58v.93H31.6s-4.42-.5-4.42,6.46S31,64.8,31,64.8h2.3V61.57S33.21,57.72,37.12,57.72Z"/><path class="cls-41" d="M43.31,68.37a1.17,1.17,0,0,1,1.18-1.19h0a1.18,1.18,0,0,1,1.18,1.18h0a1.18,1.18,0,0,1-1.18,1.18h0a1.18,1.18,0,0,1-1.18-1.18Zm7.18-16.92h-2.3v3.23a3.65,3.65,0,0,1-3.79,3.85H37.88s-3.67-.06-3.67,3.54v6s-.55,3.6,6.65,3.6h0c6.9,0,6.47-3,6.47-3V65.55H40.74v-.93h9.19s4.41.5,4.41-6.46S50.49,51.45,50.49,51.45Z"/><path class="cls-42" d="M38.27,47.86a1.18,1.18,0,0,1-1.18,1.19h0a1.18,1.18,0,0,1-1.18-1.18h0a1.18,1.18,0,0,1,1.18-1.19h0a1.18,1.18,0,0,1,1.19,1.18Zm-1.1,9.84H43.7s3.66.06,3.66-3.54v-6s.56-3.6-6.65-3.6c-6.89,0-6.46,3-6.46,3v3.1h6.58v.93h-9.2s-4.41-.5-4.41,6.45,3.85,6.71,3.85,6.71h2.3V61.55S33.26,57.7,37.17,57.7Z"/><path class="cls-42" d="M43.35,68.35a1.18,1.18,0,0,1,1.18-1.18h0a1.17,1.17,0,0,1,1.18,1.18h0a1.18,1.18,0,0,1-1.18,1.18h0a1.18,1.18,0,0,1-1.19-1.18Zm7.19-16.92h-2.3v3.23a3.65,3.65,0,0,1-3.79,3.85H37.93s-3.67-.06-3.67,3.54v6s-.56,3.61,6.65,3.61h0c6.89,0,6.46-3,6.46-3v-3.1H40.79V64.6H50s4.41.5,4.41-6.46S50.54,51.43,50.54,51.43Z"/><path class="cls-43" d="M38.32,47.85A1.18,1.18,0,0,1,37.13,49h0A1.18,1.18,0,0,1,36,47.85h0a1.2,1.2,0,0,1,1.18-1.19h0a1.19,1.19,0,0,1,1.19,1.19Zm-1.1,9.84h6.52s3.67.06,3.67-3.55v-6s.56-3.61-6.65-3.61c-6.89,0-6.46,3-6.46,3v3.1h6.58v.93H31.69s-4.41-.5-4.41,6.46,3.85,6.71,3.85,6.71h2.3V61.54A3.65,3.65,0,0,1,37.22,57.69Z"/><path class="cls-43" d="M43.4,68.33a1.18,1.18,0,0,1,1.18-1.18h0a1.18,1.18,0,0,1,1.19,1.18h0a1.18,1.18,0,0,1-1.18,1.19h0a1.18,1.18,0,0,1-1.18-1.19Zm7.19-16.91h-2.3v3.22s.12,3.85-3.79,3.85H38s-3.66-.06-3.66,3.55V68S33.75,71.6,41,71.6h0c6.89,0,6.46-3,6.46-3v-3.1H40.83v-.93H50s4.41.5,4.41-6.45S50.59,51.42,50.59,51.42Z"/><path class="cls-44" d="M38.36,47.83A1.2,1.2,0,0,1,37.18,49h0A1.18,1.18,0,0,1,36,47.83h0a1.18,1.18,0,0,1,1.18-1.18h0a1.18,1.18,0,0,1,1.18,1.18Zm-1.1,9.84h6.53s3.67.06,3.67-3.54v-6s.55-3.61-6.65-3.61c-6.9,0-6.47,3-6.47,3v3.1h6.58v.93H31.74s-4.41-.5-4.41,6.46,3.85,6.71,3.85,6.71h2.29V61.52S33.35,57.67,37.26,57.67Z"/><path class="cls-44" d="M43.45,68.32a1.18,1.18,0,0,1,1.18-1.19h0a1.18,1.18,0,0,1,1.18,1.18h0a1.17,1.17,0,0,1-1.18,1.19h0a1.18,1.18,0,0,1-1.18-1.18ZM50.63,51.4H48.34v3.23s.12,3.85-3.79,3.85H38s-3.67-.06-3.67,3.54v6s-.55,3.6,6.65,3.6h0c6.9,0,6.47-3,6.47-3v-3.1H40.88v-.93h9.19s4.41.51,4.41-6.45S50.63,51.4,50.63,51.4Z"/><path class="cls-45" d="M38.41,47.81A1.18,1.18,0,0,1,37.23,49h0A1.18,1.18,0,0,1,36,47.82h0a1.18,1.18,0,0,1,1.18-1.18h0a1.18,1.18,0,0,1,1.18,1.18Zm-1.1,9.84h6.53s3.66.06,3.66-3.54v-6s.56-3.6-6.65-3.6c-6.89,0-6.46,3-6.46,3v3.1H41v.93H31.79s-4.42-.5-4.42,6.45,3.85,6.71,3.85,6.71h2.3V61.5S33.4,57.65,37.31,57.65Z"/><path class="cls-45" d="M43.49,68.3a1.18,1.18,0,0,1,1.19-1.18h0a1.17,1.17,0,0,1,1.18,1.18h0a1.18,1.18,0,0,1-1.18,1.18h0a1.2,1.2,0,0,1-1.19-1.18Zm7.19-16.92h-2.3v3.23a3.65,3.65,0,0,1-3.79,3.85H38.07S34.4,58.4,34.4,62v6s-.55,3.61,6.65,3.61h0c6.9,0,6.46-3,6.46-3v-3.1H40.93v-.93h9.19s4.41.5,4.41-6.46S50.68,51.38,50.68,51.38Z"/><path class="cls-46" d="M38.46,47.8A1.18,1.18,0,0,1,37.28,49h0a1.18,1.18,0,0,1-1.18-1.18h0a1.18,1.18,0,0,1,1.18-1.19h0a1.19,1.19,0,0,1,1.19,1.19Zm-1.1,9.84h6.52s3.67.06,3.67-3.55v-6s.56-3.61-6.65-3.61c-6.89,0-6.46,3-6.46,3v3.1H41v.93h-9.2s-4.41-.5-4.41,6.45,3.85,6.72,3.85,6.72h2.3V61.49S33.45,57.64,37.36,57.64Z"/><path class="cls-46" d="M43.54,68.28a1.18,1.18,0,0,1,1.18-1.18h0a1.18,1.18,0,0,1,1.18,1.18h0a1.18,1.18,0,0,1-1.18,1.19h0a1.19,1.19,0,0,1-1.19-1.19Zm7.19-16.92h-2.3v3.23s.12,3.85-3.79,3.85H38.12s-3.67-.06-3.67,3.55v5.95s-.56,3.61,6.65,3.61h0c6.89,0,6.46-3,6.46-3v-3.1H41v-.93h9.19s4.41.5,4.41-6.46S50.73,51.36,50.73,51.36Z"/><path class="cls-47" d="M38.51,47.78A1.18,1.18,0,0,1,37.32,49h0a1.17,1.17,0,0,1-1.18-1.18h0a1.18,1.18,0,0,1,1.18-1.18h0a1.2,1.2,0,0,1,1.19,1.18Zm-1.1,9.84h6.52s3.67.06,3.67-3.54v-6s.56-3.61-6.65-3.61c-6.89,0-6.46,3-6.46,3v3.1h6.58v.93H31.88S27.47,51,27.47,58s3.85,6.71,3.85,6.71h2.3V61.47A3.65,3.65,0,0,1,37.41,57.62Z"/><path class="cls-47" d="M43.59,68.27a1.18,1.18,0,0,1,1.18-1.19h0A1.18,1.18,0,0,1,46,68.26h0a1.18,1.18,0,0,1-1.18,1.18h0a1.18,1.18,0,0,1-1.18-1.18Zm7.19-16.92h-2.3v3.23s.12,3.85-3.79,3.85H38.16S34.5,58.37,34.5,62v6s-.56,3.6,6.65,3.6h0c6.89,0,6.46-3,6.46-3v-3.1H41v-.93h9.2s4.41.5,4.41-6.45S50.78,51.35,50.78,51.35Z"/><path class="cls-48" d="M38.55,47.76A1.18,1.18,0,0,1,37.37,49h0a1.18,1.18,0,0,1-1.18-1.18h0a1.17,1.17,0,0,1,1.18-1.18h0a1.18,1.18,0,0,1,1.18,1.18Zm-1.1,9.84H44s3.67.06,3.67-3.54v-6s.55-3.6-6.65-3.6c-6.9,0-6.47,3-6.47,3v3.1h6.58v.93H31.93S27.52,51,27.52,58s3.85,6.71,3.85,6.71h2.29V61.45S33.54,57.6,37.45,57.6Z"/><path class="cls-48" d="M43.64,68.25a1.18,1.18,0,0,1,1.18-1.18h0A1.17,1.17,0,0,1,46,68.25h0a1.18,1.18,0,0,1-1.18,1.18h0a1.18,1.18,0,0,1-1.18-1.18Zm7.18-16.92H48.53v3.23s.12,3.85-3.79,3.85H38.21s-3.67-.06-3.67,3.54v6s-.55,3.61,6.65,3.61h0c6.9,0,6.47-3,6.47-3v-3.1H41.07V64.5h9.19s4.41.5,4.41-6.46S50.82,51.33,50.82,51.33Z"/><path class="cls-49" d="M38.6,47.75a1.18,1.18,0,0,1-1.18,1.18h0a1.18,1.18,0,0,1-1.19-1.18h0a1.18,1.18,0,0,1,1.18-1.19h0a1.18,1.18,0,0,1,1.18,1.19Zm-1.1,9.84H44s3.66.06,3.66-3.55V48.09s.56-3.61-6.65-3.61c-6.89,0-6.46,3-6.46,3v3.1h6.58v.93H32S27.56,51,27.56,58s3.85,6.71,3.85,6.71h2.3V61.44S33.59,57.59,37.5,57.59Z"/><path class="cls-49" d="M43.68,68.23a1.18,1.18,0,0,1,1.19-1.18h0a1.18,1.18,0,0,1,1.18,1.18h0a1.19,1.19,0,0,1-1.18,1.19h0a1.19,1.19,0,0,1-1.19-1.19Zm7.19-16.92h-2.3v3.23a3.65,3.65,0,0,1-3.79,3.85H38.26s-3.67-.06-3.67,3.55v6S34,71.5,41.24,71.5h0c6.89,0,6.46-3,6.46-3v-3.1H41.12v-.93h9.19s4.41.5,4.41-6.46S50.87,51.31,50.87,51.31Z"/><path class="cls-50" d="M38.65,47.73a1.18,1.18,0,0,1-1.18,1.18h0a1.17,1.17,0,0,1-1.18-1.18h0a1.18,1.18,0,0,1,1.18-1.18h0a1.18,1.18,0,0,1,1.19,1.18Zm-1.1,9.84h6.52s3.67.06,3.67-3.54v-6s.56-3.61-6.65-3.61c-6.89,0-6.46,3-6.46,3v3.1h6.57v.93H32s-4.41-.5-4.41,6.46,3.85,6.71,3.85,6.71h2.3V61.42S33.64,57.57,37.55,57.57Z"/><path class="cls-50" d="M43.73,68.22A1.18,1.18,0,0,1,44.91,67h0a1.18,1.18,0,0,1,1.18,1.18h0a1.18,1.18,0,0,1-1.18,1.18h0a1.18,1.18,0,0,1-1.19-1.18ZM50.92,51.3h-2.3v3.23s.12,3.85-3.79,3.85H38.31s-3.67-.06-3.67,3.54v6s-.56,3.6,6.65,3.6h0c6.89,0,6.46-3,6.46-3v-3.1H41.16v-.93h9.2s4.41.5,4.41-6.45S50.92,51.3,50.92,51.3Z"/><path class="cls-51" d="M38.69,47.71a1.17,1.17,0,0,1-1.18,1.19h0a1.18,1.18,0,0,1-1.18-1.18h0a1.18,1.18,0,0,1,1.18-1.18h0a1.18,1.18,0,0,1,1.18,1.18ZM37.6,57.55h6.52s3.67.06,3.67-3.54v-6s.55-3.6-6.65-3.6c-6.9,0-6.46,3-6.46,3v3.1h6.58v.93H32.07s-4.41-.51-4.41,6.45,3.85,6.71,3.85,6.71h2.3V61.4A3.65,3.65,0,0,1,37.6,57.55Z"/><path class="cls-51" d="M43.78,68.2A1.2,1.2,0,0,1,45,67h0a1.19,1.19,0,0,1,1.19,1.19h0A1.18,1.18,0,0,1,45,69.38h0a1.18,1.18,0,0,1-1.18-1.18ZM51,51.28h-2.3v3.23s.12,3.85-3.79,3.85H38.35s-3.66-.06-3.66,3.54v6s-.56,3.61,6.64,3.61h0c6.9,0,6.47-3,6.47-3v-3.1H41.21v-.93H50.4s4.42.5,4.42-6.46S51,51.28,51,51.28Z"/><path class="cls-52" d="M38.74,47.7a1.18,1.18,0,0,1-1.18,1.18h0a1.18,1.18,0,0,1-1.18-1.18h0a1.17,1.17,0,0,1,1.18-1.19h0a1.18,1.18,0,0,1,1.18,1.19Zm-1.1,9.84h6.53s3.67.05,3.67-3.55V48s.55-3.61-6.65-3.61c-6.9,0-6.47,3-6.47,3v3.1h6.58v.93H32.12S27.7,51,27.7,57.9s3.86,6.71,3.86,6.71h2.29V61.39S33.73,57.54,37.64,57.54Z"/><path class="cls-52" d="M43.83,68.18A1.18,1.18,0,0,1,45,67h0a1.18,1.18,0,0,1,1.18,1.18h0A1.19,1.19,0,0,1,45,69.37h0a1.18,1.18,0,0,1-1.18-1.19ZM51,51.26h-2.3v3.23s.13,3.85-3.78,3.85H38.4s-3.67-.06-3.67,3.55v6s-.55,3.61,6.65,3.61h0c6.9,0,6.47-3,6.47-3v-3.1H41.26v-.93h9.19s4.41.5,4.41-6.46S51,51.26,51,51.26Z"/><path d="M38.79,47.68a1.18,1.18,0,0,1-1.18,1.18h0a1.18,1.18,0,0,1-1.19-1.18h0A1.18,1.18,0,0,1,37.6,46.5h0a1.18,1.18,0,0,1,1.18,1.18Zm-1.1,9.84h6.53s3.66.06,3.66-3.54V48s.56-3.61-6.65-3.61c-6.89,0-6.46,3-6.46,3v3.1h6.58v.93h-9.2s-4.41-.5-4.41,6.46S31.6,64.6,31.6,64.6h2.3V61.37S33.78,57.52,37.69,57.52Z"/><path d="M43.87,68.17A1.19,1.19,0,0,1,45.06,67h0a1.18,1.18,0,0,1,1.18,1.18h0a1.18,1.18,0,0,1-1.18,1.19h0a1.18,1.18,0,0,1-1.19-1.18Zm7.19-16.92h-2.3v3.23A3.65,3.65,0,0,1,45,58.33H38.45s-3.67-.06-3.67,3.54v6s-.56,3.6,6.65,3.6h0c6.89,0,6.46-3,6.46-3v-3.1H41.31v-.93H50.5s4.41.5,4.41-6.45S51.06,51.25,51.06,51.25Z"/></g><path class="cls-53" d="M41.33,44.45c-6.9,0-6.47,3-6.47,3v3.1h6.58v.93H32.26s-4.41-.5-4.41,6.45,3.85,6.71,3.85,6.71H34V61.41s-.13-3.85,3.78-3.85h6.53S48,57.62,48,54V48.06S48.53,44.45,41.33,44.45ZM37.7,46.53a1.18,1.18,0,0,1,1.18,1.19h0A1.18,1.18,0,0,1,37.7,48.9h0a1.18,1.18,0,0,1-1.18-1.18h0a1.18,1.18,0,0,1,1.18-1.19Z"/><path class="cls-4" d="M31.64,64.77a3.2,3.2,0,0,1-2.11-.91c-1.21-1.14-1.82-3.13-1.82-5.94,0-2.63.62-4.53,1.85-5.62a3.74,3.74,0,0,1,2.71-1h9v-.65H34.73V47.45A2,2,0,0,1,35.27,46c.67-.77,2.26-1.69,6.06-1.69,3,0,5.07.62,6.11,1.84a2.51,2.51,0,0,1,.67,1.92V54a3.47,3.47,0,0,1-1,2.6,4.28,4.28,0,0,1-2.83,1.08H37.78a3.48,3.48,0,0,0-2.63,1,4.15,4.15,0,0,0-1,2.73v3.37H31.64Zm.44-13.17a3.57,3.57,0,0,0-2.34.91c-1.17,1-1.76,2.86-1.76,5.41,0,2.72.58,4.65,1.73,5.73a2.9,2.9,0,0,0,2,.85h2.17V61.41A4.36,4.36,0,0,1,35,58.48a3.74,3.74,0,0,1,2.83-1.06h6.53a4.1,4.1,0,0,0,2.64-1,3.23,3.23,0,0,0,.89-2.4V48a2.33,2.33,0,0,0-.61-1.71c-.68-.79-2.26-1.73-5.9-1.73s-5.21.86-5.85,1.58A1.74,1.74,0,0,0,35,47.42v3h6.58v1.21H32.08ZM37.7,49a1.33,1.33,0,0,1-1.32-1.32,1.37,1.37,0,0,1,.38-.94,1.32,1.32,0,0,1,.94-.38v0h0a1.3,1.3,0,0,1,.93.38A1.32,1.32,0,0,1,37.7,49Zm0-2.37a1,1,0,1,0,0,2.09h0a1,1,0,0,0,1-1,1,1,0,0,0-.31-.74,1,1,0,0,0-.74-.31Z"/><path class="cls-54" d="M41.47,71.44c6.9,0,6.47-3,6.47-3V65.36H41.35v-.93h9.19S55,64.93,55,58s-3.85-6.71-3.85-6.71h-2.3v3.23s.12,3.85-3.79,3.85H38.49s-3.66-.06-3.66,3.54v6s-.56,3.6,6.64,3.6Zm3.63-2.08a1.18,1.18,0,0,1-1.18-1.18h0A1.18,1.18,0,0,1,45.1,67h0a1.19,1.19,0,0,1,1.19,1.19h0a1.18,1.18,0,0,1-1.19,1.18Z"/><path class="cls-4" d="M41.47,71.58c-3,0-5.07-.62-6.11-1.83a2.56,2.56,0,0,1-.67-1.92V61.88a3.52,3.52,0,0,1,1-2.6,4.35,4.35,0,0,1,2.83-1.08H45a3.56,3.56,0,0,0,2.64-1,4.2,4.2,0,0,0,1-2.74V51.12h2.44a3.13,3.13,0,0,1,2.16.92c1.21,1.13,1.82,3.13,1.82,5.93,0,2.64-.62,4.53-1.85,5.63a3.69,3.69,0,0,1-2.7,1h-9v.66h6.58v3.23a2,2,0,0,1-.55,1.44C46.87,70.66,45.27,71.58,41.47,71.58Zm-3-13.1a4.06,4.06,0,0,0-2.64,1,3.23,3.23,0,0,0-.89,2.4v6a2.34,2.34,0,0,0,.61,1.72c.68.79,2.26,1.73,5.9,1.73h0c3.7,0,5.23-.87,5.86-1.6a1.7,1.7,0,0,0,.47-1.24v-3H41.21v-1.2h9.35a3.54,3.54,0,0,0,2.5-.9c1.17-1,1.76-2.87,1.76-5.42,0-2.72-.58-4.65-1.73-5.72a2.9,2.9,0,0,0-2-.85H48.94v3.09a4.33,4.33,0,0,1-1.08,2.93A3.8,3.8,0,0,1,45,58.48Zm6.61,11a1.32,1.32,0,0,1,0-2.64h0a1.32,1.32,0,0,1,0,2.64Zm0-2.37h0a1,1,0,0,0,0,2.09h0a1,1,0,1,0,0-2.09Z"/><path class="cls-21" d="M72.81,58.13a2.66,2.66,0,0,1-.18,1,2.23,2.23,0,0,1-1.3,1.3,2.82,2.82,0,0,1-1,.18H68.41v-5H70.3a2.82,2.82,0,0,1,1,.18,2.24,2.24,0,0,1,.79.51,2.29,2.29,0,0,1,.51.78A2.73,2.73,0,0,1,72.81,58.13Zm-.94,0a2.38,2.38,0,0,0-.11-.73,1.64,1.64,0,0,0-.31-.55,1.39,1.39,0,0,0-.49-.34,1.73,1.73,0,0,0-.66-.12h-1v3.48h1a1.94,1.94,0,0,0,.66-.11,1.42,1.42,0,0,0,.49-.35,1.55,1.55,0,0,0,.31-.55A2.33,2.33,0,0,0,71.87,58.13Z"/><path class="cls-21" d="M75.53,58.85a2.47,2.47,0,0,1-.11.75,1.63,1.63,0,0,1-.3.57,1.46,1.46,0,0,1-.51.37,2,2,0,0,1-.71.12l-.36,0a2.79,2.79,0,0,1-.38-.07l0-.55a.17.17,0,0,1,.06-.12.2.2,0,0,1,.14,0l.16,0,.23,0a1.23,1.23,0,0,0,.35,0,.64.64,0,0,0,.25-.18.79.79,0,0,0,.15-.32,1.73,1.73,0,0,0,0-.48V55.66h.93Z"/><path class="cls-21" d="M80.7,60.61H80a.32.32,0,0,1-.2-.06.33.33,0,0,1-.11-.15l-.37-1h-2l-.37,1a.36.36,0,0,1-.11.14.27.27,0,0,1-.2.07h-.71l1.94-5h.94Zm-3.21-1.87h1.58l-.6-1.65a2.56,2.56,0,0,1-.09-.26c0-.1-.07-.2-.1-.32,0,.12-.06.22-.09.32s-.06.19-.09.27Z"/><path class="cls-21" d="M81.79,55.66l.08,0,.06,0,.07.07,2.6,3.31a1.79,1.79,0,0,1,0-.23c0-.08,0-.15,0-.21v-3h.82v5h-.48a.34.34,0,0,1-.18,0,.31.31,0,0,1-.14-.12L82,57.15c0,.08,0,.15,0,.22v3.24h-.81v-5h.58Z"/><path class="cls-21" d="M88.66,59.93a2.12,2.12,0,0,0,.54-.06,2.07,2.07,0,0,0,.44-.15v-.9H89a.22.22,0,0,1-.14,0,.21.21,0,0,1,0-.12v-.52h1.65v2l-.39.24a3.29,3.29,0,0,1-.44.16,2.5,2.5,0,0,1-.49.1,5.17,5.17,0,0,1-.57,0,2.51,2.51,0,0,1-1-.19A2.47,2.47,0,0,1,86.8,60a2.29,2.29,0,0,1-.51-.8,2.61,2.61,0,0,1-.19-1,2.8,2.8,0,0,1,.18-1,2.3,2.3,0,0,1,1.32-1.32,2.83,2.83,0,0,1,1.07-.19,2.74,2.74,0,0,1,1,.18,2.34,2.34,0,0,1,.75.47l-.26.42a.26.26,0,0,1-.21.12.28.28,0,0,1-.17,0l-.22-.13a1.56,1.56,0,0,0-.26-.11,1.27,1.27,0,0,0-.31-.08,2.33,2.33,0,0,0-.4,0,1.76,1.76,0,0,0-.66.12,1.41,1.41,0,0,0-.51.35,1.85,1.85,0,0,0-.32.55,2.36,2.36,0,0,0-.11.72,2.2,2.2,0,0,0,.12.76,1.55,1.55,0,0,0,.34.57,1.41,1.41,0,0,0,.51.35A1.71,1.71,0,0,0,88.66,59.93Z"/><path class="cls-21" d="M96.09,58.13a2.56,2.56,0,0,1-.19,1,2.29,2.29,0,0,1-.51.8,2.16,2.16,0,0,1-.79.53,2.58,2.58,0,0,1-1,.19,2.66,2.66,0,0,1-1-.19,2.16,2.16,0,0,1-.79-.53,2.29,2.29,0,0,1-.51-.8,2.75,2.75,0,0,1-.18-1,2.79,2.79,0,0,1,.18-1,2.38,2.38,0,0,1,.51-.8,2.29,2.29,0,0,1,.79-.53,2.86,2.86,0,0,1,1-.19,2.77,2.77,0,0,1,1,.19,2.44,2.44,0,0,1,.79.53,2.38,2.38,0,0,1,.51.8A2.59,2.59,0,0,1,96.09,58.13Zm-1,0A2.38,2.38,0,0,0,95,57.4a1.49,1.49,0,0,0-.31-.55,1.31,1.31,0,0,0-.49-.34,1.82,1.82,0,0,0-1.3,0,1.35,1.35,0,0,0-.5.34,1.49,1.49,0,0,0-.31.55,2.11,2.11,0,0,0-.11.73,2.08,2.08,0,0,0,.11.73,1.41,1.41,0,0,0,.31.55,1.37,1.37,0,0,0,.5.35,2,2,0,0,0,1.3,0,1.33,1.33,0,0,0,.49-.35,1.41,1.41,0,0,0,.31-.55A2.33,2.33,0,0,0,95.14,58.13Z"/></g></g></svg>